<svg width="26" height="26" fill="none" xmlns="http://www.w3.org/2000/svg"><path fill-rule="evenodd" clip-rule="evenodd" d="M4.146 11.186c0-2.961 2.83-5.36 6.318-5.36 3.077 0 5.64 1.868 6.203 4.338h-.11c-3.2 0-5.793 2.201-5.793 4.91 0 .504.091.993.257 1.45a7.324 7.324 0 0 1-2.898-.36l.042.021-2.201 1.093.625-1.86c-1.487-.98-2.443-2.512-2.443-4.232zm8.36-.886a.911.911 0 0 0 .296-.048c.318-.104.544-.375.544-.69 0-.408-.376-.739-.84-.739-.463 0-.841.331-.841.739 0 .407.375.738.84.738zM8.451 8.827c-.465 0-.841.33-.841.738 0 .407.376.738.84.738a.911.911 0 0 0 .297-.047c.318-.105.544-.376.544-.691 0-.407-.375-.738-.84-.738zm2.775 6.253c0 2.499 2.386 4.522 5.328 4.522.66 0 1.293-.103 1.879-.29l1.694.93-.457-1.497c1.34-.82 2.212-2.157 2.212-3.665 0-2.496-2.385-4.521-5.328-4.521-2.942 0-5.328 2.023-5.328 4.521zm2.953-1.403c0-.341.316-.62.704-.62.39 0 .705.279.705.62 0 .266-.19.492-.458.58a.76.76 0 0 1-.247.04c-.388 0-.704-.278-.704-.62zm4.154-.62c-.389 0-.704.28-.704.62 0 .342.315.62.704.62.087 0 .17-.013.247-.039.268-.09.457-.315.457-.58 0-.342-.315-.62-.704-.62z" fill="#fff" opacity=".7"/></svg>