<svg width="314" height="193" fill="none" xmlns="http://www.w3.org/2000/svg"><path d="M159.174 99.78l-.008-.023-.007.022h.015zm-96.96 6.216l-22.963 8.102v1.056l22.39-7.906.572-1.252zm-.097 4.103l4.977-10.907h1.06l4.91 10.907h-.973l-1.608-3.495H64.68l-1.609 3.495h-.954zm8.046-4.195l-2.582-5.867-2.645 5.867h5.227zm24.029 4.195V99.192h5.992c.862 0 1.593.28 2.203.845.605.552.91 1.227.91 2.024 0 .7-.182 1.307-.55 1.82-.383.516-.854.816-1.419.9.524.123.947.51 1.27 1.158.324.649.487 1.436.487 2.356 0 .516.015.9.041 1.159.03.306.085.519.171.642h-.847c-.141-.149-.234-.417-.275-.81l-.063-1.562c0-.736-.205-1.368-.613-1.894-.394-.517-.884-.772-1.46-.772h-4.997v5.041h-.85zm5.847-5.721a2.45 2.45 0 0 0 1.716-.662c.465-.429.699-.955.699-1.581 0-.613-.234-1.139-.699-1.581-.479-.43-1.051-.642-1.716-.642h-4.997v4.469h4.997v-.003zm26.061 4.323c-1.129-1.117-1.694-2.465-1.694-4.047 0-1.581.565-2.936 1.694-4.066 1.114-1.116 2.47-1.674 4.064-1.674 1.311 0 2.422.306 3.325.92.903.599 1.46 1.409 1.672 2.426h-.847c-.156-.762-.628-1.391-1.419-1.894-.777-.504-1.687-.755-2.731-.755-1.356 0-2.511.49-3.473 1.471-.959.994-1.442 2.182-1.442 3.569 0 1.388.479 2.575 1.442 3.569.958.981 2.117 1.472 3.473 1.472 1.159 0 2.11-.294 2.857-.885.761-.587 1.192-1.374 1.293-2.355h.847c-.112 1.19-.628 2.139-1.546 2.852-.902.71-2.054 1.068-3.451 1.068-1.594 0-2.95-.555-4.064-1.671zm29.258 1.398l4.978-10.907h1.059l4.911 10.907h-.973l-1.609-3.495h-5.802l-1.609 3.495h-.955zm8.047-4.195l-2.582-5.867-2.645 5.867h5.227zm24.028-6.712h4.978c1.327 0 2.463.52 3.411 1.562.932 1.029 1.397 2.281 1.397 3.753 0 1.545-.465 2.862-1.397 3.956-.948 1.091-2.084 1.636-3.411 1.636h-4.978V99.192zm4.978 10.207c1.089 0 2.018-.478 2.794-1.436.776-.955 1.163-2.111 1.163-3.46 0-1.274-.387-2.358-1.163-3.256-.776-.893-1.709-1.342-2.794-1.342h-4.131v9.491h4.131v.003zm26.399.7V99.192h.847v10.907h-.847zm32.841-4.175l.561 1.252 22.409 8.229v-1.043l-22.97-8.438z" fill="#000"/><path d="M242.472 102.553l-63.868-23.457-13.686.232-3.239-.87-14.072.677-4.893-1.559-71.197 25.135.409.907 71.026-25.077 4.729 1.507 13.894-.668 2.374.636h15.023l2.006.997 61.085 22.434.409-.894zm-1.666 7.546l4.978-10.907h1.059l4.911 10.907h-.973l-1.609-3.495h-5.803l-1.608 3.495h-.955zm8.047-4.195l-2.582-5.867-2.645 5.867h5.227z" fill="#000"/></svg>