<svg width="101" height="78" viewBox="0 0 101 78" fill="none" xmlns="http://www.w3.org/2000/svg">
<path fill-rule="evenodd" clip-rule="evenodd" d="M76.4142 28.1376C73.0012 24.2246 69.8338 20.1422 66.931 15.9166L65.842 14.3319L64.804 12.7211L63.7666 11.109L62.7784 9.47383L61.7926 7.83625C61.5853 7.48313 61.3864 7.12632 61.1874 6.76946L61.1873 6.76926L61.1872 6.76905L61.1871 6.76885L61.1869 6.76864L61.1868 6.76844C61.0769 6.57119 60.9669 6.37392 60.8554 6.17726L59.923 4.5153L59.8068 4.30786L59.7771 4.25436L59.7356 4.17411L59.6526 4.01303L59.321 3.37048L58.6614 2.0931L57.6199 0.000793457C57.6199 0.000793457 57.4087 0.0453739 57.1453 0.0453739C56.882 0.0453739 56.6459 0.000793457 56.6459 0.000793457L54.7674 4.15925L54.2389 5.2482L55.3351 7.34408L55.395 7.45048L56.6044 4.80656L57.2272 3.30153L57.7296 4.23772L57.9336 4.66331L58.0339 4.87254L58.0588 4.92425L58.0706 4.94981L58.0985 5.00212L58.2112 5.21432L59.1158 6.91373C59.2244 7.11564 59.3316 7.31823 59.4388 7.52083L59.439 7.52124L59.4393 7.52174L59.4395 7.52209C59.6321 7.88628 59.8248 8.25048 60.0262 8.61076L60.9853 10.287L61.9486 11.9626L62.9623 13.6151L63.9766 15.2669L65.0436 16.8938C67.8871 21.2324 71.0065 25.4348 74.3838 29.475C75.5025 30.8136 76.6591 32.1278 77.8335 33.4296H81.2898C79.6153 31.7016 77.986 29.9398 76.4142 28.1376ZM41.1176 52.0859C41.1176 47.3212 37.8791 44.7825 34.4525 44.7825C30.4043 44.7825 28.0792 48.0291 28.0999 51.8987C28.0999 56.5797 31.0484 59.368 34.806 59.368C37.6086 59.368 41.1176 57.35 41.1176 52.0859ZM26.75 52.2527C26.75 47.8422 29.6777 43.9298 34.723 43.9298C39.3115 43.9298 42.4463 47.2799 42.4463 51.691C42.4463 56.5182 39.3732 60.2213 34.4946 60.2421C29.2418 60.2629 26.75 56.0189 26.75 52.2527ZM1.46065 52.1483C1.46065 52.2731 1.48201 52.3153 1.52353 52.3153C1.95949 52.3771 3.08052 52.4396 4.26384 52.4396C4.9074 52.4396 5.23956 52.3771 5.50944 52.1899C6.44364 51.5034 7.25328 50.3175 7.25328 48.7156C7.25328 46.5104 5.9454 44.9911 3.22584 44.9911C2.49865 44.9911 1.87585 45.0119 1.56505 45.0749C1.46065 45.1159 1.46065 45.1575 1.46065 45.2407V52.1483ZM0.278269 50.2553C0.278269 47.2803 0.236749 44.8664 0.0493164 44.2631C0.360716 44.2839 0.547556 44.2839 0.775916 44.2839C0.985142 44.2839 1.38979 44.2664 1.82882 44.2475C2.34939 44.2251 2.91831 44.2006 3.26711 44.2006C4.51331 44.2006 5.84194 44.3463 6.75538 44.9496C7.81414 45.6569 8.49981 46.926 8.49981 48.2991C8.49981 50.1512 7.69018 51.6283 5.98726 52.8356C6.28296 53.2158 6.58618 53.6111 6.89454 54.0131L6.89458 54.0132L6.89463 54.0133L6.8947 54.0134L6.8948 54.0135L6.89492 54.0136C8.03693 55.5025 9.24925 57.083 10.4097 58.3279C11.2609 59.2433 11.9045 59.7634 12.2574 59.8882C12.0705 59.972 11.6553 60.0136 11.2609 60.0136C10.5343 60.0136 10.0977 59.7848 9.16413 58.7856C8.39963 57.9757 7.157 56.3111 6.11329 54.9131L6.11321 54.913C5.68238 54.3358 5.28544 53.8041 4.97003 53.3967C4.88698 53.2927 4.8247 53.2511 4.70014 53.2511C4.26419 53.2725 2.54051 53.2511 1.52387 53.2303C1.461 53.2303 1.461 53.2725 1.461 53.3557V54.0416C1.461 56.7676 1.52387 59.0566 1.62767 59.909C1.48235 59.8882 1.19171 59.8882 0.962756 59.8882C0.692876 59.8882 0.278269 59.909 0.0914295 59.9506C0.194636 59.3265 0.278269 56.6427 0.278269 53.9168V50.2553ZM50.6355 66.0316C53.2156 66.0316 55.3017 68.0912 55.3017 71.3123C55.3017 75.1218 52.8758 76.4224 51.0216 76.4224C48.2712 76.4224 46.3399 74.254 46.3239 71.0026C46.3239 68.1376 47.9776 66.0316 50.6355 66.0316ZM50.9136 65.1644C46.9888 65.1644 44.8565 68.1376 44.8565 71.3432C44.8565 74.1304 46.6946 77.32 50.728 77.3051C54.4671 77.2897 56.7697 74.5174 56.7697 70.9402C56.7697 67.7043 54.4517 65.1644 50.9136 65.1644ZM10.4959 75.5245C10.4959 76.2057 10.4959 76.469 10.5113 76.6235C9.49172 77.0884 7.97743 77.3047 6.64819 77.3047C4.7015 77.3047 2.8159 76.6699 1.59521 75.323C0.730414 74.3939 0.0500793 72.9543 0.0500793 71.1574C0.0500793 68.6329 1.3022 67.116 2.44578 66.3409C4.03718 65.211 5.82966 65.1646 6.88011 65.1646C8.40079 65.1646 9.69063 65.5472 10.327 65.7359L10.3272 65.736C10.4796 65.7812 10.5945 65.8153 10.6661 65.8303C10.6039 66.0627 10.4959 66.8057 10.4959 67.3484C10.1406 66.93 8.8274 66.0782 6.40145 66.0782C5.19559 66.0782 3.99032 66.4033 3.07866 67.2088C2.22928 67.9518 1.56437 69.2369 1.56437 70.8477C1.56437 72.6285 2.21386 73.9137 2.98613 74.6876C4.22224 76.0202 5.93761 76.3454 7.0195 76.3454C7.74551 76.3454 8.67259 76.2211 9.10499 75.9733C9.15185 75.9424 9.16727 75.8336 9.16727 75.493V73.5421C9.16727 72.7219 9.07415 71.6377 8.98162 71.2965C9.19752 71.3125 9.49172 71.3125 9.72364 71.3125C10.156 71.3125 10.4034 71.2965 10.5884 71.2656C10.5428 71.6531 10.4959 72.8604 10.4959 73.8982V75.5245ZM26.0309 71.142C26.0309 71.2347 26.0463 71.2656 26.0778 71.2811C26.3862 71.3429 27.1591 71.3899 27.9782 71.3899C28.426 71.3899 28.6734 71.3429 28.8744 71.2032C29.4925 70.7544 30.0489 69.949 30.0489 68.8345C30.0489 67.1934 28.9978 66.1864 27.2213 66.1864C26.7421 66.1864 26.3097 66.2019 26.0926 66.2483C26.0309 66.2637 26.0309 66.2946 26.0309 66.357V71.142ZM24.7323 69.8716C24.7323 67.6569 24.702 65.9075 24.5472 65.3963C24.826 65.4272 25.0265 65.4272 25.2584 65.4272C25.391 65.4272 25.6868 65.4159 26.0238 65.403L26.0243 65.403L26.0248 65.403L26.0252 65.4029H26.0253L26.0256 65.4029C26.472 65.3858 26.9903 65.366 27.2982 65.366C28.3487 65.366 29.3374 65.5045 30.0017 65.923C30.8055 66.4342 31.3772 67.3478 31.3772 68.4623C31.3772 69.8098 30.7438 70.894 29.4922 71.7612C29.6445 71.9639 29.8001 72.1725 29.9583 72.3845C30.8271 73.5491 31.7734 74.8176 32.6756 75.7871C33.3245 76.5153 33.8032 76.9177 34.0968 77.0413C33.8963 77.1192 33.4633 77.1346 33.0926 77.1346C32.3969 77.1346 32.0261 76.9331 31.3927 76.2674C30.7585 75.6319 29.7974 74.2805 29.0551 73.2369L29.055 73.2368L29.055 73.2367C28.8025 72.8817 28.5753 72.5623 28.3949 72.3188C28.3332 72.2409 28.271 72.21 28.1938 72.21C27.8694 72.226 26.7573 72.21 26.0775 72.1945C26.0307 72.1945 26.0307 72.226 26.0307 72.2873V72.7675C26.0307 74.719 26.0923 76.391 26.17 77.0722C26.0307 77.0413 25.7525 77.0413 25.4903 77.0413C25.2115 77.0413 24.7483 77.0568 24.5781 77.0883C24.6712 76.5616 24.7323 74.6108 24.7323 72.597V69.8716ZM70.4051 65.4272C70.8375 65.4272 71.1927 65.4118 71.3784 65.3809C71.3167 65.8611 71.255 67.6729 71.255 69.8716V72.0239C71.255 74.0681 71.7034 74.8735 72.3518 75.4774C73.0784 76.1741 74.0363 76.2829 74.7629 76.2829C75.458 76.2829 76.416 76.0974 77.0032 75.4465C77.7909 74.6108 77.9771 73.4802 77.9771 71.6988V69.8716C77.9771 67.6568 77.884 65.9539 77.8069 65.3963C77.9771 65.4272 78.2701 65.4272 78.4249 65.4272C78.7494 65.4272 79.0893 65.3963 79.1664 65.3809C79.1047 65.8611 79.0276 67.6729 79.0276 69.8716V71.6679C79.0276 73.4802 78.8573 75.1832 77.5595 76.3292C76.6319 77.1495 75.4426 77.3046 74.423 77.3046C73.3565 77.3046 72.0736 77.0413 71.2396 76.2674C70.4667 75.5398 69.9258 74.5329 69.9258 72.3033V69.8716C69.9258 67.6568 69.8641 65.7839 69.7716 65.3963C69.9104 65.4272 70.1731 65.4272 70.4051 65.4272ZM93.2338 65.4118C93.3269 65.9539 93.3886 67.6568 93.3886 69.8716V72.5969C93.3886 74.6108 93.3269 76.4838 93.2652 77.0883C93.404 77.0568 93.837 77.0413 94.0998 77.0413C94.3317 77.0413 94.6401 77.0413 94.8258 77.0722C94.7641 76.4065 94.7024 74.5484 94.7024 72.6439V66.5269C94.7024 66.2636 94.7024 66.2327 94.7795 66.2172C94.8874 66.1702 95.3821 66.1399 95.7226 66.1399C96.448 66.1399 97.1283 66.2945 97.5607 66.6048C98.2873 67.0226 98.7043 67.7811 98.7043 68.8029C98.7043 70.5843 97.3757 71.2809 95.9077 71.3428C95.9598 71.4751 96.0464 71.7987 96.0995 71.9968L96.1236 72.0864C98.3336 72.1012 100.049 70.7543 100.049 68.5704C100.049 67.5487 99.5697 66.7587 99.1836 66.3872C98.5347 65.7993 97.7464 65.3809 95.9077 65.3809C95.3901 65.3809 94.8891 65.3975 94.4874 65.4108H94.4872L94.4868 65.4108H94.4865H94.4863H94.4862L94.4858 65.4109H94.4855H94.4854H94.4852L94.4848 65.4109H94.4846H94.4844H94.4843C94.2157 65.4198 93.9916 65.4272 93.837 65.4272C93.6205 65.4272 93.404 65.4272 93.2338 65.4118ZM17.5455 52.8557C17.7116 53.1054 17.7946 53.4799 17.7946 53.9798C17.7946 57.3292 17.7324 59.3062 17.6493 59.9506C17.7946 59.909 18.3344 59.8887 18.4797 59.8887C18.6873 59.8887 19.0195 59.8887 19.144 59.909C19.0818 59.1392 18.9987 56.7467 18.9987 54.0006C18.9987 53.4597 19.1233 53.1268 19.3101 52.7523C19.8914 51.5659 22.2379 47.6131 22.7978 46.7185C23.1513 46.1562 24.1063 44.6589 24.4592 44.2422C24.3554 44.263 23.8779 44.2838 23.5042 44.2838C23.3797 44.2838 23.1721 44.2838 22.9846 44.263C22.8393 44.6589 22.3832 45.5321 22.0925 46.0522C21.7236 46.7202 20.5225 48.8235 19.5796 50.4748L19.5796 50.4748L19.5786 50.4765C19.141 51.2428 18.7591 51.9116 18.542 52.294C18.3005 51.9435 17.2023 50.0722 16.252 48.4531L16.252 48.453L16.2519 48.4528L16.2518 48.4527L16.2516 48.4524C15.5682 47.288 14.9615 46.2542 14.8052 46.0106C14.747 45.8994 14.6673 45.7533 14.5788 45.591L14.5787 45.5909C14.3193 45.1152 13.9842 44.5008 13.8918 44.222C13.7464 44.263 13.1853 44.2838 12.8739 44.2838C12.5418 44.2838 12.314 44.2838 12.085 44.263C12.6248 44.7831 13.476 46.0522 13.8704 46.6561C14.5561 47.7171 16.985 51.8369 17.5455 52.8557ZM47.3101 44.2214C47.1446 44.2624 46.7294 44.2838 46.3765 44.2838C46.1066 44.2838 45.7745 44.2838 45.5669 44.2624C45.9405 44.9079 46.5218 46.4682 46.9578 47.8419L50.4662 59.3888C50.504 59.4918 50.5372 59.584 50.5667 59.6662C50.7167 60.0826 50.774 60.2418 50.8607 60.2418C50.978 60.2418 51.0761 59.9856 51.2592 59.5074L51.2966 59.4096C51.8539 57.9382 53.0594 54.672 54.1508 51.7147L54.1521 51.7111L54.1542 51.7056L54.155 51.7035L54.1552 51.7029L54.1567 51.6986L54.1573 51.697C54.8534 49.8109 55.5025 48.0523 55.9065 46.9675L60.0378 59.6177C60.0559 59.6631 60.0736 59.7085 60.0909 59.753L60.091 59.7533C60.1926 60.0142 60.2813 60.2418 60.3699 60.2418C60.4737 60.2418 60.5775 60.0754 60.7644 59.5553C62.1968 55.3938 64.2105 49.5889 64.5842 48.5279C65.4969 45.7449 65.9737 44.7471 66.2082 44.2561L66.2248 44.2214C65.9965 44.2624 65.726 44.2838 65.3114 44.2838C65.1661 44.2838 64.8748 44.2838 64.7093 44.2624C64.6257 44.9079 64.3564 46.0522 63.6506 48.2164C63.0226 50.2317 62.1111 52.8656 61.3729 54.9985L61.3727 54.9991L61.3726 54.9994C61.0364 55.9707 60.7363 56.838 60.5152 57.4957L56.4042 44.9911C56.2796 44.6583 56.1758 44.3878 56.0928 44.3878C56.029 44.3878 55.9893 44.475 55.8881 44.6975C55.8585 44.7626 55.8237 44.8393 55.7814 44.9287L51.1513 57.4957C51.0686 57.2224 50.8728 56.585 50.6175 55.7538L50.6175 55.7537L50.6167 55.7514C49.7834 53.0388 48.3171 48.2658 48.0788 47.342C47.7259 46.1146 47.4145 44.8247 47.3101 44.2214ZM70.6626 50.2554C70.6626 47.2804 70.621 44.9706 70.4757 44.2632C70.6833 44.2846 70.974 44.2846 71.14 44.2846C71.4307 44.2846 71.7628 44.2632 71.9912 44.2222C71.9289 44.9706 71.8666 47.1764 71.8666 50.1728V50.6299C71.8666 50.6715 71.8868 50.6929 71.9289 50.6929H81.4791C81.5414 50.6929 81.5414 50.6715 81.5414 50.6299V50.1728C81.5414 47.1972 81.4791 44.9706 81.3967 44.2632C81.6244 44.2846 81.8528 44.2846 82.061 44.2846C82.268 44.2846 82.6624 44.2632 82.8908 44.2222C82.8077 44.929 82.7455 47.3012 82.7455 50.2554V53.9176C82.7455 56.6637 82.8291 59.14 82.8908 59.9098C82.6838 59.889 82.4347 59.889 82.2478 59.889C82.0396 59.889 81.5414 59.9306 81.3967 59.9514C81.4999 59.1816 81.5414 56.6435 81.5414 53.9176V51.7123C81.5414 51.6499 81.5206 51.6285 81.4791 51.6285H71.9082C71.8868 51.6285 71.8666 51.6701 71.8666 51.7123V53.9176C71.8666 56.6637 71.9289 59.14 72.012 59.9098C71.8453 59.889 71.5962 59.889 71.4093 59.889C71.1608 59.889 70.8079 59.9098 70.5166 59.9514C70.5997 59.1608 70.6626 56.6435 70.6626 53.9176V50.2554ZM95.7095 52.8557C95.7302 52.9175 95.7095 52.9389 95.668 52.9389H90.5604C90.5195 52.9389 90.4981 52.9175 90.5195 52.8557L93.0107 46.1769L95.7095 52.8557ZM90.1876 53.8546C90.2077 53.813 90.2285 53.7922 90.2908 53.7922H95.9589C96.0211 53.7922 96.0419 53.813 96.0627 53.8546C96.248 54.3213 96.4647 54.8618 96.6912 55.4268L96.6915 55.4274C97.4042 57.205 98.2139 59.2247 98.4506 59.9509C98.6161 59.9092 99.0112 59.8884 99.3842 59.8884C99.4885 59.8884 99.603 59.8937 99.7173 59.8989L99.7176 59.8989C99.8315 59.9041 99.9453 59.9092 100.049 59.9092C99.6032 59.1779 98.4836 56.4827 97.5619 54.2637L97.5614 54.2625L97.5611 54.2619L97.4957 54.1043C96.2471 51.0876 94.8843 47.8622 94.1274 46.0709L94.1273 46.0707L94.1272 46.0704C93.8141 45.3294 93.6048 44.8339 93.5501 44.7002C93.3016 44.0969 93.2179 43.9298 93.1355 43.9298C93.0317 43.9298 92.9273 44.1801 92.7203 44.7002L88.63 55.2485C87.9657 57.0377 87.2385 58.8482 86.7195 59.9509C86.8654 59.9092 87.28 59.8884 87.5297 59.8884H87.5299C87.8411 59.8884 87.9449 59.8884 88.1317 59.9092C88.3011 59.1997 88.9725 57.3008 89.5879 55.5604C89.8025 54.9535 90.0103 54.3658 90.1876 53.8546ZM56.2398 11.0431L58.177 14.3087C60.8212 18.6336 63.7092 22.8402 66.8273 26.9077C68.5285 29.1261 70.3049 31.298 72.1407 33.4296H68.7812C67.3801 31.6891 66.0207 29.9244 64.7075 28.1334C61.6391 23.9482 58.8116 19.6298 56.2362 15.2015L54.3518 11.8598L53.7895 10.7976L52.6044 8.55667L52.5635 8.4788L50.8718 5.06037C50.8057 4.92883 50.7868 4.88547 50.7673 4.84094C50.7605 4.82551 50.7537 4.80994 50.7449 4.79051L50.6583 4.59495L50.4803 4.19492L50.1102 3.36334L50.0865 3.31639L49.364 4.95041L48.1475 7.43264L47.9779 7.10632L47.0775 5.26425L47.5864 4.2823L49.6393 0.000793457C49.6393 0.000793457 49.8747 0.041213 50.0918 0.041213C50.3095 0.041213 50.5225 0.000793457 50.5225 0.000793457L52.6447 4.3881L53.6886 6.38471L54.3951 7.73579L54.866 8.58044L56.2398 11.0431ZM44.0556 15.0901L45.8279 11.9124L45.819 11.8958L45.8148 11.8869L45.8101 11.878L44.7264 9.66795L44.0259 10.9376L42.1083 14.2039C39.4908 18.5311 36.6342 22.7437 33.5487 26.8195C31.8475 29.0676 30.0693 31.2686 28.2311 33.4299H31.5824C32.9917 31.6574 34.3583 29.8587 35.678 28.0351C38.712 23.8421 41.508 19.5196 44.0556 15.0901ZM35.6891 16.1427C35.5628 16.3363 35.4365 16.5298 35.3112 16.7238C32.4932 21.0713 29.4029 25.2862 26.0552 29.3406C24.9128 30.725 23.7313 32.0838 22.5296 33.4296H19.0858C20.7804 31.6618 22.427 29.8578 24.016 28.0139C27.4005 24.0855 30.5405 19.9906 33.4179 15.7549C33.5451 15.567 33.6733 15.3795 33.8016 15.1921C34.0351 14.8509 34.2686 14.5097 34.4956 14.1655L35.5265 12.5517L36.5556 10.9373L37.5349 9.29848L38.5142 7.65971L39.4406 5.99716L40.3677 4.33401L41.6685 1.80422L42.5612 0.000793457C42.5612 0.000793457 42.8334 0.041213 43.0458 0.041213C43.2581 0.041213 43.5108 0.000793457 43.5108 0.000793457L45.416 4.18422L46.4949 6.38887L47.0263 7.47604L47.588 8.56083L48.7156 10.7358L49.5282 12.2182L48.817 13.5295C48.6985 13.7416 48.5784 13.9535 48.4583 14.1654L48.2939 14.4555L46.766 11.5162L46.4154 10.8005L45.327 8.58104L45.1354 8.19051L43.5861 4.83509L42.9503 3.31282L42.5024 4.15153L42.0825 5.02709L41.1833 6.72709L40.2841 8.42768L39.3315 10.1057L38.3777 11.7837L37.3735 13.4385L36.3664 15.0927C36.1447 15.4449 35.9169 15.7938 35.6892 16.1427L35.6891 16.1427ZM51.9714 16.5346C51.5568 17.3008 51.1351 18.064 50.7074 18.826C52.4145 21.8135 54.2165 24.7594 56.1246 27.6536C57.4094 29.6026 58.7421 31.5279 60.1171 33.43H63.3965C61.6444 31.1594 59.9492 28.8537 58.3281 26.507C56.0784 23.2502 53.962 19.9215 51.9714 16.5346ZM51.3718 15.4978C50.9596 16.267 50.5456 17.0361 50.1209 17.8005C48.2756 21.1197 46.3106 24.3883 44.2233 27.5981C42.9439 29.565 41.617 31.5087 40.2475 33.4298H36.9787C38.7177 31.1432 40.4011 28.822 42.0103 26.461C44.4469 22.8857 46.7246 19.2247 48.8557 15.4972C48.9582 15.318 49.0615 15.1391 49.1647 14.9602C49.3638 14.6153 49.563 14.2702 49.7567 13.9226L50.1073 13.2753L51.5041 10.6998L52.0391 9.65778L53.2337 11.9165L51.7698 14.7649C51.6987 14.8993 51.6255 15.0327 51.5523 15.1662C51.4917 15.2766 51.4312 15.387 51.3718 15.4978Z" fill="white"/>
</svg>
