<svg width="168" height="120" viewBox="0 0 168 120" fill="none" xmlns="http://www.w3.org/2000/svg">
<path d="M85.2024 62.3877L85.1985 62.3738L85.1945 62.3877H85.2024Z" fill="white"/>
<path d="M33.1196 66.2318L20.7854 71.2426V71.8951L32.8123 67.0061L33.1196 66.2318Z" fill="white"/>
<path d="M33.0676 68.7694L35.7416 62.0245H36.3103L38.9484 68.7694H38.4256L37.5615 66.6083H34.4445L33.5805 68.7694H33.0676ZM37.3899 66.1752L36.003 62.5474L34.5822 66.1752H37.3899Z" fill="white"/>
<path d="M50.297 68.7694V62.0245H53.5158C53.9787 62.0245 54.3718 62.1981 54.6991 62.5474C55.0244 62.8886 55.188 63.3057 55.188 63.7986C55.188 64.2316 55.0902 64.6067 54.8927 64.924C54.6871 65.2433 54.4337 65.4289 54.1304 65.4808C54.4117 65.5566 54.6392 65.7961 54.8128 66.1972C54.9864 66.5983 55.0742 67.0852 55.0742 67.6539C55.0742 67.9732 55.0822 68.2107 55.0962 68.3703C55.1122 68.5599 55.1421 68.6916 55.188 68.7674H54.733C54.6572 68.6756 54.6073 68.51 54.5853 68.2665L54.5514 67.3007C54.5514 66.8457 54.4417 66.4546 54.2222 66.1293C54.0106 65.81 53.7472 65.6524 53.4379 65.6524H50.754V68.7694H50.297ZM53.4379 65.2313C53.7951 65.2313 54.1004 65.0956 54.3599 64.8223C54.6093 64.5569 54.735 64.2316 54.735 63.8445C54.735 63.4653 54.6093 63.14 54.3599 62.8666C54.1024 62.6012 53.7951 62.4695 53.4379 62.4695H50.754V65.2333H53.4379V65.2313Z" fill="white"/>
<path d="M67.4367 67.9048C66.8301 67.2144 66.5267 66.3803 66.5267 65.4025C66.5267 64.4246 66.8301 63.5865 67.4367 62.8881C68.0353 62.1976 68.7637 61.8524 69.6198 61.8524C70.3242 61.8524 70.9208 62.042 71.4058 62.4211C71.8907 62.7923 72.19 63.2932 72.3037 63.9218H71.8488C71.7649 63.4508 71.5115 63.0617 71.0865 62.7504C70.6694 62.4391 70.1805 62.2835 69.6198 62.2835C68.8914 62.2835 68.2708 62.5868 67.754 63.1934C67.2391 63.808 66.9797 64.5424 66.9797 65.4005C66.9797 66.2585 67.2371 66.9929 67.754 67.6075C68.2688 68.2141 68.8914 68.5175 69.6198 68.5175C70.2424 68.5175 70.7532 68.3359 71.1543 67.9707C71.5634 67.6075 71.7949 67.1206 71.8488 66.514H72.3037C72.2439 67.2503 71.9665 67.837 71.4736 68.278C70.9887 68.717 70.3701 68.9385 69.6198 68.9385C68.7637 68.9385 68.0353 68.5953 67.4367 67.9048Z" fill="white"/>
<path d="M83.1531 68.7694L85.8271 62.0245H86.3958L89.0338 68.7694H88.511L87.647 66.6083H84.53L83.6659 68.7694H83.1531ZM87.4753 66.1752L86.0885 62.5474L84.6677 66.1752H87.4753Z" fill="white"/>
<path d="M100.382 62.0245H103.056C103.769 62.0245 104.379 62.3458 104.888 62.9904C105.389 63.6269 105.638 64.4012 105.638 65.3112C105.638 66.267 105.389 67.0812 104.888 67.7577C104.379 68.4322 103.769 68.7694 103.056 68.7694H100.382V62.0245ZM103.056 68.3364C103.641 68.3364 104.14 68.041 104.557 67.4484C104.974 66.8577 105.181 66.1433 105.181 65.3092C105.181 64.5209 104.974 63.8504 104.557 63.2957C104.14 62.7429 103.639 62.4655 103.056 62.4655H100.837V68.3344H103.056V68.3364Z" fill="white"/>
<path d="M117.236 68.7694V62.0245H117.691V68.7694H117.236Z" fill="white"/>
<path d="M134.877 66.1874L135.178 66.9617L147.215 72.0503V71.4057L134.877 66.1874Z" fill="white"/>
<path d="M129.946 64.1028L95.6396 49.5973L88.2882 49.741L86.5481 49.2022L78.9891 49.6212L76.361 48.6574L38.1171 64.2005L38.3366 64.7613L76.4887 49.2541L79.029 50.186L86.4922 49.7729L87.7674 50.166H95.8372L96.9148 50.7826L129.727 64.6555L129.946 64.1028Z" fill="white"/>
<path d="M129.052 68.7694L131.726 62.0245H132.294L134.933 68.7694H134.41L133.546 66.6083H130.429L129.565 68.7694H129.052ZM133.374 66.1752L131.987 62.5474L130.566 66.1752H133.374Z" fill="white"/>
</svg>
