<svg width="84" height="84" viewBox="0 0 84 84" fill="none" xmlns="http://www.w3.org/2000/svg">
<path d="M26.4727 15.6106C26.4692 15.6106 26.4692 15.6106 26.4727 15.6106C26.2743 15.6037 25.7557 15.5723 25.5468 15.5723C25.2545 15.5723 24.614 15.5827 24.2694 15.5827C24.0467 15.5827 23.4062 15.6211 22.992 15.6211C22.6927 15.6211 22.0557 15.6281 21.7146 15.6281C21.377 15.6281 20.7365 15.6211 20.4372 15.6211C20.0926 15.6211 18.6446 15.6106 18.474 15.6071C18.3244 15.6037 16.1698 15.5688 16.0236 15.5723C15.8496 15.5758 14.6662 15.6211 14.4643 15.6281C14.4643 15.6281 13.4827 15.7606 13.4305 16.2837V16.2872C13.4305 16.3012 13.4305 16.3151 13.4305 16.3291C13.4305 16.6883 13.3539 16.915 13.2773 17.0999L13.2808 17.2603C13.347 17.4416 13.4027 18.3938 13.3922 18.5228C13.3818 18.603 13.3504 19.2796 13.333 19.4052C13.3226 19.4749 13.3122 19.9876 13.3156 20.0888C13.3191 20.2004 13.3191 20.3085 13.3191 20.5282C13.3191 20.7793 13.2808 21.2013 13.2808 21.3687C13.2808 21.3896 13.2808 21.4036 13.2843 21.4175L13.2982 21.4594C13.3644 21.6408 13.4375 21.8605 13.4375 22.2092C13.4375 22.4673 13.3435 23.559 13.2913 23.7333C13.2704 23.8031 13.2773 24.117 13.2878 24.1902C13.3052 24.3262 13.3226 24.4588 13.3226 24.7273C13.3226 24.9226 13.3365 25.3411 13.3365 25.5678C13.3365 25.7841 13.3296 26.2026 13.3296 26.4049C13.3296 26.5444 13.3957 26.9838 13.3957 27.2454C13.3957 27.5523 13.2843 27.9952 13.2843 28.0859C13.2843 28.1068 13.2843 28.1243 13.2878 28.1382L13.3052 28.1801C13.3644 28.344 13.427 28.5428 13.4375 28.8427C13.4375 28.8671 13.4375 28.895 13.4375 28.9229C13.4375 29.2089 13.3678 29.6274 13.3678 29.76C13.3678 29.9239 13.3748 30.0076 13.3852 30.0878C13.3992 30.2134 13.4027 30.9528 13.3957 31.0713C13.3887 31.162 13.3852 31.7444 13.3887 31.8456C13.3887 31.9537 13.3922 32.0618 13.3922 32.2781C13.3922 32.5292 13.3539 32.9477 13.3539 33.1186C13.3539 33.3941 13.2704 33.837 13.2704 33.9591C13.2704 34.0323 13.2704 34.0358 13.2948 34.1056C13.347 34.28 13.4235 35.396 13.4235 35.6367C13.4235 35.9122 13.3435 36.3516 13.3435 36.4772C13.3435 36.7074 13.3226 37.1294 13.3226 37.3177C13.3226 37.5514 13.3156 37.6665 13.3122 37.7815C13.6115 37.7815 14.2868 37.7885 14.6209 37.7885C15.0177 37.7885 15.7278 37.806 16.041 37.806C16.3613 37.806 17.0713 37.792 17.4577 37.792C17.8406 37.792 18.5506 37.8025 18.8778 37.8025C19.1946 37.8025 19.9081 37.7885 20.2979 37.7885C20.2979 37.7885 22.2332 37.785 22.4038 37.785C22.5882 37.785 23.7264 37.785 23.9214 37.792C24.078 37.7955 25.0317 37.7955 25.1918 37.792C25.3867 37.7885 26.5702 37.7885 26.7686 37.792C26.8834 37.7955 26.9983 37.7955 27.1758 37.799C27.6248 37.6665 27.7606 37.4188 27.8023 37.3107C27.8023 37.227 27.7989 37.1642 27.7954 37.1015C27.7919 36.9864 27.7884 36.3377 27.7919 36.2435C27.7919 36.2191 27.7919 36.1982 27.7919 36.1772C27.7954 36.0726 27.7989 35.7029 27.7745 35.6367C27.7084 35.4483 27.6457 35.2391 27.6457 34.8938C27.6457 34.6008 27.7432 34.1405 27.7432 34.0219C27.7432 33.7498 27.7641 33.5964 27.7919 33.436C27.8023 33.3662 27.8163 33.0837 27.7919 33.0174C27.7293 32.8326 27.6875 31.8595 27.7049 31.72C27.7153 31.6433 27.7188 31.1411 27.7118 31.0539C27.7014 30.9249 27.684 30.2483 27.6805 30.1506C27.6736 30.0285 27.6422 29.0415 27.6422 28.7974C27.6422 28.5219 27.6979 28.0859 27.6979 27.9255C27.6979 27.7197 27.6875 27.2838 27.6875 27.0536C27.6875 26.8025 27.7188 26.3665 27.7188 26.1817C27.7188 25.9829 27.7014 25.5469 27.7014 25.3098C27.7014 25.0412 27.771 24.3576 27.7467 24.2879C27.6875 24.1065 27.6318 23.9007 27.6318 23.5694C27.6318 23.2974 27.684 22.8614 27.684 22.6975C27.684 22.3871 27.7258 22.1988 27.771 22.0279C27.7919 21.9512 27.7884 21.6547 27.771 21.571C27.7397 21.4106 27.7745 20.2352 27.7745 20.0853C27.7745 19.9667 27.6805 19.5063 27.6805 19.2168C27.6805 19.0111 27.6701 18.5751 27.6701 18.3484C27.6701 18.1601 27.6422 17.7241 27.6422 17.48C27.6422 17.1836 27.677 17.0092 27.7153 16.8383C27.7327 16.7581 27.7362 16.4791 27.7293 16.4302C27.6666 15.9489 26.6468 15.6839 26.4727 15.6106Z" fill="white"/>
<path d="M26.1766 40.5724C26.1175 40.5724 26.0513 40.5724 25.9782 40.5724C25.658 40.5724 25.5014 40.5759 25.3413 40.5794C25.1463 40.5829 24.9514 40.5863 24.5581 40.5863C24.1648 40.5863 23.9664 40.5829 23.7715 40.5794C23.6148 40.5759 23.4547 40.5724 23.138 40.5724C22.7934 40.5724 22.6228 40.5724 22.4488 40.5759C22.2643 40.5759 22.0833 40.5794 21.7178 40.5794H20.2977C19.981 40.5794 19.8209 40.5829 19.6608 40.5863C19.4658 40.5898 19.2674 40.5933 18.8776 40.5933C18.4982 40.5933 18.3068 40.5898 18.1153 40.5898C17.9517 40.5863 17.7846 40.5863 17.4575 40.5863C17.1372 40.5863 16.9771 40.5898 16.817 40.5933C16.6221 40.5968 16.4272 40.6003 16.0408 40.6003C15.6405 40.6003 15.4421 40.5968 15.2437 40.5898C15.0871 40.5863 14.9339 40.5829 14.6207 40.5829C14.2448 40.5829 14.0568 40.5794 13.8689 40.5794C13.7366 40.5794 13.5974 40.5759 13.3816 40.5759C13.3816 40.6073 13.385 40.6317 13.385 40.6666C13.385 40.8514 13.3885 40.9456 13.3955 41.0362C13.4024 41.1548 13.3746 41.964 13.3363 42.1279C13.3189 42.2081 13.3119 42.236 13.3119 42.3441C13.3119 42.4208 13.3154 42.4313 13.3363 42.5045C13.385 42.6754 13.4094 43.631 13.3885 43.7496C13.3781 43.8194 13.3676 43.8856 13.3676 44.0217C13.3676 44.2449 13.3572 44.6634 13.3572 44.8587C13.3572 44.9877 13.3641 45.0331 13.3816 45.1168C13.4024 45.2388 13.4129 46.1177 13.3955 46.2363C13.385 46.3096 13.3746 46.3863 13.3746 46.5328C13.3746 46.6827 13.4303 47.1012 13.4303 47.3698C13.4303 47.5965 13.4268 47.7116 13.4198 47.8267C13.4164 47.9208 13.3537 48.7439 13.2945 48.9253C13.2736 48.9881 13.2736 48.9881 13.2736 49.0473C13.2736 49.2392 13.2876 49.6612 13.2876 49.8844C13.2876 50.1041 13.2771 50.5261 13.2771 50.7214C13.2771 50.7772 13.2771 50.7772 13.298 50.8365C13.3607 51.0179 13.4233 51.2271 13.4233 51.5619C13.4233 51.8479 13.392 52.0188 13.3537 52.1827C13.3363 52.263 13.3015 52.8524 13.2806 52.9744C13.2702 53.0407 13.2597 53.2988 13.2771 53.3616C13.3398 53.5429 13.399 53.7487 13.399 54.08C13.399 54.352 13.3781 54.502 13.3607 54.6241C13.3502 54.6973 13.3467 55.1751 13.3537 55.2588C13.3641 55.3844 13.3746 55.5065 13.3746 55.7541C13.3746 55.9389 13.3955 56.3574 13.3955 56.5911C13.3955 56.7725 13.4024 56.8631 13.4059 56.9538C13.4129 57.0724 13.4198 57.191 13.4198 57.4281C13.4198 57.6967 13.3641 58.1152 13.3641 58.2652C13.3641 58.464 13.3676 58.5651 13.3676 58.6628C13.3711 58.7709 13.3641 59.4649 13.3537 59.587C13.3467 59.6742 13.3398 59.7649 13.3398 59.9392C13.3398 60.1311 13.3537 60.4729 13.3537 60.5775C13.4094 60.5775 13.4581 60.5775 13.5243 60.5775C13.8967 60.5775 14.0812 60.581 14.2657 60.581C14.4258 60.5845 15.5117 60.5914 15.7101 60.5949C15.8598 60.5984 16.0095 60.6019 16.3088 60.6019C16.6186 60.6019 17.3148 60.5879 17.7011 60.5879C18.077 60.5879 18.265 60.5914 18.4529 60.5949C18.6131 60.5984 19.5528 60.5949 19.706 60.5949C19.9009 60.5914 20.0958 60.5879 20.4857 60.5879L21.878 60.5845C22.2121 60.5845 22.9083 60.581 23.2702 60.581C23.6601 60.581 23.855 60.5845 24.0534 60.5879C24.2066 60.5914 27.1443 60.5984 27.4436 60.5984C27.562 60.5984 27.6525 60.5984 27.7325 60.5984C27.7325 60.5287 27.7325 60.4763 27.736 60.4205C27.7395 60.3194 27.7395 60.2183 27.7395 60.016C27.7395 59.873 27.729 59.8032 27.7151 59.7335C27.6942 59.6114 27.6699 59.4579 27.6699 59.1824C27.6699 58.8825 27.7151 58.6976 27.7604 58.5337C27.7812 58.4605 27.7882 58.4396 27.7882 58.3489C27.7882 58.3245 27.7882 58.307 27.7847 58.2896L27.7673 58.2408C27.6977 58.0559 27.6281 57.8501 27.6281 57.5118C27.6281 57.2293 27.6559 57.0689 27.6768 56.9503C27.6873 56.8841 27.7012 56.8143 27.7012 56.6783C27.7012 56.5144 27.6942 56.4307 27.6838 56.347C27.6699 56.2214 27.6664 55.4925 27.6733 55.3774C27.6803 55.2867 27.6838 55.1961 27.6838 55.0112L27.6803 54.6066C27.6803 54.4985 27.6873 53.808 27.7012 53.6859C27.7081 53.6022 27.7186 53.515 27.7186 53.3476C27.7186 53.0546 27.7534 52.8838 27.7812 52.7582C27.7986 52.6745 27.8056 52.6361 27.8056 52.5106C27.8056 52.4338 27.8021 52.4234 27.7812 52.3536C27.7256 52.1827 27.6733 51.9909 27.6733 51.677C27.6733 51.4957 27.6664 51.405 27.6629 51.3143C27.6559 51.1957 27.6803 50.3831 27.7047 50.2576C27.7221 50.1739 27.729 50.132 27.729 50.0064C27.729 49.7763 27.7499 49.3612 27.7499 49.1729C27.7499 48.9427 27.7708 48.5242 27.7708 48.3394C27.7708 48.1161 27.7882 47.6976 27.7882 47.5058C27.7882 47.314 27.7847 47.2198 27.7812 47.1257C27.7778 47.0106 27.7708 46.899 27.7708 46.6723C27.7708 46.5502 27.6838 46.1317 27.6838 45.8387C27.6838 45.6539 27.6768 45.5597 27.6733 45.469C27.6664 45.3539 27.6594 45.2388 27.6594 45.0052C27.6594 44.7227 27.6942 44.5518 27.7325 44.3914C27.7499 44.3146 27.7604 44.2797 27.7604 44.1716C27.7604 44.0879 27.7569 44.0775 27.736 44.0042C27.6838 43.8368 27.6559 42.9335 27.6803 42.7801C27.6907 42.7103 27.7047 42.6406 27.7047 42.5045C27.7047 42.2848 27.7151 41.8663 27.7151 41.671C27.7151 41.5385 27.7047 41.4722 27.6907 41.4059C27.6803 41.3501 27.6699 41.2839 27.6594 41.2037C27.4401 40.5794 26.2637 40.5759 26.1766 40.5724Z" fill="white"/>
<path d="M27.6381 64.0268C27.6381 64.0268 27.645 63.9117 27.5163 63.6606C27.3875 63.4095 27.0011 63.399 27.0011 63.399C26.8688 63.3955 26.7644 63.3955 26.66 63.392C26.5103 63.3886 26.3607 63.3851 26.0613 63.3851C25.755 63.3851 25.6019 63.3886 25.4452 63.392C25.2503 63.3955 25.0554 63.4025 24.669 63.4025C24.2792 63.4025 24.0843 63.399 23.8859 63.392C23.7327 63.3886 23.5831 63.3851 23.2767 63.3851C22.9426 63.3851 22.772 63.3851 22.605 63.3886C22.424 63.3886 22.2465 63.392 21.8845 63.392L20.4922 63.3955C20.1859 63.3955 20.0327 63.399 19.8796 63.4025C19.6847 63.406 19.4897 63.413 19.0999 63.413C18.724 63.413 18.536 63.4095 18.3481 63.406C18.188 63.4025 18.0278 63.399 17.7111 63.399C17.4013 63.399 17.2447 63.4025 17.088 63.406C16.8966 63.4095 16.7017 63.413 16.3153 63.413C15.9185 63.413 15.7201 63.406 15.5217 63.4025C15.3721 63.399 15.2224 63.3955 14.923 63.3955C14.5541 63.3955 14.3696 63.392 14.1817 63.392C14.0181 63.3886 13.858 63.3886 13.5342 63.3886C13.4751 63.3886 13.4263 63.3886 13.3776 63.3886C13.3707 63.6362 13.3358 63.8071 13.2976 63.9536C13.2802 64.0268 13.2732 64.0477 13.2732 64.1384C13.2732 64.257 13.2802 64.2953 13.2976 64.379C13.3289 64.536 13.3567 64.6999 13.3567 64.9754C13.3567 65.2335 13.3393 65.38 13.315 65.53C13.3045 65.5997 13.2941 65.6695 13.2941 65.809C13.2941 65.9206 13.301 65.952 13.3184 66.0322C13.3532 66.1926 13.3846 66.3635 13.3846 66.646C13.3846 66.8448 13.3881 66.9425 13.3915 67.0401C13.395 67.1517 13.3985 67.2598 13.3985 67.483C13.3985 67.6644 13.4055 67.7516 13.4089 67.8423C13.4159 67.9609 13.4229 68.0794 13.4229 68.3201C13.4229 68.6096 13.3881 68.7804 13.3532 68.9444C13.3358 69.0211 13.3289 69.0525 13.3289 69.1571C13.3289 69.2687 13.3358 69.3036 13.3532 69.3838C13.3602 69.4222 13.3707 69.4605 13.3776 69.5024C13.3776 69.5024 13.7326 70.2348 14.8291 70.3394C14.9439 70.3464 15.0588 70.3534 15.2885 70.3534C15.466 70.3534 15.5217 70.3499 15.647 70.3394C15.8872 70.3185 16.1413 70.3011 16.5659 70.3011C16.8548 70.3011 17.001 70.2976 17.1472 70.2976C17.3213 70.2941 17.4953 70.2906 17.8434 70.2906C18.2506 70.2906 18.456 70.3011 18.6578 70.3115C18.7727 70.3185 18.8876 70.3255 19.1208 70.3255C19.4619 70.3255 19.6324 70.329 19.803 70.329C19.9527 70.3324 20.1023 70.3324 20.3982 70.3324C20.7393 70.3324 20.9099 70.3359 21.0839 70.3359C21.2301 70.3394 21.3798 70.3394 21.6756 70.3394C22.0133 70.3394 22.1803 70.3394 22.3474 70.3429C22.4971 70.3429 22.6502 70.3464 22.953 70.3464C23.2524 70.3464 23.4021 70.3464 23.5517 70.3429C23.7223 70.3394 23.8894 70.3394 24.2305 70.3394C24.4602 70.3394 24.5716 70.3324 24.6864 70.3255C24.8918 70.315 25.0972 70.3011 25.5044 70.3011C25.8003 70.3011 25.9465 70.2976 26.0926 70.2976C26.2632 70.2941 26.4372 70.2941 26.7818 70.2941C27.1751 70.2941 27.3979 70.308 27.6276 70.322C27.6694 70.3255 27.7147 70.329 27.7634 70.329C27.7773 70.2906 27.7877 70.2487 27.8017 70.2104L27.8191 70.1581C27.8191 70.1511 27.8191 70.1371 27.8191 70.1162C27.8191 70.0883 27.8191 70.0674 27.8156 70.0499L27.7982 69.9976C27.7251 69.7849 27.6555 69.5442 27.6555 69.1501C27.6555 68.8572 27.6694 68.7072 27.6833 68.5607C27.6903 68.4666 27.7007 68.3724 27.7007 68.1841C27.7007 67.8667 27.7251 67.6923 27.746 67.5493C27.7564 67.4656 27.7669 67.3854 27.7669 67.218C27.7669 66.9878 27.7634 66.8727 27.7634 66.7576C27.7599 66.6321 27.7599 66.5065 27.7599 66.2519C27.7599 65.9624 27.7703 65.8194 27.7843 65.6764C27.7912 65.5788 27.8017 65.4811 27.8017 65.2858C27.8017 65.2614 27.8017 65.2405 27.7982 65.2231L27.7808 65.1707C27.7112 64.965 27.6381 64.7173 27.6381 64.3232C27.6311 64.2012 27.6346 64.107 27.6381 64.0268Z" fill="white"/>
<path d="M31.9855 22.962C31.9855 23.2445 31.9716 23.3875 31.9542 23.527C31.9437 23.6107 31.9368 23.6944 31.9368 23.8653C31.9368 23.942 31.9368 23.9455 31.9577 24.0222C32.0099 24.2106 32.0621 24.4233 32.0621 24.7686C32.0621 25.0476 32.0447 25.2046 32.0203 25.3685C32.0099 25.4452 31.9994 25.5184 31.9994 25.6684C31.9994 25.8742 32.0029 25.9753 32.0064 26.08C32.0099 26.202 32.0168 26.3241 32.0168 26.5717C32.0168 26.8333 32.0099 26.9623 31.9994 27.0914C31.9925 27.1855 31.9855 27.2832 31.9855 27.4715C31.9855 27.6878 31.989 27.7924 31.989 27.9005C31.989 27.9214 31.989 27.9458 31.989 27.9668C32.2814 27.9668 32.445 27.9703 32.6051 27.9737C32.7513 27.9772 32.8974 27.9772 33.1898 27.9772C33.4578 27.9772 33.5936 27.9737 33.7259 27.9703C33.9103 27.9633 34.0913 27.9598 34.4568 27.9598C34.7944 27.9598 34.9615 27.9633 35.1286 27.9633C35.2782 27.9668 35.4279 27.9668 35.7273 27.9668C36.0858 27.9668 36.2633 27.9703 36.4408 27.9772C36.58 27.9807 36.7193 27.9842 36.9942 27.9842C37.2797 27.9842 37.4224 27.9807 37.5651 27.9772C37.7391 27.9737 37.9131 27.9703 38.2612 27.9703C38.6023 27.9703 38.7729 27.9737 38.9434 27.9737C39.0896 27.9772 39.2358 27.9772 39.5317 27.9772C39.8136 27.9772 39.9563 27.9737 40.099 27.9703C40.2731 27.9668 40.4506 27.9633 40.7987 27.9633H42.0656C42.3719 27.9633 42.5251 27.9633 42.6782 27.9598C42.8418 27.9598 43.0054 27.9563 43.3326 27.9563C43.6842 27.9563 43.8617 27.9598 44.0357 27.9633C44.1749 27.9668 44.3176 27.9703 44.5996 27.9703C44.885 27.9703 45.0242 27.9668 45.1669 27.9633C45.341 27.9598 45.5185 27.9563 45.8666 27.9563C46.2216 27.9563 46.3991 27.9598 46.5766 27.9668C46.5766 27.9668 47.318 27.9075 47.4921 27.468C47.4921 27.2065 47.499 27.0774 47.5095 26.9484C47.5164 26.8542 47.5234 26.7566 47.5234 26.5682C47.5234 26.3625 47.5199 26.2613 47.5164 26.1567C47.5129 26.0346 47.506 25.9125 47.506 25.6649C47.506 25.3859 47.5234 25.229 47.5477 25.0651C47.5582 24.9883 47.5686 24.9151 47.5686 24.7651C47.5686 24.6884 47.5686 24.6814 47.5477 24.6047C47.4955 24.4163 47.4433 24.2036 47.4433 23.8618C47.4433 23.5793 47.4572 23.4363 47.4747 23.2968C47.4851 23.2131 47.4921 23.1294 47.4921 22.9585C47.4921 22.6377 47.5303 22.4423 47.5721 22.2645C47.5895 22.1843 47.5965 22.1598 47.5965 22.0552C47.5965 21.9227 47.5895 21.8773 47.5721 21.7902C47.5443 21.6228 47.5164 21.4484 47.5164 21.1519C47.5164 20.8555 47.5373 20.6916 47.5547 20.559C47.5651 20.4823 47.5756 20.4056 47.5756 20.2521C47.5756 20.13 47.5686 20.0952 47.5512 20.0045C47.5164 19.8336 47.4886 19.6522 47.4886 19.3488C47.4886 19.1361 47.4851 19.0279 47.4851 18.9233C47.4816 18.8047 47.4781 18.6862 47.4781 18.449C47.4781 18.2537 47.4712 18.156 47.4677 18.0584C47.4607 17.9293 47.4538 17.8038 47.4538 17.5457C47.4538 17.2388 47.4851 17.0574 47.5199 16.8831C47.5373 16.7993 47.5443 16.7645 47.5443 16.6459C47.5443 16.5203 47.5373 16.482 47.5199 16.3948C47.4886 16.2239 47.4572 16.046 47.4572 15.7426C47.4572 15.6833 47.4572 15.631 47.4607 15.5787C47.3946 15.5787 47.3215 15.5787 47.238 15.5787C46.9595 15.5787 46.8238 15.5822 46.6845 15.5856C46.5035 15.5891 46.3225 15.5961 45.9605 15.5961C45.5742 15.5961 45.3793 15.5891 45.1878 15.5787C45.0625 15.5717 44.9372 15.5682 44.6831 15.5682C44.53 15.5682 44.4917 15.5717 44.3733 15.5856C44.1192 15.6101 43.8547 15.6345 43.4057 15.6345C43.0054 15.6345 42.8035 15.624 42.6051 15.6136C42.4868 15.6066 42.3685 15.6031 42.1318 15.6031C41.735 15.6031 41.5087 15.5891 41.2755 15.5752C41.1711 15.5682 41.0667 15.5612 40.8543 15.5612C40.7047 15.5612 40.6699 15.5647 40.5515 15.5787C40.2939 15.6066 40.0259 15.6275 39.5769 15.6275C39.2463 15.6275 39.0792 15.6275 38.9156 15.624C38.7624 15.624 38.6093 15.6205 38.303 15.6205C38.0002 15.6205 37.8505 15.6205 37.6973 15.624C37.5303 15.6275 37.3597 15.6275 37.0256 15.6275C36.58 15.6275 36.3155 15.6031 36.0614 15.5787C35.9431 15.5682 35.9048 15.5612 35.7481 15.5612C35.4105 15.5612 35.24 15.5577 35.0729 15.5577C34.9232 15.5577 34.7735 15.5543 34.4742 15.5543C34.2236 15.5543 34.0948 15.5577 33.9695 15.5647C33.7781 15.5717 33.5831 15.5787 33.2003 15.5787C32.8174 15.5787 32.6225 15.5717 32.431 15.5647C32.3127 15.5612 32.1909 15.5543 31.9681 15.5543C31.9542 15.6136 31.9507 15.6484 31.9507 15.7391C31.9507 15.8647 31.9577 15.903 31.9751 15.9902C32.0064 16.1611 32.0377 16.3425 32.0377 16.6424C32.0377 16.9493 32.0064 17.1307 31.9716 17.3051C31.9542 17.3888 31.9472 17.4236 31.9472 17.5422C31.9472 17.7375 31.9542 17.8352 31.9577 17.9328C31.9646 18.0619 31.9716 18.1874 31.9716 18.4455C31.9716 18.6583 31.9751 18.7664 31.9751 18.871C31.9785 18.9896 31.982 19.1082 31.982 19.3453C31.982 19.4674 31.989 19.5058 32.0064 19.5929C32.0377 19.7638 32.069 19.9452 32.069 20.2486C32.069 20.5451 32.0482 20.709 32.0307 20.8415C32.0203 20.9182 32.0099 20.995 32.0099 21.1484C32.0099 21.281 32.0168 21.3263 32.0342 21.4135C32.0656 21.5809 32.0899 21.7553 32.0899 22.0517C32.0899 22.3726 32.0516 22.5714 32.0099 22.7458C31.9925 22.833 31.9855 22.8574 31.9855 22.962Z" fill="white"/>
<path d="M53.0437 30.9668H53.7677C54.154 30.9668 54.3489 30.9703 54.5404 30.9738C54.704 30.9773 54.871 30.9773 55.1982 30.9773C55.4976 30.9773 55.6472 30.9738 55.8004 30.9668C56.0092 30.9598 56.2146 30.9529 56.6288 30.9529C57.0082 30.9529 57.1962 30.9564 57.3876 30.9564C57.5547 30.9598 57.7217 30.9598 58.0594 30.9598C58.4631 30.9598 58.665 30.9633 58.8669 30.9703C59.0235 30.9738 59.1767 30.9773 59.4865 30.9773C59.8067 30.9773 59.9703 30.9738 60.1304 30.9703C60.3288 30.9668 60.5237 30.9633 60.917 30.9633C61.2999 30.9633 61.4948 30.9668 61.6863 30.9703C61.8499 30.9738 62.0169 30.9738 62.3476 30.9738C62.6644 30.9738 62.8245 30.9703 62.9846 30.9668C63.183 30.9633 63.3814 30.9598 63.7782 30.9598L65.2088 30.9564C65.5533 30.9564 65.7274 30.9564 65.9014 30.9529C66.0859 30.9529 66.2704 30.9494 66.6393 30.9494C67.0361 30.9494 67.238 30.9529 67.4364 30.9598C67.5582 30.9633 67.6835 30.9668 67.8785 30.9668C67.8332 30.8168 67.7949 30.632 67.7949 30.3809C67.7949 30.074 67.8402 29.8856 67.8819 29.7182C67.9028 29.645 67.9063 29.6276 67.9063 29.5369C67.9063 29.3974 67.8959 29.3276 67.8854 29.2579C67.8611 29.1044 67.8402 28.9544 67.8402 28.6929C67.8402 28.4766 67.8402 28.365 67.8436 28.2569C67.8436 28.1558 67.8471 28.0546 67.8471 27.8489C67.8471 27.6501 67.8436 26.7398 67.8402 26.6421C67.8367 26.5305 67.8332 25.5435 67.8332 25.3203C67.8332 25.1704 67.8228 25.0936 67.8123 25.0169C67.7949 24.8809 67.7775 24.7449 67.7775 24.4763C67.7775 24.1589 67.8262 23.9636 67.8785 23.7893C67.8993 23.7195 67.9028 23.709 67.9028 23.6323C67.9028 23.3707 67.9167 23.2417 67.9307 23.1092C67.9411 23.029 67.9481 22.9487 67.9481 22.7848C67.9481 22.7639 67.9481 22.7499 67.9446 22.736L67.9307 22.6941C67.8645 22.5128 67.7914 22.2896 67.7914 21.9408C67.7914 21.6862 67.8019 21.5607 67.8158 21.4351C67.8228 21.3514 67.8332 21.2642 67.8332 21.0968C67.8332 20.8945 67.8297 20.7969 67.8297 20.6957C67.8262 20.5841 67.8262 20.476 67.8262 20.2528C67.8262 19.9738 67.8506 19.8168 67.868 19.6948C67.8785 19.6215 67.8889 19.5518 67.8889 19.4088C67.8889 19.1507 67.9028 19.0217 67.9167 18.8891C67.9272 18.8089 67.9341 18.7252 67.9341 18.5613C67.9341 18.5404 67.9341 18.5229 67.9307 18.509L67.9133 18.4671C67.8471 18.2858 67.774 18.066 67.774 17.7173C67.774 17.358 67.8541 17.1314 67.9272 16.943L67.9446 16.9012C67.9446 16.9012 67.9446 16.8872 67.9446 16.8733C67.9446 16.7582 67.9376 16.7233 67.9202 16.6431C67.8854 16.4827 67.8576 16.3118 67.8576 16.0293C67.8297 15.6596 67.2659 15.5933 67.0709 15.5794C67.0466 15.5794 67.0257 15.5759 67.0013 15.5759H66.9978C66.9247 15.5724 66.8621 15.5689 66.8064 15.5654C66.702 15.5584 66.5976 15.5515 66.3922 15.5515C66.1033 15.5515 65.9606 15.5549 65.8179 15.5584C65.6438 15.5619 65.4663 15.5654 65.1183 15.5654C64.812 15.5654 64.6588 15.5654 64.5056 15.5689C64.3386 15.5689 64.175 15.5724 63.8408 15.5724C63.6285 15.5724 63.5241 15.5794 63.4162 15.5863C63.183 15.6003 62.9602 15.6142 62.5669 15.6142C62.1736 15.6142 61.9787 15.6038 61.7803 15.5968C61.6584 15.5898 61.5366 15.5863 61.2895 15.5863C61.0667 15.5863 60.9553 15.5933 60.8474 15.6003C60.6629 15.6107 60.4332 15.6247 60.0155 15.6247C59.57 15.6247 59.3124 15.6038 59.1245 15.5898C58.9957 15.5794 58.933 15.5759 58.7416 15.5759C58.3622 15.5759 58.1742 15.5689 57.9863 15.5619C57.8436 15.5619 57.7148 15.5584 57.4537 15.5584C57.2901 15.5584 57.2449 15.5619 57.1231 15.5759C56.8725 15.6003 56.6149 15.6212 56.1763 15.6212C55.7795 15.6212 55.5811 15.6107 55.3827 15.6038C55.2609 15.5968 55.1425 15.5933 54.9024 15.5933C54.603 15.5933 54.4534 15.5968 54.3072 15.5968C54.1366 15.6003 53.9661 15.6003 53.6284 15.6003C53.2734 15.6003 53.0959 15.5968 52.9184 15.5933C52.7757 15.5898 52.6364 15.5863 52.351 15.5863C52.0621 15.5863 51.9124 15.5863 51.7663 15.5898C51.7558 15.6352 51.7523 15.67 51.7523 15.7468C51.7523 15.8723 51.7593 15.9107 51.7767 15.9944C51.8115 16.1653 51.8428 16.3431 51.8428 16.6396C51.8428 16.943 51.808 17.1244 51.7697 17.2988C51.7523 17.3825 51.7419 17.4173 51.7419 17.5324C51.7419 17.7243 51.7489 17.8219 51.7523 17.9196C51.7593 18.0451 51.7697 18.1742 51.7697 18.4288C51.7697 18.6415 51.7732 18.7461 51.7732 18.8508C51.7767 18.9693 51.7802 19.0879 51.7802 19.3216C51.7802 19.4437 51.7871 19.4785 51.8045 19.5657C51.8428 19.7366 51.8742 19.9145 51.8742 20.2179C51.8742 20.5144 51.8498 20.6748 51.8289 20.8073C51.8185 20.8841 51.808 20.9608 51.808 21.1142C51.808 21.2468 51.815 21.2886 51.8324 21.3793C51.8637 21.5467 51.895 21.7176 51.895 22.0106C51.895 22.3279 51.8533 22.5232 51.808 22.6976C51.7871 22.7778 51.7802 22.8023 51.7802 22.9069C51.7802 23.1859 51.7628 23.3289 51.7454 23.4684C51.7349 23.5521 51.7245 23.6358 51.7245 23.8032C51.7245 23.8799 51.728 23.8869 51.7489 23.9601C51.808 24.145 51.8637 24.3577 51.8637 24.6995C51.8637 24.9751 51.8428 25.132 51.8185 25.2959C51.808 25.3692 51.7941 25.4459 51.7941 25.5959C51.7941 25.8016 51.7976 27.5873 51.8011 27.6884C51.8045 27.8105 51.8115 27.9326 51.8115 28.1767C51.8115 28.4348 51.8011 28.5638 51.7941 28.6929C51.7871 28.787 51.7802 28.8812 51.7802 29.073C51.7802 29.2858 51.7837 29.3939 51.7837 29.4985C51.7871 29.6171 51.7871 29.7322 51.7871 29.9694C51.7871 30.0112 51.7871 30.0426 51.7837 30.0775C51.8011 30.0705 51.8637 30.7889 53.0437 30.9668Z" fill="white"/>
<path d="M46.069 56.3036C46.0133 56.3036 45.9506 56.3036 45.8741 56.3036C45.8288 56.3036 45.794 56.3036 45.7592 56.3036C45.5538 56.3036 45.4285 56.3071 45.3067 56.3106C45.1327 56.3141 44.9552 56.3176 44.6071 56.3176C44.2555 56.3176 44.078 56.3141 43.904 56.3106C43.7648 56.3071 43.6221 56.3036 43.3401 56.3036C43.0338 56.3036 42.8772 56.3036 42.724 56.3071C42.5604 56.3071 42.3968 56.3106 42.0697 56.3106L40.8027 56.3141C40.5207 56.3141 40.378 56.3176 40.2353 56.3211C40.0613 56.3246 39.8838 56.3281 39.5357 56.3281C39.1946 56.3281 39.024 56.3246 38.8535 56.3246C38.7073 56.3211 38.5611 56.3211 38.2652 56.3211C37.9798 56.3211 37.8371 56.3246 37.6944 56.3281C37.5204 56.3316 37.3463 56.335 37.0017 56.335C36.6432 56.335 36.4657 56.3316 36.2882 56.3246C36.149 56.3211 36.0097 56.3176 35.7348 56.3176C35.3971 56.3176 35.2301 56.3141 35.063 56.3141C34.9133 56.3106 34.7637 56.3106 34.4678 56.3106C34.1998 56.3106 34.064 56.3141 33.9318 56.3176C33.7473 56.3246 33.5663 56.3281 33.2008 56.3281C32.8597 56.3281 32.6891 56.3246 32.5186 56.3211C32.3863 56.3176 32.2471 56.3176 32 56.3176C32.0069 56.4187 32.0139 56.5373 32.0139 56.7187C32.0139 57.0221 31.986 57.1965 31.9686 57.322C31.9582 57.3953 31.9478 57.4685 31.9478 57.6115C31.9478 57.6359 31.9478 57.6569 31.9512 57.6743L31.9686 57.7266C32.0313 57.9219 32.0939 58.1451 32.0939 58.5078C32.0939 58.8287 32.0522 59.0275 32.0104 59.2019C31.993 59.2821 31.986 59.303 31.986 59.4007C31.986 59.5541 31.9965 59.6274 32.0069 59.7041C32.0243 59.8366 32.0487 60.0005 32.0487 60.297C32.0487 60.5272 32.0487 60.6423 32.0452 60.7609C32.0452 60.869 32.0417 60.9771 32.0417 61.1933C32.0417 61.4026 32.0452 61.5107 32.0452 61.6153C32.0487 61.7339 32.0522 61.8525 32.0522 62.0896C32.0522 62.2536 32.0626 62.3338 32.0696 62.414C32.087 62.557 32.1044 62.7 32.1044 62.986C32.1044 63.3173 32.0591 63.5231 32.0104 63.7044C31.9895 63.7811 31.986 63.7951 31.986 63.8823C31.986 64.1578 31.9721 64.2938 31.9582 64.4333C31.9512 64.5205 31.9408 64.6077 31.9408 64.7786C31.9408 64.803 31.9408 64.8205 31.9443 64.8379L31.9617 64.8867C32.0243 65.0751 32.0905 65.3087 32.0905 65.6749C32.0905 65.9435 32.08 66.076 32.0696 66.2085C32.0626 66.2992 32.0557 66.3899 32.0557 66.5713C32.0557 66.784 32.0591 66.8921 32.0591 66.9967C32.0626 67.1153 32.0626 67.2304 32.0626 67.4641C32.0626 67.7571 32.0417 67.921 32.0243 68.0535C32.0139 68.1302 32.0034 68.207 32.0034 68.3604C32.0034 68.6325 31.9895 68.772 31.9791 68.908C31.9721 68.9952 31.9617 69.0824 31.9617 69.2602C31.9617 69.2846 31.9617 69.3056 31.9652 69.3195L31.9826 69.3683C32.0487 69.5671 32.1114 69.7903 32.1114 70.1531C32.1114 70.2089 32.1079 70.2577 32.1079 70.3065C32.2123 70.303 32.2923 70.2995 32.3654 70.2961C32.5673 70.2856 32.7657 70.2751 33.166 70.2751C33.5454 70.2751 33.7368 70.2821 33.9283 70.2891C34.0571 70.2926 34.1859 70.2995 34.4399 70.2995C34.6975 70.2995 34.8228 70.2961 34.9516 70.2891C35.143 70.2821 35.3345 70.2751 35.7139 70.2751C36.0515 70.2751 36.2186 70.2786 36.3891 70.2786C36.5388 70.2786 36.6885 70.2821 36.9913 70.2821C37.4299 70.2821 37.6874 70.303 37.9381 70.3274C38.0564 70.3379 38.1017 70.3449 38.2652 70.3449C38.5681 70.3449 38.7177 70.3449 38.8709 70.3414C39.038 70.3414 39.205 70.3379 39.5392 70.3379C39.8699 70.3379 40.0334 70.3379 40.2005 70.3414C40.3537 70.3414 40.5068 70.3449 40.8131 70.3449C40.9732 70.3449 41.015 70.3414 41.1333 70.3309C41.384 70.3065 41.645 70.2856 42.0871 70.2856C42.5082 70.2856 42.7414 70.2995 42.9294 70.3135C43.0373 70.3205 43.1452 70.3274 43.361 70.3274C43.7578 70.3274 43.9562 70.3379 44.1511 70.3449C44.2729 70.3519 44.3913 70.3553 44.6349 70.3553C44.7985 70.3553 44.8438 70.3519 44.9621 70.3414C45.2127 70.317 45.4738 70.2961 45.9124 70.2961C46.2952 70.2961 46.4867 70.303 46.6781 70.31C46.8069 70.3135 46.9322 70.3205 47.1898 70.3205C47.3673 70.3205 47.4856 70.3205 47.5866 70.317C47.5935 70.2961 47.6005 70.2682 47.6075 70.2472L47.6249 70.1984C47.6249 70.1914 47.6249 70.1775 47.6249 70.1565C47.6249 70.1321 47.6249 70.1112 47.6214 70.0973L47.604 70.0484C47.5379 69.8496 47.4752 69.6264 47.4752 69.2637C47.4752 68.9882 47.4891 68.8522 47.4996 68.7162C47.5065 68.629 47.517 68.5418 47.517 68.3674C47.517 68.0709 47.5379 67.9105 47.5553 67.778C47.5657 67.7013 47.5761 67.6245 47.5761 67.4711C47.5761 67.2583 47.5727 67.1502 47.5727 67.0456C47.5692 66.927 47.5692 66.8119 47.5692 66.5782C47.5692 66.3132 47.5796 66.1772 47.5901 66.0446C47.597 65.9539 47.604 65.8633 47.604 65.6819C47.604 65.6575 47.604 65.6401 47.6005 65.6226L47.5831 65.5738C47.5204 65.3855 47.4543 65.1518 47.4543 64.7856C47.4543 64.5101 47.4682 64.374 47.4822 64.2345C47.4891 64.1473 47.4996 64.0602 47.4996 63.8893C47.4996 63.5545 47.5448 63.3522 47.5935 63.1673C47.6144 63.0906 47.6179 63.0766 47.6179 62.9895C47.6179 62.8255 47.6075 62.7453 47.6005 62.6651C47.5831 62.5221 47.5657 62.3791 47.5657 62.0931C47.5657 61.8839 47.5622 61.7758 47.5587 61.6711C47.5553 61.5525 47.5518 61.434 47.5518 61.1968C47.5518 60.9666 47.5518 60.8515 47.5553 60.733C47.5553 60.6248 47.5587 60.5167 47.5587 60.3005C47.5587 60.1505 47.5483 60.0738 47.5379 59.9971C47.5204 59.8645 47.4961 59.7006 47.4961 59.4042C47.4961 59.0833 47.5379 58.8845 47.5796 58.7066C47.597 58.6264 47.604 58.6055 47.604 58.5078C47.604 58.4834 47.604 58.4625 47.6005 58.4451L47.5831 58.3927C47.5204 58.1974 47.4578 57.9742 47.4578 57.6115C47.4578 57.3325 47.4787 57.1721 47.503 57.0082C47.5239 56.4257 46.5737 56.3176 46.069 56.3036Z" fill="white"/>
<path d="M32.0202 31.9258C32.0133 32.0409 32.0028 32.1316 31.9924 32.2153C31.982 32.2885 31.9715 32.3653 31.9715 32.5117C31.9715 32.5745 31.9715 32.5745 31.9924 32.6408C32.0481 32.8186 32.1038 33.0174 32.1038 33.3453C32.1038 33.6034 32.0829 33.7533 32.0585 33.9068C32.0481 33.9765 32.0376 34.0428 32.0376 34.1788C32.0376 34.4613 32.0063 34.6287 31.975 34.7857C31.9576 34.8659 31.9506 34.8973 31.9506 35.0089C31.9506 35.0682 31.9506 35.0682 31.9715 35.131C32.0307 35.3088 32.0899 35.5111 32.0899 35.8424C32.0899 36.0622 32.0864 36.1703 32.0864 36.2819C32.0829 36.3795 32.0829 36.4807 32.0829 36.676C32.0829 36.8678 32.0864 36.9655 32.0899 37.0631C32.0933 37.1747 32.0968 37.2863 32.0968 37.5095C32.0968 37.8339 32.0411 38.0362 31.9854 38.214C31.9645 38.2803 31.9645 38.2803 31.9645 38.3431C31.9645 38.5698 31.9611 38.6814 31.9576 38.793C31.9541 38.8871 31.9506 38.9848 31.9506 39.1766C31.9506 39.3266 31.9611 39.3998 31.9715 39.4766C31.9889 39.6091 32.0063 39.7416 32.0063 40.0102C32.0063 40.2752 31.9889 40.4078 31.9715 40.5438C31.9611 40.6205 31.9506 40.6937 31.9506 40.8437C31.9506 40.9762 31.9611 41.0425 31.9715 41.1088C31.9924 41.2273 32.0202 41.3948 32.0202 41.6773C32.0202 41.897 32.0168 42.0086 32.0133 42.1167C32.0098 42.2143 32.0098 42.312 32.0098 42.5108C32.0098 42.7689 31.9889 42.9154 31.968 43.0688C31.9576 43.1386 31.9471 43.2083 31.9471 43.3443C31.9471 43.428 31.9506 43.4385 31.9715 43.5118C32.0168 43.6792 32.0655 43.871 32.0655 44.1779C32.0655 44.4604 32.0342 44.6313 31.9994 44.7917C31.982 44.8684 31.975 44.9033 31.975 45.0114C31.975 45.1963 31.9785 45.2904 31.9854 45.3811C31.9924 45.4962 31.9959 45.6113 31.9959 45.845C31.9959 45.967 32.0028 46.0089 32.0202 46.0926C32.0446 46.2147 32.0759 46.3856 32.0759 46.6785C32.0759 46.8703 32.0794 46.9645 32.0829 47.0587C32.0864 47.1738 32.0933 47.2854 32.0933 47.5121C32.0933 47.7353 32.0899 47.8504 32.0864 47.962C32.0829 48.0596 32.0794 48.1538 32.0794 48.3456C32.0794 48.5758 32.0759 48.6909 32.069 48.806C32.0655 48.9002 32.0585 48.9943 32.0585 49.1792C32.0585 49.4093 32.055 49.521 32.0481 49.636C32.0446 49.7302 32.0411 49.8244 32.0411 50.0127C32.0411 50.3057 32.0098 50.4731 31.9889 50.5951C31.975 50.6788 31.9645 50.7207 31.9645 50.8463C31.9645 51.0276 31.968 51.1183 31.975 51.209C31.982 51.3275 31.9889 51.4461 31.9889 51.6798C31.9889 51.7565 31.9924 51.767 32.0133 51.8367C32.062 52.0076 32.1107 52.1995 32.1107 52.5133C32.1107 52.8063 32.0794 52.9772 32.055 53.0993C32.0411 53.183 32.0307 53.2213 32.0307 53.3469C32.0307 53.4062 32.0307 53.4585 32.0307 53.5073C32.3091 53.5073 32.4692 53.5108 32.6224 53.5108C32.7686 53.5143 32.9148 53.5143 33.2072 53.5143C33.4752 53.5143 33.6109 53.5108 33.7432 53.5073C33.9277 53.5003 34.1087 53.4969 34.4741 53.4969C34.8118 53.4969 34.9788 53.5003 35.1459 53.5003C35.2956 53.5003 35.4453 53.5038 35.7411 53.5038C36.0961 53.5038 36.2771 53.5073 36.4547 53.5143C36.5939 53.5178 36.7331 53.5213 37.0081 53.5213C37.2935 53.5213 37.4362 53.5178 37.5789 53.5143C37.753 53.5108 37.927 53.5073 38.2716 53.5073C38.6127 53.5073 38.7833 53.5108 38.9538 53.5108C39.1 53.5143 39.2462 53.5143 39.542 53.5143C39.824 53.5143 39.9667 53.5108 40.1094 53.5073C40.2834 53.5038 40.461 53.5003 40.809 53.5003H42.076C42.3823 53.5003 42.5355 53.5003 42.6921 53.4969C42.8557 53.4969 43.0193 53.4934 43.3465 53.4934C43.698 53.4934 43.8755 53.4969 44.0496 53.5003C44.1888 53.5038 44.3315 53.5073 44.6134 53.5073C44.8989 53.5073 45.0381 53.5038 45.1808 53.5003C45.3548 53.4969 45.5323 53.4934 45.8804 53.4934C46.2355 53.4934 46.413 53.4969 46.5905 53.5003C46.7297 53.5038 46.8689 53.5073 47.1474 53.5073C47.318 53.5073 47.4363 53.5073 47.5338 53.5038C47.5372 53.4585 47.5372 53.4062 47.5372 53.3399C47.5372 53.047 47.5686 52.8761 47.5929 52.7505C47.6069 52.6668 47.6173 52.6284 47.6173 52.5029C47.6173 52.4262 47.6138 52.4157 47.5929 52.3459C47.5442 52.175 47.4955 51.9832 47.4955 51.6693C47.4955 51.488 47.492 51.3973 47.485 51.3066C47.4781 51.188 47.4711 51.0695 47.4711 50.8358C47.4711 50.5428 47.5024 50.3754 47.5233 50.2534C47.5372 50.1697 47.5477 50.1278 47.5477 50.0022C47.5477 49.7721 47.5512 49.6605 47.5581 49.5454C47.5616 49.4512 47.5651 49.357 47.5651 49.1687C47.5651 48.9385 47.572 48.8234 47.5755 48.7083C47.579 48.6142 47.586 48.5235 47.586 48.3352C47.586 48.1119 47.5894 48.0003 47.5929 47.8887C47.5964 47.7911 47.5999 47.6969 47.5999 47.5016C47.5999 47.3098 47.5964 47.2156 47.5929 47.1215C47.5894 47.0064 47.5825 46.8948 47.5825 46.6681C47.5825 46.5425 47.5755 46.5041 47.5581 46.4204C47.5338 46.2984 47.5024 46.1275 47.5024 45.8345C47.5024 45.6497 47.499 45.5555 47.492 45.4648C47.485 45.3497 47.4815 45.2346 47.4815 45.001C47.4815 44.7185 47.5129 44.5511 47.5477 44.3906C47.5651 44.3104 47.572 44.279 47.572 44.1709C47.572 44.0872 47.5686 44.0767 47.5477 44.0035C47.5024 43.8361 47.4572 43.6443 47.4572 43.3374C47.4572 43.0793 47.4781 42.9328 47.4989 42.7793C47.5094 42.7096 47.5198 42.6398 47.5198 42.5038C47.5198 42.2841 47.5233 42.1725 47.5268 42.0644C47.5303 41.9667 47.5303 41.8691 47.5303 41.6703C47.5303 41.5377 47.5198 41.475 47.5094 41.4087C47.4885 41.2866 47.4607 41.1227 47.4607 40.8367C47.4607 40.5717 47.4781 40.4357 47.4955 40.3031C47.5059 40.2264 47.5164 40.1532 47.5164 40.0032C47.5164 39.8532 47.5059 39.78 47.4955 39.7032C47.4781 39.5707 47.4607 39.4347 47.4607 39.1696C47.4607 38.9429 47.4641 38.8313 47.4676 38.7197C47.4711 38.6256 47.4746 38.5279 47.4746 38.3361C47.4746 38.0117 47.5303 37.8095 47.586 37.6351C47.6069 37.5688 47.6069 37.5688 47.6069 37.5025C47.6069 37.3107 47.6034 37.2131 47.5999 37.1154C47.5964 37.0038 47.5929 36.8922 47.5929 36.669C47.5929 36.4493 47.5964 36.3412 47.5999 36.2296C47.6034 36.1319 47.6034 36.0308 47.6034 35.8355C47.6034 35.7762 47.6034 35.7762 47.5825 35.7134C47.5233 35.5355 47.4676 35.3332 47.4676 35.0019C47.4676 34.7194 47.4989 34.5555 47.5303 34.3951C47.5477 34.3148 47.5546 34.2835 47.5546 34.1684C47.5546 33.9103 47.5755 33.7603 47.5999 33.6069C47.6103 33.5406 47.6208 33.4708 47.6208 33.3348C47.6208 33.272 47.6208 33.272 47.5999 33.2058C47.5407 33.0279 47.485 32.8291 47.485 32.5013C47.485 32.2327 47.5024 32.1002 47.5198 31.9642C47.5303 31.8909 47.5407 31.8142 47.5407 31.6677C47.5407 31.605 47.5407 31.5561 47.5372 31.5108C47.3388 31.0958 47.0186 30.8342 46.9316 30.7679C46.7088 30.7679 46.5696 30.7644 46.4304 30.7609C46.2911 30.7575 46.1519 30.754 45.8769 30.754C45.5915 30.754 45.4523 30.7575 45.3096 30.7609C45.1355 30.7644 44.958 30.7679 44.61 30.7679C44.2584 30.7679 44.0809 30.7644 43.9069 30.7609C43.7676 30.7575 43.6249 30.754 43.343 30.754C43.0367 30.754 42.8835 30.754 42.7304 30.7575C42.5668 30.7575 42.4032 30.7609 42.076 30.7609H40.809C40.5271 30.7609 40.3844 30.7644 40.2417 30.7679C40.0676 30.7714 39.8901 30.7749 39.542 30.7749C39.2009 30.7749 39.0304 30.7714 38.8598 30.7714C38.7136 30.7679 38.5675 30.7679 38.2716 30.7679C37.9862 30.7679 37.8435 30.7714 37.7008 30.7749C37.5267 30.7784 37.3527 30.7819 37.0046 30.7819C36.6461 30.7819 36.4686 30.7784 36.2911 30.7749C36.1518 30.7714 36.0161 30.7679 35.7376 30.7679C35.4 30.7679 35.2329 30.7644 35.0659 30.7644C34.9162 30.7644 34.7665 30.7609 34.4672 30.7609C34.1992 30.7609 34.0634 30.7644 33.9311 30.7679C33.7467 30.7749 33.5657 30.7784 33.2002 30.7784C32.2221 30.7923 32.0202 31.9258 32.0202 31.9258Z" fill="white"/>
<path d="M51.7978 34.3256C51.8605 34.5035 51.9231 34.7023 51.9231 35.0301C51.9231 35.2882 51.9022 35.4381 51.8744 35.5916C51.864 35.6579 51.85 35.7276 51.85 35.8636C51.85 36.1461 51.8152 36.3101 51.7804 36.4705C51.763 36.5507 51.7526 36.5821 51.7526 36.6972C51.7526 36.7565 51.7526 36.7565 51.7735 36.8193C51.8396 36.9971 51.9022 37.1994 51.9022 37.5307C51.9022 37.7505 51.8988 37.8586 51.8953 37.9702C51.8918 38.0678 51.8918 38.169 51.8918 38.3643C51.8918 38.5561 51.8953 38.6538 51.8988 38.7514C51.9022 38.863 51.9057 38.9746 51.9057 39.1978C51.9057 39.5222 51.8013 39.7454 51.8013 40.0139C51.8013 40.279 51.7839 40.415 51.763 40.5475C51.7526 40.6208 51.7421 40.6975 51.7421 40.8475C51.7421 40.98 51.7526 41.0428 51.7665 41.109C51.7874 41.2276 51.8187 41.395 51.8187 41.681C51.8187 41.9007 51.8152 42.0123 51.8117 42.1205C51.8083 42.2181 51.8048 42.3158 51.8048 42.5146C51.8048 42.7727 51.7839 42.9191 51.7561 43.0726C51.7456 43.1423 51.7317 43.2121 51.7317 43.3481C51.7317 43.4318 51.7352 43.4423 51.7561 43.5155C51.8083 43.6829 51.857 43.8747 51.857 44.1817C51.857 44.4642 51.8222 44.6316 51.7839 44.7955C51.7665 44.8757 51.7561 44.9071 51.7561 45.0152C51.7561 45.2 51.7595 45.2942 51.7665 45.3849C51.7735 45.5 51.7804 45.6151 51.7804 45.8487C51.7804 45.9743 51.7874 46.0127 51.8048 46.0964C51.8083 46.1173 51.8152 46.1452 51.8187 46.1696C51.9475 46.1696 52.0972 46.1696 52.3269 46.1696L53.7575 46.1661C54.1438 46.1661 54.3353 46.1696 54.5302 46.1731C54.6938 46.1766 54.8608 46.1766 55.188 46.1766C55.4874 46.1766 55.6405 46.1731 55.7902 46.1696C55.999 46.1626 56.2044 46.1591 56.6186 46.1591C56.998 46.1591 57.186 46.1626 57.3774 46.1626C57.5445 46.1661 57.7115 46.1661 58.0492 46.1661C58.4529 46.1661 58.6548 46.1696 58.8567 46.1766C59.0099 46.1801 59.1665 46.1836 59.4763 46.1836C59.7965 46.1836 59.9601 46.1801 60.1202 46.1766C60.3186 46.1731 60.5135 46.1696 60.9068 46.1696C61.2932 46.1696 61.4846 46.1731 61.6761 46.1766C61.8397 46.1801 62.0067 46.1801 62.3374 46.1801C62.6542 46.1801 62.8143 46.1766 62.9744 46.1731C63.1728 46.1696 63.3712 46.1661 63.768 46.1661L65.1986 46.1626C65.5431 46.1626 65.7172 46.1626 65.8912 46.1591C66.0757 46.1591 66.2602 46.1557 66.6291 46.1557C67.0294 46.1557 67.2278 46.1591 67.4262 46.1626C67.5585 46.1661 67.6942 46.1696 67.9135 46.1696C67.9135 46.1591 67.91 46.1487 67.91 46.1382C67.8891 46.0162 67.8578 45.8487 67.8578 45.5558C67.8578 45.3326 67.8613 45.221 67.8648 45.1094C67.8683 45.0117 67.8683 44.9106 67.8683 44.7118C67.8683 44.4502 67.8891 44.3002 67.9135 44.1433C67.9239 44.0735 67.9344 44.0073 67.9344 43.8678C67.9344 43.7876 67.9309 43.7806 67.91 43.7073C67.8613 43.5364 67.8439 42.5634 67.8822 42.3995C67.8996 42.3193 67.9065 42.2914 67.9065 42.1832C67.9065 41.9984 67.8996 41.9042 67.8961 41.8101C67.8891 41.6915 67.8822 41.5764 67.8822 41.3392C67.8822 41.2172 67.8752 41.1753 67.8578 41.0951C67.8265 40.9382 67.7986 40.7742 67.7986 40.4952C67.7986 40.3034 67.7952 40.2092 67.7917 40.1116C67.7882 39.9965 67.7812 39.8814 67.7812 39.6512C67.7812 39.4245 67.7847 39.3094 67.7882 39.1943C67.7917 39.0967 67.7952 38.999 67.7952 38.8072C67.7952 38.5735 67.8021 38.4584 67.8056 38.3399C67.8091 38.2457 67.816 38.1515 67.816 37.9632C67.816 37.7295 67.8891 37.3563 67.8891 37.1192C67.8891 37.0459 67.8891 37.039 67.8648 36.9692C67.8126 36.7948 67.7604 36.596 67.7604 36.2752C67.7604 35.9997 67.7882 35.8323 67.8195 35.6753C67.8369 35.5951 67.8439 35.5532 67.8439 35.4312C67.8439 35.1801 67.8543 35.0545 67.8648 34.929C67.8717 34.8452 67.8787 34.7581 67.8787 34.5872C67.8787 34.3814 67.8787 34.2803 67.8752 34.1791C67.8752 34.0745 67.8717 33.9664 67.8717 33.7606C67.5898 33.7606 67.4158 33.7571 67.2487 33.7536C67.0921 33.7501 66.9319 33.7466 66.6152 33.7466C66.2706 33.7466 66.0966 33.7466 65.9225 33.7501C65.7381 33.7501 65.5536 33.7536 65.1846 33.7536H63.7541C63.4373 33.7536 63.2772 33.7571 63.1171 33.7606C62.9187 33.7641 62.7203 33.7676 62.3235 33.7676C61.9371 33.7676 61.7457 33.7641 61.5543 33.7606C61.3907 33.7571 61.2236 33.7571 60.8929 33.7571C60.5692 33.7571 60.4091 33.7606 60.249 33.7641C60.0541 33.7676 59.8557 33.7711 59.4623 33.7711C59.0586 33.7711 58.8567 33.7676 58.6548 33.7606C58.4982 33.7571 58.345 33.7536 58.0353 33.7536C57.6559 33.7536 57.4679 33.7501 57.2765 33.7501C57.1094 33.7466 56.9423 33.7466 56.6047 33.7466C56.3053 33.7466 56.1557 33.7501 56.0025 33.7571C55.7937 33.7641 55.5883 33.7676 55.1741 33.7676C54.7878 33.7676 54.5963 33.7641 54.4014 33.7606C54.2378 33.7571 54.0707 33.7571 53.7435 33.7571H53.0787C51.8918 33.8827 51.7978 34.3256 51.7978 34.3256Z" fill="white"/>
<path d="M67.9068 69.3548C67.9243 69.2746 67.9312 69.2467 67.9312 69.1386C67.9312 68.9572 67.9243 68.8666 67.9208 68.7759C67.9138 68.6573 67.9034 68.5352 67.9034 68.2946C67.9034 68.0958 67.8999 67.9981 67.8964 67.897C67.8929 67.7854 67.8894 67.6738 67.8894 67.4541C67.8894 67.3425 67.8825 67.3111 67.8651 67.2309C67.8303 67.0669 67.7989 66.8995 67.7989 66.6136C67.7989 66.3345 67.8233 66.1811 67.8407 66.0555C67.8512 65.9858 67.8616 65.9125 67.8616 65.773C67.8616 65.651 67.8546 65.6126 67.8372 65.5324C67.8059 65.3754 67.7781 65.2115 67.7781 64.9325C67.7781 64.6291 67.8198 64.4442 67.8616 64.2803C67.8825 64.2071 67.886 64.1862 67.886 64.092C67.886 63.8269 67.9034 63.6944 67.9173 63.5619C67.9277 63.4851 67.9347 63.4049 67.9347 63.2515C67.9347 63.1852 67.9347 63.1817 67.9138 63.112C67.8581 62.9341 67.8024 62.7353 67.8024 62.4075C67.8024 62.1459 67.8233 61.9959 67.8477 61.8425C67.8581 61.7727 67.8686 61.703 67.8686 61.5669C67.8686 61.3751 67.8651 61.281 67.8616 61.1833C67.8546 61.0682 67.8512 60.9531 67.8512 60.7229C67.8512 60.4788 67.8616 60.3567 67.8686 60.2347C67.8755 60.1475 67.8825 60.0568 67.8825 59.8789C67.8825 59.6801 67.879 59.579 67.879 59.4778C67.8755 59.3662 67.8755 59.2581 67.8755 59.0349C67.8755 58.7664 67.8929 58.6303 67.9103 58.4943C67.9208 58.4176 67.9312 58.3444 67.9312 58.1909C67.9312 58.0095 67.9243 57.9189 67.9208 57.8282C67.9138 57.7096 67.9068 57.591 67.9068 57.3504C67.9068 57.1655 67.9034 57.0714 67.8964 56.9772C67.8894 56.8586 67.8825 56.7435 67.8825 56.5064C67.8825 56.3355 67.8755 56.2483 67.8686 56.1646C67.8581 56.039 67.8477 55.917 67.8477 55.6659C67.8477 55.3938 67.8686 55.2438 67.886 55.1218C67.8964 55.0485 67.9068 54.9718 67.9068 54.8253C67.9068 54.766 67.9068 54.766 67.886 54.7033C67.8233 54.5219 67.7641 54.3161 67.7641 53.9813C67.7641 53.6953 67.792 53.5279 67.8129 53.4094C67.8233 53.3431 67.8338 53.2733 67.8338 53.1408C67.8338 52.8548 67.8651 52.6839 67.9034 52.52C67.9208 52.4398 67.9277 52.4084 67.9277 52.2968C67.9277 52.241 67.9277 52.241 67.9068 52.1817C67.8442 51.9969 67.7815 51.7911 67.7815 51.4528C67.7815 51.2296 67.785 51.1215 67.7885 51.0099C67.792 50.9087 67.792 50.8111 67.792 50.6123C67.792 50.417 67.7885 50.3193 67.785 50.2216C67.7815 50.11 67.7781 49.995 67.7781 49.7683C67.4126 49.1928 66.8905 49.0045 66.4972 48.9521C66.2431 48.9521 66.0899 48.9521 65.9402 48.9556C65.7558 48.9556 65.5713 48.9591 65.2023 48.9591L63.7718 48.9626C63.455 48.9626 63.2949 48.9661 63.1348 48.9696C62.9364 48.9731 62.738 48.9766 62.3412 48.9766C61.9548 48.9766 61.7634 48.9731 61.572 48.9696C61.4084 48.9661 61.2413 48.9661 60.9141 48.9661C60.5904 48.9661 60.4303 48.9696 60.2702 48.9731C60.0753 48.9766 59.8769 48.98 59.4835 48.98C59.0798 48.98 58.8779 48.9766 58.676 48.9696C58.5229 48.9661 58.3662 48.9626 58.0564 48.9626C57.677 48.9626 57.4891 48.9591 57.2976 48.9591C57.1306 48.9556 56.9635 48.9556 56.6259 48.9556C56.3265 48.9556 56.1734 48.9591 56.0237 48.9661C55.8149 48.9731 55.6095 48.98 55.1953 48.98C54.8089 48.98 54.6175 48.9766 54.4226 48.9731C54.259 48.9696 54.0919 48.9696 53.7647 48.9696L52.8632 48.9731C52.0661 49.1091 51.8434 49.6741 51.8434 49.6741C51.8399 49.7717 51.8329 49.8729 51.8329 50.0682C51.8329 50.3751 51.7981 50.5495 51.7738 50.6785C51.7564 50.7657 51.7494 50.8111 51.7494 50.9401C51.7494 51.1284 51.7564 51.2226 51.7598 51.3203C51.7668 51.4423 51.7738 51.5679 51.7738 51.8155C51.7738 51.8957 51.7772 51.9062 51.7981 51.9794C51.8538 52.1573 51.906 52.3596 51.906 52.6874C51.906 52.9943 51.8712 53.1722 51.8434 53.3047C51.826 53.3919 51.819 53.4338 51.819 53.5628C51.819 53.8209 51.8086 53.9499 51.7946 54.079C51.7877 54.1662 51.7772 54.2568 51.7772 54.4347L51.7807 54.8602C51.7807 54.9718 51.7842 55.0834 51.7842 55.3066C51.7842 55.5508 51.7772 55.6728 51.7703 55.7949C51.7668 55.8891 51.7598 55.9867 51.7598 56.1785C51.7598 56.3529 51.7668 56.4401 51.7772 56.5273C51.7912 56.6598 51.8016 56.7889 51.8016 57.0539C51.8016 57.326 51.7807 57.4829 51.7529 57.6433C51.7424 57.7131 51.7285 57.7863 51.7285 57.9293C51.7285 57.9537 51.7285 57.9747 51.732 57.9886L51.7494 58.0374C51.819 58.2293 51.8886 58.4455 51.8886 58.8012C51.8886 59.1151 51.8434 59.3104 51.7981 59.4813C51.7772 59.5581 51.7703 59.579 51.7703 59.6766C51.7703 59.8231 51.7807 59.8964 51.7946 59.9731C51.8155 60.1021 51.8399 60.2626 51.8399 60.552C51.8399 60.7787 51.8364 60.8903 51.8364 61.0019C51.8364 61.1066 51.8329 61.2112 51.8329 61.4239C51.8329 61.6297 51.8364 61.7309 51.8399 61.8355C51.8434 61.9506 51.8469 62.0657 51.8469 62.2993C51.8469 62.4598 51.8573 62.5365 51.8677 62.6167C51.8851 62.7562 51.906 62.8957 51.906 63.1747C51.906 63.4991 51.8538 63.7014 51.8016 63.8792C51.7807 63.956 51.7772 63.9664 51.7772 64.0501C51.7772 64.3187 51.7633 64.4512 51.7494 64.5872C51.739 64.6709 51.732 64.7546 51.732 64.9255C51.732 64.9499 51.732 64.9674 51.7355 64.9848L51.7529 65.0337C51.8225 65.2185 51.8956 65.4452 51.8956 65.8044C51.8956 66.066 51.8851 66.195 51.8712 66.3241C51.8643 66.4113 51.8538 66.5019 51.8538 66.6798C51.8538 66.8891 51.8573 66.9902 51.8573 67.0948C51.8608 67.2099 51.8608 67.325 51.8608 67.5517C51.8608 67.8377 51.8364 67.9981 51.8155 68.1272C51.8051 68.2004 51.7946 68.2772 51.7946 68.4271C51.7946 68.6957 51.7807 68.8282 51.7668 68.9607C51.7564 69.0444 51.7494 69.1316 51.7494 69.3025C51.7494 69.3269 51.7494 69.3444 51.7529 69.3618L51.7703 69.4106C51.8434 69.6025 51.913 69.8222 51.913 70.1779C51.913 70.2233 51.9095 70.2651 51.9095 70.307C52.0035 70.3104 52.1114 70.3104 52.275 70.3104C52.5848 70.3104 52.7379 70.3104 52.8911 70.307C53.0547 70.307 53.2183 70.3035 53.5489 70.3035C53.9005 70.3035 54.078 70.307 54.252 70.3104C54.3947 70.3139 54.5374 70.3174 54.8229 70.3174C55.1222 70.3174 55.2719 70.3174 55.4215 70.3139C55.5921 70.3104 55.7592 70.3104 56.0968 70.3104C56.4901 70.3104 56.685 70.3209 56.8834 70.3279C57.0053 70.3349 57.1271 70.3384 57.3742 70.3384C57.5448 70.3384 57.597 70.3349 57.7188 70.3244C57.9625 70.3035 58.2166 70.2825 58.6482 70.2825C59.0241 70.2825 59.212 70.2895 59.3965 70.2965C59.5288 70.3 59.6576 70.307 59.9221 70.307C60.3607 70.307 60.6148 70.3244 60.7992 70.3384C60.9002 70.3453 60.9976 70.3523 61.196 70.3523C61.4223 70.3523 61.5372 70.3453 61.6485 70.3384C61.8539 70.3279 62.0593 70.3139 62.47 70.3139C62.8598 70.3139 63.0513 70.3209 63.2462 70.3314C63.3715 70.3383 63.4933 70.3418 63.7439 70.3418C63.9632 70.3418 64.0711 70.3349 64.1825 70.3279C64.3704 70.3174 64.6002 70.3035 65.0213 70.3035C65.3276 70.3035 65.4808 70.3035 65.6339 70.3C65.801 70.3 65.9646 70.2965 66.2953 70.2965C66.5215 70.2965 66.6573 70.2965 66.7791 70.293C67.5692 70.0349 67.9068 69.3548 67.9068 69.3548Z" fill="white"/>
</svg>
