<svg width="85" height="80" viewBox="0 0 85 80" fill="none" xmlns="http://www.w3.org/2000/svg">
<path d="M10.9055 42.4259C10.8095 42.4259 10.6175 42.3459 10.3295 42.1859C10.0522 42.0259 9.78553 41.7699 9.52953 41.4179C9.48686 41.3645 9.35353 41.2045 9.12953 40.9379C8.9162 40.6712 8.63886 40.3405 8.29753 39.9459C7.96686 39.5405 7.6042 39.1032 7.20953 38.6339C6.81486 38.1645 6.4202 37.6952 6.02553 37.2259C5.63086 36.7565 5.26286 36.3245 4.92153 35.9299C4.5802 35.5245 4.2922 35.1885 4.05753 34.9219C3.83353 34.6445 3.69486 34.4739 3.64153 34.4099C3.56686 34.3139 3.50286 34.2499 3.44953 34.2179C3.3962 34.1752 3.3482 34.1539 3.30553 34.1539C3.2522 34.1539 3.21486 34.1965 3.19353 34.2819C3.1722 34.3565 3.16153 34.4259 3.16153 34.4899C3.15086 35.0125 3.1402 35.6152 3.12953 36.2979C3.11886 36.9805 3.1082 37.6845 3.09753 38.4099C3.08686 39.1352 3.08153 39.8285 3.08153 40.4899C3.08153 40.7779 3.15086 41.0445 3.28953 41.2899C3.43886 41.5352 3.71086 41.6952 4.10553 41.7699C4.28686 41.8019 4.4202 41.8392 4.50553 41.8819C4.59086 41.9245 4.63353 41.9832 4.63353 42.0579C4.63353 42.1219 4.59086 42.1645 4.50553 42.1859C4.4202 42.2179 4.3082 42.2339 4.16953 42.2339C3.88153 42.2339 3.66286 42.2232 3.51353 42.2019C3.37486 42.1912 3.24686 42.1805 3.12953 42.1699C3.02286 42.1592 2.8682 42.1539 2.66553 42.1539C2.47353 42.1539 2.3242 42.1592 2.21753 42.1699C2.11086 42.1805 1.9882 42.1912 1.84953 42.2019C1.71086 42.2232 1.49753 42.2339 1.20953 42.2339C1.07086 42.2339 0.958863 42.2179 0.873529 42.1859C0.788196 42.1645 0.745529 42.1219 0.745529 42.0579C0.745529 41.9832 0.788196 41.9245 0.873529 41.8819C0.958863 41.8392 1.0922 41.7965 1.27353 41.7539C1.58286 41.6685 1.80686 41.5139 1.94553 41.2899C2.0842 41.0552 2.16953 40.7725 2.20153 40.4419C2.2442 40.0365 2.28686 39.5032 2.32953 38.8419C2.3722 38.1699 2.40953 37.4232 2.44153 36.6019C2.47353 35.7699 2.48953 34.9165 2.48953 34.0419C2.48953 33.4765 2.3402 33.0712 2.04153 32.8259C1.75353 32.5805 1.37486 32.3832 0.905529 32.2339C0.862863 32.2125 0.766863 32.1699 0.617529 32.1059C0.478863 32.0312 0.409529 31.9459 0.409529 31.8499C0.409529 31.7539 0.457529 31.6952 0.553529 31.6739C0.649529 31.6419 0.724196 31.6259 0.777529 31.6259C1.08686 31.6365 1.33753 31.6472 1.52953 31.6579C1.72153 31.6579 1.8922 31.6632 2.04153 31.6739C2.19086 31.6845 2.3562 31.6952 2.53753 31.7059C2.71886 31.7059 2.95353 31.7059 3.24153 31.7059C3.33753 31.7059 3.4122 31.7325 3.46553 31.7859C3.51886 31.8392 3.5722 31.9032 3.62553 31.9779C3.6682 32.0419 3.80686 32.2232 4.04153 32.5219C4.28686 32.8099 4.58553 33.1779 4.93753 33.6259C5.3002 34.0632 5.69486 34.5432 6.12153 35.0659C6.5482 35.5779 6.97486 36.0952 7.40153 36.6179C7.8282 37.1299 8.22286 37.6099 8.58553 38.0579C8.9482 38.4952 9.24686 38.8579 9.48153 39.1459C9.72686 39.4339 9.87086 39.6045 9.91353 39.6579C9.9562 39.7005 10.0149 39.7645 10.0895 39.8499C10.1749 39.9352 10.2495 39.9779 10.3135 39.9779C10.4095 39.9779 10.4629 39.8659 10.4735 39.6419C10.4735 39.4925 10.4735 39.2099 10.4735 38.7939C10.4842 38.3672 10.4895 37.8552 10.4895 37.2579C10.5002 36.6499 10.5055 35.9939 10.5055 35.2899C10.5055 34.5859 10.5055 33.8659 10.5055 33.1299C10.4949 32.9165 10.3829 32.7245 10.1695 32.5539C9.9562 32.3832 9.75886 32.2819 9.57753 32.2499C9.3962 32.2179 9.23086 32.1752 9.08153 32.1219C8.9322 32.0685 8.85753 32.0045 8.85753 31.9299C8.85753 31.8659 8.9322 31.8232 9.08153 31.8019C9.23086 31.7699 9.37486 31.7539 9.51353 31.7539C9.6202 31.7539 9.72153 31.7539 9.81753 31.7539C9.9242 31.7539 10.0255 31.7539 10.1215 31.7539C10.2282 31.7539 10.3295 31.7539 10.4255 31.7539C10.6815 31.7539 10.8842 31.7539 11.0335 31.7539C11.1829 31.7432 11.3429 31.7325 11.5135 31.7219C11.6949 31.7112 11.9455 31.7059 12.2655 31.7059C12.4042 31.7059 12.5162 31.7219 12.6015 31.7539C12.6869 31.7752 12.7295 31.8179 12.7295 31.8819C12.7295 32.0312 12.5535 32.1379 12.2015 32.2019C11.8069 32.2765 11.5455 32.3725 11.4175 32.4899C11.2895 32.6072 11.2149 32.7992 11.1935 33.0659C11.1935 33.1192 11.1882 33.3272 11.1775 33.6899C11.1775 34.0525 11.1775 34.5112 11.1775 35.0659C11.1775 35.6205 11.1722 36.2179 11.1615 36.8579C11.1615 37.4979 11.1615 38.1379 11.1615 38.7779C11.1615 39.4072 11.1615 39.9725 11.1615 40.4739C11.1615 40.7299 11.1669 40.9645 11.1775 41.1779C11.1989 41.3805 11.2149 41.5565 11.2255 41.7059C11.2362 41.8445 11.2415 41.9512 11.2415 42.0259C11.2415 42.1965 11.2042 42.3032 11.1295 42.3459C11.0655 42.3992 10.9909 42.4259 10.9055 42.4259ZM13.9454 42.2339C13.8067 42.2339 13.6947 42.2179 13.6094 42.1859C13.5241 42.1645 13.4814 42.1219 13.4814 42.0579C13.4814 41.9299 13.6574 41.8339 14.0094 41.7699C14.4147 41.6952 14.7134 41.5725 14.9054 41.4019C15.0974 41.2312 15.1934 40.9539 15.1934 40.5699V33.3699C15.1934 32.9859 15.1134 32.7139 14.9534 32.5539C14.8041 32.3939 14.5267 32.2765 14.1214 32.2019C13.9401 32.1699 13.8067 32.1272 13.7214 32.0739C13.6361 32.0205 13.5934 31.9565 13.5934 31.8819C13.5934 31.8179 13.6361 31.7752 13.7214 31.7539C13.8067 31.7219 13.9187 31.7059 14.0574 31.7059C14.4627 31.7059 14.8041 31.7112 15.0814 31.7219C15.3694 31.7325 15.6467 31.7432 15.9134 31.7539C16.1907 31.7539 16.5161 31.7539 16.8894 31.7539C17.2414 31.7539 17.6094 31.7539 17.9934 31.7539C18.3881 31.7432 18.7507 31.7379 19.0814 31.7379C19.4441 31.7272 19.7481 31.7219 19.9934 31.7219C20.2494 31.7112 20.3987 31.7059 20.4414 31.7059C20.4947 31.7059 20.5534 31.7165 20.6174 31.7379C20.6814 31.7592 20.7187 31.7965 20.7294 31.8499C20.7827 32.1485 20.8361 32.4472 20.8894 32.7459C20.9427 33.0339 20.9694 33.2845 20.9694 33.4979C20.9694 33.5939 20.9427 33.6579 20.8894 33.6899C20.8467 33.7219 20.7987 33.7379 20.7454 33.7379C20.6921 33.7379 20.6547 33.7272 20.6334 33.7059C20.6121 33.6739 20.5907 33.6312 20.5694 33.5779C20.5161 33.3965 20.4627 33.2259 20.4094 33.0659C20.3561 32.8952 20.2921 32.7725 20.2174 32.6979C20.0681 32.5272 19.9027 32.4152 19.7214 32.3619C19.5401 32.2979 19.3481 32.2659 19.1454 32.2659H17.0494C16.9641 32.2659 16.8467 32.3139 16.6974 32.4099C16.5481 32.5059 16.4734 32.6285 16.4734 32.7779V36.1699C16.4734 36.2659 16.5001 36.3512 16.5534 36.4259C16.6174 36.4899 16.6867 36.5219 16.7614 36.5219H18.3454C18.6547 36.5219 18.8681 36.4685 18.9854 36.3619C19.1027 36.2445 19.1987 36.0365 19.2734 35.7379C19.3374 35.5032 19.4334 35.3859 19.5614 35.3859C19.6041 35.3859 19.6467 35.4072 19.6894 35.4499C19.7427 35.4925 19.7694 35.5565 19.7694 35.6419C19.7694 35.6845 19.7641 35.7805 19.7534 35.9299C19.7534 36.0792 19.7481 36.2339 19.7374 36.3939C19.7267 36.5539 19.7214 36.6765 19.7214 36.7619C19.7214 36.8685 19.7214 37.0125 19.7214 37.1939C19.7321 37.3645 19.7374 37.5299 19.7374 37.6899C19.7481 37.8499 19.7534 37.9512 19.7534 37.9939C19.7534 38.0685 19.7427 38.1325 19.7214 38.1859C19.7107 38.2392 19.6734 38.2659 19.6094 38.2659C19.4494 38.2659 19.3267 38.0952 19.2414 37.7539C19.1774 37.5085 19.0921 37.3272 18.9854 37.2099C18.8787 37.0925 18.7187 37.0339 18.5054 37.0339H17.0174C16.8361 37.0339 16.6974 37.0605 16.6014 37.1139C16.5161 37.1565 16.4734 37.2685 16.4734 37.4499V40.5219C16.4734 40.9272 16.5587 41.2099 16.7294 41.3699C16.9001 41.5192 17.1667 41.5939 17.5294 41.5939H18.7134C19.0547 41.5939 19.3374 41.5779 19.5614 41.5459C19.7961 41.5032 19.9987 41.4285 20.1694 41.3219C20.3401 41.2045 20.4894 41.0499 20.6174 40.8579C20.7561 40.6659 20.9107 40.4099 21.0814 40.0899C21.1134 40.0259 21.1507 39.9725 21.1934 39.9299C21.2361 39.8872 21.2841 39.8712 21.3374 39.8819C21.3907 39.8925 21.4334 39.9192 21.4654 39.9619C21.4974 39.9939 21.5134 40.0419 21.5134 40.1059C21.5134 40.2019 21.4867 40.3725 21.4334 40.6179C21.3801 40.8525 21.3107 41.0979 21.2254 41.3539C21.1507 41.6099 21.0814 41.8125 21.0174 41.9619C20.9854 42.0365 20.9534 42.1005 20.9214 42.1539C20.9001 42.2072 20.8574 42.2339 20.7934 42.2339C20.2814 42.2339 19.8067 42.2285 19.3694 42.2179C18.9321 42.2072 18.5161 42.1965 18.1214 42.1859C17.7267 42.1752 17.3374 42.1645 16.9534 42.1539C16.5801 42.1432 16.1907 42.1379 15.7854 42.1379C15.5507 42.1379 15.3481 42.1432 15.1774 42.1539C15.0067 42.1752 14.8307 42.1912 14.6494 42.2019C14.4681 42.2232 14.2334 42.2339 13.9454 42.2339ZM27.2807 42.4099C27.2593 42.4099 27.2273 42.3619 27.1847 42.2659C27.142 42.1699 27.0993 42.0685 27.0567 41.9619L23.6007 33.2899C23.4727 33.0125 23.318 32.7885 23.1367 32.6179C22.9553 32.4365 22.726 32.3085 22.4487 32.2339C22.278 32.1805 22.1447 32.1272 22.0487 32.0739C21.9633 32.0205 21.9207 31.9565 21.9207 31.8819C21.9207 31.8179 21.9633 31.7752 22.0487 31.7539C22.134 31.7219 22.246 31.7059 22.3847 31.7059C22.63 31.7059 22.8593 31.7165 23.0727 31.7379C23.2967 31.7485 23.542 31.7539 23.8087 31.7539C24.1073 31.7539 24.39 31.7485 24.6567 31.7379C24.9233 31.7272 25.1367 31.7219 25.2967 31.7219C25.4353 31.7219 25.5473 31.7379 25.6327 31.7699C25.718 31.7912 25.7607 31.8339 25.7607 31.8979C25.7607 31.9725 25.718 32.0312 25.6327 32.0739C25.5473 32.1165 25.414 32.1645 25.2327 32.2179C25.1047 32.2499 25.0193 32.3192 24.9767 32.4259C24.934 32.5219 24.9127 32.6285 24.9127 32.7459C24.9127 32.9165 24.934 33.0765 24.9767 33.2259C25.0193 33.3645 25.0407 33.4339 25.0407 33.4339C25.286 34.0525 25.51 34.6179 25.7127 35.1299C25.9153 35.6419 26.1127 36.1379 26.3047 36.6179C26.5073 37.0872 26.7153 37.5725 26.9287 38.0739C27.1527 38.5645 27.398 39.1139 27.6647 39.7219C27.718 39.8392 27.7607 39.8925 27.7927 39.8819C27.8353 39.8712 27.8727 39.8232 27.9047 39.7379L29.1527 36.6499C29.1847 36.5645 29.206 36.4952 29.2167 36.4419C29.238 36.3779 29.2487 36.3245 29.2487 36.2819C29.2487 36.2179 29.238 36.1539 29.2167 36.0899C29.1953 36.0152 29.1633 35.9245 29.1207 35.8179L28.2087 33.5459C28.07 33.2045 27.8513 32.9219 27.5527 32.6979C27.254 32.4632 26.966 32.3085 26.6887 32.2339C26.518 32.1805 26.3847 32.1272 26.2887 32.0739C26.2033 32.0205 26.1607 31.9565 26.1607 31.8819C26.1607 31.8179 26.2033 31.7752 26.2887 31.7539C26.374 31.7219 26.486 31.7059 26.6247 31.7059C26.7953 31.7059 26.9553 31.7112 27.1047 31.7219C27.2647 31.7325 27.4247 31.7432 27.5847 31.7539C27.7553 31.7539 27.9367 31.7539 28.1287 31.7539C28.374 31.7539 28.598 31.7485 28.8007 31.7379C29.014 31.7272 29.2007 31.7219 29.3607 31.7219C29.4993 31.7219 29.6113 31.7379 29.6967 31.7699C29.782 31.7912 29.8247 31.8339 29.8247 31.8979C29.8247 31.9832 29.7713 32.0525 29.6647 32.1059C29.558 32.1592 29.446 32.2179 29.3287 32.2819C29.222 32.3459 29.1687 32.4419 29.1687 32.5699C29.1687 32.5912 29.1687 32.6125 29.1687 32.6339C29.1793 32.6552 29.19 32.6765 29.2007 32.6979C29.222 32.7405 29.2593 32.8472 29.3127 33.0179C29.3767 33.1779 29.446 33.3592 29.5207 33.5619C29.606 33.7645 29.686 33.9565 29.7607 34.1379C29.8353 34.3085 29.8887 34.4312 29.9207 34.5059C29.974 34.6339 30.0167 34.7032 30.0487 34.7139C30.0913 34.7139 30.1447 34.6445 30.2087 34.5059C30.294 34.3139 30.3793 34.0952 30.4647 33.8499C30.5607 33.6045 30.6407 33.3752 30.7047 33.1619C30.7793 32.9379 30.8273 32.7832 30.8487 32.6979C30.8593 32.6659 30.8647 32.6285 30.8647 32.5859C30.8647 32.4579 30.8167 32.3619 30.7207 32.2979C30.6247 32.2339 30.5233 32.1752 30.4167 32.1219C30.3207 32.0579 30.2727 31.9832 30.2727 31.8979C30.2727 31.8339 30.3153 31.7912 30.4007 31.7699C30.486 31.7379 30.598 31.7219 30.7367 31.7219C30.9713 31.7219 31.1313 31.7272 31.2167 31.7379C31.302 31.7485 31.4193 31.7539 31.5687 31.7539C31.75 31.7539 31.9047 31.7485 32.0327 31.7379C32.1607 31.7165 32.3207 31.7059 32.5127 31.7059C32.6513 31.7059 32.7633 31.7219 32.8487 31.7539C32.934 31.7752 32.9767 31.8179 32.9767 31.8819C32.9767 31.9565 32.934 32.0205 32.8487 32.0739C32.7633 32.1165 32.63 32.1592 32.4487 32.2019C32.1073 32.2765 31.8727 32.3672 31.7447 32.4739C31.6273 32.5805 31.4993 32.7459 31.3607 32.9699C31.3073 33.0659 31.2273 33.2259 31.1207 33.4499C31.0247 33.6739 30.918 33.9192 30.8007 34.1859C30.694 34.4525 30.598 34.7032 30.5127 34.9379C30.4807 35.0125 30.4487 35.1192 30.4167 35.2579C30.3953 35.3965 30.3953 35.4925 30.4167 35.5459L32.0647 39.7859C32.086 39.8392 32.1127 39.8552 32.1447 39.8339C32.1767 39.8125 32.2087 39.7645 32.2407 39.6899C32.5073 38.9859 32.806 38.0845 33.1367 36.9859C33.478 35.8872 33.83 34.7245 34.1927 33.4979C34.2247 33.4019 34.246 33.3059 34.2567 33.2099C34.278 33.1032 34.2887 33.0072 34.2887 32.9219C34.2887 32.7619 34.2513 32.6179 34.1767 32.4899C34.1127 32.3619 33.99 32.2765 33.8087 32.2339C33.702 32.2019 33.5847 32.1592 33.4567 32.1059C33.3393 32.0525 33.2807 31.9885 33.2807 31.9139C33.2807 31.8499 33.3233 31.8072 33.4087 31.7859C33.494 31.7539 33.606 31.7379 33.7447 31.7379C33.958 31.7379 34.15 31.7432 34.3207 31.7539C34.502 31.7539 34.694 31.7539 34.8967 31.7539C35.1633 31.7539 35.4193 31.7485 35.6647 31.7379C35.91 31.7165 36.134 31.7059 36.3367 31.7059C36.4753 31.7059 36.5873 31.7219 36.6727 31.7539C36.758 31.7752 36.8007 31.8179 36.8007 31.8819C36.8007 31.9565 36.758 32.0205 36.6727 32.0739C36.5873 32.1165 36.454 32.1592 36.2727 32.2019C36.0167 32.2552 35.798 32.3672 35.6167 32.5379C35.446 32.6979 35.3073 32.8792 35.2007 33.0819C35.1047 33.2739 35.0247 33.4499 34.9607 33.6099L32.1287 41.9779C32.118 42.0205 32.086 42.0899 32.0327 42.1859C31.9793 42.2925 31.926 42.3459 31.8727 42.3459C31.83 42.3459 31.782 42.3139 31.7287 42.2499C31.6753 42.1859 31.6327 42.1165 31.6007 42.0419C31.3233 41.4019 31.0833 40.8312 30.8807 40.3299C30.678 39.8179 30.4807 39.3059 30.2887 38.7939C30.1073 38.2819 29.8887 37.7165 29.6327 37.0979C29.6007 37.0232 29.574 36.9965 29.5527 37.0179C29.5313 37.0285 29.4993 37.0872 29.4567 37.1939C29.2007 37.8019 28.9767 38.3405 28.7847 38.8099C28.6033 39.2792 28.422 39.7592 28.2407 40.2499C28.0593 40.7299 27.8567 41.2845 27.6327 41.9139C27.59 42.0205 27.5367 42.1272 27.4727 42.2339C27.4087 42.3512 27.3447 42.4099 27.2807 42.4099ZM40.66 42.2339C40.5214 42.2339 40.4094 42.2125 40.324 42.1699C40.2494 42.1379 40.212 42.0952 40.212 42.0419C40.212 41.9459 40.26 41.8819 40.356 41.8499C40.4627 41.8072 40.532 41.7805 40.564 41.7699C40.98 41.6845 41.3 41.5619 41.524 41.4019C41.748 41.2312 41.86 40.9699 41.86 40.6179V33.1939C41.86 32.9379 41.8334 32.7512 41.78 32.6339C41.7267 32.5059 41.6307 32.4152 41.492 32.3619C41.3534 32.2979 41.1507 32.2445 40.884 32.2019C40.532 32.1379 40.356 32.0312 40.356 31.8819C40.356 31.8179 40.3987 31.7752 40.484 31.7539C40.5694 31.7219 40.6814 31.7059 40.82 31.7059C41.108 31.7059 41.3374 31.7112 41.508 31.7219C41.6894 31.7325 41.86 31.7432 42.02 31.7539C42.18 31.7539 42.3774 31.7539 42.612 31.7539C42.8787 31.7539 43.108 31.7539 43.3 31.7539C43.492 31.7432 43.6894 31.7325 43.892 31.7219C44.0947 31.7112 44.34 31.7059 44.628 31.7059C44.7667 31.7059 44.8787 31.7219 44.964 31.7539C45.0494 31.7752 45.092 31.8179 45.092 31.8819C45.092 31.9565 45.0494 32.0205 44.964 32.0739C44.8787 32.1272 44.7454 32.1699 44.564 32.2019C44.1694 32.2765 43.8334 32.3672 43.556 32.4739C43.2787 32.5699 43.14 32.7725 43.14 33.0819V40.6179C43.14 40.9485 43.2147 41.1939 43.364 41.3539C43.5134 41.5139 43.8494 41.5939 44.372 41.5939H46.356C46.644 41.5939 46.8947 41.5512 47.108 41.4659C47.332 41.3699 47.4974 41.2739 47.604 41.1779C47.8174 40.9965 47.972 40.8365 48.068 40.6979C48.1747 40.5485 48.2974 40.3299 48.436 40.0419C48.4574 39.9779 48.5 39.8819 48.564 39.7539C48.6387 39.6259 48.7134 39.5619 48.788 39.5619C48.852 39.5619 48.9 39.5939 48.932 39.6579C48.964 39.7219 48.98 39.7859 48.98 39.8499C48.98 39.8605 48.9747 39.8765 48.964 39.8979C48.964 39.9085 48.964 39.9192 48.964 39.9299C48.8894 40.2072 48.82 40.4579 48.756 40.6819C48.7027 40.9059 48.6547 41.1192 48.612 41.3219C48.58 41.5245 48.5534 41.7379 48.532 41.9619C48.5214 42.0365 48.5 42.1005 48.468 42.1539C48.4467 42.2072 48.3934 42.2339 48.308 42.2339C47.7747 42.2339 47.2627 42.2285 46.772 42.2179C46.2814 42.2072 45.8067 42.1965 45.348 42.1859C44.9 42.1859 44.468 42.1805 44.052 42.1699C43.636 42.1592 43.2254 42.1539 42.82 42.1539C42.5534 42.1539 42.2494 42.1592 41.908 42.1699C41.5774 42.1805 41.284 42.1912 41.028 42.2019C40.7827 42.2232 40.66 42.2339 40.66 42.2339ZM49.5558 42.2339C49.4171 42.2339 49.3051 42.2125 49.2198 42.1699C49.1344 42.1379 49.0918 42.0899 49.0918 42.0259C49.0918 41.9512 49.1344 41.8872 49.2198 41.8339C49.3158 41.7699 49.4491 41.7112 49.6198 41.6579C49.8971 41.5725 50.1531 41.4445 50.3878 41.2739C50.6224 41.1032 50.8251 40.8205 50.9958 40.4259C51.2944 39.7432 51.5664 39.1032 51.8118 38.5059C52.0678 37.9085 52.3078 37.3219 52.5318 36.7459C52.7558 36.1699 52.9851 35.5725 53.2198 34.9539C53.4651 34.3245 53.7211 33.6419 53.9878 32.9059C54.0411 32.7565 54.0891 32.6072 54.1318 32.4579C54.1744 32.3085 54.2011 32.1485 54.2118 31.9779C54.3078 31.9459 54.4038 31.9139 54.4998 31.8819C54.5958 31.8499 54.6918 31.8019 54.7878 31.7379C54.8838 31.6739 54.9478 31.5779 54.9798 31.4499C55.0224 31.3219 55.0598 31.2365 55.0918 31.1939C55.1024 31.1832 55.1131 31.1779 55.1238 31.1779C55.1451 31.1779 55.1611 31.1885 55.1718 31.2099C55.1931 31.2525 55.2091 31.3059 55.2198 31.3699C55.2411 31.4339 55.2624 31.4979 55.2838 31.5619C55.5398 32.3725 55.8064 33.1992 56.0838 34.0419C56.3611 34.8845 56.6278 35.7005 56.8838 36.4899C57.1504 37.2685 57.3904 37.9725 57.6038 38.6019C57.8278 39.2205 58.0038 39.7219 58.1318 40.1059C58.2811 40.5325 58.4411 40.8525 58.6118 41.0659C58.7824 41.2792 58.9584 41.4285 59.1398 41.5139C59.3318 41.5992 59.5344 41.6632 59.7478 41.7059C59.9291 41.7379 60.0624 41.7912 60.1478 41.8659C60.2331 41.9299 60.2758 41.9992 60.2758 42.0739C60.2758 42.1379 60.2331 42.1805 60.1478 42.2019C60.0624 42.2232 59.9504 42.2339 59.8118 42.2339C59.6624 42.2339 59.4598 42.2232 59.2038 42.2019C58.9478 42.1912 58.6758 42.1752 58.3878 42.1539C58.0998 42.1432 57.8331 42.1379 57.5878 42.1379C57.3851 42.1379 57.1771 42.1379 56.9638 42.1379C56.7504 42.1379 56.5531 42.1432 56.3718 42.1539C56.1904 42.1539 56.0358 42.1539 55.9078 42.1539C55.7691 42.1539 55.6571 42.1379 55.5718 42.1059C55.4864 42.0739 55.4438 42.0259 55.4438 41.9619C55.4438 41.8872 55.4971 41.8232 55.6038 41.7699C55.7104 41.7165 55.8331 41.6792 55.9718 41.6579C56.3238 41.6045 56.5744 41.5139 56.7238 41.3859C56.8731 41.2579 56.9478 41.1085 56.9478 40.9379C56.9478 40.7779 56.9104 40.5485 56.8358 40.2499C56.7718 39.9405 56.6918 39.6152 56.5958 39.2739C56.4998 38.9219 56.4091 38.6125 56.3238 38.3459C56.3024 38.2605 56.2598 38.2125 56.1958 38.2019C56.1424 38.1805 56.0411 38.1699 55.8918 38.1699H52.8678C52.8251 38.1699 52.7771 38.1912 52.7238 38.2339C52.6811 38.2659 52.6384 38.3405 52.5958 38.4579C52.5638 38.5645 52.5104 38.7352 52.4358 38.9699C52.3611 39.1939 52.2864 39.4339 52.2118 39.6899C52.1371 39.9459 52.0731 40.1752 52.0198 40.3779C51.9664 40.5805 51.9398 40.7085 51.9398 40.7619C51.9398 40.9965 52.0304 41.1939 52.2118 41.3539C52.3931 41.5032 52.6118 41.6099 52.8678 41.6739C53.2198 41.7699 53.3958 41.8765 53.3958 41.9939C53.3958 42.0579 53.3531 42.1059 53.2678 42.1379C53.1824 42.1592 53.0704 42.1699 52.9318 42.1699C52.7931 42.1699 52.5904 42.1645 52.3238 42.1539C52.0571 42.1432 51.7744 42.1379 51.4758 42.1379C51.1238 42.1379 50.7824 42.1539 50.4518 42.1859C50.1211 42.2179 49.8224 42.2339 49.5558 42.2339ZM53.2998 37.6419H55.7798C55.9291 37.6419 56.0038 37.6152 56.0038 37.5619C56.0038 37.5405 55.9984 37.5192 55.9878 37.4979C55.9878 37.4659 55.9824 37.4339 55.9718 37.4019L54.7238 33.4979C54.6598 33.3059 54.6118 33.2099 54.5798 33.2099C54.5584 33.2099 54.5158 33.3005 54.4518 33.4819L52.9958 37.4019C52.9744 37.4659 52.9638 37.5085 52.9638 37.5299C52.9638 37.5832 52.9904 37.6152 53.0438 37.6259C53.1078 37.6365 53.1931 37.6419 53.2998 37.6419ZM70.8899 42.4259C70.7939 42.4259 70.6019 42.3459 70.3139 42.1859C70.0366 42.0259 69.7699 41.7699 69.5139 41.4179C69.4712 41.3645 69.3379 41.2045 69.1139 40.9379C68.9006 40.6712 68.6232 40.3405 68.2819 39.9459C67.9512 39.5405 67.5886 39.1032 67.1939 38.6339C66.7992 38.1645 66.4046 37.6952 66.0099 37.2259C65.6152 36.7565 65.2472 36.3245 64.9059 35.9299C64.5646 35.5245 64.2766 35.1885 64.0419 34.9219C63.8179 34.6445 63.6792 34.4739 63.6259 34.4099C63.5512 34.3139 63.4872 34.2499 63.4339 34.2179C63.3806 34.1752 63.3326 34.1539 63.2899 34.1539C63.2366 34.1539 63.1992 34.1965 63.1779 34.2819C63.1566 34.3565 63.1459 34.4259 63.1459 34.4899C63.1352 35.0125 63.1246 35.6152 63.1139 36.2979C63.1032 36.9805 63.0926 37.6845 63.0819 38.4099C63.0712 39.1352 63.0659 39.8285 63.0659 40.4899C63.0659 40.7779 63.1352 41.0445 63.2739 41.2899C63.4232 41.5352 63.6952 41.6952 64.0899 41.7699C64.2712 41.8019 64.4046 41.8392 64.4899 41.8819C64.5752 41.9245 64.6179 41.9832 64.6179 42.0579C64.6179 42.1219 64.5752 42.1645 64.4899 42.1859C64.4046 42.2179 64.2926 42.2339 64.1539 42.2339C63.8659 42.2339 63.6472 42.2232 63.4979 42.2019C63.3592 42.1912 63.2312 42.1805 63.1139 42.1699C63.0072 42.1592 62.8526 42.1539 62.6499 42.1539C62.4579 42.1539 62.3086 42.1592 62.2019 42.1699C62.0952 42.1805 61.9726 42.1912 61.8339 42.2019C61.6952 42.2232 61.4819 42.2339 61.1939 42.2339C61.0552 42.2339 60.9432 42.2179 60.8579 42.1859C60.7726 42.1645 60.7299 42.1219 60.7299 42.0579C60.7299 41.9832 60.7726 41.9245 60.8579 41.8819C60.9432 41.8392 61.0766 41.7965 61.2579 41.7539C61.5672 41.6685 61.7912 41.5139 61.9299 41.2899C62.0686 41.0552 62.1539 40.7725 62.1859 40.4419C62.2286 40.0365 62.2712 39.5032 62.3139 38.8419C62.3566 38.1699 62.3939 37.4232 62.4259 36.6019C62.4579 35.7699 62.4739 34.9165 62.4739 34.0419C62.4739 33.4765 62.3246 33.0712 62.0259 32.8259C61.7379 32.5805 61.3592 32.3832 60.8899 32.2339C60.8472 32.2125 60.7512 32.1699 60.6019 32.1059C60.4632 32.0312 60.3939 31.9459 60.3939 31.8499C60.3939 31.7539 60.4419 31.6952 60.5379 31.6739C60.6339 31.6419 60.7086 31.6259 60.7619 31.6259C61.0712 31.6365 61.3219 31.6472 61.5139 31.6579C61.7059 31.6579 61.8766 31.6632 62.0259 31.6739C62.1752 31.6845 62.3406 31.6952 62.5219 31.7059C62.7032 31.7059 62.9379 31.7059 63.2259 31.7059C63.3219 31.7059 63.3966 31.7325 63.4499 31.7859C63.5032 31.8392 63.5566 31.9032 63.6099 31.9779C63.6526 32.0419 63.7912 32.2232 64.0259 32.5219C64.2712 32.8099 64.5699 33.1779 64.9219 33.6259C65.2846 34.0632 65.6792 34.5432 66.1059 35.0659C66.5326 35.5779 66.9592 36.0952 67.3859 36.6179C67.8126 37.1299 68.2072 37.6099 68.5699 38.0579C68.9326 38.4952 69.2312 38.8579 69.4659 39.1459C69.7112 39.4339 69.8552 39.6045 69.8979 39.6579C69.9406 39.7005 69.9992 39.7645 70.0739 39.8499C70.1592 39.9352 70.2339 39.9779 70.2979 39.9779C70.3939 39.9779 70.4472 39.8659 70.4579 39.6419C70.4579 39.4925 70.4579 39.2099 70.4579 38.7939C70.4686 38.3672 70.4739 37.8552 70.4739 37.2579C70.4846 36.6499 70.4899 35.9939 70.4899 35.2899C70.4899 34.5859 70.4899 33.8659 70.4899 33.1299C70.4792 32.9165 70.3672 32.7245 70.1539 32.5539C69.9406 32.3832 69.7432 32.2819 69.5619 32.2499C69.3806 32.2179 69.2152 32.1752 69.0659 32.1219C68.9166 32.0685 68.8419 32.0045 68.8419 31.9299C68.8419 31.8659 68.9166 31.8232 69.0659 31.8019C69.2152 31.7699 69.3592 31.7539 69.4979 31.7539C69.6046 31.7539 69.7059 31.7539 69.8019 31.7539C69.9086 31.7539 70.0099 31.7539 70.1059 31.7539C70.2126 31.7539 70.3139 31.7539 70.4099 31.7539C70.6659 31.7539 70.8686 31.7539 71.0179 31.7539C71.1672 31.7432 71.3272 31.7325 71.4979 31.7219C71.6792 31.7112 71.9299 31.7059 72.2499 31.7059C72.3886 31.7059 72.5006 31.7219 72.5859 31.7539C72.6712 31.7752 72.7139 31.8179 72.7139 31.8819C72.7139 32.0312 72.5379 32.1379 72.1859 32.2019C71.7912 32.2765 71.5299 32.3725 71.4019 32.4899C71.2739 32.6072 71.1992 32.7992 71.1779 33.0659C71.1779 33.1192 71.1726 33.3272 71.1619 33.6899C71.1619 34.0525 71.1619 34.5112 71.1619 35.0659C71.1619 35.6205 71.1566 36.2179 71.1459 36.8579C71.1459 37.4979 71.1459 38.1379 71.1459 38.7779C71.1459 39.4072 71.1459 39.9725 71.1459 40.4739C71.1459 40.7299 71.1512 40.9645 71.1619 41.1779C71.1832 41.3805 71.1992 41.5565 71.2099 41.7059C71.2206 41.8445 71.2259 41.9512 71.2259 42.0259C71.2259 42.1965 71.1886 42.3032 71.1139 42.3459C71.0499 42.3992 70.9752 42.4259 70.8899 42.4259ZM78.8098 42.2659C78.7031 42.2659 78.4631 42.2552 78.0898 42.2339C77.7271 42.2125 77.3058 42.1912 76.8258 42.1699C76.3564 42.1592 75.9084 42.1539 75.4818 42.1539C75.2684 42.1539 75.0871 42.1592 74.9378 42.1699C74.7991 42.1805 74.6444 42.1912 74.4738 42.2019C74.3138 42.2232 74.0898 42.2339 73.8018 42.2339C73.6631 42.2339 73.5511 42.2179 73.4658 42.1859C73.3804 42.1539 73.3378 42.1005 73.3378 42.0259C73.3378 41.9405 73.3804 41.8872 73.4658 41.8659C73.5511 41.8339 73.6844 41.8019 73.8658 41.7699C74.2711 41.6952 74.5484 41.5725 74.6978 41.4019C74.8578 41.2312 74.9378 40.9539 74.9378 40.5699V33.3699C74.9378 32.9859 74.8578 32.7139 74.6978 32.5539C74.5484 32.3939 74.2711 32.2765 73.8658 32.2019C73.6844 32.1699 73.5511 32.1379 73.4658 32.1059C73.3804 32.0632 73.3378 31.9992 73.3378 31.9139C73.3378 31.8392 73.3804 31.7859 73.4658 31.7539C73.5511 31.7219 73.6631 31.7059 73.8018 31.7059C74.0791 31.7059 74.2978 31.7112 74.4578 31.7219C74.6284 31.7219 74.7938 31.7272 74.9538 31.7379C75.1138 31.7379 75.3218 31.7379 75.5778 31.7379C75.7484 31.7379 75.9618 31.7325 76.2178 31.7219C76.4844 31.7112 76.7564 31.6952 77.0338 31.6739C77.3218 31.6525 77.5778 31.6365 77.8018 31.6259C78.0364 31.6152 78.2071 31.6099 78.3138 31.6099C79.4018 31.6099 80.3298 31.7432 81.0978 32.0099C81.8658 32.2659 82.4898 32.6285 82.9698 33.0979C83.4498 33.5565 83.8018 34.0952 84.0258 34.7139C84.2604 35.3219 84.3778 35.9779 84.3778 36.6819C84.3778 37.4499 84.2338 38.1699 83.9458 38.8419C83.6578 39.5139 83.2578 40.1112 82.7458 40.6339C82.2338 41.1459 81.6418 41.5459 80.9698 41.8339C80.2978 42.1219 79.5778 42.2659 78.8098 42.2659ZM78.6178 41.7059C79.4498 41.7059 80.1858 41.5032 80.8258 41.0979C81.4658 40.6925 81.9618 40.1325 82.3138 39.4179C82.6764 38.7032 82.8578 37.8819 82.8578 36.9539C82.8578 36.1859 82.7298 35.5032 82.4738 34.9059C82.2178 34.2979 81.8764 33.7912 81.4498 33.3859C81.0231 32.9699 80.5431 32.6552 80.0098 32.4419C79.4764 32.2179 78.9378 32.1059 78.3938 32.1059C77.9351 32.1059 77.5404 32.1219 77.2098 32.1539C76.8898 32.1752 76.6444 32.2552 76.4738 32.3939C76.3031 32.5325 76.2178 32.7619 76.2178 33.0819V40.2179C76.2178 40.6445 76.3351 40.9645 76.5698 41.1779C76.8044 41.3912 77.1031 41.5352 77.4658 41.6099C77.8391 41.6739 78.2231 41.7059 78.6178 41.7059Z" fill="white"/>
</svg>
