<svg width="84" height="84" viewBox="0 0 84 84" fill="none" xmlns="http://www.w3.org/2000/svg">
<path d="M28.5431 19.1292C28.5401 19.1292 28.5401 19.1292 28.5431 19.1292C28.3712 19.1231 27.9217 19.0959 27.7407 19.0959C27.4873 19.0959 26.9322 19.105 26.6336 19.105C26.4405 19.105 25.8855 19.1382 25.5265 19.1382C25.2671 19.1382 24.715 19.1443 24.4194 19.1443C24.1268 19.1443 23.5717 19.1382 23.3123 19.1382C23.0136 19.1382 21.7587 19.1292 21.6109 19.1261C21.4812 19.1231 19.6139 19.0929 19.4872 19.0959C19.3364 19.0989 18.3107 19.1382 18.1358 19.1443C18.1358 19.1443 17.2851 19.2591 17.2398 19.7125V19.7156C17.2398 19.7276 17.2398 19.7397 17.2398 19.7518C17.2398 20.0632 17.1735 20.2596 17.1071 20.4198L17.1101 20.5589C17.1674 20.716 17.2157 21.5412 17.2067 21.6531C17.1976 21.7226 17.1705 22.309 17.1554 22.4178C17.1463 22.4782 17.1373 22.9226 17.1403 23.0102C17.1433 23.1069 17.1433 23.2006 17.1433 23.3911C17.1433 23.6087 17.1101 23.9744 17.1101 24.1195C17.1101 24.1376 17.1101 24.1497 17.1131 24.1618L17.1252 24.1981C17.1825 24.3553 17.2459 24.5457 17.2459 24.848C17.2459 25.0716 17.1644 26.0177 17.1192 26.1689C17.1011 26.2293 17.1071 26.5013 17.1162 26.5648C17.1312 26.6827 17.1463 26.7976 17.1463 27.0303C17.1463 27.1996 17.1584 27.5623 17.1584 27.7587C17.1584 27.9462 17.1524 28.3089 17.1524 28.4842C17.1524 28.6051 17.2097 28.9859 17.2097 29.2126C17.2097 29.4786 17.1131 29.8625 17.1131 29.9411C17.1131 29.9592 17.1131 29.9743 17.1162 29.9864L17.1312 30.0227C17.1825 30.1648 17.2368 30.337 17.2459 30.597C17.2459 30.6181 17.2459 30.6423 17.2459 30.6665C17.2459 30.9144 17.1855 31.2771 17.1855 31.3919C17.1855 31.534 17.1916 31.6065 17.2006 31.6761C17.2127 31.7849 17.2157 32.4257 17.2097 32.5284C17.2036 32.607 17.2006 33.1118 17.2036 33.1995C17.2036 33.2932 17.2067 33.3869 17.2067 33.5743C17.2067 33.7919 17.1735 34.1546 17.1735 34.3027C17.1735 34.5415 17.1011 34.9254 17.1011 35.0312C17.1011 35.0947 17.1011 35.0977 17.1222 35.1581C17.1674 35.3093 17.2338 36.2765 17.2338 36.4851C17.2338 36.7238 17.1644 37.1047 17.1644 37.2135C17.1644 37.413 17.1463 37.7787 17.1463 37.942C17.1463 38.1445 17.1403 38.2442 17.1373 38.344C17.3967 38.344 17.9819 38.35 18.2715 38.35C18.6154 38.35 19.2308 38.3651 19.5023 38.3651C19.7798 38.3651 20.3952 38.353 20.7301 38.353C21.0619 38.353 21.6773 38.3621 21.9608 38.3621C22.2354 38.3621 22.8538 38.35 23.1916 38.35C23.1916 38.35 24.8689 38.347 25.0167 38.347C25.1766 38.347 26.163 38.347 26.3319 38.353C26.4677 38.3561 27.2942 38.3561 27.433 38.353C27.6019 38.35 28.6276 38.35 28.7995 38.353C28.8991 38.3561 28.9986 38.3561 29.1525 38.3591C29.5416 38.2442 29.6592 38.0296 29.6954 37.9359C29.6954 37.8634 29.6924 37.809 29.6894 37.7546C29.6864 37.6548 29.6834 37.0926 29.6864 37.011C29.6864 36.9898 29.6864 36.9717 29.6864 36.9536C29.6894 36.8629 29.6924 36.5425 29.6713 36.4851C29.614 36.3218 29.5597 36.1405 29.5597 35.8412C29.5597 35.5873 29.6442 35.1884 29.6442 35.0856C29.6442 34.8498 29.6623 34.7168 29.6864 34.5778C29.6954 34.5173 29.7075 34.2725 29.6864 34.2151C29.6321 34.0549 29.5959 33.2116 29.611 33.0907C29.62 33.0242 29.623 32.5889 29.617 32.5133C29.608 32.4015 29.5929 31.8151 29.5899 31.7305C29.5838 31.6247 29.5567 30.7693 29.5567 30.5577C29.5567 30.3189 29.6049 29.9411 29.6049 29.802C29.6049 29.6237 29.5959 29.2459 29.5959 29.0464C29.5959 28.8288 29.623 28.4509 29.623 28.2907C29.623 28.1184 29.608 27.7406 29.608 27.5351C29.608 27.3023 29.6683 26.7099 29.6472 26.6494C29.5959 26.4923 29.5476 26.3139 29.5476 26.0268C29.5476 25.791 29.5929 25.4132 29.5929 25.2711C29.5929 25.0021 29.6291 24.8389 29.6683 24.6908C29.6864 24.6243 29.6834 24.3674 29.6683 24.2948C29.6411 24.1558 29.6713 23.1372 29.6713 23.0072C29.6713 22.9044 29.5899 22.5054 29.5899 22.2546C29.5899 22.0762 29.5808 21.6984 29.5808 21.5019C29.5808 21.3387 29.5567 20.9609 29.5567 20.7493C29.5567 20.4924 29.5868 20.3412 29.62 20.1931C29.6351 20.1236 29.6381 19.8818 29.6321 19.8395C29.5778 19.4224 28.6939 19.1926 28.5431 19.1292Z" fill="white"/>
<path d="M28.2865 40.7628C28.2352 40.7628 28.1779 40.7628 28.1146 40.7628C27.837 40.7628 27.7013 40.7658 27.5625 40.7689C27.3936 40.7719 27.2247 40.7749 26.8838 40.7749C26.5429 40.7749 26.371 40.7719 26.202 40.7689C26.0663 40.7658 25.9275 40.7628 25.653 40.7628C25.3544 40.7628 25.2066 40.7628 25.0557 40.7658C24.8958 40.7658 24.739 40.7689 24.4222 40.7689H23.1915C22.9169 40.7689 22.7782 40.7719 22.6394 40.7749C22.4705 40.7779 22.2985 40.781 21.9607 40.781C21.6319 40.781 21.466 40.7779 21.3 40.7779C21.1583 40.7749 21.0135 40.7749 20.7299 40.7749C20.4524 40.7749 20.3136 40.7779 20.1748 40.781C20.0059 40.784 19.837 40.787 19.5021 40.787C19.1552 40.787 18.9833 40.784 18.8113 40.7779C18.6756 40.7749 18.5429 40.7719 18.2714 40.7719C17.9456 40.7719 17.7827 40.7689 17.6198 40.7689C17.5051 40.7689 17.3845 40.7658 17.1974 40.7658C17.1974 40.793 17.2005 40.8142 17.2005 40.8444C17.2005 41.0046 17.2035 41.0862 17.2095 41.1648C17.2155 41.2676 17.1914 41.9688 17.1582 42.1109C17.1431 42.1804 17.1371 42.2046 17.1371 42.2983C17.1371 42.3648 17.1401 42.3739 17.1582 42.4373C17.2005 42.5855 17.2216 43.4137 17.2035 43.5164C17.1944 43.5769 17.1854 43.6343 17.1854 43.7522C17.1854 43.9456 17.1763 44.3084 17.1763 44.4776C17.1763 44.5895 17.1824 44.6288 17.1974 44.7013C17.2155 44.8071 17.2246 45.5688 17.2095 45.6716C17.2005 45.735 17.1914 45.8015 17.1914 45.9285C17.1914 46.0585 17.2397 46.4212 17.2397 46.6539C17.2397 46.8504 17.2367 46.9501 17.2306 47.0499C17.2276 47.1315 17.1733 47.8448 17.122 48.002C17.1039 48.0564 17.1039 48.0564 17.1039 48.1078C17.1039 48.274 17.116 48.6398 17.116 48.8332C17.116 49.0236 17.1069 49.3894 17.1069 49.5586C17.1069 49.607 17.1069 49.607 17.125 49.6584C17.1793 49.8156 17.2336 49.9969 17.2336 50.2871C17.2336 50.535 17.2065 50.6831 17.1733 50.8251C17.1582 50.8946 17.1281 51.4055 17.11 51.5113C17.1009 51.5687 17.0919 51.7924 17.1069 51.8468C17.1612 52.0039 17.2125 52.1823 17.2125 52.4694C17.2125 52.7052 17.1944 52.8352 17.1793 52.941C17.1703 53.0044 17.1673 53.4185 17.1733 53.4911C17.1824 53.5999 17.1914 53.7057 17.1914 53.9203C17.1914 54.0805 17.2095 54.4432 17.2095 54.6457C17.2095 54.8029 17.2155 54.8815 17.2186 54.9601C17.2246 55.0628 17.2306 55.1656 17.2306 55.3711C17.2306 55.6039 17.1824 55.9666 17.1824 56.0966C17.1824 56.2689 17.1854 56.3565 17.1854 56.4412C17.1884 56.5349 17.1824 57.1364 17.1733 57.2422C17.1673 57.3177 17.1612 57.3963 17.1612 57.5474C17.1612 57.7137 17.1733 58.0099 17.1733 58.1006C17.2216 58.1006 17.2638 58.1006 17.3211 58.1006C17.6439 58.1006 17.8038 58.1036 17.9637 58.1036C18.1024 58.1066 19.0436 58.1127 19.2156 58.1157C19.3453 58.1187 19.475 58.1217 19.7344 58.1217C20.0029 58.1217 20.6062 58.1096 20.9411 58.1096C21.2669 58.1096 21.4298 58.1127 21.5927 58.1157C21.7314 58.1187 22.5459 58.1157 22.6786 58.1157C22.8476 58.1127 23.0165 58.1096 23.3544 58.1096L24.561 58.1066C24.8506 58.1066 25.4539 58.1036 25.7676 58.1036C26.1055 58.1036 26.2744 58.1066 26.4464 58.1096C26.5791 58.1127 29.1251 58.1187 29.3846 58.1187C29.4871 58.1187 29.5656 58.1187 29.635 58.1187C29.635 58.0583 29.635 58.0129 29.638 57.9646C29.641 57.8769 29.641 57.7892 29.641 57.6139C29.641 57.49 29.6319 57.4296 29.6199 57.3691C29.6018 57.2633 29.5807 57.1303 29.5807 56.8915C29.5807 56.6316 29.6199 56.4714 29.6591 56.3293C29.6772 56.2658 29.6832 56.2477 29.6832 56.1691C29.6832 56.148 29.6832 56.1329 29.6802 56.1177L29.6651 56.0754C29.6048 55.9152 29.5445 55.7369 29.5445 55.4437C29.5445 55.1989 29.5686 55.0598 29.5867 54.9571C29.5957 54.8996 29.6078 54.8392 29.6078 54.7213C29.6078 54.5792 29.6018 54.5067 29.5927 54.4341C29.5807 54.3253 29.5776 53.6936 29.5837 53.5938C29.5897 53.5153 29.5927 53.4367 29.5927 53.2765L29.5897 52.9258C29.5897 52.8321 29.5957 52.2337 29.6078 52.1279C29.6138 52.0553 29.6229 51.9798 29.6229 51.8347C29.6229 51.5808 29.6531 51.4327 29.6772 51.3239C29.6923 51.2513 29.6983 51.2181 29.6983 51.1093C29.6983 51.0428 29.6953 51.0337 29.6772 50.9732C29.6289 50.8251 29.5837 50.6589 29.5837 50.3868C29.5837 50.2297 29.5776 50.1511 29.5746 50.0725C29.5686 49.9697 29.5897 49.2655 29.6108 49.1566C29.6259 49.0841 29.6319 49.0478 29.6319 48.939C29.6319 48.7395 29.65 48.3798 29.65 48.2166C29.65 48.0171 29.6681 47.6544 29.6681 47.4942C29.6681 47.3007 29.6832 46.938 29.6832 46.7718C29.6832 46.6055 29.6802 46.5239 29.6772 46.4423C29.6742 46.3426 29.6681 46.2459 29.6681 46.0494C29.6681 45.9436 29.5927 45.5809 29.5927 45.327C29.5927 45.1668 29.5867 45.0852 29.5837 45.0066C29.5776 44.9068 29.5716 44.8071 29.5716 44.6046C29.5716 44.3597 29.6018 44.2116 29.635 44.0726C29.65 44.0061 29.6591 43.9759 29.6591 43.8822C29.6591 43.8096 29.6561 43.8006 29.638 43.7371C29.5927 43.592 29.5686 42.8091 29.5897 42.6761C29.5988 42.6157 29.6108 42.5552 29.6108 42.4373C29.6108 42.2469 29.6199 41.8842 29.6199 41.7149C29.6199 41.6001 29.6108 41.5427 29.5988 41.4852C29.5897 41.4369 29.5807 41.3794 29.5716 41.3099C29.3816 40.7689 28.3619 40.7658 28.2865 40.7628Z" fill="white"/>
<path d="M29.5531 61.09C29.5531 61.09 29.5591 60.9902 29.4475 60.7726C29.3359 60.555 29.001 60.5459 29.001 60.5459C28.8864 60.5429 28.7959 60.5429 28.7054 60.5399C28.5757 60.5368 28.446 60.5338 28.1866 60.5338C27.9211 60.5338 27.7884 60.5368 27.6526 60.5399C27.4837 60.5429 27.3148 60.5489 26.9799 60.5489C26.6421 60.5489 26.4731 60.5459 26.3012 60.5399C26.1684 60.5368 26.0387 60.5338 25.7733 60.5338C25.4837 60.5338 25.3359 60.5338 25.1911 60.5368C25.0342 60.5368 24.8804 60.5399 24.5666 60.5399L23.36 60.5429C23.0945 60.5429 22.9618 60.5459 22.8291 60.5489C22.6601 60.5519 22.4912 60.558 22.1533 60.558C21.8275 60.558 21.6646 60.555 21.5017 60.5519C21.363 60.5489 21.2242 60.5459 20.9497 60.5459C20.6812 60.5459 20.5455 60.5489 20.4097 60.5519C20.2438 60.555 20.0749 60.558 19.74 60.558C19.3961 60.558 19.2242 60.5519 19.0522 60.5489C18.9225 60.5459 18.7928 60.5429 18.5334 60.5429C18.2136 60.5429 18.0537 60.5399 17.8909 60.5399C17.7491 60.5368 17.6103 60.5368 17.3298 60.5368C17.2785 60.5368 17.2362 60.5368 17.194 60.5368C17.188 60.7514 17.1578 60.8996 17.1246 61.0265C17.1095 61.09 17.1035 61.1081 17.1035 61.1867C17.1035 61.2895 17.1095 61.3227 17.1246 61.3953C17.1518 61.5313 17.1759 61.6733 17.1759 61.9121C17.1759 62.1358 17.1608 62.2628 17.1397 62.3927C17.1307 62.4532 17.1216 62.5136 17.1216 62.6345C17.1216 62.7313 17.1276 62.7585 17.1427 62.828C17.1729 62.967 17.2 63.1151 17.2 63.36C17.2 63.5323 17.2031 63.6169 17.2061 63.7015C17.2091 63.7982 17.2121 63.8919 17.2121 64.0854C17.2121 64.2426 17.2181 64.3181 17.2212 64.3967C17.2272 64.4995 17.2332 64.6023 17.2332 64.8108C17.2332 65.0617 17.2031 65.2098 17.1729 65.3519C17.1578 65.4184 17.1518 65.4456 17.1518 65.5363C17.1518 65.633 17.1578 65.6632 17.1729 65.7327C17.1789 65.766 17.188 65.7992 17.194 65.8355C17.194 65.8355 17.5017 66.4702 18.4519 66.5609C18.5515 66.567 18.651 66.573 18.8501 66.573C19.004 66.573 19.0522 66.57 19.1608 66.5609C19.369 66.5428 19.5892 66.5277 19.9572 66.5277C20.2076 66.5277 20.3343 66.5247 20.461 66.5247C20.6118 66.5216 20.7627 66.5186 21.0643 66.5186C21.4173 66.5186 21.5953 66.5277 21.7702 66.5367C21.8698 66.5428 21.9693 66.5488 22.1714 66.5488C22.4671 66.5488 22.6149 66.5519 22.7627 66.5519C22.8924 66.5549 23.0221 66.5549 23.2785 66.5549C23.5742 66.5549 23.722 66.5579 23.8728 66.5579C23.9995 66.5609 24.1292 66.5609 24.3856 66.5609C24.6782 66.5609 24.823 66.5609 24.9678 66.5639C25.0975 66.5639 25.2303 66.567 25.4927 66.567C25.7522 66.567 25.8819 66.567 26.0116 66.5639C26.1594 66.5609 26.3042 66.5609 26.5998 66.5609C26.7989 66.5609 26.8955 66.5549 26.995 66.5488C27.173 66.5398 27.351 66.5277 27.7039 66.5277C27.9603 66.5277 28.087 66.5247 28.2137 66.5247C28.3615 66.5216 28.5124 66.5216 28.811 66.5216C29.1519 66.5216 29.3449 66.5337 29.544 66.5458C29.5802 66.5488 29.6195 66.5519 29.6617 66.5519C29.6738 66.5186 29.6828 66.4823 29.6949 66.4491L29.71 66.4037C29.71 66.3977 29.71 66.3856 29.71 66.3675C29.71 66.3433 29.71 66.3252 29.7069 66.31L29.6919 66.2647C29.6285 66.0803 29.5682 65.8718 29.5682 65.5302C29.5682 65.2763 29.5802 65.1463 29.5923 65.0194C29.5983 64.9378 29.6074 64.8562 29.6074 64.6929C29.6074 64.4179 29.6285 64.2668 29.6466 64.1428C29.6557 64.0703 29.6647 64.0008 29.6647 63.8557C29.6647 63.6562 29.6617 63.5564 29.6617 63.4567C29.6587 63.3479 29.6587 63.2391 29.6587 63.0184C29.6587 62.7675 29.6677 62.6436 29.6798 62.5197C29.6858 62.435 29.6949 62.3504 29.6949 62.1811C29.6949 62.16 29.6949 62.1418 29.6919 62.1267L29.6768 62.0814C29.6164 61.9031 29.5531 61.6885 29.5531 61.3469C29.5471 61.2411 29.5501 61.1595 29.5531 61.09Z" fill="white"/>
<path d="M33.321 25.5004C33.321 25.7453 33.309 25.8692 33.2939 25.9901C33.2848 26.0626 33.2788 26.1352 33.2788 26.2833C33.2788 26.3498 33.2788 26.3528 33.2969 26.4193C33.3422 26.5825 33.3874 26.7669 33.3874 27.0662C33.3874 27.308 33.3723 27.444 33.3512 27.586C33.3422 27.6525 33.3331 27.716 33.3331 27.846C33.3331 28.0243 33.3361 28.112 33.3391 28.2027C33.3422 28.3084 33.3482 28.4142 33.3482 28.6288C33.3482 28.8555 33.3422 28.9674 33.3331 29.0792C33.3271 29.1608 33.321 29.2455 33.321 29.4087C33.321 29.5961 33.3241 29.6868 33.3241 29.7805C33.3241 29.7986 33.3241 29.8198 33.3241 29.8379C33.5775 29.8379 33.7192 29.8409 33.858 29.8439C33.9847 29.847 34.1114 29.847 34.3648 29.847C34.5971 29.847 34.7147 29.8439 34.8293 29.8409C34.9892 29.8349 35.1461 29.8318 35.4628 29.8318C35.7555 29.8318 35.9002 29.8349 36.045 29.8349C36.1748 29.8379 36.3045 29.8379 36.5639 29.8379C36.8746 29.8379 37.0285 29.8409 37.1823 29.847C37.303 29.85 37.4236 29.853 37.662 29.853C37.9093 29.853 38.033 29.85 38.1567 29.847C38.3075 29.8439 38.4583 29.8409 38.76 29.8409C39.0556 29.8409 39.2034 29.8439 39.3513 29.8439C39.478 29.847 39.6047 29.847 39.8611 29.847C40.1054 29.847 40.2291 29.8439 40.3528 29.8409C40.5036 29.8379 40.6575 29.8349 40.9591 29.8349H42.0572C42.3226 29.8349 42.4554 29.8349 42.5881 29.8318C42.7299 29.8318 42.8716 29.8288 43.1552 29.8288C43.4599 29.8288 43.6137 29.8318 43.7646 29.8349C43.8852 29.8379 44.0089 29.8409 44.2533 29.8409C44.5006 29.8409 44.6213 29.8379 44.745 29.8349C44.8958 29.8318 45.0496 29.8288 45.3513 29.8288C45.659 29.8288 45.8128 29.8318 45.9667 29.8379C45.9667 29.8379 46.6092 29.7865 46.7601 29.4057C46.7601 29.179 46.7661 29.0671 46.7751 28.9553C46.7812 28.8737 46.7872 28.789 46.7872 28.6258C46.7872 28.4475 46.7842 28.3598 46.7812 28.2692C46.7782 28.1634 46.7721 28.0576 46.7721 27.843C46.7721 27.6012 46.7872 27.4651 46.8083 27.3231C46.8174 27.2566 46.8264 27.1931 46.8264 27.0631C46.8264 26.9966 46.8264 26.9906 46.8083 26.9241C46.7631 26.7609 46.7178 26.5765 46.7178 26.2803C46.7178 26.0354 46.7299 25.9115 46.745 25.7906C46.754 25.7181 46.7601 25.6455 46.7601 25.4974C46.7601 25.2193 46.7932 25.0501 46.8294 24.8959C46.8445 24.8264 46.8506 24.8052 46.8506 24.7146C46.8506 24.5997 46.8445 24.5604 46.8294 24.4848C46.8053 24.3397 46.7812 24.1886 46.7812 23.9317C46.7812 23.6748 46.7993 23.5327 46.8144 23.4178C46.8234 23.3513 46.8325 23.2849 46.8325 23.1519C46.8325 23.0461 46.8264 23.0158 46.8113 22.9372C46.7812 22.7891 46.757 22.632 46.757 22.369C46.757 22.1846 46.754 22.0909 46.754 22.0002C46.751 21.8975 46.748 21.7947 46.748 21.5892C46.748 21.4199 46.742 21.3353 46.7389 21.2506C46.7329 21.1388 46.7269 21.03 46.7269 20.8063C46.7269 20.5403 46.754 20.3831 46.7842 20.232C46.7993 20.1595 46.8053 20.1292 46.8053 20.0265C46.8053 19.9176 46.7993 19.8844 46.7842 19.8088C46.757 19.6607 46.7299 19.5066 46.7299 19.2436C46.7299 19.1922 46.7299 19.1469 46.7329 19.1015C46.6756 19.1015 46.6123 19.1015 46.5399 19.1015C46.2985 19.1015 46.1809 19.1046 46.0602 19.1076C45.9033 19.1106 45.7465 19.1167 45.4328 19.1167C45.0979 19.1167 44.929 19.1106 44.7631 19.1015C44.6545 19.0955 44.5459 19.0925 44.3257 19.0925C44.1929 19.0925 44.1597 19.0955 44.0572 19.1076C43.837 19.1287 43.6077 19.1499 43.2186 19.1499C42.8716 19.1499 42.6967 19.1408 42.5247 19.1318C42.4222 19.1257 42.3196 19.1227 42.1145 19.1227C41.7706 19.1227 41.5745 19.1106 41.3724 19.0985C41.2819 19.0925 41.1914 19.0864 41.0074 19.0864C40.8777 19.0864 40.8475 19.0895 40.7449 19.1015C40.5217 19.1257 40.2894 19.1439 39.9003 19.1439C39.6137 19.1439 39.4689 19.1439 39.3271 19.1408C39.1944 19.1408 39.0617 19.1378 38.7962 19.1378C38.5338 19.1378 38.404 19.1378 38.2713 19.1408C38.1265 19.1439 37.9787 19.1439 37.6891 19.1439C37.303 19.1439 37.0737 19.1227 36.8535 19.1015C36.7509 19.0925 36.7178 19.0864 36.582 19.0864C36.2894 19.0864 36.1416 19.0834 35.9968 19.0834C35.8671 19.0834 35.7374 19.0804 35.4779 19.0804C35.2607 19.0804 35.1491 19.0834 35.0405 19.0895C34.8746 19.0955 34.7057 19.1015 34.3738 19.1015C34.042 19.1015 33.8731 19.0955 33.7072 19.0895C33.6046 19.0864 33.499 19.0804 33.306 19.0804C33.2939 19.1318 33.2909 19.162 33.2909 19.2406C33.2909 19.3494 33.2969 19.3826 33.312 19.4582C33.3391 19.6063 33.3663 19.7635 33.3663 20.0234C33.3663 20.2894 33.3391 20.4466 33.309 20.5977C33.2939 20.6703 33.2879 20.7005 33.2879 20.8033C33.2879 20.9725 33.2939 21.0572 33.2969 21.1418C33.3029 21.2536 33.309 21.3625 33.309 21.5861C33.309 21.7705 33.312 21.8642 33.312 21.9549C33.315 22.0577 33.318 22.1604 33.318 22.366C33.318 22.4718 33.3241 22.505 33.3391 22.5806C33.3663 22.7287 33.3934 22.8859 33.3934 23.1488C33.3934 23.4058 33.3753 23.5478 33.3603 23.6627C33.3512 23.7292 33.3422 23.7957 33.3422 23.9287C33.3422 24.0435 33.3482 24.0828 33.3633 24.1584C33.3904 24.3035 33.4115 24.4546 33.4115 24.7115C33.4115 24.9896 33.3784 25.1619 33.3422 25.313C33.3271 25.3886 33.321 25.4098 33.321 25.5004Z" fill="white"/>
<path d="M51.5713 32.4379H52.1987C52.5336 32.4379 52.7025 32.441 52.8684 32.444C53.0102 32.447 53.155 32.447 53.4386 32.447C53.698 32.447 53.8277 32.444 53.9604 32.4379C54.1414 32.4319 54.3194 32.4258 54.6784 32.4258C55.0072 32.4258 55.1701 32.4289 55.336 32.4289C55.4808 32.4319 55.6256 32.4319 55.9182 32.4319C56.2681 32.4319 56.4431 32.4349 56.6181 32.441C56.7538 32.444 56.8866 32.447 57.155 32.447C57.4326 32.447 57.5743 32.444 57.7131 32.441C57.8851 32.4379 58.054 32.4349 58.3949 32.4349C58.7267 32.4349 58.8956 32.4379 59.0615 32.441C59.2033 32.444 59.3481 32.444 59.6347 32.444C59.9092 32.444 60.048 32.441 60.1867 32.4379C60.3587 32.4349 60.5306 32.4319 60.8745 32.4319L62.1143 32.4289C62.413 32.4289 62.5638 32.4289 62.7147 32.4258C62.8745 32.4258 63.0344 32.4228 63.3542 32.4228C63.6981 32.4228 63.873 32.4258 64.045 32.4319C64.1506 32.4349 64.2592 32.4379 64.4281 32.4379C64.3889 32.308 64.3557 32.1478 64.3557 31.9301C64.3557 31.6641 64.3949 31.5009 64.4311 31.3558C64.4492 31.2924 64.4522 31.2772 64.4522 31.1987C64.4522 31.0778 64.4432 31.0173 64.4341 30.9568C64.413 30.8239 64.3949 30.6939 64.3949 30.4672C64.3949 30.2798 64.3949 30.1831 64.3979 30.0894C64.3979 30.0017 64.4009 29.914 64.4009 29.7357C64.4009 29.5634 64.3979 28.7745 64.3949 28.6899C64.3919 28.5932 64.3889 27.7378 64.3889 27.5443C64.3889 27.4143 64.3798 27.3478 64.3708 27.2813C64.3557 27.1635 64.3406 27.0456 64.3406 26.8128C64.3406 26.5378 64.3828 26.3685 64.4281 26.2174C64.4462 26.1569 64.4492 26.1479 64.4492 26.0814C64.4492 25.8547 64.4613 25.7428 64.4733 25.628C64.4824 25.5584 64.4884 25.4889 64.4884 25.3469C64.4884 25.3287 64.4884 25.3166 64.4854 25.3045L64.4733 25.2683C64.416 25.1111 64.3527 24.9176 64.3527 24.6154C64.3527 24.3947 64.3617 24.2859 64.3738 24.1771C64.3798 24.1046 64.3889 24.029 64.3889 23.8839C64.3889 23.7086 64.3859 23.624 64.3859 23.5363C64.3828 23.4396 64.3828 23.3459 64.3828 23.1524C64.3828 22.9106 64.404 22.7746 64.419 22.6688C64.4281 22.6053 64.4371 22.5449 64.4371 22.421C64.4371 22.1973 64.4492 22.0855 64.4613 21.9706C64.4703 21.9011 64.4764 21.8285 64.4764 21.6865C64.4764 21.6683 64.4764 21.6532 64.4733 21.6411L64.4583 21.6049C64.4009 21.4477 64.3376 21.2573 64.3376 20.955C64.3376 20.6437 64.407 20.4472 64.4703 20.284L64.4854 20.2477C64.4854 20.2477 64.4854 20.2356 64.4854 20.2235C64.4854 20.1238 64.4794 20.0935 64.4643 20.024C64.4341 19.885 64.41 19.7369 64.41 19.492C64.3859 19.1716 63.8972 19.1142 63.7282 19.1021C63.7071 19.1021 63.689 19.0991 63.6679 19.0991H63.6649C63.6015 19.0961 63.5472 19.0931 63.499 19.09C63.4085 19.084 63.318 19.0779 63.14 19.0779C62.8896 19.0779 62.7659 19.081 62.6423 19.084C62.4914 19.087 62.3376 19.09 62.0359 19.09C61.7705 19.09 61.6377 19.09 61.505 19.0931C61.3602 19.0931 61.2184 19.0961 60.9288 19.0961C60.7448 19.0961 60.6543 19.1021 60.5608 19.1082C60.3587 19.1203 60.1656 19.1323 59.8247 19.1323C59.4839 19.1323 59.3149 19.1233 59.143 19.1172C59.0374 19.1112 58.9318 19.1082 58.7176 19.1082C58.5246 19.1082 58.428 19.1142 58.3345 19.1203C58.1746 19.1293 57.9756 19.1414 57.6136 19.1414C57.2274 19.1414 57.0042 19.1233 56.8413 19.1112C56.7297 19.1021 56.6754 19.0991 56.5095 19.0991C56.1807 19.0991 56.0178 19.0931 55.8549 19.087C55.7312 19.087 55.6196 19.084 55.3933 19.084C55.2515 19.084 55.2123 19.087 55.1068 19.0991C54.8896 19.1203 54.6663 19.1384 54.2862 19.1384C53.9423 19.1384 53.7704 19.1293 53.5984 19.1233C53.4929 19.1172 53.3903 19.1142 53.1821 19.1142C52.9227 19.1142 52.793 19.1172 52.6663 19.1172C52.5185 19.1203 52.3707 19.1203 52.0781 19.1203C51.7704 19.1203 51.6165 19.1172 51.4627 19.1142C51.339 19.1112 51.2183 19.1082 50.971 19.1082C50.7206 19.1082 50.5909 19.1082 50.4642 19.1112C50.4551 19.1505 50.4521 19.1807 50.4521 19.2472C50.4521 19.356 50.4581 19.3893 50.4732 19.4618C50.5034 19.6099 50.5305 19.7641 50.5305 20.021C50.5305 20.284 50.5004 20.4411 50.4672 20.5923C50.4521 20.6648 50.4431 20.695 50.4431 20.7948C50.4431 20.961 50.4491 21.0457 50.4521 21.1303C50.4581 21.2391 50.4672 21.351 50.4672 21.5716C50.4672 21.756 50.4702 21.8467 50.4702 21.9373C50.4732 22.0401 50.4762 22.1429 50.4762 22.3454C50.4762 22.4512 50.4823 22.4814 50.4974 22.557C50.5305 22.7051 50.5577 22.8592 50.5577 23.1222C50.5577 23.3791 50.5366 23.5182 50.5185 23.633C50.5094 23.6995 50.5004 23.766 50.5004 23.899C50.5004 24.0139 50.5064 24.0502 50.5215 24.1287C50.5486 24.2738 50.5758 24.4219 50.5758 24.6758C50.5758 24.9509 50.5396 25.1202 50.5004 25.2713C50.4823 25.3408 50.4762 25.362 50.4762 25.4527C50.4762 25.6945 50.4612 25.8184 50.4461 25.9393C50.437 26.0118 50.428 26.0844 50.428 26.2295C50.428 26.296 50.431 26.302 50.4491 26.3655C50.5004 26.5257 50.5486 26.7101 50.5486 27.0063C50.5486 27.2451 50.5305 27.3811 50.5094 27.5231C50.5004 27.5866 50.4883 27.6531 50.4883 27.7831C50.4883 27.9614 50.4913 29.509 50.4943 29.5967C50.4974 29.7025 50.5034 29.8083 50.5034 30.0198C50.5034 30.2435 50.4943 30.3553 50.4883 30.4672C50.4823 30.5488 50.4762 30.6304 50.4762 30.7966C50.4762 30.981 50.4793 31.0747 50.4793 31.1654C50.4823 31.2682 50.4823 31.3679 50.4823 31.5735C50.4823 31.6097 50.4823 31.6369 50.4793 31.6672C50.4943 31.6611 50.5486 32.2838 51.5713 32.4379Z" fill="white"/>
<path d="M45.5267 54.3965C45.4784 54.3965 45.4241 54.3965 45.3577 54.3965C45.3185 54.3965 45.2884 54.3965 45.2582 54.3965C45.0802 54.3965 44.9716 54.3995 44.866 54.4025C44.7152 54.4056 44.5614 54.4086 44.2597 54.4086C43.955 54.4086 43.8012 54.4056 43.6503 54.4025C43.5297 54.3995 43.406 54.3965 43.1616 54.3965C42.8962 54.3965 42.7604 54.3965 42.6277 54.3995C42.4859 54.3995 42.3441 54.4025 42.0606 54.4025L40.9625 54.4056C40.7182 54.4056 40.5945 54.4086 40.4708 54.4116C40.32 54.4146 40.1661 54.4176 39.8645 54.4176C39.5689 54.4176 39.421 54.4146 39.2732 54.4146C39.1465 54.4116 39.0198 54.4116 38.7634 54.4116C38.5161 54.4116 38.3924 54.4146 38.2687 54.4176C38.1179 54.4207 37.967 54.4237 37.6684 54.4237C37.3577 54.4237 37.2038 54.4207 37.05 54.4146C36.9293 54.4116 36.8087 54.4086 36.5703 54.4086C36.2777 54.4086 36.1329 54.4056 35.9881 54.4056C35.8584 54.4025 35.7287 54.4025 35.4723 54.4025C35.24 54.4025 35.1224 54.4056 35.0077 54.4086C34.8479 54.4146 34.691 54.4176 34.3742 54.4176C34.0786 54.4176 33.9308 54.4146 33.783 54.4116C33.6684 54.4086 33.5477 54.4086 33.3335 54.4086C33.3395 54.4962 33.3456 54.599 33.3456 54.7562C33.3456 55.0191 33.3214 55.1703 33.3064 55.2791C33.2973 55.3426 33.2883 55.406 33.2883 55.53C33.2883 55.5511 33.2883 55.5693 33.2913 55.5844L33.3064 55.6297C33.3607 55.799 33.415 55.9924 33.415 56.3068C33.415 56.5849 33.3788 56.7572 33.3426 56.9083C33.3275 56.9778 33.3214 56.9959 33.3214 57.0806C33.3214 57.2136 33.3305 57.277 33.3395 57.3435C33.3546 57.4584 33.3757 57.6005 33.3757 57.8574C33.3757 58.0569 33.3757 58.1566 33.3727 58.2594C33.3727 58.3531 33.3697 58.4468 33.3697 58.6342C33.3697 58.8156 33.3727 58.9093 33.3727 58.9999C33.3757 59.1027 33.3788 59.2055 33.3788 59.411C33.3788 59.5531 33.3878 59.6226 33.3938 59.6921C33.4089 59.816 33.424 59.94 33.424 60.1878C33.424 60.475 33.3848 60.6533 33.3426 60.8105C33.3245 60.877 33.3214 60.8891 33.3214 60.9646C33.3214 61.2034 33.3094 61.3213 33.2973 61.4422C33.2913 61.5178 33.2822 61.5933 33.2822 61.7415C33.2822 61.7626 33.2822 61.7777 33.2852 61.7928L33.3003 61.8352C33.3546 61.9984 33.4119 62.2009 33.4119 62.5183C33.4119 62.751 33.4029 62.8659 33.3938 62.9807C33.3878 63.0593 33.3818 63.1379 33.3818 63.2951C33.3818 63.4795 33.3848 63.5732 33.3848 63.6638C33.3878 63.7666 33.3878 63.8664 33.3878 64.0689C33.3878 64.3228 33.3697 64.4648 33.3546 64.5797C33.3456 64.6462 33.3365 64.7127 33.3365 64.8457C33.3365 65.0815 33.3245 65.2024 33.3154 65.3202C33.3094 65.3958 33.3003 65.4714 33.3003 65.6255C33.3003 65.6467 33.3003 65.6648 33.3033 65.6769L33.3184 65.7192C33.3757 65.8915 33.43 66.085 33.43 66.3993C33.43 66.4477 33.427 66.49 33.427 66.5323C33.5175 66.5293 33.5869 66.5263 33.6503 66.5232C33.8252 66.5142 33.9972 66.5051 34.3441 66.5051C34.6729 66.5051 34.8388 66.5112 35.0047 66.5172C35.1163 66.5202 35.2279 66.5263 35.4482 66.5263C35.6714 66.5263 35.78 66.5232 35.8916 66.5172C36.0575 66.5112 36.2234 66.5051 36.5522 66.5051C36.8449 66.5051 36.9896 66.5081 37.1375 66.5081C37.2672 66.5081 37.3969 66.5112 37.6593 66.5112C38.0394 66.5112 38.2627 66.5293 38.4799 66.5504C38.5824 66.5595 38.6216 66.5656 38.7634 66.5656C39.0259 66.5656 39.1556 66.5656 39.2883 66.5625C39.4331 66.5625 39.5779 66.5595 39.8675 66.5595C40.1541 66.5595 40.2959 66.5595 40.4407 66.5625C40.5734 66.5625 40.7061 66.5656 40.9716 66.5656C41.1103 66.5656 41.1465 66.5625 41.2491 66.5535C41.4663 66.5323 41.6926 66.5142 42.0757 66.5142C42.4407 66.5142 42.6428 66.5263 42.8057 66.5384C42.8992 66.5444 42.9927 66.5504 43.1797 66.5504C43.5236 66.5504 43.6956 66.5595 43.8645 66.5656C43.9701 66.5716 44.0727 66.5746 44.2838 66.5746C44.4256 66.5746 44.4648 66.5716 44.5674 66.5625C44.7846 66.5414 45.0108 66.5232 45.3909 66.5232C45.7228 66.5232 45.8887 66.5293 46.0546 66.5353C46.1662 66.5384 46.2748 66.5444 46.498 66.5444C46.6519 66.5444 46.7544 66.5444 46.8419 66.5414C46.8479 66.5232 46.854 66.4991 46.86 66.4809L46.8751 66.4386C46.8751 66.4326 46.8751 66.4205 46.8751 66.4023C46.8751 66.3812 46.8751 66.363 46.8721 66.351L46.857 66.3086C46.7997 66.1363 46.7454 65.9429 46.7454 65.6285C46.7454 65.3898 46.7575 65.2719 46.7665 65.154C46.7725 65.0784 46.7816 65.0029 46.7816 64.8517C46.7816 64.5948 46.7997 64.4558 46.8148 64.3409C46.8238 64.2744 46.8329 64.2079 46.8329 64.0749C46.8329 63.8905 46.8298 63.7968 46.8298 63.7062C46.8268 63.6034 46.8268 63.5036 46.8268 63.3011C46.8268 63.0714 46.8359 62.9535 46.8449 62.8387C46.851 62.7601 46.857 62.6815 46.857 62.5243C46.857 62.5032 46.857 62.488 46.854 62.4729L46.8389 62.4306C46.7846 62.2674 46.7273 62.0649 46.7273 61.7475C46.7273 61.5087 46.7394 61.3908 46.7514 61.2699C46.7574 61.1944 46.7665 61.1188 46.7665 60.9707C46.7665 60.6805 46.8057 60.5052 46.8479 60.345C46.866 60.2785 46.8691 60.2664 46.8691 60.1909C46.8691 60.0488 46.86 59.9793 46.854 59.9097C46.8389 59.7858 46.8238 59.6619 46.8238 59.414C46.8238 59.2327 46.8208 59.139 46.8178 59.0483C46.8148 58.9455 46.8117 58.8428 46.8117 58.6372C46.8117 58.4377 46.8117 58.338 46.8148 58.2352C46.8148 58.1415 46.8178 58.0478 46.8178 57.8604C46.8178 57.7304 46.8087 57.6639 46.7997 57.5974C46.7846 57.4826 46.7635 57.3405 46.7635 57.0836C46.7635 56.8055 46.7997 56.6332 46.8359 56.4791C46.851 56.4096 46.857 56.3914 46.857 56.3068C46.857 56.2856 46.857 56.2675 46.854 56.2524L46.8389 56.207C46.7846 56.0378 46.7303 55.8443 46.7303 55.53C46.7303 55.2882 46.7484 55.1491 46.7695 55.0071C46.7876 54.5023 45.9641 54.4086 45.5267 54.3965Z" fill="white"/>
<path d="M33.3509 33.2691C33.3449 33.3689 33.3359 33.4475 33.3268 33.52C33.3178 33.5835 33.3087 33.65 33.3087 33.7769C33.3087 33.8313 33.3087 33.8313 33.3268 33.8888C33.3751 34.0429 33.4233 34.2152 33.4233 34.4993C33.4233 34.723 33.4052 34.853 33.3841 34.986C33.3751 35.0464 33.366 35.1039 33.366 35.2218C33.366 35.4666 33.3389 35.6117 33.3117 35.7477C33.2966 35.8172 33.2906 35.8444 33.2906 35.9411C33.2906 35.9925 33.2906 35.9925 33.3087 36.0469C33.36 36.2011 33.4113 36.3764 33.4113 36.6635C33.4113 36.854 33.4083 36.9477 33.4083 37.0444C33.4052 37.129 33.4052 37.2167 33.4052 37.386C33.4052 37.5522 33.4083 37.6368 33.4113 37.7215C33.4143 37.8182 33.4173 37.9149 33.4173 38.1084C33.4173 38.3895 33.369 38.5648 33.3208 38.7189C33.3027 38.7764 33.3027 38.7764 33.3027 38.8308C33.3027 39.0272 33.2997 39.124 33.2966 39.2207C33.2936 39.3023 33.2906 39.3869 33.2906 39.5532C33.2906 39.6831 33.2997 39.7466 33.3087 39.8131C33.3238 39.928 33.3389 40.0428 33.3389 40.2756C33.3389 40.5053 33.3238 40.6202 33.3087 40.738C33.2997 40.8045 33.2906 40.868 33.2906 40.998C33.2906 41.1128 33.2997 41.1703 33.3087 41.2277C33.3268 41.3305 33.3509 41.4756 33.3509 41.7204C33.3509 41.9108 33.3479 42.0075 33.3449 42.1012C33.3419 42.1859 33.3419 42.2705 33.3419 42.4428C33.3419 42.6665 33.3238 42.7934 33.3057 42.9264C33.2966 42.9869 33.2876 43.0473 33.2876 43.1652C33.2876 43.2377 33.2906 43.2468 33.3087 43.3103C33.3479 43.4554 33.3902 43.6216 33.3902 43.8876C33.3902 44.1324 33.363 44.2806 33.3328 44.4196C33.3178 44.4861 33.3117 44.5163 33.3117 44.61C33.3117 44.7702 33.3147 44.8518 33.3208 44.9304C33.3268 45.0302 33.3298 45.1299 33.3298 45.3324C33.3298 45.4382 33.3359 45.4745 33.3509 45.547C33.3721 45.6528 33.3992 45.8009 33.3992 46.0548C33.3992 46.2211 33.4022 46.3027 33.4052 46.3843C33.4083 46.484 33.4143 46.5808 33.4143 46.7772C33.4143 46.9707 33.4113 47.0704 33.4083 47.1672C33.4052 47.2518 33.4022 47.3334 33.4022 47.4996C33.4022 47.6991 33.3992 47.7989 33.3932 47.8986C33.3902 47.9802 33.3841 48.0619 33.3841 48.2221C33.3841 48.4215 33.3811 48.5183 33.3751 48.618C33.3721 48.6996 33.369 48.7812 33.369 48.9445C33.369 49.1984 33.3419 49.3434 33.3238 49.4492C33.3117 49.5218 33.3027 49.5581 33.3027 49.6669C33.3027 49.824 33.3057 49.9026 33.3117 49.9812C33.3178 50.084 33.3238 50.1868 33.3238 50.3893C33.3238 50.4558 33.3268 50.4648 33.3449 50.5253C33.3871 50.6734 33.4294 50.8396 33.4294 51.1117C33.4294 51.3656 33.4022 51.5137 33.3811 51.6195C33.369 51.692 33.36 51.7253 33.36 51.8341C33.36 51.8855 33.36 51.9308 33.36 51.9731C33.6013 51.9731 33.7401 51.9762 33.8728 51.9762C33.9995 51.9792 34.1262 51.9792 34.3796 51.9792C34.6119 51.9792 34.7295 51.9761 34.8442 51.9731C35.0041 51.9671 35.1609 51.9641 35.4777 51.9641C35.7703 51.9641 35.9151 51.9671 36.0599 51.9671C36.1896 51.9671 36.3193 51.9701 36.5757 51.9701C36.8834 51.9701 37.0403 51.9731 37.1941 51.9792C37.3148 51.9822 37.4354 51.9852 37.6738 51.9852C37.9211 51.9852 38.0448 51.9822 38.1685 51.9792C38.3193 51.9761 38.4701 51.9731 38.7688 51.9731C39.0644 51.9731 39.2122 51.9762 39.36 51.9762C39.4867 51.9792 39.6134 51.9792 39.8699 51.9792C40.1142 51.9792 40.2379 51.9761 40.3616 51.9731C40.5124 51.9701 40.6662 51.9671 40.9679 51.9671H42.066C42.3314 51.9671 42.4641 51.9671 42.5999 51.9641C42.7417 51.9641 42.8835 51.961 43.167 51.961C43.4717 51.961 43.6255 51.9641 43.7764 51.9671C43.897 51.9701 44.0207 51.9731 44.2651 51.9731C44.5124 51.9731 44.6331 51.9701 44.7568 51.9671C44.9076 51.9641 45.0615 51.961 45.3631 51.961C45.6708 51.961 45.8247 51.9641 45.9785 51.9671C46.0992 51.9701 46.2198 51.9731 46.4612 51.9731C46.609 51.9731 46.7115 51.9731 46.796 51.9701C46.799 51.9308 46.799 51.8855 46.799 51.828C46.799 51.5741 46.8262 51.426 46.8473 51.3172C46.8594 51.2447 46.8684 51.2114 46.8684 51.1026C46.8684 51.0361 46.8654 51.027 46.8473 50.9666C46.8051 50.8185 46.7628 50.6522 46.7628 50.3802C46.7628 50.223 46.7598 50.1444 46.7538 50.0659C46.7477 49.9631 46.7417 49.8603 46.7417 49.6578C46.7417 49.4039 46.7689 49.2588 46.787 49.153C46.799 49.0805 46.8081 49.0442 46.8081 48.9354C46.8081 48.7359 46.8111 48.6392 46.8171 48.5394C46.8201 48.4578 46.8232 48.3762 46.8232 48.213C46.8232 48.0135 46.8292 47.9137 46.8322 47.814C46.8352 47.7324 46.8413 47.6538 46.8413 47.4906C46.8413 47.2971 46.8443 47.2004 46.8473 47.1037C46.8503 47.019 46.8533 46.9374 46.8533 46.7682C46.8533 46.6019 46.8503 46.5203 46.8473 46.4387C46.8443 46.339 46.8382 46.2422 46.8382 46.0458C46.8382 45.937 46.8322 45.9037 46.8171 45.8312C46.796 45.7254 46.7689 45.5773 46.7689 45.3234C46.7689 45.1632 46.7658 45.0815 46.7598 45.003C46.7538 44.9032 46.7508 44.8035 46.7508 44.601C46.7508 44.3561 46.7779 44.211 46.8081 44.072C46.8232 44.0025 46.8292 43.9753 46.8292 43.8816C46.8292 43.809 46.8262 43.8 46.8081 43.7365C46.7689 43.5914 46.7296 43.4252 46.7296 43.1592C46.7296 42.9355 46.7477 42.8085 46.7658 42.6755C46.7749 42.6151 46.7839 42.5546 46.7839 42.4368C46.7839 42.2463 46.787 42.1496 46.79 42.0559C46.793 41.9713 46.793 41.8866 46.793 41.7143C46.793 41.5995 46.7839 41.5451 46.7749 41.4877C46.7568 41.3819 46.7327 41.2398 46.7327 40.9919C46.7327 40.7622 46.7477 40.6443 46.7628 40.5295C46.7719 40.463 46.7809 40.3995 46.7809 40.2695C46.7809 40.1396 46.7719 40.0761 46.7628 40.0096C46.7477 39.8947 46.7327 39.7768 46.7327 39.5471C46.7327 39.3507 46.7357 39.2539 46.7387 39.1572C46.7417 39.0756 46.7447 38.991 46.7447 38.8247C46.7447 38.5436 46.793 38.3683 46.8413 38.2172C46.8594 38.1597 46.8594 38.1597 46.8594 38.1023C46.8594 37.9361 46.8563 37.8514 46.8533 37.7668C46.8503 37.6701 46.8473 37.5734 46.8473 37.3799C46.8473 37.1895 46.8503 37.0958 46.8533 36.9991C46.8563 36.9144 46.8563 36.8268 46.8563 36.6575C46.8563 36.6061 46.8563 36.6061 46.8382 36.5517C46.787 36.3976 46.7387 36.2222 46.7387 35.9351C46.7387 35.6903 46.7658 35.5482 46.793 35.4092C46.8081 35.3396 46.8141 35.3124 46.8141 35.2127C46.8141 34.989 46.8322 34.859 46.8533 34.726C46.8624 34.6686 46.8714 34.6082 46.8714 34.4903C46.8714 34.4359 46.8714 34.4359 46.8533 34.3784C46.802 34.2243 46.7538 34.052 46.7538 33.7679C46.7538 33.5351 46.7689 33.4203 46.7839 33.3024C46.793 33.2389 46.802 33.1724 46.802 33.0455C46.802 32.9911 46.802 32.9487 46.799 32.9094C46.6271 32.5498 46.3495 32.3231 46.2741 32.2656C46.0811 32.2656 45.9604 32.2626 45.8397 32.2596C45.7191 32.2566 45.5984 32.2535 45.3601 32.2535C45.1127 32.2535 44.9921 32.2566 44.8684 32.2596C44.7176 32.2626 44.5637 32.2656 44.262 32.2656C43.9574 32.2656 43.8035 32.2626 43.6527 32.2596C43.532 32.2566 43.4083 32.2535 43.164 32.2535C42.8985 32.2535 42.7658 32.2535 42.6331 32.2566C42.4913 32.2566 42.3495 32.2596 42.066 32.2596H40.9679C40.7236 32.2596 40.5999 32.2626 40.4762 32.2656C40.3254 32.2687 40.1715 32.2717 39.8699 32.2717C39.5742 32.2717 39.4264 32.2687 39.2786 32.2687C39.1519 32.2656 39.0252 32.2656 38.7688 32.2656C38.5214 32.2656 38.3977 32.2687 38.2741 32.2717C38.1232 32.2747 37.9724 32.2777 37.6707 32.2777C37.36 32.2777 37.2062 32.2747 37.0523 32.2717C36.9317 32.2687 36.814 32.2656 36.5727 32.2656C36.2801 32.2656 36.1353 32.2626 35.9905 32.2626C35.8608 32.2626 35.7311 32.2596 35.4716 32.2596C35.2393 32.2596 35.1217 32.2626 35.0071 32.2656C34.8472 32.2717 34.6903 32.2747 34.3736 32.2747C33.5259 32.2868 33.3509 33.2691 33.3509 33.2691Z" fill="white"/>
<path d="M50.4914 35.3489C50.5457 35.503 50.6 35.6753 50.6 35.9594C50.6 36.1831 50.5819 36.3131 50.5578 36.4461C50.5487 36.5035 50.5366 36.564 50.5366 36.6818C50.5366 36.9267 50.5065 37.0687 50.4763 37.2078C50.4612 37.2773 50.4522 37.3045 50.4522 37.4042C50.4522 37.4556 50.4522 37.4556 50.4703 37.51C50.5276 37.6642 50.5819 37.8395 50.5819 38.1267C50.5819 38.3171 50.5789 38.4108 50.5759 38.5075C50.5728 38.5921 50.5728 38.6798 50.5728 38.8491C50.5728 39.0153 50.5759 39.0999 50.5789 39.1846C50.5819 39.2813 50.5849 39.378 50.5849 39.5715C50.5849 39.8526 50.4944 40.046 50.4944 40.2788C50.4944 40.5085 50.4793 40.6264 50.4612 40.7412C50.4522 40.8047 50.4431 40.8712 50.4431 41.0012C50.4431 41.116 50.4522 41.1704 50.4642 41.2279C50.4823 41.3306 50.5095 41.4757 50.5095 41.7236C50.5095 41.914 50.5065 42.0107 50.5035 42.1044C50.5004 42.1891 50.4974 42.2737 50.4974 42.446C50.4974 42.6697 50.4793 42.7966 50.4552 42.9296C50.4461 42.9901 50.4341 43.0505 50.4341 43.1684C50.4341 43.2409 50.4371 43.25 50.4552 43.3135C50.5004 43.4586 50.5427 43.6248 50.5427 43.8908C50.5427 44.1356 50.5125 44.2807 50.4793 44.4228C50.4642 44.4923 50.4552 44.5195 50.4552 44.6132C50.4552 44.7734 50.4582 44.855 50.4642 44.9336C50.4703 45.0333 50.4763 45.1331 50.4763 45.3356C50.4763 45.4444 50.4823 45.4777 50.4974 45.5502C50.5004 45.5683 50.5065 45.5925 50.5095 45.6137C50.6211 45.6137 50.7508 45.6137 50.9499 45.6137L52.1898 45.6107C52.5246 45.6107 52.6905 45.6137 52.8594 45.6167C53.0012 45.6197 53.146 45.6197 53.4296 45.6197C53.689 45.6197 53.8217 45.6167 53.9515 45.6137C54.1325 45.6076 54.3104 45.6046 54.6694 45.6046C54.9982 45.6046 55.1611 45.6076 55.327 45.6076C55.4718 45.6107 55.6166 45.6107 55.9092 45.6107C56.2592 45.6107 56.4341 45.6137 56.6091 45.6197C56.7418 45.6228 56.8776 45.6258 57.1461 45.6258C57.4236 45.6258 57.5654 45.6228 57.7041 45.6197C57.8761 45.6167 58.045 45.6137 58.3859 45.6137C58.7207 45.6137 58.8866 45.6167 59.0526 45.6197C59.1943 45.6228 59.3391 45.6228 59.6257 45.6228C59.9002 45.6228 60.039 45.6197 60.1778 45.6167C60.3497 45.6137 60.5216 45.6107 60.8655 45.6107L62.1054 45.6076C62.404 45.6076 62.5548 45.6076 62.7057 45.6046C62.8656 45.6046 63.0254 45.6016 63.3452 45.6016C63.6921 45.6016 63.8641 45.6046 64.036 45.6076C64.1506 45.6107 64.2683 45.6137 64.4583 45.6137C64.4583 45.6046 64.4553 45.5956 64.4553 45.5865C64.4372 45.4807 64.4101 45.3356 64.4101 45.0817C64.4101 44.8883 64.4131 44.7915 64.4161 44.6948C64.4191 44.6102 64.4191 44.5225 64.4191 44.3502C64.4191 44.1235 64.4372 43.9936 64.4583 43.8575C64.4674 43.7971 64.4764 43.7397 64.4764 43.6188C64.4764 43.5492 64.4734 43.5432 64.4553 43.4797C64.4131 43.3316 64.398 42.4883 64.4312 42.3462C64.4463 42.2767 64.4523 42.2525 64.4523 42.1588C64.4523 41.9986 64.4463 41.917 64.4432 41.8354C64.4372 41.7326 64.4312 41.6329 64.4312 41.4274C64.4312 41.3216 64.4251 41.2853 64.4101 41.2158C64.3829 41.0798 64.3588 40.9377 64.3588 40.6959C64.3588 40.5296 64.3558 40.448 64.3527 40.3634C64.3497 40.2636 64.3437 40.1639 64.3437 39.9644C64.3437 39.7679 64.3467 39.6682 64.3497 39.5684C64.3527 39.4838 64.3558 39.3992 64.3558 39.2329C64.3558 39.0304 64.3618 38.9307 64.3648 38.8279C64.3678 38.7463 64.3739 38.6647 64.3739 38.5015C64.3739 38.2989 64.4372 37.9755 64.4372 37.77C64.4372 37.7065 64.4372 37.7005 64.4161 37.64C64.3708 37.4889 64.3256 37.3166 64.3256 37.0385C64.3256 36.7997 64.3497 36.6546 64.3769 36.5186C64.392 36.4491 64.398 36.4128 64.398 36.307C64.398 36.0894 64.407 35.9806 64.4161 35.8718C64.4221 35.7992 64.4282 35.7237 64.4282 35.5756C64.4282 35.3972 64.4282 35.3096 64.4251 35.2219C64.4251 35.1312 64.4221 35.0375 64.4221 34.8592C64.1778 34.8592 64.027 34.8562 63.8822 34.8532C63.7464 34.8501 63.6076 34.8471 63.3331 34.8471C63.0345 34.8471 62.8837 34.8471 62.7328 34.8501C62.5729 34.8501 62.4131 34.8532 62.0933 34.8532H60.8535C60.579 34.8532 60.4402 34.8562 60.3014 34.8592C60.1295 34.8622 59.9575 34.8652 59.6136 34.8652C59.2788 34.8652 59.1129 34.8622 58.947 34.8592C58.8052 34.8562 58.6604 34.8562 58.3738 34.8562C58.0933 34.8562 57.9545 34.8592 57.8157 34.8622C57.6468 34.8652 57.4749 34.8683 57.134 34.8683C56.7841 34.8683 56.6091 34.8652 56.4341 34.8592C56.2984 34.8562 56.1657 34.8532 55.8972 34.8532C55.5684 34.8532 55.4055 34.8501 55.2396 34.8501C55.0948 34.8471 54.95 34.8471 54.6573 34.8471C54.3979 34.8471 54.2682 34.8501 54.1355 34.8562C53.9545 34.8622 53.7765 34.8652 53.4175 34.8652C53.0827 34.8652 52.9168 34.8622 52.7478 34.8592C52.606 34.8562 52.4612 34.8562 52.1777 34.8562H51.6015C50.5728 34.965 50.4914 35.3489 50.4914 35.3489Z" fill="white"/>
<path d="M64.4526 65.7076C64.4677 65.6381 64.4737 65.6139 64.4737 65.5202C64.4737 65.363 64.4677 65.2844 64.4647 65.2059C64.4587 65.1031 64.4496 64.9973 64.4496 64.7887C64.4496 64.6164 64.4466 64.5318 64.4436 64.4442C64.4406 64.3474 64.4375 64.2507 64.4375 64.0603C64.4375 63.9636 64.4315 63.9364 64.4164 63.8668C64.3863 63.7248 64.3591 63.5797 64.3591 63.3318C64.3591 63.09 64.3802 62.957 64.3953 62.8482C64.4044 62.7878 64.4134 62.7243 64.4134 62.6034C64.4134 62.4976 64.4074 62.4643 64.3923 62.3948C64.3651 62.2588 64.341 62.1167 64.341 61.8749C64.341 61.612 64.3772 61.4518 64.4134 61.3097C64.4315 61.2462 64.4345 61.2281 64.4345 61.1465C64.4345 60.9168 64.4496 60.8019 64.4617 60.687C64.4707 60.6205 64.4768 60.551 64.4768 60.418C64.4768 60.3606 64.4768 60.3576 64.4587 60.2971C64.4104 60.143 64.3621 59.9707 64.3621 59.6865C64.3621 59.4598 64.3802 59.3299 64.4013 59.1969C64.4104 59.1364 64.4194 59.076 64.4194 58.9581C64.4194 58.7918 64.4164 58.7102 64.4134 58.6256C64.4074 58.5259 64.4044 58.4261 64.4044 58.2266C64.4044 58.015 64.4134 57.9092 64.4194 57.8035C64.4255 57.7279 64.4315 57.6493 64.4315 57.4951C64.4315 57.3229 64.4285 57.2352 64.4285 57.1475C64.4255 57.0508 64.4255 56.9571 64.4255 56.7637C64.4255 56.5309 64.4406 56.413 64.4556 56.2952C64.4647 56.2287 64.4737 56.1652 64.4737 56.0322C64.4737 55.875 64.4677 55.7964 64.4647 55.7178C64.4587 55.6151 64.4526 55.5123 64.4526 55.3037C64.4526 55.1435 64.4496 55.0619 64.4436 54.9803C64.4375 54.8776 64.4315 54.7778 64.4315 54.5723C64.4315 54.4242 64.4255 54.3486 64.4194 54.2761C64.4104 54.1672 64.4013 54.0614 64.4013 53.8438C64.4013 53.6081 64.4194 53.4781 64.4345 53.3723C64.4436 53.3088 64.4526 53.2423 64.4526 53.1154C64.4526 53.064 64.4526 53.064 64.4345 53.0096C64.3802 52.8524 64.3289 52.6741 64.3289 52.3839C64.3289 52.136 64.3531 51.9909 64.3712 51.8882C64.3802 51.8307 64.3893 51.7703 64.3893 51.6554C64.3893 51.4076 64.4164 51.2595 64.4496 51.1174C64.4647 51.0479 64.4707 51.0207 64.4707 50.924C64.4707 50.8756 64.4707 50.8756 64.4526 50.8242C64.3983 50.664 64.344 50.4857 64.344 50.1925C64.344 49.999 64.347 49.9053 64.3501 49.8086C64.3531 49.721 64.3531 49.6363 64.3531 49.464C64.3531 49.2948 64.3501 49.2101 64.347 49.1255C64.344 49.0288 64.341 48.929 64.341 48.7326C64.0243 48.2338 63.5718 48.0706 63.2309 48.0253C63.0107 48.0253 62.878 48.0253 62.7482 48.0283C62.5884 48.0283 62.4285 48.0313 62.1087 48.0313L60.8689 48.0343C60.5944 48.0343 60.4556 48.0374 60.3168 48.0404C60.1449 48.0434 59.973 48.0464 59.6291 48.0464C59.2942 48.0464 59.1283 48.0434 58.9624 48.0404C58.8206 48.0374 58.6758 48.0374 58.3922 48.0374C58.1117 48.0374 57.9729 48.0404 57.8342 48.0434C57.6652 48.0464 57.4933 48.0494 57.1524 48.0494C56.8025 48.0494 56.6275 48.0464 56.4526 48.0404C56.3198 48.0374 56.1841 48.0343 55.9156 48.0343C55.5868 48.0343 55.4239 48.0313 55.258 48.0313C55.1132 48.0283 54.9684 48.0283 54.6758 48.0283C54.4163 48.0283 54.2836 48.0313 54.1539 48.0374C53.9729 48.0434 53.7949 48.0494 53.4359 48.0494C53.1011 48.0494 52.9352 48.0464 52.7663 48.0434C52.6245 48.0404 52.4797 48.0404 52.1961 48.0404L51.4148 48.0434C50.724 48.1613 50.5309 48.651 50.5309 48.651C50.5279 48.7356 50.5219 48.8232 50.5219 48.9925C50.5219 49.2585 50.4917 49.4096 50.4706 49.5215C50.4555 49.597 50.4495 49.6363 50.4495 49.7482C50.4495 49.9114 50.4555 49.993 50.4585 50.0776C50.4646 50.1834 50.4706 50.2922 50.4706 50.5068C50.4706 50.5764 50.4736 50.5854 50.4917 50.6489C50.54 50.8031 50.5852 50.9784 50.5852 51.2625C50.5852 51.5285 50.5551 51.6826 50.5309 51.7975C50.5159 51.8731 50.5098 51.9093 50.5098 52.0212C50.5098 52.2448 50.5008 52.3567 50.4887 52.4685C50.4827 52.5441 50.4736 52.6227 50.4736 52.7768L50.4766 53.1456C50.4766 53.2423 50.4797 53.339 50.4797 53.5325C50.4797 53.7441 50.4736 53.8499 50.4676 53.9557C50.4646 54.0373 50.4585 54.1219 50.4585 54.2881C50.4585 54.4393 50.4646 54.5148 50.4736 54.5904C50.4857 54.7053 50.4947 54.8171 50.4947 55.0468C50.4947 55.2826 50.4766 55.4186 50.4525 55.5576C50.4435 55.6181 50.4314 55.6816 50.4314 55.8055C50.4314 55.8267 50.4314 55.8448 50.4344 55.8569L50.4495 55.8992C50.5098 56.0654 50.5702 56.2528 50.5702 56.5612C50.5702 56.8332 50.5309 57.0025 50.4917 57.1506C50.4736 57.2171 50.4676 57.2352 50.4676 57.3198C50.4676 57.4468 50.4766 57.5103 50.4887 57.5768C50.5068 57.6886 50.5279 57.8276 50.5279 58.0785C50.5279 58.275 50.5249 58.3717 50.5249 58.4684C50.5249 58.5591 50.5219 58.6498 50.5219 58.8342C50.5219 59.0125 50.5249 59.1002 50.5279 59.1908C50.5309 59.2906 50.534 59.3903 50.534 59.5928C50.534 59.7319 50.543 59.7984 50.5521 59.8679C50.5671 59.9888 50.5852 60.1097 50.5852 60.3515C50.5852 60.6326 50.54 60.8079 50.4947 60.9621C50.4766 61.0286 50.4736 61.0377 50.4736 61.1102C50.4736 61.3429 50.4616 61.4578 50.4495 61.5757C50.4404 61.6482 50.4344 61.7208 50.4344 61.8689C50.4344 61.89 50.4344 61.9051 50.4374 61.9203L50.4525 61.9626C50.5128 62.1228 50.5762 62.3192 50.5762 62.6306C50.5762 62.8573 50.5671 62.9691 50.5551 63.0809C50.549 63.1565 50.54 63.2351 50.54 63.3893C50.54 63.5706 50.543 63.6583 50.543 63.7489C50.546 63.8487 50.546 63.9484 50.546 64.1449C50.546 64.3928 50.5249 64.5318 50.5068 64.6436C50.4978 64.7071 50.4887 64.7736 50.4887 64.9036C50.4887 65.1363 50.4766 65.2512 50.4646 65.3661C50.4555 65.4386 50.4495 65.5142 50.4495 65.6623C50.4495 65.6834 50.4495 65.6985 50.4525 65.7137L50.4676 65.756C50.5309 65.9222 50.5913 66.1126 50.5913 66.4209C50.5913 66.4602 50.5883 66.4965 50.5883 66.5328C50.6697 66.5358 50.7632 66.5358 50.905 66.5358C51.1735 66.5358 51.3062 66.5358 51.4389 66.5328C51.5807 66.5328 51.7225 66.5298 52.0091 66.5298C52.3138 66.5298 52.4676 66.5328 52.6184 66.5358C52.7421 66.5388 52.8658 66.5418 53.1132 66.5418C53.3726 66.5418 53.5023 66.5419 53.632 66.5388C53.7798 66.5358 53.9246 66.5358 54.2172 66.5358C54.5581 66.5358 54.7271 66.5449 54.899 66.5509C55.0046 66.557 55.1102 66.56 55.3243 66.56C55.4722 66.56 55.5174 66.557 55.623 66.5479C55.8342 66.5298 56.0544 66.5116 56.4284 66.5116C56.7542 66.5116 56.9171 66.5177 57.077 66.5237C57.1916 66.5267 57.3032 66.5328 57.5325 66.5328C57.9126 66.5328 58.1328 66.5479 58.2927 66.56C58.3802 66.566 58.4646 66.5721 58.6366 66.5721C58.8327 66.5721 58.9322 66.566 59.0288 66.56C59.2067 66.5509 59.3847 66.5388 59.7407 66.5388C60.0785 66.5388 60.2444 66.5449 60.4134 66.5539C60.522 66.56 60.6276 66.563 60.8448 66.563C61.0348 66.563 61.1283 66.557 61.2248 66.5509C61.3877 66.5418 61.5868 66.5298 61.9519 66.5298C62.2173 66.5298 62.35 66.5298 62.4828 66.5267C62.6276 66.5267 62.7694 66.5237 63.0559 66.5237C63.252 66.5237 63.3697 66.5237 63.4752 66.5207C64.16 66.297 64.4526 65.7076 64.4526 65.7076Z" fill="white"/>
</svg>
