<svg width="149" height="64" viewBox="0 0 149 64" fill="none" xmlns="http://www.w3.org/2000/svg">
<path d="M55.747 13.5748C55.7447 13.5748 55.7447 13.5748 55.747 13.5748C55.616 13.5702 55.2736 13.5495 55.1357 13.5495C54.9426 13.5495 54.5197 13.5564 54.2922 13.5564C54.1451 13.5564 53.7222 13.5817 53.4487 13.5817C53.251 13.5817 52.8304 13.5863 52.6052 13.5863C52.3822 13.5863 51.9593 13.5817 51.7617 13.5817C51.5341 13.5817 50.578 13.5748 50.4654 13.5725C50.3665 13.5702 48.9438 13.5472 48.8473 13.5495C48.7324 13.5518 47.9509 13.5817 47.8176 13.5863C47.8176 13.5863 47.1695 13.6738 47.135 14.0193V14.0216C47.135 14.0308 47.135 14.04 47.135 14.0492C47.135 14.2864 47.0845 14.4361 47.0339 14.5582L47.0362 14.6641C47.0799 14.7839 47.1166 15.4126 47.1097 15.4978C47.1028 15.5507 47.0822 15.9975 47.0707 16.0804C47.0638 16.1265 47.0569 16.465 47.0592 16.5318C47.0615 16.6055 47.0615 16.6769 47.0615 16.822C47.0615 16.9878 47.0362 17.2664 47.0362 17.377C47.0362 17.3908 47.0362 17.4 47.0385 17.4092L47.0477 17.4369C47.0914 17.5566 47.1396 17.7017 47.1396 17.932C47.1396 18.1024 47.0776 18.8232 47.0431 18.9384C47.0293 18.9844 47.0339 19.1917 47.0408 19.2401C47.0523 19.3299 47.0638 19.4174 47.0638 19.5947C47.0638 19.7237 47.073 20 47.073 20.1497C47.073 20.2925 47.0684 20.5689 47.0684 20.7024C47.0684 20.7946 47.112 21.0847 47.112 21.2575C47.112 21.4601 47.0385 21.7526 47.0385 21.8125C47.0385 21.8263 47.0385 21.8378 47.0408 21.847L47.0523 21.8746C47.0914 21.9829 47.1327 22.1142 47.1396 22.3122C47.1396 22.3283 47.1396 22.3467 47.1396 22.3652C47.1396 22.554 47.0937 22.8304 47.0937 22.9179C47.0937 23.0261 47.0982 23.0814 47.1051 23.1344C47.1143 23.2173 47.1166 23.7055 47.112 23.7838C47.1074 23.8437 47.1051 24.2283 47.1074 24.295C47.1074 24.3664 47.1097 24.4378 47.1097 24.5806C47.1097 24.7464 47.0845 25.0228 47.0845 25.1356C47.0845 25.3176 47.0293 25.61 47.0293 25.6906C47.0293 25.739 47.0293 25.7413 47.0454 25.7874C47.0799 25.9025 47.1304 26.6394 47.1304 26.7984C47.1304 26.9803 47.0776 27.2705 47.0776 27.3534C47.0776 27.5054 47.0638 27.784 47.0638 27.9084C47.0638 28.0627 47.0592 28.1387 47.0569 28.2147C47.2545 28.2147 47.7004 28.2193 47.9211 28.2193C48.1831 28.2193 48.6519 28.2308 48.8588 28.2308C49.0703 28.2308 49.5391 28.2216 49.7942 28.2216C50.0471 28.2216 50.5159 28.2285 50.732 28.2285C50.9411 28.2285 51.4123 28.2193 51.6697 28.2193C51.6697 28.2193 52.9476 28.217 53.0602 28.217C53.182 28.217 53.9336 28.217 54.0623 28.2216C54.1657 28.2239 54.7955 28.2239 54.9012 28.2216C55.0299 28.2193 55.8114 28.2193 55.9424 28.2216C56.0182 28.2239 56.0941 28.2239 56.2113 28.2262C56.5078 28.1387 56.5974 27.9752 56.625 27.9038C56.625 27.8485 56.6227 27.807 56.6204 27.7656C56.6181 27.6896 56.6158 27.2612 56.6181 27.1991C56.6181 27.1829 56.6181 27.1691 56.6181 27.1553C56.6204 27.0862 56.6227 26.8421 56.6066 26.7984C56.563 26.674 56.5216 26.5358 56.5216 26.3078C56.5216 26.1144 56.5859 25.8104 56.5859 25.7321C56.5859 25.5525 56.5997 25.4511 56.6181 25.3452C56.625 25.2991 56.6342 25.1126 56.6181 25.0688C56.5767 24.9468 56.5492 24.3043 56.5607 24.2121C56.5676 24.1615 56.5698 23.8298 56.5653 23.7723C56.5584 23.6871 56.5469 23.2403 56.5446 23.1758C56.54 23.0952 56.5193 22.4435 56.5193 22.2823C56.5193 22.1003 56.5561 21.8125 56.5561 21.7065C56.5561 21.5707 56.5492 21.2828 56.5492 21.1308C56.5492 20.965 56.5698 20.6771 56.5698 20.5551C56.5698 20.4238 56.5584 20.1359 56.5584 19.9793C56.5584 19.802 56.6043 19.3506 56.5882 19.3046C56.5492 19.1848 56.5124 19.0489 56.5124 18.8301C56.5124 18.6505 56.5469 18.3626 56.5469 18.2544C56.5469 18.0494 56.5744 17.9251 56.6043 17.8122C56.6181 17.7616 56.6158 17.5658 56.6043 17.5106C56.5836 17.4046 56.6066 16.6285 56.6066 16.5295C56.6066 16.4512 56.5446 16.1472 56.5446 15.9561C56.5446 15.8202 56.5377 15.5323 56.5377 15.3826C56.5377 15.2583 56.5193 14.9704 56.5193 14.8092C56.5193 14.6134 56.5423 14.4983 56.5676 14.3854C56.579 14.3325 56.5813 14.1482 56.5767 14.116C56.5354 13.7982 55.8619 13.6232 55.747 13.5748Z" fill="white"/>
<path d="M55.5516 30.0574C55.5125 30.0574 55.4688 30.0574 55.4205 30.0574C55.2091 30.0574 55.1057 30.0597 54.9999 30.062C54.8712 30.0643 54.7425 30.0666 54.4828 30.0666C54.2231 30.0666 54.0921 30.0643 53.9634 30.062C53.86 30.0597 53.7542 30.0574 53.5451 30.0574C53.3175 30.0574 53.2049 30.0574 53.09 30.0597C52.9682 30.0597 52.8487 30.062 52.6073 30.062H51.6696C51.4604 30.062 51.3547 30.0643 51.249 30.0666C51.1203 30.0689 50.9893 30.0712 50.7319 30.0712C50.4813 30.0712 50.3549 30.0689 50.2285 30.0689C50.1205 30.0666 50.0102 30.0666 49.7941 30.0666C49.5827 30.0666 49.477 30.0689 49.3712 30.0712C49.2425 30.0735 49.1138 30.0758 48.8587 30.0758C48.5944 30.0758 48.4634 30.0735 48.3324 30.0689C48.2289 30.0666 48.1278 30.0643 47.921 30.0643C47.6727 30.0643 47.5486 30.062 47.4245 30.062C47.3372 30.062 47.2452 30.0597 47.1027 30.0597C47.1027 30.0804 47.105 30.0965 47.105 30.1196C47.105 30.2416 47.1073 30.3038 47.1119 30.3637C47.1165 30.442 47.0981 30.9763 47.0729 31.0845C47.0614 31.1375 47.0568 31.1559 47.0568 31.2273C47.0568 31.2779 47.0591 31.2848 47.0729 31.3332C47.105 31.4461 47.1211 32.0771 47.1073 32.1554C47.1004 32.2014 47.0935 32.2452 47.0935 32.335C47.0935 32.4824 47.0866 32.7587 47.0866 32.8877C47.0866 32.9729 47.0912 33.0028 47.1027 33.0581C47.1165 33.1387 47.1234 33.7191 47.1119 33.7974C47.105 33.8457 47.0981 33.8964 47.0981 33.9931C47.0981 34.0921 47.1349 34.3685 47.1349 34.5458C47.1349 34.6955 47.1326 34.7715 47.128 34.8475C47.1257 34.9097 47.0843 35.4532 47.0453 35.5729C47.0315 35.6144 47.0315 35.6144 47.0315 35.6535C47.0315 35.7802 47.0407 36.0589 47.0407 36.2063C47.0407 36.3513 47.0338 36.63 47.0338 36.759C47.0338 36.7958 47.0338 36.7958 47.0476 36.835C47.0889 36.9547 47.1303 37.0929 47.1303 37.314C47.1303 37.5028 47.1096 37.6157 47.0843 37.7239C47.0729 37.7769 47.0499 38.1661 47.0361 38.2467C47.0292 38.2904 47.0223 38.4608 47.0338 38.5023C47.0752 38.622 47.1142 38.7579 47.1142 38.9767C47.1142 39.1563 47.1004 39.2554 47.0889 39.336C47.082 39.3843 47.0797 39.6998 47.0843 39.7551C47.0912 39.838 47.0981 39.9186 47.0981 40.0821C47.0981 40.2042 47.1119 40.4805 47.1119 40.6348C47.1119 40.7546 47.1165 40.8145 47.1188 40.8743C47.1234 40.9526 47.128 41.0309 47.128 41.1875C47.128 41.3649 47.0912 41.6412 47.0912 41.7402C47.0912 41.8715 47.0935 41.9383 47.0935 42.0028C47.0958 42.0742 47.0912 42.5325 47.0843 42.6131C47.0797 42.6706 47.0752 42.7305 47.0752 42.8457C47.0752 42.9723 47.0843 43.198 47.0843 43.2671C47.1211 43.2671 47.1533 43.2671 47.197 43.2671C47.4429 43.2671 47.5647 43.2694 47.6865 43.2694C47.7922 43.2717 48.5093 43.2763 48.6403 43.2786C48.7392 43.2809 48.838 43.2832 49.0357 43.2832C49.2402 43.2832 49.6999 43.274 49.955 43.274C50.2032 43.274 50.3274 43.2763 50.4515 43.2786C50.5572 43.2809 51.1777 43.2786 51.2789 43.2786C51.4076 43.2763 51.5363 43.274 51.7937 43.274L52.7131 43.2717C52.9337 43.2717 53.3934 43.2694 53.6324 43.2694C53.8898 43.2694 54.0185 43.2717 54.1495 43.274C54.2507 43.2763 56.1905 43.2809 56.3882 43.2809C56.4663 43.2809 56.5261 43.2809 56.5789 43.2809C56.5789 43.2349 56.5789 43.2003 56.5812 43.1635C56.5835 43.0967 56.5835 43.0299 56.5835 42.8963C56.5835 42.8019 56.5766 42.7558 56.5674 42.7098C56.5536 42.6292 56.5376 42.5278 56.5376 42.3459C56.5376 42.1479 56.5674 42.0258 56.5973 41.9176C56.6111 41.8692 56.6157 41.8554 56.6157 41.7955C56.6157 41.7794 56.6157 41.7679 56.6134 41.7564L56.6019 41.7241C56.5559 41.6021 56.51 41.4662 56.51 41.2428C56.51 41.0563 56.5284 40.9503 56.5422 40.872C56.5491 40.8283 56.5582 40.7822 56.5582 40.6924C56.5582 40.5842 56.5536 40.5289 56.5468 40.4736C56.5376 40.3907 56.5353 39.9094 56.5399 39.8334C56.5445 39.7735 56.5468 39.7136 56.5468 39.5916L56.5445 39.3244C56.5445 39.2531 56.5491 38.7971 56.5582 38.7165C56.5628 38.6612 56.5697 38.6036 56.5697 38.4931C56.5697 38.2996 56.5927 38.1868 56.6111 38.1039C56.6226 38.0486 56.6272 38.0233 56.6272 37.9404C56.6272 37.8897 56.6249 37.8828 56.6111 37.8367C56.5743 37.7239 56.5399 37.5972 56.5399 37.39C56.5399 37.2702 56.5353 37.2103 56.533 37.1505C56.5284 37.0722 56.5445 36.5356 56.5605 36.4527C56.572 36.3974 56.5766 36.3698 56.5766 36.2869C56.5766 36.1349 56.5904 35.8608 56.5904 35.7364C56.5904 35.5845 56.6042 35.3081 56.6042 35.186C56.6042 35.0387 56.6157 34.7623 56.6157 34.6356C56.6157 34.509 56.6134 34.4468 56.6111 34.3846C56.6088 34.3086 56.6042 34.2349 56.6042 34.0852C56.6042 34.0046 56.5468 33.7283 56.5468 33.5348C56.5468 33.4128 56.5422 33.3506 56.5399 33.2907C56.5353 33.2147 56.5307 33.1387 56.5307 32.9844C56.5307 32.7979 56.5536 32.685 56.5789 32.5791C56.5904 32.5284 56.5973 32.5054 56.5973 32.434C56.5973 32.3787 56.595 32.3718 56.5812 32.3235C56.5468 32.2129 56.5284 31.6165 56.5445 31.5151C56.5513 31.4691 56.5605 31.423 56.5605 31.3332C56.5605 31.1881 56.5674 30.9118 56.5674 30.7828C56.5674 30.6953 56.5605 30.6515 56.5513 30.6078C56.5445 30.5709 56.5376 30.5272 56.5307 30.4742C56.3859 30.062 55.609 30.0597 55.5516 30.0574Z" fill="white"/>
<path d="M56.5166 45.5448C56.5166 45.5448 56.5212 45.4688 56.4361 45.303C56.3511 45.1372 56.096 45.1303 56.096 45.1303C56.0086 45.128 55.9397 45.128 55.8707 45.1257C55.7719 45.1234 55.6731 45.1211 55.4754 45.1211C55.2731 45.1211 55.172 45.1234 55.0686 45.1257C54.9399 45.128 54.8112 45.1326 54.5561 45.1326C54.2986 45.1326 54.1699 45.1303 54.0389 45.1257C53.9378 45.1234 53.839 45.1211 53.6367 45.1211C53.4161 45.1211 53.3034 45.1211 53.1931 45.1234C53.0736 45.1234 52.9564 45.1257 52.7174 45.1257L51.798 45.128C51.5957 45.128 51.4946 45.1303 51.3935 45.1326C51.2648 45.1349 51.1361 45.1395 50.8787 45.1395C50.6304 45.1395 50.5063 45.1372 50.3822 45.1349C50.2765 45.1326 50.1708 45.1303 49.9616 45.1303C49.757 45.1303 49.6536 45.1326 49.5502 45.1349C49.4238 45.1372 49.2951 45.1395 49.04 45.1395C48.7779 45.1395 48.6469 45.1349 48.5159 45.1326C48.4171 45.1303 48.3183 45.128 48.1206 45.128C47.877 45.128 47.7552 45.1257 47.631 45.1257C47.523 45.1234 47.4173 45.1234 47.2036 45.1234C47.1645 45.1234 47.1323 45.1234 47.1001 45.1234C47.0955 45.2869 47.0725 45.3998 47.0473 45.4965C47.0358 45.5448 47.0312 45.5587 47.0312 45.6185C47.0312 45.6968 47.0358 45.7222 47.0473 45.7774C47.0679 45.8811 47.0863 45.9893 47.0863 46.1712C47.0863 46.3417 47.0748 46.4384 47.0588 46.5374C47.0519 46.5835 47.045 46.6295 47.045 46.7216C47.045 46.7953 47.0496 46.8161 47.0611 46.869C47.084 46.975 47.1047 47.0878 47.1047 47.2744C47.1047 47.4056 47.107 47.4701 47.1093 47.5346C47.1116 47.6083 47.1139 47.6797 47.1139 47.8271C47.1139 47.9468 47.1185 48.0044 47.1208 48.0643C47.1254 48.1426 47.13 48.2209 47.13 48.3798C47.13 48.5709 47.107 48.6838 47.084 48.792C47.0725 48.8427 47.0679 48.8634 47.0679 48.9325C47.0679 49.0062 47.0725 49.0292 47.084 49.0822C47.0886 49.1075 47.0955 49.1328 47.1001 49.1605C47.1001 49.1605 47.3346 49.6441 48.0585 49.7132C48.1344 49.7178 48.2102 49.7224 48.3619 49.7224C48.4791 49.7224 48.5159 49.7201 48.5987 49.7132C48.7573 49.6994 48.925 49.6878 49.2054 49.6878C49.3962 49.6878 49.4927 49.6855 49.5893 49.6855C49.7042 49.6832 49.8191 49.6809 50.0489 49.6809C50.3178 49.6809 50.4535 49.6878 50.5868 49.6948C50.6626 49.6994 50.7385 49.704 50.8924 49.704C51.1177 49.704 51.2303 49.7063 51.3429 49.7063C51.4418 49.7086 51.5406 49.7086 51.7359 49.7086C51.9612 49.7086 52.0738 49.7109 52.1887 49.7109C52.2853 49.7132 52.3841 49.7132 52.5794 49.7132C52.8024 49.7132 52.9127 49.7132 53.023 49.7155C53.1219 49.7155 53.223 49.7178 53.423 49.7178C53.6206 49.7178 53.7194 49.7178 53.8183 49.7155C53.9309 49.7132 54.0412 49.7132 54.2665 49.7132C54.4181 49.7132 54.4917 49.7086 54.5675 49.704C54.7031 49.6971 54.8388 49.6878 55.1077 49.6878C55.303 49.6878 55.3996 49.6855 55.4961 49.6855C55.6087 49.6832 55.7236 49.6832 55.9512 49.6832C56.2109 49.6832 56.358 49.6925 56.5097 49.7017C56.5372 49.704 56.5671 49.7063 56.5993 49.7063C56.6085 49.6809 56.6154 49.6533 56.6246 49.628L56.6361 49.5934C56.6361 49.5888 56.6361 49.5796 56.6361 49.5658C56.6361 49.5474 56.6361 49.5335 56.6338 49.522L56.6223 49.4875C56.574 49.347 56.5281 49.1881 56.5281 48.9279C56.5281 48.7344 56.5372 48.6354 56.5464 48.5387C56.551 48.4765 56.5579 48.4143 56.5579 48.29C56.5579 48.0804 56.574 47.9652 56.5878 47.8708C56.5947 47.8155 56.6016 47.7626 56.6016 47.652C56.6016 47.5 56.5993 47.424 56.5993 47.348C56.597 47.2651 56.597 47.1822 56.597 47.0141C56.597 46.823 56.6039 46.7286 56.6131 46.6341C56.6177 46.5696 56.6246 46.5052 56.6246 46.3762C56.6246 46.3601 56.6246 46.3463 56.6223 46.3347L56.6108 46.3002C56.5648 46.1643 56.5166 46.0008 56.5166 45.7406C56.512 45.66 56.5143 45.5978 56.5166 45.5448Z" fill="white"/>
<path d="M59.3873 18.4291C59.3873 18.6156 59.3781 18.71 59.3666 18.8021C59.3597 18.8574 59.3551 18.9127 59.3551 19.0255C59.3551 19.0762 59.3551 19.0785 59.3689 19.1292C59.4034 19.2535 59.4379 19.394 59.4379 19.622C59.4379 19.8062 59.4264 19.9099 59.4103 20.0181C59.4034 20.0688 59.3965 20.1171 59.3965 20.2162C59.3965 20.352 59.3988 20.4188 59.4011 20.4879C59.4034 20.5685 59.408 20.6491 59.408 20.8126C59.408 20.9853 59.4034 21.0705 59.3965 21.1558C59.3919 21.2179 59.3873 21.2824 59.3873 21.4068C59.3873 21.5496 59.3896 21.6186 59.3896 21.69C59.3896 21.7039 59.3896 21.72 59.3896 21.7338C59.5827 21.7338 59.6907 21.7361 59.7964 21.7384C59.893 21.7407 59.9895 21.7407 60.1826 21.7407C60.3595 21.7407 60.4492 21.7384 60.5365 21.7361C60.6583 21.7315 60.7778 21.7292 61.0192 21.7292C61.2421 21.7292 61.3524 21.7315 61.4628 21.7315C61.5616 21.7338 61.6604 21.7338 61.8581 21.7338C62.0948 21.7338 62.212 21.7361 62.3292 21.7407C62.4212 21.743 62.5131 21.7453 62.6947 21.7453C62.8832 21.7453 62.9774 21.743 63.0716 21.7407C63.1865 21.7384 63.3015 21.7361 63.5313 21.7361C63.7565 21.7361 63.8692 21.7384 63.9818 21.7384C64.0783 21.7407 64.1748 21.7407 64.3702 21.7407C64.5564 21.7407 64.6506 21.7384 64.7448 21.7361C64.8598 21.7338 64.977 21.7315 65.2068 21.7315H66.0434C66.2457 21.7315 66.3468 21.7315 66.4479 21.7292C66.556 21.7292 66.664 21.7269 66.88 21.7269C67.1122 21.7269 67.2294 21.7292 67.3443 21.7315C67.4362 21.7338 67.5305 21.7361 67.7166 21.7361C67.9051 21.7361 67.997 21.7338 68.0913 21.7315C68.2062 21.7292 68.3234 21.7269 68.5532 21.7269C68.7877 21.7269 68.9049 21.7292 69.0221 21.7338C69.0221 21.7338 69.5117 21.6946 69.6266 21.4045C69.6266 21.2318 69.6312 21.1465 69.6381 21.0613C69.6427 20.9992 69.6473 20.9347 69.6473 20.8103C69.6473 20.6744 69.645 20.6077 69.6427 20.5386C69.6404 20.458 69.6358 20.3774 69.6358 20.2139C69.6358 20.0296 69.6473 19.926 69.6634 19.8177C69.6703 19.7671 69.6771 19.7187 69.6771 19.6197C69.6771 19.569 69.6771 19.5644 69.6634 19.5138C69.6289 19.3894 69.5944 19.2489 69.5944 19.0232C69.5944 18.8367 69.6036 18.7423 69.6151 18.6501C69.622 18.5949 69.6266 18.5396 69.6266 18.4268C69.6266 18.2149 69.6519 18.0859 69.6794 17.9685C69.6909 17.9155 69.6955 17.8994 69.6955 17.8303C69.6955 17.7428 69.6909 17.7128 69.6794 17.6553C69.6611 17.5447 69.6427 17.4296 69.6427 17.2338C69.6427 17.0381 69.6565 16.9298 69.668 16.8423C69.6748 16.7917 69.6817 16.741 69.6817 16.6397C69.6817 16.5591 69.6771 16.536 69.6657 16.4762C69.6427 16.3633 69.6243 16.2436 69.6243 16.0432C69.6243 15.9027 69.622 15.8313 69.622 15.7622C69.6197 15.6839 69.6174 15.6056 69.6174 15.449C69.6174 15.3201 69.6128 15.2556 69.6105 15.1911C69.6059 15.1059 69.6013 15.023 69.6013 14.8526C69.6013 14.6499 69.622 14.5302 69.645 14.415C69.6565 14.3598 69.6611 14.3367 69.6611 14.2584C69.6611 14.1755 69.6565 14.1502 69.645 14.0926C69.6243 13.9798 69.6036 13.8623 69.6036 13.662C69.6036 13.6228 69.6036 13.5883 69.6059 13.5537C69.5622 13.5537 69.514 13.5537 69.4588 13.5537C69.2749 13.5537 69.1853 13.556 69.0934 13.5583C68.9738 13.5606 68.8543 13.5652 68.6153 13.5652C68.3602 13.5652 68.2315 13.5606 68.1051 13.5537C68.0223 13.5491 67.9396 13.5468 67.7718 13.5468C67.6707 13.5468 67.6454 13.5491 67.5672 13.5583C67.3995 13.5744 67.2248 13.5906 66.9283 13.5906C66.664 13.5906 66.5307 13.5837 66.3997 13.5767C66.3215 13.5721 66.2434 13.5698 66.0871 13.5698C65.8251 13.5698 65.6757 13.5606 65.5217 13.5514C65.4527 13.5468 65.3838 13.5422 65.2436 13.5422C65.1448 13.5422 65.1218 13.5445 65.0436 13.5537C64.8735 13.5721 64.6966 13.586 64.4001 13.586C64.1817 13.586 64.0714 13.586 63.9634 13.5837C63.8623 13.5837 63.7611 13.5814 63.5589 13.5814C63.3589 13.5814 63.2601 13.5814 63.159 13.5837C63.0486 13.586 62.936 13.586 62.7154 13.586C62.4212 13.586 62.2465 13.5698 62.0787 13.5537C62.0006 13.5468 61.9753 13.5422 61.8719 13.5422C61.6489 13.5422 61.5363 13.5399 61.426 13.5399C61.3272 13.5399 61.2283 13.5376 61.0307 13.5376C60.8652 13.5376 60.7801 13.5399 60.6974 13.5445C60.571 13.5491 60.4423 13.5537 60.1895 13.5537C59.9366 13.5537 59.8079 13.5491 59.6815 13.5445C59.6034 13.5422 59.5229 13.5376 59.3758 13.5376C59.3666 13.5767 59.3643 13.5998 59.3643 13.6597C59.3643 13.7426 59.3689 13.7679 59.3804 13.8255C59.4011 13.9383 59.4218 14.0581 59.4218 14.2561C59.4218 14.4588 59.4011 14.5785 59.3781 14.6937C59.3666 14.7489 59.362 14.772 59.362 14.8503C59.362 14.9792 59.3666 15.0437 59.3689 15.1082C59.3735 15.1934 59.3781 15.2763 59.3781 15.4467C59.3781 15.5872 59.3804 15.6586 59.3804 15.7277C59.3827 15.806 59.385 15.8843 59.385 16.0409C59.385 16.1215 59.3896 16.1468 59.4011 16.2044C59.4218 16.3173 59.4425 16.437 59.4425 16.6374C59.4425 16.8331 59.4287 16.9414 59.4172 17.0289C59.4103 17.0795 59.4034 17.1302 59.4034 17.2315C59.4034 17.319 59.408 17.349 59.4195 17.4066C59.4402 17.5171 59.4563 17.6322 59.4563 17.828C59.4563 18.0399 59.431 18.1711 59.4034 18.2863C59.3919 18.3439 59.3873 18.36 59.3873 18.4291Z" fill="white"/>
<path d="M73.2924 23.7147H73.7704C74.0255 23.7147 74.1543 23.717 74.2807 23.7193C74.3887 23.7216 74.499 23.7216 74.7151 23.7216C74.9127 23.7216 75.0115 23.7193 75.1127 23.7147C75.2506 23.7101 75.3862 23.7055 75.6597 23.7055C75.9102 23.7055 76.0343 23.7078 76.1607 23.7078C76.2711 23.7101 76.3814 23.7101 76.6043 23.7101C76.8709 23.7101 77.0042 23.7124 77.1375 23.717C77.241 23.7193 77.3421 23.7216 77.5467 23.7216C77.7581 23.7216 77.8661 23.7193 77.9719 23.717C78.1029 23.7147 78.2316 23.7124 78.4913 23.7124C78.7441 23.7124 78.8728 23.7147 78.9992 23.717C79.1073 23.7193 79.2176 23.7193 79.4359 23.7193C79.6451 23.7193 79.7508 23.717 79.8565 23.7147C79.9875 23.7124 80.1185 23.7101 80.3805 23.7101L81.3252 23.7078C81.5527 23.7078 81.6676 23.7078 81.7826 23.7055C81.9044 23.7055 82.0262 23.7032 82.2698 23.7032C82.5318 23.7032 82.6651 23.7055 82.7961 23.7101C82.8766 23.7124 82.9593 23.7147 83.088 23.7147C83.0582 23.6157 83.0329 23.4936 83.0329 23.3278C83.0329 23.1251 83.0628 23.0008 83.0903 22.8902C83.1041 22.8419 83.1064 22.8304 83.1064 22.7705C83.1064 22.6784 83.0995 22.6323 83.0926 22.5862C83.0765 22.4849 83.0628 22.3859 83.0628 22.2132C83.0628 22.0704 83.0628 21.9967 83.0651 21.9253C83.0651 21.8585 83.0673 21.7917 83.0673 21.6558C83.0673 21.5246 83.0651 20.9235 83.0628 20.859C83.0605 20.7853 83.0582 20.1336 83.0582 19.9862C83.0582 19.8872 83.0513 19.8365 83.0444 19.7859C83.0329 19.696 83.0214 19.6062 83.0214 19.4289C83.0214 19.2193 83.0536 19.0904 83.088 18.9752C83.1018 18.9292 83.1041 18.9222 83.1041 18.8716C83.1041 18.6989 83.1133 18.6136 83.1225 18.5261C83.1294 18.4732 83.134 18.4202 83.134 18.312C83.134 18.2981 83.134 18.2889 83.1317 18.2797L83.1225 18.2521C83.0788 18.1323 83.0306 17.9849 83.0306 17.7546C83.0306 17.5865 83.0375 17.5036 83.0467 17.4207C83.0513 17.3655 83.0582 17.3079 83.0582 17.1973C83.0582 17.0638 83.0559 16.9993 83.0559 16.9325C83.0536 16.8588 83.0536 16.7874 83.0536 16.64C83.0536 16.4558 83.0696 16.3522 83.0811 16.2715C83.088 16.2232 83.0949 16.1771 83.0949 16.0827C83.0949 15.9123 83.1041 15.8271 83.1133 15.7396C83.1202 15.6866 83.1248 15.6313 83.1248 15.5231C83.1248 15.5093 83.1248 15.4978 83.1225 15.4885L83.111 15.4609C83.0673 15.3412 83.0191 15.1961 83.0191 14.9658C83.0191 14.7286 83.0719 14.5789 83.1202 14.4545L83.1317 14.4269C83.1317 14.4269 83.1317 14.4177 83.1317 14.4085C83.1317 14.3325 83.1271 14.3094 83.1156 14.2565C83.0926 14.1505 83.0742 14.0377 83.0742 13.8511C83.0559 13.607 82.6835 13.5633 82.5548 13.5541C82.5387 13.5541 82.5249 13.5518 82.5088 13.5518H82.5065C82.4583 13.5495 82.4169 13.5472 82.3801 13.5449C82.3112 13.5403 82.2422 13.5356 82.1066 13.5356C81.9159 13.5356 81.8216 13.5379 81.7274 13.5403C81.6125 13.5426 81.4953 13.5449 81.2654 13.5449C81.0632 13.5449 80.962 13.5449 80.8609 13.5472C80.7506 13.5472 80.6426 13.5495 80.4219 13.5495C80.2817 13.5495 80.2128 13.5541 80.1415 13.5587C79.9875 13.5679 79.8404 13.5771 79.5807 13.5771C79.321 13.5771 79.1923 13.5702 79.0613 13.5656C78.9808 13.561 78.9004 13.5587 78.7372 13.5587C78.5901 13.5587 78.5166 13.5633 78.4453 13.5679C78.3235 13.5748 78.1718 13.584 77.896 13.584C77.6018 13.584 77.4317 13.5702 77.3076 13.561C77.2226 13.5541 77.1812 13.5518 77.0548 13.5518C76.8043 13.5518 76.6802 13.5472 76.5561 13.5426C76.4618 13.5426 76.3768 13.5403 76.2044 13.5403C76.0964 13.5403 76.0665 13.5426 75.9861 13.5518C75.8206 13.5679 75.6505 13.5817 75.3609 13.5817C75.0989 13.5817 74.9679 13.5748 74.8369 13.5702C74.7564 13.5656 74.6783 13.5633 74.5197 13.5633C74.322 13.5633 74.2232 13.5656 74.1267 13.5656C74.0141 13.5679 73.9014 13.5679 73.6785 13.5679C73.4441 13.5679 73.3268 13.5656 73.2096 13.5633C73.1154 13.561 73.0235 13.5587 72.835 13.5587C72.6442 13.5587 72.5454 13.5587 72.4489 13.561C72.442 13.5909 72.4397 13.6139 72.4397 13.6646C72.4397 13.7475 72.4443 13.7728 72.4558 13.8281C72.4787 13.941 72.4994 14.0584 72.4994 14.2542C72.4994 14.4545 72.4764 14.5743 72.4512 14.6894C72.4397 14.7447 72.4328 14.7677 72.4328 14.8437C72.4328 14.9704 72.4374 15.0349 72.4397 15.0993C72.4443 15.1823 72.4512 15.2675 72.4512 15.4356C72.4512 15.5761 72.4535 15.6451 72.4535 15.7142C72.4558 15.7925 72.4581 15.8708 72.4581 16.0251C72.4581 16.1057 72.4627 16.1288 72.4741 16.1863C72.4994 16.2992 72.5201 16.4166 72.5201 16.617C72.5201 16.8127 72.504 16.9187 72.4902 17.0062C72.4833 17.0569 72.4764 17.1075 72.4764 17.2089C72.4764 17.2964 72.481 17.324 72.4925 17.3839C72.5132 17.4944 72.5339 17.6073 72.5339 17.8007C72.5339 18.0103 72.5063 18.1392 72.4764 18.2544C72.4627 18.3074 72.4581 18.3235 72.4581 18.3926C72.4581 18.5768 72.4466 18.6712 72.4351 18.7633C72.4282 18.8186 72.4213 18.8739 72.4213 18.9844C72.4213 19.0351 72.4236 19.0397 72.4374 19.0881C72.4764 19.2101 72.5132 19.3506 72.5132 19.5763C72.5132 19.7582 72.4994 19.8618 72.4833 19.9701C72.4764 20.0184 72.4672 20.0691 72.4672 20.1681C72.4672 20.304 72.4695 21.4831 72.4718 21.5499C72.4741 21.6305 72.4787 21.7111 72.4787 21.8723C72.4787 22.0427 72.4718 22.128 72.4672 22.2132C72.4627 22.2753 72.4581 22.3375 72.4581 22.4642C72.4581 22.6047 72.4604 22.6761 72.4604 22.7451C72.4627 22.8234 72.4627 22.8994 72.4627 23.056C72.4627 23.0837 72.4627 23.1044 72.4604 23.1274C72.4718 23.1228 72.5132 23.5972 73.2924 23.7147Z" fill="white"/>
<path d="M68.6868 40.4451C68.6501 40.4451 68.6087 40.4451 68.5581 40.4451C68.5283 40.4451 68.5053 40.4451 68.4823 40.4451C68.3467 40.4451 68.2639 40.4474 68.1835 40.4497C68.0686 40.452 67.9514 40.4543 67.7215 40.4543C67.4894 40.4543 67.3722 40.452 67.2573 40.4497C67.1653 40.4474 67.0711 40.4451 66.8849 40.4451C66.6827 40.4451 66.5792 40.4451 66.4781 40.4474C66.3701 40.4474 66.2621 40.4497 66.046 40.4497L65.2094 40.452C65.0232 40.452 64.929 40.4543 64.8348 40.4566C64.7198 40.4589 64.6026 40.4612 64.3728 40.4612C64.1476 40.4612 64.0349 40.4589 63.9223 40.4589C63.8258 40.4566 63.7293 40.4566 63.5339 40.4566C63.3454 40.4566 63.2512 40.4589 63.157 40.4612C63.042 40.4635 62.9271 40.4658 62.6996 40.4658C62.4628 40.4658 62.3456 40.4635 62.2284 40.4589C62.1365 40.4566 62.0445 40.4543 61.863 40.4543C61.64 40.4543 61.5297 40.452 61.4194 40.452C61.3206 40.4497 61.2217 40.4497 61.0264 40.4497C60.8494 40.4497 60.7598 40.452 60.6724 40.4543C60.5506 40.4589 60.4311 40.4612 60.1898 40.4612C59.9645 40.4612 59.8519 40.4589 59.7393 40.4566C59.6519 40.4543 59.56 40.4543 59.3968 40.4543C59.4014 40.5211 59.406 40.5994 59.406 40.7191C59.406 40.9195 59.3876 41.0346 59.3761 41.1175C59.3692 41.1659 59.3623 41.2143 59.3623 41.3087C59.3623 41.3248 59.3623 41.3386 59.3646 41.3501L59.3761 41.3847C59.4175 41.5136 59.4589 41.661 59.4589 41.9005C59.4589 42.1124 59.4313 42.2437 59.4037 42.3588C59.3922 42.4118 59.3876 42.4256 59.3876 42.4901C59.3876 42.5914 59.3945 42.6398 59.4014 42.6904C59.4129 42.778 59.429 42.8862 59.429 43.0819C59.429 43.2339 59.429 43.3099 59.4267 43.3882C59.4267 43.4596 59.4244 43.531 59.4244 43.6738C59.4244 43.812 59.4267 43.8834 59.4267 43.9525C59.429 44.0308 59.4313 44.1091 59.4313 44.2657C59.4313 44.3739 59.4382 44.4269 59.4428 44.4798C59.4543 44.5743 59.4658 44.6687 59.4658 44.8575C59.4658 45.0763 59.4359 45.2122 59.4037 45.3319C59.3899 45.3826 59.3876 45.3918 59.3876 45.4494C59.3876 45.6313 59.3784 45.7211 59.3692 45.8132C59.3646 45.8708 59.3577 45.9284 59.3577 46.0412C59.3577 46.0574 59.3577 46.0689 59.36 46.0804L59.3715 46.1126C59.4129 46.237 59.4566 46.3913 59.4566 46.6331C59.4566 46.8104 59.4497 46.8979 59.4428 46.9854C59.4382 47.0453 59.4336 47.1052 59.4336 47.225C59.4336 47.3654 59.4359 47.4368 59.4359 47.5059C59.4382 47.5842 59.4382 47.6602 59.4382 47.8145C59.4382 48.008 59.4244 48.1162 59.4129 48.2037C59.406 48.2544 59.3991 48.305 59.3991 48.4064C59.3991 48.586 59.3899 48.6781 59.383 48.7679C59.3784 48.8255 59.3715 48.8831 59.3715 49.0005C59.3715 49.0166 59.3715 49.0305 59.3738 49.0397L59.3853 49.0719C59.429 49.2032 59.4704 49.3506 59.4704 49.5901C59.4704 49.6269 59.4681 49.6592 59.4681 49.6914C59.537 49.6891 59.5899 49.6868 59.6381 49.6845C59.7714 49.6776 59.9025 49.6707 60.1668 49.6707C60.4173 49.6707 60.5437 49.6753 60.6701 49.6799C60.7552 49.6822 60.8402 49.6868 61.008 49.6868C61.1781 49.6868 61.2608 49.6845 61.3458 49.6799C61.4722 49.6753 61.5987 49.6707 61.8492 49.6707C62.0721 49.6707 62.1824 49.673 62.2951 49.673C62.3939 49.673 62.4927 49.6753 62.6927 49.6753C62.9823 49.6753 63.1524 49.6891 63.3178 49.7052C63.396 49.7121 63.4259 49.7167 63.5339 49.7167C63.7338 49.7167 63.8327 49.7167 63.9338 49.7144C64.0441 49.7144 64.1544 49.7121 64.3751 49.7121C64.5934 49.7121 64.7015 49.7121 64.8118 49.7144C64.9129 49.7144 65.014 49.7167 65.2163 49.7167C65.322 49.7167 65.3496 49.7144 65.4277 49.7075C65.5932 49.6914 65.7656 49.6776 66.0575 49.6776C66.3356 49.6776 66.4896 49.6868 66.6137 49.696C66.685 49.7006 66.7562 49.7052 66.8987 49.7052C67.1607 49.7052 67.2917 49.7121 67.4204 49.7167C67.5009 49.7214 67.579 49.7237 67.7399 49.7237C67.8479 49.7237 67.8778 49.7214 67.956 49.7144C68.1214 49.6983 68.2938 49.6845 68.5834 49.6845C68.8362 49.6845 68.9626 49.6891 69.0891 49.6937C69.1741 49.696 69.2568 49.7006 69.4269 49.7006C69.5441 49.7006 69.6223 49.7006 69.6889 49.6983C69.6935 49.6845 69.6981 49.6661 69.7027 49.6523L69.7142 49.62C69.7142 49.6154 69.7142 49.6062 69.7142 49.5924C69.7142 49.5763 69.7142 49.5624 69.7119 49.5532L69.7004 49.521C69.6568 49.3897 69.6154 49.2423 69.6154 49.0028C69.6154 48.8209 69.6246 48.7311 69.6315 48.6413C69.6361 48.5837 69.643 48.5261 69.643 48.411C69.643 48.2152 69.6568 48.1093 69.6682 48.0218C69.6751 47.9711 69.682 47.9204 69.682 47.8191C69.682 47.6786 69.6797 47.6072 69.6797 47.5382C69.6774 47.4599 69.6774 47.3839 69.6774 47.2296C69.6774 47.0545 69.6843 46.9647 69.6912 46.8772C69.6958 46.8173 69.7004 46.7575 69.7004 46.6377C69.7004 46.6216 69.7004 46.6101 69.6981 46.5986L69.6866 46.5663C69.6453 46.442 69.6016 46.2877 69.6016 46.0458C69.6016 45.8639 69.6108 45.7741 69.62 45.682C69.6246 45.6244 69.6315 45.5668 69.6315 45.454C69.6315 45.2329 69.6614 45.0993 69.6935 44.9773C69.7073 44.9266 69.7096 44.9174 69.7096 44.8598C69.7096 44.7516 69.7027 44.6986 69.6981 44.6456C69.6866 44.5512 69.6751 44.4568 69.6751 44.268C69.6751 44.1298 69.6728 44.0584 69.6705 43.9893C69.6682 43.911 69.666 43.8327 69.666 43.6761C69.666 43.5241 69.666 43.4481 69.6682 43.3698C69.6682 43.2984 69.6705 43.227 69.6705 43.0842C69.6705 42.9852 69.6637 42.9346 69.6568 42.8839C69.6453 42.7964 69.6292 42.6881 69.6292 42.4924C69.6292 42.2805 69.6568 42.1493 69.6843 42.0318C69.6958 41.9788 69.7004 41.965 69.7004 41.9005C69.7004 41.8844 69.7004 41.8706 69.6981 41.8591L69.6866 41.8245C69.6453 41.6956 69.6039 41.5482 69.6039 41.3087C69.6039 41.1244 69.6177 41.0185 69.6338 40.9103C69.6476 40.5257 69.0201 40.4543 68.6868 40.4451Z" fill="white"/>
<path d="M59.4102 24.348C59.4056 24.424 59.3987 24.4839 59.3918 24.5392C59.3849 24.5875 59.378 24.6382 59.378 24.7349C59.378 24.7764 59.378 24.7764 59.3918 24.8201C59.4285 24.9376 59.4653 25.0688 59.4653 25.2853C59.4653 25.4557 59.4515 25.5548 59.4354 25.6561C59.4285 25.7021 59.4217 25.7459 59.4217 25.8357C59.4217 26.0223 59.401 26.1328 59.3803 26.2364C59.3688 26.2894 59.3642 26.3101 59.3642 26.3838C59.3642 26.423 59.3642 26.423 59.378 26.4644C59.4171 26.5819 59.4561 26.7154 59.4561 26.9342C59.4561 27.0793 59.4538 27.1507 59.4538 27.2244C59.4515 27.2889 59.4515 27.3557 59.4515 27.4846C59.4515 27.6113 59.4538 27.6758 59.4561 27.7403C59.4584 27.814 59.4607 27.8876 59.4607 28.035C59.4607 28.2492 59.4239 28.3828 59.3872 28.5002C59.3734 28.544 59.3734 28.544 59.3734 28.5854C59.3734 28.7351 59.3711 28.8088 59.3688 28.8825C59.3665 28.9447 59.3642 29.0092 59.3642 29.1358C59.3642 29.2349 59.3711 29.2832 59.378 29.3339C59.3895 29.4214 59.401 29.5089 59.401 29.6862C59.401 29.8613 59.3895 29.9488 59.378 30.0386C59.3711 30.0893 59.3642 30.1376 59.3642 30.2367C59.3642 30.3242 59.3711 30.3679 59.378 30.4117C59.3918 30.49 59.4102 30.6005 59.4102 30.7871C59.4102 30.9321 59.4079 31.0058 59.4056 31.0772C59.4033 31.1417 59.4033 31.2062 59.4033 31.3375C59.4033 31.5079 59.3895 31.6046 59.3757 31.7059C59.3688 31.752 59.3619 31.7981 59.3619 31.8879C59.3619 31.9431 59.3642 31.9501 59.378 31.9984C59.4079 32.109 59.44 32.2356 59.44 32.4383C59.44 32.6248 59.4194 32.7377 59.3964 32.8436C59.3849 32.8943 59.3803 32.9173 59.3803 32.9887C59.3803 33.1107 59.3826 33.1729 59.3872 33.2328C59.3918 33.3088 59.3941 33.3848 59.3941 33.5391C59.3941 33.6197 59.3987 33.6473 59.4102 33.7026C59.4262 33.7832 59.4469 33.896 59.4469 34.0895C59.4469 34.2162 59.4492 34.2783 59.4515 34.3405C59.4538 34.4165 59.4584 34.4902 59.4584 34.6399C59.4584 34.7873 59.4561 34.8633 59.4538 34.937C59.4515 35.0015 59.4492 35.0636 59.4492 35.1903C59.4492 35.3423 59.4469 35.4183 59.4423 35.4943C59.44 35.5565 59.4354 35.6186 59.4354 35.7407C59.4354 35.8927 59.4331 35.9664 59.4285 36.0424C59.4262 36.1046 59.4239 36.1668 59.4239 36.2911C59.4239 36.4846 59.4033 36.5951 59.3895 36.6757C59.3803 36.731 59.3734 36.7586 59.3734 36.8415C59.3734 36.9613 59.3757 37.0211 59.3803 37.081C59.3849 37.1593 59.3895 37.2376 59.3895 37.3919C59.3895 37.4426 59.3918 37.4495 59.4056 37.4956C59.4377 37.6084 59.4699 37.7351 59.4699 37.9423C59.4699 38.1358 59.4492 38.2486 59.4331 38.3292C59.4239 38.3845 59.4171 38.4098 59.4171 38.4927C59.4171 38.5319 59.4171 38.5664 59.4171 38.5987C59.6009 38.5987 59.7066 38.601 59.8078 38.601C59.9043 38.6033 60.0008 38.6033 60.1939 38.6033C60.3709 38.6033 60.4605 38.601 60.5479 38.5987C60.6697 38.5941 60.7892 38.5918 61.0305 38.5918C61.2535 38.5918 61.3638 38.5941 61.4741 38.5941C61.5729 38.5941 61.6718 38.5964 61.8671 38.5964C62.1016 38.5964 62.2211 38.5987 62.3383 38.6033C62.4302 38.6056 62.5222 38.6079 62.7037 38.6079C62.8922 38.6079 62.9864 38.6056 63.0807 38.6033C63.1956 38.601 63.3105 38.5987 63.538 38.5987C63.7633 38.5987 63.8759 38.601 63.9885 38.601C64.0851 38.6033 64.1816 38.6033 64.3769 38.6033C64.5631 38.6033 64.6573 38.601 64.7516 38.5987C64.8665 38.5964 64.9837 38.5941 65.2136 38.5941H66.0502C66.2524 38.5941 66.3535 38.5941 66.457 38.5918C66.565 38.5918 66.673 38.5895 66.8891 38.5895C67.1212 38.5895 67.2384 38.5918 67.3533 38.5941C67.4453 38.5964 67.5395 38.5987 67.7257 38.5987C67.9141 38.5987 68.0061 38.5964 68.1003 38.5941C68.2152 38.5918 68.3324 38.5895 68.5623 38.5895C68.7967 38.5895 68.9139 38.5918 69.0312 38.5941C69.1231 38.5964 69.215 38.5987 69.3989 38.5987C69.5115 38.5987 69.5897 38.5987 69.654 38.5964C69.6563 38.5664 69.6563 38.5319 69.6563 38.4881C69.6563 38.2947 69.677 38.1818 69.6931 38.0989C69.7023 38.0437 69.7092 38.0183 69.7092 37.9354C69.7092 37.8848 69.7069 37.8778 69.6931 37.8318C69.6609 37.7189 69.6287 37.5923 69.6287 37.385C69.6287 37.2653 69.6264 37.2054 69.6218 37.1455C69.6172 37.0672 69.6126 36.9889 69.6126 36.8346C69.6126 36.6412 69.6333 36.5306 69.6471 36.45C69.6563 36.3947 69.6632 36.3671 69.6632 36.2842C69.6632 36.1322 69.6655 36.0585 69.6701 35.9825C69.6724 35.9203 69.6747 35.8582 69.6747 35.7338C69.6747 35.5818 69.6793 35.5058 69.6816 35.4298C69.6839 35.3676 69.6885 35.3078 69.6885 35.1834C69.6885 35.036 69.6908 34.9623 69.6931 34.8886C69.6954 34.8241 69.6977 34.762 69.6977 34.633C69.6977 34.5063 69.6954 34.4441 69.6931 34.382C69.6908 34.306 69.6862 34.2323 69.6862 34.0826C69.6862 33.9997 69.6816 33.9743 69.6701 33.9191C69.654 33.8385 69.6333 33.7256 69.6333 33.5322C69.6333 33.4101 69.631 33.3479 69.6264 33.2881C69.6218 33.2121 69.6195 33.1361 69.6195 32.9818C69.6195 32.7952 69.6402 32.6847 69.6632 32.5788C69.6747 32.5258 69.6793 32.5051 69.6793 32.4337C69.6793 32.3784 69.677 32.3715 69.6632 32.3231C69.6333 32.2126 69.6034 32.0859 69.6034 31.8833C69.6034 31.7128 69.6172 31.6161 69.631 31.5148C69.6379 31.4687 69.6448 31.4227 69.6448 31.3329C69.6448 31.1878 69.6471 31.1141 69.6494 31.0427C69.6517 30.9782 69.6517 30.9137 69.6517 30.7825C69.6517 30.6949 69.6448 30.6535 69.6379 30.6097C69.6241 30.5291 69.6057 30.4209 69.6057 30.232C69.6057 30.057 69.6172 29.9672 69.6287 29.8797C69.6356 29.829 69.6425 29.7807 69.6425 29.6816C69.6425 29.5826 69.6356 29.5343 69.6287 29.4836C69.6172 29.3961 69.6057 29.3063 69.6057 29.1312C69.6057 28.9815 69.608 28.9079 69.6103 28.8342C69.6126 28.772 69.6149 28.7075 69.6149 28.5808C69.6149 28.3667 69.6517 28.2331 69.6885 28.1179C69.7023 28.0742 69.7023 28.0742 69.7023 28.0304C69.7023 27.9038 69.7 27.8393 69.6977 27.7748C69.6954 27.7011 69.6931 27.6274 69.6931 27.48C69.6931 27.3349 69.6954 27.2635 69.6977 27.1899C69.7 27.1254 69.7 27.0586 69.7 26.9296C69.7 26.8905 69.7 26.8905 69.6862 26.849C69.6471 26.7316 69.6103 26.598 69.6103 26.3792C69.6103 26.1927 69.631 26.0844 69.6517 25.9785C69.6632 25.9255 69.6678 25.9048 69.6678 25.8288C69.6678 25.6584 69.6816 25.5594 69.6977 25.458C69.7046 25.4143 69.7115 25.3682 69.7115 25.2784C69.7115 25.2369 69.7115 25.2369 69.6977 25.1932C69.6586 25.0757 69.6218 24.9445 69.6218 24.728C69.6218 24.5507 69.6333 24.4632 69.6448 24.3733C69.6517 24.325 69.6586 24.2743 69.6586 24.1776C69.6586 24.1361 69.6586 24.1039 69.6563 24.074C69.5253 23.7999 69.3139 23.6272 69.2564 23.5834C69.1093 23.5834 69.0174 23.5811 68.9254 23.5788C68.8335 23.5765 68.7416 23.5742 68.56 23.5742C68.3715 23.5742 68.2796 23.5765 68.1854 23.5788C68.0704 23.5811 67.9532 23.5834 67.7234 23.5834C67.4912 23.5834 67.374 23.5811 67.2591 23.5788C67.1672 23.5765 67.0729 23.5742 66.8868 23.5742C66.6845 23.5742 66.5834 23.5742 66.4823 23.5765C66.3742 23.5765 66.2662 23.5788 66.0502 23.5788H65.2136C65.0274 23.5788 64.9332 23.5811 64.8389 23.5834C64.724 23.5857 64.6068 23.588 64.3769 23.588C64.1517 23.588 64.0391 23.5857 63.9265 23.5857C63.8299 23.5834 63.7334 23.5834 63.538 23.5834C63.3496 23.5834 63.2553 23.5857 63.1611 23.588C63.0462 23.5903 62.9313 23.5926 62.7014 23.5926C62.4647 23.5926 62.3475 23.5903 62.2303 23.588C62.1383 23.5857 62.0487 23.5834 61.8648 23.5834C61.6419 23.5834 61.5316 23.5811 61.4212 23.5811C61.3224 23.5811 61.2236 23.5788 61.0259 23.5788C60.8489 23.5788 60.7593 23.5811 60.672 23.5834C60.5502 23.588 60.4306 23.5903 60.1893 23.5903C59.5435 23.5996 59.4102 24.348 59.4102 24.348Z" fill="white"/>
<path d="M72.4696 25.9323C72.511 26.0498 72.5524 26.1811 72.5524 26.3975C72.5524 26.568 72.5386 26.667 72.5202 26.7683C72.5133 26.8121 72.5041 26.8581 72.5041 26.9479C72.5041 27.1345 72.4811 27.2427 72.4581 27.3487C72.4466 27.4016 72.4398 27.4223 72.4398 27.4983C72.4398 27.5375 72.4398 27.5375 72.4535 27.5789C72.4972 27.6964 72.5386 27.83 72.5386 28.0487C72.5386 28.1938 72.5363 28.2652 72.534 28.3389C72.5317 28.4034 72.5317 28.4702 72.5317 28.5992C72.5317 28.7258 72.534 28.7903 72.5363 28.8548C72.5386 28.9285 72.5409 29.0022 72.5409 29.1496C72.5409 29.3637 72.4719 29.5111 72.4719 29.6885C72.4719 29.8635 72.4604 29.9533 72.4466 30.0408C72.4398 30.0892 72.4329 30.1398 72.4329 30.2389C72.4329 30.3264 72.4398 30.3678 72.4489 30.4116C72.4627 30.4899 72.4834 30.6004 72.4834 30.7893C72.4834 30.9343 72.4811 31.008 72.4788 31.0794C72.4765 31.1439 72.4742 31.2084 72.4742 31.3397C72.4742 31.5101 72.4604 31.6068 72.4421 31.7081C72.4352 31.7542 72.426 31.8003 72.426 31.8901C72.426 31.9453 72.4283 31.9523 72.4421 32.0006C72.4765 32.1112 72.5087 32.2378 72.5087 32.4405C72.5087 32.627 72.4857 32.7376 72.4604 32.8458C72.4489 32.8988 72.4421 32.9195 72.4421 32.9909C72.4421 33.1129 72.4444 33.1751 72.4489 33.235C72.4535 33.311 72.4581 33.387 72.4581 33.5413C72.4581 33.6242 72.4627 33.6495 72.4742 33.7048C72.4765 33.7186 72.4811 33.737 72.4834 33.7532C72.5685 33.7532 72.6673 33.7532 72.819 33.7532L73.7636 33.7509C74.0187 33.7509 74.1451 33.7532 74.2739 33.7555C74.3819 33.7578 74.4922 33.7578 74.7083 33.7578C74.9059 33.7578 75.007 33.7555 75.1059 33.7532C75.2438 33.7486 75.3794 33.7462 75.6529 33.7462C75.9034 33.7462 76.0275 33.7486 76.1539 33.7486C76.2642 33.7509 76.3746 33.7509 76.5975 33.7509C76.8641 33.7509 76.9974 33.7532 77.1307 33.7578C77.2319 33.7601 77.3353 33.7624 77.5398 33.7624C77.7513 33.7624 77.8593 33.7601 77.965 33.7578C78.0961 33.7555 78.2248 33.7532 78.4845 33.7532C78.7396 33.7532 78.866 33.7555 78.9924 33.7578C79.1004 33.7601 79.2108 33.7601 79.4291 33.7601C79.6383 33.7601 79.744 33.7578 79.8497 33.7555C79.9807 33.7532 80.1117 33.7509 80.3737 33.7509L81.3184 33.7486C81.5459 33.7486 81.6608 33.7486 81.7758 33.7462C81.8976 33.7462 82.0194 33.7439 82.263 33.7439C82.5273 33.7439 82.6583 33.7462 82.7893 33.7486C82.8767 33.7509 82.9663 33.7532 83.1111 33.7532C83.1111 33.7462 83.1088 33.7393 83.1088 33.7324C83.095 33.6518 83.0743 33.5413 83.0743 33.3478C83.0743 33.2004 83.0766 33.1268 83.0789 33.0531C83.0812 32.9886 83.0812 32.9218 83.0812 32.7905C83.0812 32.6178 83.095 32.5188 83.1111 32.4151C83.118 32.3691 83.1249 32.3253 83.1249 32.2332C83.1249 32.1802 83.1226 32.1756 83.1088 32.1273C83.0766 32.0144 83.0651 31.3719 83.0904 31.2637C83.1019 31.2107 83.1065 31.1923 83.1065 31.1209C83.1065 30.9988 83.1019 30.9366 83.0996 30.8745C83.095 30.7962 83.0904 30.7202 83.0904 30.5636C83.0904 30.483 83.0858 30.4553 83.0743 30.4024C83.0536 30.2987 83.0353 30.1905 83.0353 30.0063C83.0353 29.8796 83.033 29.8174 83.0307 29.7529C83.0284 29.6769 83.0238 29.6009 83.0238 29.4489C83.0238 29.2993 83.0261 29.2233 83.0284 29.1473C83.0307 29.0828 83.033 29.0183 83.033 28.8916C83.033 28.7373 83.0376 28.6613 83.0399 28.583C83.0422 28.5209 83.0468 28.4587 83.0468 28.3343C83.0468 28.18 83.095 27.9336 83.095 27.777C83.095 27.7286 83.095 27.724 83.0789 27.678C83.0445 27.5628 83.01 27.4316 83.01 27.2197C83.01 27.0378 83.0284 26.9272 83.0491 26.8236C83.0605 26.7706 83.0651 26.743 83.0651 26.6624C83.0651 26.4966 83.072 26.4137 83.0789 26.3307C83.0835 26.2755 83.0881 26.2179 83.0881 26.1051C83.0881 25.9692 83.0881 25.9024 83.0858 25.8356C83.0858 25.7665 83.0835 25.6951 83.0835 25.5593C82.8974 25.5593 82.7824 25.557 82.6721 25.5547C82.5687 25.5524 82.463 25.55 82.2538 25.55C82.0263 25.55 81.9114 25.55 81.7964 25.5524C81.6746 25.5524 81.5528 25.5547 81.3092 25.5547H80.3645C80.1554 25.5547 80.0497 25.557 79.9439 25.5593C79.8129 25.5616 79.6819 25.5639 79.4199 25.5639C79.1648 25.5639 79.0384 25.5616 78.912 25.5593C78.804 25.557 78.6936 25.557 78.4753 25.557C78.2615 25.557 78.1558 25.5593 78.0501 25.5616C77.9214 25.5639 77.7904 25.5662 77.5307 25.5662C77.264 25.5662 77.1307 25.5639 76.9974 25.5593C76.894 25.557 76.7929 25.5547 76.5883 25.5547C76.3378 25.5547 76.2137 25.5524 76.0873 25.5524C75.977 25.55 75.8666 25.55 75.6437 25.55C75.446 25.55 75.3472 25.5524 75.2461 25.557C75.1082 25.5616 74.9726 25.5639 74.6991 25.5639C74.4439 25.5639 74.3175 25.5616 74.1888 25.5593C74.0808 25.557 73.9705 25.557 73.7544 25.557H73.3154C72.5317 25.6399 72.4696 25.9323 72.4696 25.9323Z" fill="white"/>
<path d="M83.1068 49.0631C83.1183 49.0101 83.1229 48.9917 83.1229 48.9203C83.1229 48.8005 83.1183 48.7407 83.116 48.6808C83.1114 48.6025 83.1045 48.5219 83.1045 48.363C83.1045 48.2317 83.1022 48.1672 83.0999 48.1004C83.0976 48.0268 83.0953 47.9531 83.0953 47.808C83.0953 47.7343 83.0907 47.7136 83.0792 47.6606C83.0562 47.5523 83.0355 47.4418 83.0355 47.253C83.0355 47.0687 83.0516 46.9674 83.0631 46.8845C83.07 46.8384 83.0769 46.7901 83.0769 46.6979C83.0769 46.6173 83.0723 46.592 83.0608 46.539C83.0401 46.4354 83.0217 46.3272 83.0217 46.1429C83.0217 45.9426 83.0493 45.8205 83.0769 45.7123C83.0907 45.6639 83.093 45.6501 83.093 45.5879C83.093 45.4129 83.1045 45.3254 83.1137 45.2379C83.1206 45.1872 83.1252 45.1342 83.1252 45.0329C83.1252 44.9892 83.1252 44.9869 83.1114 44.9408C83.0746 44.8233 83.0378 44.6921 83.0378 44.4756C83.0378 44.3029 83.0516 44.2039 83.0677 44.1025C83.0746 44.0565 83.0815 44.0104 83.0815 43.9206C83.0815 43.7939 83.0792 43.7317 83.0769 43.6673C83.0723 43.5913 83.07 43.5153 83.07 43.3633C83.07 43.2021 83.0769 43.1215 83.0815 43.0409C83.0861 42.9833 83.0907 42.9234 83.0907 42.806C83.0907 42.6747 83.0884 42.6079 83.0884 42.5411C83.0861 42.4674 83.0861 42.396 83.0861 42.2487C83.0861 42.0713 83.0976 41.9815 83.1091 41.8917C83.116 41.841 83.1229 41.7927 83.1229 41.6913C83.1229 41.5716 83.1183 41.5117 83.116 41.4518C83.1114 41.3735 83.1068 41.2952 83.1068 41.1363C83.1068 41.0143 83.1045 40.9521 83.0999 40.8899C83.0953 40.8116 83.0907 40.7356 83.0907 40.579C83.0907 40.4662 83.0861 40.4086 83.0815 40.3533C83.0746 40.2704 83.0677 40.1898 83.0677 40.024C83.0677 39.8444 83.0815 39.7453 83.093 39.6647C83.0999 39.6164 83.1068 39.5657 83.1068 39.469C83.1068 39.4298 83.1068 39.4298 83.093 39.3884C83.0516 39.2686 83.0125 39.1328 83.0125 38.9117C83.0125 38.7228 83.0309 38.6123 83.0447 38.534C83.0516 38.4902 83.0585 38.4442 83.0585 38.3567C83.0585 38.1678 83.0792 38.055 83.1045 37.9467C83.116 37.8938 83.1206 37.873 83.1206 37.7993C83.1206 37.7625 83.1206 37.7625 83.1068 37.7234C83.0654 37.6013 83.024 37.4654 83.024 37.242C83.024 37.0946 83.0263 37.0233 83.0286 36.9496C83.0309 36.8828 83.0309 36.8183 83.0309 36.687C83.0309 36.5581 83.0286 36.4936 83.0263 36.4291C83.024 36.3554 83.0217 36.2794 83.0217 36.1297C82.7804 35.7497 82.4356 35.6254 82.1759 35.5908C82.0081 35.5908 81.907 35.5908 81.8082 35.5931C81.6864 35.5931 81.5646 35.5954 81.3209 35.5954L80.3763 35.5977C80.1671 35.5977 80.0614 35.6 79.9557 35.6023C79.8247 35.6046 79.6937 35.6069 79.4317 35.6069C79.1765 35.6069 79.0501 35.6046 78.9237 35.6023C78.8157 35.6 78.7054 35.6 78.4893 35.6C78.2756 35.6 78.1699 35.6023 78.0641 35.6046C77.9354 35.6069 77.8044 35.6092 77.5447 35.6092C77.2781 35.6092 77.1448 35.6069 77.0115 35.6023C76.9103 35.6 76.8069 35.5977 76.6024 35.5977C76.3518 35.5977 76.2277 35.5954 76.1013 35.5954C75.991 35.5931 75.8807 35.5931 75.6577 35.5931C75.4601 35.5931 75.3589 35.5954 75.2601 35.6C75.1222 35.6046 74.9866 35.6092 74.7131 35.6092C74.458 35.6092 74.3316 35.6069 74.2029 35.6046C74.0948 35.6023 73.9845 35.6023 73.7685 35.6023L73.1732 35.6046C72.6469 35.6945 72.4998 36.0675 72.4998 36.0675C72.4975 36.132 72.4929 36.1988 72.4929 36.3278C72.4929 36.5304 72.4699 36.6456 72.4538 36.7308C72.4423 36.7884 72.4377 36.8183 72.4377 36.9035C72.4377 37.0279 72.4423 37.09 72.4446 37.1545C72.4492 37.2351 72.4538 37.318 72.4538 37.4815C72.4538 37.5345 72.4561 37.5414 72.4699 37.5898C72.5067 37.7072 72.5411 37.8408 72.5411 38.0573C72.5411 38.2599 72.5182 38.3774 72.4998 38.4649C72.4883 38.5225 72.4837 38.5501 72.4837 38.6353C72.4837 38.8057 72.4768 38.8909 72.4676 38.9762C72.463 39.0337 72.4561 39.0936 72.4561 39.2111L72.4584 39.492C72.4584 39.5657 72.4607 39.6394 72.4607 39.7868C72.4607 39.948 72.4561 40.0286 72.4515 40.1092C72.4492 40.1714 72.4446 40.2359 72.4446 40.3625C72.4446 40.4777 72.4492 40.5353 72.4561 40.5928C72.4653 40.6803 72.4722 40.7655 72.4722 40.9406C72.4722 41.1202 72.4584 41.2238 72.44 41.3298C72.4331 41.3758 72.4239 41.4242 72.4239 41.5186C72.4239 41.5347 72.4239 41.5486 72.4262 41.5578L72.4377 41.59C72.4837 41.7167 72.5296 41.8595 72.5296 42.0944C72.5296 42.3016 72.4998 42.4306 72.4699 42.5434C72.4561 42.5941 72.4515 42.6079 72.4515 42.6724C72.4515 42.7691 72.4584 42.8175 72.4676 42.8681C72.4814 42.9534 72.4975 43.0593 72.4975 43.2504C72.4975 43.4001 72.4952 43.4738 72.4952 43.5475C72.4952 43.6166 72.4929 43.6857 72.4929 43.8262C72.4929 43.962 72.4952 44.0288 72.4975 44.0979C72.4998 44.1739 72.5021 44.2499 72.5021 44.4042C72.5021 44.5101 72.509 44.5608 72.5159 44.6138C72.5273 44.7059 72.5411 44.798 72.5411 44.9823C72.5411 45.1964 72.5067 45.33 72.4722 45.4474C72.4584 45.4981 72.4561 45.505 72.4561 45.5603C72.4561 45.7376 72.4469 45.8251 72.4377 45.9149C72.4308 45.9702 72.4262 46.0255 72.4262 46.1383C72.4262 46.1545 72.4262 46.166 72.4285 46.1775L72.44 46.2097C72.486 46.3318 72.5342 46.4815 72.5342 46.7187C72.5342 46.8914 72.5273 46.9766 72.5182 47.0618C72.5136 47.1194 72.5067 47.1793 72.5067 47.2967C72.5067 47.4349 72.509 47.5017 72.509 47.5708C72.5113 47.6468 72.5113 47.7228 72.5113 47.8725C72.5113 48.0613 72.4952 48.1672 72.4814 48.2524C72.4745 48.3008 72.4676 48.3515 72.4676 48.4505C72.4676 48.6278 72.4584 48.7153 72.4492 48.8028C72.4423 48.8581 72.4377 48.9157 72.4377 49.0285C72.4377 49.0447 72.4377 49.0562 72.44 49.0677L72.4515 49.0999C72.4998 49.2266 72.5457 49.3717 72.5457 49.6066C72.5457 49.6365 72.5434 49.6641 72.5434 49.6918C72.6055 49.6941 72.6767 49.6941 72.7848 49.6941C72.9893 49.6941 73.0904 49.6941 73.1916 49.6918C73.2996 49.6918 73.4076 49.6895 73.626 49.6895C73.8581 49.6895 73.9753 49.6918 74.0902 49.6941C74.1845 49.6964 74.2787 49.6987 74.4672 49.6987C74.6648 49.6987 74.7637 49.6987 74.8625 49.6964C74.9751 49.6941 75.0854 49.6941 75.3084 49.6941C75.5681 49.6941 75.6968 49.701 75.8278 49.7056C75.9083 49.7102 75.9887 49.7125 76.1519 49.7125C76.2645 49.7125 76.299 49.7102 76.3794 49.7033C76.5403 49.6895 76.7081 49.6757 76.9931 49.6757C77.2413 49.6757 77.3654 49.6803 77.4872 49.6849C77.5746 49.6872 77.6596 49.6918 77.8343 49.6918C78.1239 49.6918 78.2917 49.7033 78.4135 49.7125C78.4801 49.7171 78.5445 49.7217 78.6755 49.7217C78.8249 49.7217 78.9007 49.7171 78.9743 49.7125C79.1099 49.7056 79.2455 49.6964 79.5167 49.6964C79.7741 49.6964 79.9005 49.701 80.0292 49.7079C80.112 49.7125 80.1924 49.7148 80.3579 49.7148C80.5027 49.7148 80.574 49.7102 80.6475 49.7056C80.7716 49.6987 80.9233 49.6895 81.2014 49.6895C81.4037 49.6895 81.5048 49.6895 81.6059 49.6872C81.7162 49.6872 81.8243 49.6849 82.0426 49.6849C82.192 49.6849 82.2816 49.6849 82.3621 49.6826C82.8838 49.5122 83.1068 49.0631 83.1068 49.0631Z" fill="white"/>
</svg>
