<svg width="149" height="64" viewBox="0 0 149 64" fill="none" xmlns="http://www.w3.org/2000/svg">
<path d="M40.1849 38.9871C40.074 38.9871 39.9844 38.9743 39.9161 38.9487C39.8478 38.9316 39.8137 38.8975 39.8137 38.8463C39.8137 38.7866 39.8478 38.7396 39.9161 38.7055C39.9844 38.6714 40.091 38.6415 40.2361 38.6159C40.5604 38.5562 40.8078 38.441 40.9785 38.2703C41.1492 38.0911 41.2345 37.8479 41.2345 37.5407V35.6463C41.2345 35.4756 41.1876 35.2922 41.0937 35.0959C41.0084 34.8911 40.9486 34.7588 40.9145 34.6991L39.4169 32.2415C39.3572 32.1391 39.2633 31.9983 39.1353 31.8191C39.0073 31.6314 38.8665 31.4564 38.7129 31.2943C38.5678 31.1322 38.4228 31.0298 38.2777 30.9871C38.1412 30.9444 38.0345 30.9018 37.9577 30.8591C37.8894 30.8164 37.8553 30.7652 37.8553 30.7055C37.8553 30.6543 37.8894 30.6202 37.9577 30.6031C38.026 30.5775 38.1156 30.5647 38.2265 30.5647C38.4228 30.5647 38.6489 30.5732 38.9049 30.5903C39.1609 30.5988 39.434 30.6031 39.7241 30.6031C39.9204 30.6031 40.1038 30.5988 40.2745 30.5903C40.4537 30.5818 40.6116 30.5775 40.7481 30.5775C40.859 30.5775 40.9486 30.5903 41.0169 30.6159C41.0852 30.633 41.1193 30.6671 41.1193 30.7183C41.1193 30.778 41.0852 30.8292 41.0169 30.8719C40.9486 30.906 40.842 30.9402 40.6969 30.9743C40.5774 31.0084 40.4793 31.0468 40.4025 31.0895C40.3257 31.1322 40.2873 31.2004 40.2873 31.2943C40.2873 31.4052 40.3428 31.5588 40.4537 31.7551L41.6313 33.9311C41.802 34.2554 41.9214 34.4175 41.9897 34.4175C42.0409 34.4175 42.0964 34.3834 42.1561 34.3151C42.2158 34.2383 42.3012 34.1103 42.4121 33.9311C42.6084 33.6324 42.7833 33.3466 42.9369 33.0735C43.0905 32.8004 43.274 32.4719 43.4873 32.0879C43.5726 31.9428 43.6324 31.8191 43.6665 31.7167C43.7006 31.6058 43.7177 31.5119 43.7177 31.4351C43.7177 31.273 43.658 31.162 43.5385 31.1023C43.4276 31.0426 43.3124 31.0042 43.1929 30.9871C43.1076 30.97 43.0137 30.9402 42.9113 30.8975C42.8174 30.8463 42.7705 30.7908 42.7705 30.7311C42.7705 30.6799 42.8046 30.6458 42.8729 30.6287C42.9412 30.6031 43.0308 30.5903 43.1417 30.5903C43.338 30.5903 43.5001 30.5946 43.6281 30.6031C43.7561 30.6031 43.914 30.6031 44.1017 30.6031C44.3662 30.6031 44.618 30.5988 44.8569 30.5903C45.0958 30.5732 45.2878 30.5647 45.4329 30.5647C45.5438 30.5647 45.6334 30.5775 45.7017 30.6031C45.77 30.6202 45.8041 30.6543 45.8041 30.7055C45.8041 30.7652 45.7358 30.8207 45.5993 30.8719C45.4628 30.9231 45.3049 30.9743 45.1257 31.0255C44.9038 31.0852 44.7161 31.209 44.5625 31.3967C44.4174 31.5759 44.2297 31.8404 43.9993 32.1903C43.8286 32.4548 43.6836 32.6767 43.5641 32.8559C43.4532 33.0351 43.3465 33.2015 43.2441 33.3551C43.1502 33.5087 43.0521 33.6708 42.9497 33.8415C42.8473 34.0036 42.7236 34.2042 42.5785 34.4431C42.4676 34.6223 42.3908 34.7674 42.3481 34.8783C42.3054 34.9892 42.2798 35.0959 42.2713 35.1983C42.2628 35.2922 42.2585 35.4244 42.2585 35.5951V37.5407C42.2585 37.8308 42.3481 38.0698 42.5273 38.2575C42.7065 38.4367 42.954 38.5562 43.2697 38.6159C43.4148 38.6415 43.5214 38.6714 43.5897 38.7055C43.658 38.7396 43.6921 38.7866 43.6921 38.8463C43.6921 38.8975 43.658 38.9316 43.5897 38.9487C43.5214 38.9743 43.4318 38.9871 43.3209 38.9871C43.0905 38.9871 42.8985 38.9786 42.7449 38.9615C42.5998 38.953 42.459 38.9444 42.3225 38.9359C42.186 38.9274 42.0196 38.9231 41.8233 38.9231C41.61 38.9231 41.4222 38.9274 41.2601 38.9359C41.1065 38.9444 40.9444 38.953 40.7737 38.9615C40.6116 38.9786 40.4153 38.9871 40.1849 38.9871ZM50.0169 39.1023C49.2574 39.1023 48.6217 38.97 48.1097 38.7055C47.5977 38.4324 47.2137 38.0527 46.9577 37.5663C46.7017 37.0714 46.5737 36.4996 46.5737 35.8511V31.9215C46.5737 31.6143 46.5097 31.3924 46.3817 31.2559C46.2622 31.1108 46.13 31.0212 45.9849 30.9871C45.7033 30.9103 45.5625 30.8164 45.5625 30.7055C45.5625 30.6543 45.5966 30.6202 45.6649 30.6031C45.7332 30.5775 45.8228 30.5647 45.9337 30.5647C46.13 30.5647 46.322 30.5732 46.5097 30.5903C46.706 30.5988 46.9236 30.6031 47.1625 30.6031C47.3588 30.6031 47.5422 30.5988 47.7129 30.5903C47.8921 30.5818 48.05 30.5775 48.1865 30.5775C48.2974 30.5775 48.387 30.5903 48.4553 30.6159C48.5236 30.633 48.5577 30.6671 48.5577 30.7183C48.5577 30.778 48.5236 30.825 48.4553 30.8591C48.387 30.8932 48.2804 30.9316 48.1353 30.9743C48.0329 31.0084 47.9177 31.1066 47.7897 31.2687C47.6617 31.4308 47.5977 31.6399 47.5977 31.8959V35.4927C47.5977 36.1754 47.7129 36.7386 47.9433 37.1823C48.1737 37.6175 48.4894 37.9418 48.8905 38.1551C49.3001 38.3599 49.7652 38.4623 50.2857 38.4623C51.1646 38.4623 51.8089 38.1594 52.2185 37.5535C52.6281 36.9391 52.8329 36.1327 52.8329 35.1343C52.8329 34.9466 52.8286 34.6991 52.8201 34.3919C52.8201 34.0847 52.8158 33.7562 52.8073 33.4063C52.7988 33.0479 52.7902 32.7066 52.7817 32.3823C52.7817 32.1604 52.7604 31.9514 52.7177 31.7551C52.6836 31.5588 52.6281 31.3924 52.5513 31.2559C52.4745 31.1108 52.3764 31.0212 52.2569 30.9871C52.1716 30.9615 52.0777 30.9274 51.9753 30.8847C51.8814 30.842 51.8345 30.7908 51.8345 30.7311C51.8345 30.6799 51.8686 30.6458 51.9369 30.6287C52.0052 30.6031 52.0948 30.5903 52.2057 30.5903C52.402 30.5903 52.5641 30.5946 52.6921 30.6031C52.8201 30.6031 52.978 30.6031 53.1657 30.6031C53.3022 30.6031 53.4302 30.6031 53.5497 30.6031C53.6692 30.5946 53.7844 30.586 53.8953 30.5775C54.0062 30.569 54.1086 30.5647 54.2025 30.5647C54.3134 30.5647 54.403 30.5775 54.4713 30.6031C54.5396 30.6202 54.5737 30.6543 54.5737 30.7055C54.5737 30.8164 54.4329 30.9018 54.1513 30.9615C53.9294 31.0042 53.7716 31.1108 53.6777 31.2815C53.5838 31.4522 53.5284 31.6655 53.5113 31.9215C53.4686 32.6554 53.4388 33.3252 53.4217 33.9311C53.4132 34.537 53.4004 35.1343 53.3833 35.7231C53.3662 36.3802 53.2084 36.9647 52.9097 37.4767C52.611 37.9887 52.21 38.3898 51.7065 38.6799C51.2116 38.9615 50.6484 39.1023 50.0169 39.1023ZM55.4733 38.9871C55.3624 38.9871 55.2728 38.9743 55.2045 38.9487C55.1362 38.9316 55.1021 38.8975 55.1021 38.8463C55.1021 38.7439 55.2429 38.6671 55.5245 38.6159C55.8488 38.5562 56.0706 38.458 56.1901 38.3215C56.3181 38.1764 56.3821 37.946 56.3821 37.6303V31.8703C56.3821 31.5716 56.3181 31.3626 56.1901 31.2431C56.0706 31.1151 55.8488 31.0212 55.5245 30.9615C55.2429 30.9103 55.1021 30.825 55.1021 30.7055C55.1021 30.6543 55.1362 30.6202 55.2045 30.6031C55.2728 30.5775 55.3624 30.5647 55.4733 30.5647C55.7037 30.5647 55.8872 30.569 56.0237 30.5775C56.1688 30.5775 56.3053 30.5818 56.4333 30.5903C56.5613 30.5903 56.7192 30.5903 56.9069 30.5903C57.069 30.5903 57.197 30.5903 57.2909 30.5903C57.3933 30.5818 57.5042 30.5775 57.6237 30.5775C57.7432 30.569 57.9181 30.5647 58.1485 30.5647C58.2594 30.5647 58.349 30.5775 58.4173 30.6031C58.4856 30.6202 58.5197 30.6543 58.5197 30.7055C58.5197 30.7652 58.4856 30.8164 58.4173 30.8591C58.349 30.9018 58.2424 30.9359 58.0973 30.9615C57.7816 31.0212 57.5853 31.1279 57.5085 31.2815C57.4402 31.4266 57.4061 31.6228 57.4061 31.8703V34.2639C57.4061 34.298 57.4061 34.3492 57.4061 34.4175C57.4146 34.4772 57.436 34.5071 57.4701 34.5071C57.5128 34.5071 57.5682 34.4815 57.6365 34.4303C57.7133 34.3791 57.773 34.3279 57.8157 34.2767L60.3757 31.6655C60.444 31.5972 60.4909 31.5332 60.5165 31.4735C60.5506 31.4052 60.5677 31.3412 60.5677 31.2815C60.5677 31.1279 60.4866 31.0298 60.3245 30.9871C60.1794 30.9444 60.077 30.906 60.0173 30.8719C59.9576 30.8378 59.9277 30.7908 59.9277 30.7311C59.9277 30.6799 59.9618 30.6458 60.0301 30.6287C60.0984 30.6031 60.188 30.5903 60.2989 30.5903H60.9901C61.2376 30.5903 61.5106 30.586 61.8093 30.5775C62.108 30.569 62.3768 30.5604 62.6157 30.5519C62.8632 30.5434 63.0125 30.5391 63.0637 30.5391C63.149 30.5391 63.2173 30.5519 63.2685 30.5775C63.3197 30.6031 63.3453 30.6372 63.3453 30.6799C63.3453 30.7396 63.3112 30.7908 63.2429 30.8335C63.1746 30.8762 63.068 30.9103 62.9229 30.9359C62.6072 30.9956 62.2786 31.0895 61.9373 31.2175C61.596 31.3455 61.276 31.5332 60.9773 31.7807C60.6701 32.0367 60.3842 32.2884 60.1197 32.5359C59.8637 32.7748 59.6077 33.0266 59.3517 33.2911C59.0957 33.5471 58.8184 33.8415 58.5197 34.1743C58.4685 34.2255 58.4898 34.3023 58.5837 34.4047L61.6813 37.7071C61.869 37.9119 62.0184 38.0698 62.1293 38.1807C62.2488 38.2916 62.3768 38.3812 62.5133 38.4495C62.6584 38.5092 62.8504 38.5647 63.0893 38.6159C63.2344 38.65 63.341 38.6842 63.4093 38.7183C63.4776 38.7439 63.5117 38.7866 63.5117 38.8463C63.5117 38.8975 63.4776 38.9316 63.4093 38.9487C63.341 38.9743 63.2514 38.9871 63.1405 38.9871C62.893 38.9871 62.6797 38.9786 62.5005 38.9615C62.3213 38.953 62.1464 38.9444 61.9757 38.9359C61.805 38.9274 61.6002 38.9231 61.3613 38.9231C61.1992 38.9231 61.0584 38.9231 60.9389 38.9231C60.8194 38.9316 60.6146 38.9359 60.3245 38.9359C60.2136 38.9359 60.124 38.9274 60.0557 38.9103C59.9874 38.8847 59.9533 38.8463 59.9533 38.7951C59.9533 38.7012 60.0685 38.6287 60.2989 38.5775C60.5378 38.5178 60.6573 38.4324 60.6573 38.3215C60.6573 38.2703 60.636 38.2191 60.5933 38.1679C60.5592 38.1167 60.5165 38.0612 60.4653 38.0015L57.7517 35.0063C57.7005 34.9551 57.645 34.9082 57.5853 34.8655C57.5341 34.8143 57.4914 34.7887 57.4573 34.7887C57.4232 34.7887 57.4061 34.8228 57.4061 34.8911C57.4061 34.9594 57.4061 35.0148 57.4061 35.0575C57.4061 35.4586 57.4104 35.8426 57.4189 36.2095C57.436 36.5679 57.453 37.0031 57.4701 37.5151C57.4786 37.6943 57.5042 37.8607 57.5469 38.0143C57.5981 38.1679 57.6792 38.2959 57.7901 38.3983C57.9096 38.5007 58.076 38.5732 58.2893 38.6159C58.4344 38.6415 58.541 38.6714 58.6093 38.7055C58.6776 38.7396 58.7117 38.7866 58.7117 38.8463C58.7117 38.8975 58.6776 38.9316 58.6093 38.9487C58.541 38.9743 58.4514 38.9871 58.3405 38.9871C58.1101 38.9871 57.9309 38.9786 57.8029 38.9615C57.6834 38.9444 57.5725 38.9316 57.4701 38.9231C57.3762 38.906 57.2482 38.8975 57.0861 38.8975C56.8813 38.8975 56.6978 38.906 56.5357 38.9231C56.3821 38.9316 56.2242 38.9444 56.0621 38.9615C55.9 38.9786 55.7037 38.9871 55.4733 38.9871ZM68.2434 39.1023C67.6802 39.1023 67.1426 39.0042 66.6306 38.8079C66.1186 38.6031 65.6663 38.3172 65.2738 37.9503C64.8813 37.5748 64.5698 37.1311 64.3394 36.6191C64.109 36.0986 63.9938 35.5226 63.9938 34.8911C63.9938 34.3108 64.0877 33.7562 64.2754 33.2271C64.4631 32.6895 64.7405 32.2116 65.1074 31.7935C65.4743 31.3754 65.9309 31.0426 66.477 30.7951C67.0231 30.5476 67.6503 30.4239 68.3586 30.4239C68.9218 30.4239 69.4594 30.5263 69.9714 30.7311C70.4834 30.9274 70.9357 31.2132 71.3282 31.5887C71.7207 31.9556 72.0322 32.3994 72.2626 32.9199C72.493 33.4319 72.6082 34.0036 72.6082 34.6351C72.6082 35.2068 72.5143 35.7615 72.3266 36.2991C72.1389 36.8367 71.8615 37.3146 71.4946 37.7327C71.1277 38.1508 70.6711 38.4836 70.125 38.7311C69.5789 38.9786 68.9517 39.1023 68.2434 39.1023ZM68.4354 38.5903C69.0925 38.5903 69.6386 38.4538 70.0738 38.1807C70.509 37.8991 70.8333 37.5108 71.0466 37.0159C71.2685 36.5124 71.3794 35.9279 71.3794 35.2623C71.3794 34.6735 71.3111 34.1188 71.1746 33.5983C71.0381 33.0778 70.8333 32.6212 70.5602 32.2287C70.2957 31.8276 69.9629 31.5162 69.5618 31.2943C69.1607 31.0724 68.6914 30.9615 68.1538 30.9615C67.5138 30.9615 66.9762 31.098 66.541 31.3711C66.1058 31.6442 65.7773 32.0282 65.5554 32.5231C65.3335 33.0095 65.2226 33.5855 65.2226 34.2511C65.2226 34.8484 65.2866 35.4074 65.4146 35.9279C65.5511 36.4484 65.7517 36.9092 66.0162 37.3103C66.2893 37.7114 66.6263 38.0271 67.0274 38.2575C67.4285 38.4794 67.8978 38.5903 68.4354 38.5903ZM81.3339 39.1919C81.095 39.1919 80.8688 39.1706 80.6555 39.1279C80.4422 39.0938 80.2459 39.0255 80.0667 38.9231C79.8875 38.8207 79.7211 38.6799 79.5675 38.5007C79.3627 38.2447 79.1664 38.0015 78.9787 37.7711C78.791 37.5322 78.5904 37.2591 78.3771 36.9519C78.1723 36.6447 77.9206 36.2522 77.6219 35.7743C77.4939 35.561 77.3104 35.3946 77.0715 35.2751C76.8838 35.1812 76.696 35.1172 76.5083 35.0831C76.3291 35.0404 76.1798 35.0148 76.0603 35.0063C75.992 34.9978 75.9408 35.0191 75.9067 35.0703C75.8811 35.1215 75.8683 35.1855 75.8683 35.2623V37.5151C75.8683 37.7882 75.9323 38.0271 76.0603 38.2319C76.1883 38.4282 76.4102 38.5562 76.7259 38.6159C76.871 38.6415 76.9776 38.6714 77.0459 38.7055C77.1142 38.7396 77.1483 38.7866 77.1483 38.8463C77.1483 38.8975 77.1142 38.9316 77.0459 38.9487C76.9776 38.9743 76.888 38.9871 76.7771 38.9871C76.5467 38.9871 76.3675 38.9786 76.2395 38.9615C76.12 38.9444 76.0091 38.9316 75.9067 38.9231C75.8128 38.906 75.6848 38.8975 75.5227 38.8975C75.3094 38.8975 75.1174 38.906 74.9467 38.9231C74.7846 38.9316 74.6182 38.9444 74.4475 38.9615C74.2854 38.9786 74.0891 38.9871 73.8587 38.9871C73.7478 38.9871 73.6582 38.9743 73.5899 38.9487C73.5216 38.9316 73.4875 38.8975 73.4875 38.8463C73.4875 38.7439 73.6283 38.6671 73.9099 38.6159C74.2342 38.5562 74.4688 38.458 74.6139 38.3215C74.7675 38.185 74.8443 37.9588 74.8443 37.6431V32.1903C74.8443 31.866 74.8272 31.6228 74.7931 31.4607C74.7675 31.29 74.6992 31.1706 74.5883 31.1023C74.4859 31.034 74.311 30.9871 74.0635 30.9615C73.9184 30.9444 73.8118 30.9146 73.7435 30.8719C73.6752 30.8207 73.6411 30.7652 73.6411 30.7055C73.6411 30.6543 73.6752 30.6202 73.7435 30.6031C73.8118 30.5775 73.9014 30.5647 74.0123 30.5647C74.2427 30.5647 74.4134 30.5647 74.5243 30.5647C74.6438 30.5647 74.7547 30.569 74.8571 30.5775C74.9595 30.5775 75.096 30.5775 75.2667 30.5775C75.4288 30.5775 75.5739 30.5732 75.7019 30.5647C75.8299 30.5476 75.9707 30.5348 76.1243 30.5263C76.2864 30.5178 76.4912 30.5135 76.7387 30.5135C77.6774 30.5135 78.3899 30.6884 78.8763 31.0383C79.3712 31.3882 79.6187 31.913 79.6187 32.6127C79.6187 32.9967 79.5419 33.3295 79.3883 33.6111C79.2347 33.8842 79.0427 34.1146 78.8123 34.3023C78.5819 34.49 78.3472 34.6436 78.1083 34.7631C78.0742 34.7716 78.0571 34.793 78.0571 34.8271C78.0656 34.8527 78.0827 34.8868 78.1083 34.9295C78.3728 35.3306 78.6246 35.7103 78.8635 36.0687C79.111 36.4271 79.3798 36.777 79.6699 37.1183C79.96 37.4596 80.3056 37.8138 80.7067 38.1807C80.9286 38.377 81.1547 38.4964 81.3851 38.5391C81.6155 38.5818 81.88 38.6031 82.1787 38.6031C82.3067 38.6031 82.3707 38.65 82.3707 38.7439C82.3707 38.8719 82.3067 38.9658 82.1787 39.0255C82.0507 39.0938 81.9056 39.1364 81.7435 39.1535C81.5814 39.1791 81.4448 39.1919 81.3339 39.1919ZM76.5467 34.7119C76.9392 34.7119 77.2763 34.6223 77.5579 34.4431C77.848 34.2639 78.0699 34.0292 78.2235 33.7391C78.3856 33.449 78.4667 33.1418 78.4667 32.8175C78.4667 32.4676 78.4198 32.1476 78.3259 31.8575C78.2406 31.5674 78.0614 31.337 77.7883 31.1663C77.5238 30.9871 77.1227 30.8975 76.5851 30.8975C76.312 30.8975 76.1328 30.9871 76.0475 31.1663C75.9622 31.337 75.911 31.6442 75.8939 32.0879C75.8854 32.3012 75.8768 32.5914 75.8683 32.9583C75.8683 33.3167 75.8683 33.7519 75.8683 34.2639C75.8683 34.4772 75.928 34.6052 76.0475 34.6479C76.167 34.6906 76.3334 34.7119 76.5467 34.7119ZM87.1309 39.1023C86.5677 39.1023 86.0301 39.0042 85.5181 38.8079C85.0061 38.6031 84.5538 38.3172 84.1613 37.9503C83.7688 37.5748 83.4573 37.1311 83.2269 36.6191C82.9965 36.0986 82.8813 35.5226 82.8813 34.8911C82.8813 34.3108 82.9752 33.7562 83.1629 33.2271C83.3506 32.6895 83.628 32.2116 83.9949 31.7935C84.3618 31.3754 84.8184 31.0426 85.3645 30.7951C85.9106 30.5476 86.5378 30.4239 87.2461 30.4239C87.8093 30.4239 88.3469 30.5263 88.8589 30.7311C89.3709 30.9274 89.8232 31.2132 90.2157 31.5887C90.6082 31.9556 90.9197 32.3994 91.1501 32.9199C91.3805 33.4319 91.4957 34.0036 91.4957 34.6351C91.4957 35.2068 91.4018 35.7615 91.2141 36.2991C91.0264 36.8367 90.749 37.3146 90.3821 37.7327C90.0152 38.1508 89.5586 38.4836 89.0125 38.7311C88.4664 38.9786 87.8392 39.1023 87.1309 39.1023ZM87.3229 38.5903C87.98 38.5903 88.5261 38.4538 88.9613 38.1807C89.3965 37.8991 89.7208 37.5108 89.9341 37.0159C90.156 36.5124 90.2669 35.9279 90.2669 35.2623C90.2669 34.6735 90.1986 34.1188 90.0621 33.5983C89.9256 33.0778 89.7208 32.6212 89.4477 32.2287C89.1832 31.8276 88.8504 31.5162 88.4493 31.2943C88.0482 31.0724 87.5789 30.9615 87.0413 30.9615C86.4013 30.9615 85.8637 31.098 85.4285 31.3711C84.9933 31.6442 84.6648 32.0282 84.4429 32.5231C84.221 33.0095 84.1101 33.5855 84.1101 34.2511C84.1101 34.8484 84.1741 35.4074 84.3021 35.9279C84.4386 36.4484 84.6392 36.9092 84.9037 37.3103C85.1768 37.7114 85.5138 38.0271 85.9149 38.2575C86.316 38.4794 86.7853 38.5903 87.3229 38.5903Z" fill="white"/>
</svg>
