<svg width="149" height="64" viewBox="0 0 149 64" fill="none" xmlns="http://www.w3.org/2000/svg">
<path d="M68.0796 32.819L68.0766 32.8083L68.0735 32.819H68.0796Z" fill="white"/>
<path d="M28.3975 35.748L19 39.5658V40.0629L28.1634 36.338L28.3975 35.748Z" fill="white"/>
<path d="M28.3579 37.6814L30.3952 32.5425H30.8286L32.8385 37.6814H32.4402L31.7818 36.0348H29.407L28.7487 37.6814H28.3579ZM31.6511 35.7049L30.5944 32.9408L29.5119 35.7049H31.6511Z" fill="white"/>
<path d="M41.485 37.6814V32.5425H43.9374C44.2901 32.5425 44.5896 32.6748 44.839 32.9408C45.0868 33.2008 45.2115 33.5186 45.2115 33.8941C45.2115 34.224 45.137 34.5099 44.9865 34.7516C44.8299 34.9949 44.6368 35.1363 44.4057 35.1758C44.6201 35.2336 44.7934 35.416 44.9256 35.7216C45.0579 36.0272 45.1248 36.3982 45.1248 36.8315C45.1248 37.0748 45.1309 37.2557 45.1415 37.3773C45.1537 37.5218 45.1765 37.6221 45.2115 37.6799H44.8648C44.8071 37.61 44.7691 37.4838 44.7523 37.2983L44.7265 36.5624C44.7265 36.2158 44.6429 35.9178 44.4756 35.6699C44.3145 35.4267 44.1138 35.3066 43.8781 35.3066H41.8332V37.6814H41.485ZM43.8781 34.9858C44.1503 34.9858 44.3829 34.8824 44.5805 34.6741C44.7706 34.4719 44.8664 34.224 44.8664 33.9291C44.8664 33.6402 44.7706 33.3924 44.5805 33.1841C44.3844 32.9819 44.1503 32.8815 43.8781 32.8815H41.8332V34.9873H43.8781V34.9858Z" fill="white"/>
<path d="M54.5438 37.0227C54.0816 36.4967 53.8505 35.8612 53.8505 35.1162C53.8505 34.3712 54.0816 33.7326 54.5438 33.2005C54.9999 32.6744 55.5549 32.4114 56.2071 32.4114C56.7438 32.4114 57.1984 32.5558 57.5679 32.8447C57.9373 33.1275 58.1654 33.5091 58.252 33.988H57.9054C57.8415 33.6292 57.6485 33.3327 57.3246 33.0956C57.0069 32.8584 56.6344 32.7398 56.2071 32.7398C55.6522 32.7398 55.1793 32.9709 54.7856 33.4331C54.3933 33.9014 54.1957 34.4609 54.1957 35.1146C54.1957 35.7684 54.3918 36.3279 54.7856 36.7962C55.1778 37.2584 55.6522 37.4895 56.2071 37.4895C56.6815 37.4895 57.0707 37.3512 57.3763 37.0729C57.688 36.7962 57.8643 36.4252 57.9054 35.963H58.252C58.2064 36.5241 57.9951 36.9711 57.6196 37.3071C57.2501 37.6415 56.7788 37.8103 56.2071 37.8103C55.5549 37.8103 54.9999 37.5488 54.5438 37.0227Z" fill="white"/>
<path d="M66.5182 37.6814L68.5555 32.5425H68.9888L70.9988 37.6814H70.6004L69.9421 36.0348H67.5673L66.9089 37.6814H66.5182ZM69.8113 35.7049L68.7547 32.9408L67.6722 35.7049H69.8113Z" fill="white"/>
<path d="M79.6452 32.5425H81.6825C82.2253 32.5425 82.6906 32.7873 83.0783 33.2784C83.4599 33.7634 83.6499 34.3533 83.6499 35.0466C83.6499 35.7748 83.4599 36.3952 83.0783 36.9106C82.6906 37.4245 82.2253 37.6814 81.6825 37.6814H79.6452V32.5425ZM81.6825 37.3515C82.128 37.3515 82.5081 37.1265 82.8259 36.6749C83.1436 36.2249 83.3018 35.6806 83.3018 35.0451C83.3018 34.4445 83.1436 33.9336 82.8259 33.511C82.5081 33.0898 82.1265 32.8785 81.6825 32.8785H79.9919V37.35H81.6825V37.3515Z" fill="white"/>
<path d="M92.4864 37.6814V32.5425H92.8331V37.6814H92.4864Z" fill="white"/>
<path d="M105.927 35.7141L106.157 36.304L115.328 40.181V39.69L105.927 35.7141Z" fill="white"/>
<path d="M102.17 34.1258L76.0318 23.074L70.4307 23.1835L69.1049 22.773L63.3457 23.0923L61.3433 22.3579L32.2051 34.2003L32.3723 34.6275L61.4407 22.8125L63.3761 23.5225L69.0624 23.2078L70.0339 23.5073H76.1823L77.0034 23.9771L102.003 34.5469L102.17 34.1258Z" fill="white"/>
<path d="M101.489 37.6814L103.526 32.5425H103.959L105.969 37.6814H105.571L104.913 36.0348H102.538L101.879 37.6814H101.489ZM104.782 35.7049L103.725 32.9408L102.643 35.7049H104.782Z" fill="white"/>
</svg>
