<svg width="139" height="32" viewBox="0 0 139 32" fill="none" xmlns="http://www.w3.org/2000/svg">
<path d="M70.552 15.0379L70.5476 15.0226L70.5432 15.0379H70.552Z" fill="white"/>
<path d="M13.5089 19.2483L0 24.7363V25.4509L13.1724 20.0963L13.5089 19.2483Z" fill="white"/>
<path d="M13.452 22.0275L16.3807 14.6403H17.0035L19.8928 22.0275H19.3202L18.3739 19.6605H14.96L14.0137 22.0275H13.452ZM18.1859 19.1862L16.667 15.2129L15.1108 19.1862H18.1859Z" fill="white"/>
<path d="M32.3222 22.0275V14.6403H35.8475C36.3545 14.6403 36.7851 14.8304 37.1435 15.2129C37.4998 15.5866 37.679 16.0434 37.679 16.5832C37.679 17.0575 37.5719 17.4684 37.3555 17.8159C37.1304 18.1656 36.8529 18.3688 36.5206 18.4257C36.8288 18.5087 37.078 18.771 37.2681 19.2103C37.4583 19.6496 37.5544 20.1829 37.5544 20.8058C37.5544 21.1554 37.5632 21.4155 37.5785 21.5904C37.5959 21.798 37.6287 21.9423 37.679 22.0253H37.1807C37.0976 21.9248 37.043 21.7434 37.019 21.4767L36.9818 20.4189C36.9818 19.9206 36.8616 19.4922 36.6212 19.136C36.3895 18.7863 36.101 18.6136 35.7623 18.6136H32.8227V22.0275H32.3222ZM35.7623 18.1525C36.1535 18.1525 36.4879 18.0039 36.772 17.7044C37.0452 17.4137 37.1829 17.0575 37.1829 16.6335C37.1829 16.2182 37.0452 15.862 36.772 15.5626C36.49 15.2719 36.1535 15.1276 35.7623 15.1276H32.8227V18.1547H35.7623V18.1525Z" fill="white"/>
<path d="M51.0942 21.0806C50.4298 20.3244 50.0976 19.4108 50.0976 18.3399C50.0976 17.269 50.4298 16.351 51.0942 15.5861C51.7499 14.8299 52.5476 14.4518 53.4852 14.4518C54.2567 14.4518 54.9102 14.6594 55.4413 15.0747C55.9724 15.4812 56.3002 16.0298 56.4248 16.7182H55.9265C55.8347 16.2024 55.5572 15.7762 55.0916 15.4353C54.6348 15.0943 54.0994 14.9239 53.4852 14.9239C52.6875 14.9239 52.0078 15.2561 51.4417 15.9205C50.8779 16.5936 50.5937 17.3979 50.5937 18.3377C50.5937 19.2775 50.8757 20.0818 51.4417 20.755C52.0056 21.4194 52.6875 21.7516 53.4852 21.7516C54.1671 21.7516 54.7266 21.5527 55.1659 21.1527C55.614 20.755 55.8675 20.2217 55.9265 19.5573H56.4248C56.3592 20.3638 56.0555 21.0063 55.5156 21.4893C54.9845 21.9702 54.307 22.2128 53.4852 22.2128C52.5476 22.2128 51.7499 21.8368 51.0942 21.0806Z" fill="white"/>
<path d="M68.3074 22.0275L71.2361 14.6403H71.8589L74.7482 22.0275H74.1756L73.2293 19.6605H69.8154L68.8691 22.0275H68.3074ZM73.0413 19.1862L71.5224 15.2129L69.9662 19.1862H73.0413Z" fill="white"/>
<path d="M87.1775 14.6403H90.1061C90.8864 14.6403 91.5552 14.9921 92.1125 15.6981C92.6611 16.3953 92.9343 17.2433 92.9343 18.2399C92.9343 19.2868 92.6611 20.1785 92.1125 20.9194C91.5552 21.6581 90.8864 22.0275 90.1061 22.0275H87.1775V14.6403ZM90.1061 21.5532C90.7465 21.5532 91.2929 21.2298 91.7497 20.5806C92.2065 19.9337 92.4338 19.1513 92.4338 18.2377C92.4338 17.3744 92.2065 16.6401 91.7497 16.0325C91.2929 15.4271 90.7443 15.1233 90.1061 15.1233H87.6758V21.551H90.1061V21.5532Z" fill="white"/>
<path d="M105.637 22.0275V14.6403H106.135V22.0275H105.637Z" fill="white"/>
<path d="M124.958 19.1995L125.288 20.0475L138.471 25.6207V24.9147L124.958 19.1995Z" fill="white"/>
<path d="M119.557 16.9163L81.9833 1.0294L73.9317 1.18676L72.0258 0.59666L63.7469 1.05563L60.8686 0L18.9823 17.0234L19.2228 17.6376L61.0084 0.653484L63.7907 1.67415L71.9646 1.22173L73.3612 1.65229H82.1996L83.3798 2.32763L119.317 17.5217L119.557 16.9163Z" fill="white"/>
<path d="M118.577 22.0275L121.506 14.6403H122.129L125.018 22.0275H124.446L123.499 19.6605H120.085L119.139 22.0275H118.577ZM123.311 19.1862L121.792 15.2129L120.236 19.1862H123.311Z" fill="white"/>
</svg>
