<svg width="96" height="80" viewBox="0 0 96 80" fill="none" xmlns="http://www.w3.org/2000/svg">
<path d="M0.673989 42.2339C0.535323 42.2339 0.423323 42.2179 0.337989 42.1859C0.252656 42.1645 0.209989 42.1219 0.209989 42.0579C0.209989 41.9299 0.385989 41.8339 0.737989 41.7699C1.14332 41.6952 1.42066 41.5725 1.56999 41.4019C1.72999 41.2205 1.80999 40.9325 1.80999 40.5379V33.3379C1.80999 32.9645 1.72999 32.7032 1.56999 32.5539C1.42066 32.3939 1.14332 32.2765 0.737989 32.2019C0.385989 32.1379 0.209989 32.0312 0.209989 31.8819C0.209989 31.8179 0.252656 31.7752 0.337989 31.7539C0.423323 31.7219 0.535323 31.7059 0.673989 31.7059C0.961989 31.7059 1.19132 31.7112 1.36199 31.7219C1.54332 31.7219 1.71399 31.7272 1.87399 31.7379C2.03399 31.7379 2.23132 31.7379 2.46599 31.7379C2.66866 31.7379 2.82866 31.7379 2.94599 31.7379C3.07399 31.7272 3.21266 31.7219 3.36199 31.7219C3.51132 31.7112 3.72999 31.7059 4.01799 31.7059C4.15666 31.7059 4.26866 31.7219 4.35399 31.7539C4.43932 31.7752 4.48199 31.8179 4.48199 31.8819C4.48199 31.9565 4.43932 32.0205 4.35399 32.0739C4.26866 32.1272 4.13532 32.1699 3.95399 32.2019C3.55932 32.2765 3.31399 32.4099 3.21799 32.6019C3.13266 32.7832 3.08999 33.0285 3.08999 33.3379V36.3299C3.08999 36.3725 3.08999 36.4365 3.08999 36.5219C3.10066 36.5965 3.12732 36.6339 3.16999 36.6339C3.22332 36.6339 3.29266 36.6019 3.37799 36.5379C3.47399 36.4739 3.54866 36.4099 3.60199 36.3459L6.80199 33.0819C6.88732 32.9965 6.94599 32.9165 6.97799 32.8419C7.02066 32.7565 7.04199 32.6765 7.04199 32.6019C7.04199 32.4099 6.94066 32.2872 6.73799 32.2339C6.55666 32.1805 6.42866 32.1325 6.35399 32.0899C6.27932 32.0472 6.24199 31.9885 6.24199 31.9139C6.24199 31.8499 6.28466 31.8072 6.36999 31.7859C6.45532 31.7539 6.56732 31.7379 6.70599 31.7379H7.56999C7.87932 31.7379 8.22066 31.7325 8.59399 31.7219C8.96732 31.7112 9.30332 31.7005 9.60199 31.6899C9.91132 31.6792 10.098 31.6739 10.162 31.6739C10.2687 31.6739 10.354 31.6899 10.418 31.7219C10.482 31.7539 10.514 31.7965 10.514 31.8499C10.514 31.9245 10.4713 31.9885 10.386 32.0419C10.3007 32.0952 10.1673 32.1379 9.98599 32.1699C9.59132 32.2445 9.18066 32.3619 8.75399 32.5219C8.32732 32.6819 7.92732 32.9165 7.55399 33.2259C7.16999 33.5459 6.81266 33.8605 6.48199 34.1699C6.16199 34.4685 5.84199 34.7832 5.52199 35.1139C5.20199 35.4339 4.85532 35.8019 4.48199 36.2179C4.41799 36.2819 4.44466 36.3779 4.56199 36.5059L8.43399 40.6339C8.66866 40.8899 8.85532 41.0872 8.99399 41.2259C9.14332 41.3645 9.30332 41.4765 9.47399 41.5619C9.65532 41.6365 9.89532 41.7059 10.194 41.7699C10.3753 41.8125 10.5087 41.8552 10.594 41.8979C10.6793 41.9299 10.722 41.9832 10.722 42.0579C10.722 42.1219 10.6793 42.1645 10.594 42.1859C10.5087 42.2179 10.3967 42.2339 10.258 42.2339C9.94866 42.2339 9.68199 42.2232 9.45799 42.2019C9.23399 42.1912 9.01532 42.1805 8.80199 42.1699C8.58866 42.1592 8.33266 42.1539 8.03399 42.1539C7.83132 42.1539 7.65532 42.1539 7.50599 42.1539C7.35666 42.1645 7.10066 42.1699 6.73799 42.1699C6.59932 42.1699 6.48732 42.1592 6.40199 42.1379C6.31666 42.1059 6.27399 42.0579 6.27399 41.9939C6.27399 41.8765 6.41799 41.7859 6.70599 41.7219C7.00466 41.6472 7.15399 41.5405 7.15399 41.4019C7.15399 41.3379 7.12732 41.2739 7.07399 41.2099C7.03132 41.1459 6.97799 41.0765 6.91399 41.0019L3.52199 37.2579C3.45799 37.1939 3.38866 37.1352 3.31399 37.0819C3.24999 37.0179 3.19666 36.9859 3.15399 36.9859C3.11132 36.9859 3.08999 37.0285 3.08999 37.1139C3.08999 37.1992 3.08999 37.2685 3.08999 37.3219C3.08999 37.8232 3.09532 38.3032 3.10599 38.7619C3.12732 39.2099 3.14866 39.7539 3.16999 40.3939C3.18066 40.6179 3.21266 40.8259 3.26599 41.0179C3.32999 41.2099 3.43132 41.3699 3.56999 41.4979C3.71932 41.6259 3.92732 41.7165 4.19399 41.7699C4.37532 41.8019 4.50866 41.8392 4.59399 41.8819C4.67932 41.9245 4.72199 41.9832 4.72199 42.0579C4.72199 42.1219 4.67932 42.1645 4.59399 42.1859C4.50866 42.2179 4.39666 42.2339 4.25799 42.2339C3.96999 42.2339 3.74599 42.2232 3.58599 42.2019C3.43666 42.1805 3.29799 42.1645 3.16999 42.1539C3.05266 42.1325 2.89266 42.1219 2.68999 42.1219C2.43399 42.1219 2.20466 42.1325 2.00199 42.1539C1.80999 42.1645 1.61266 42.1805 1.40999 42.2019C1.20732 42.2232 0.961989 42.2339 0.673989 42.2339ZM11.0366 42.2339C10.8979 42.2339 10.7859 42.2125 10.7006 42.1699C10.6153 42.1379 10.5726 42.0899 10.5726 42.0259C10.5726 41.9512 10.6153 41.8872 10.7006 41.8339C10.7966 41.7699 10.9299 41.7112 11.1006 41.6579C11.3779 41.5725 11.6339 41.4445 11.8686 41.2739C12.1033 41.1032 12.3059 40.8205 12.4766 40.4259C12.7753 39.7432 13.0473 39.1032 13.2926 38.5059C13.5486 37.9085 13.7886 37.3219 14.0126 36.7459C14.2366 36.1699 14.4659 35.5725 14.7006 34.9539C14.9459 34.3245 15.2019 33.6419 15.4686 32.9059C15.5219 32.7565 15.5699 32.6072 15.6126 32.4579C15.6553 32.3085 15.6819 32.1485 15.6926 31.9779C15.7886 31.9459 15.8846 31.9139 15.9806 31.8819C16.0766 31.8499 16.1726 31.8019 16.2686 31.7379C16.3646 31.6739 16.4286 31.5779 16.4606 31.4499C16.5033 31.3219 16.5406 31.2365 16.5726 31.1939C16.5833 31.1832 16.5939 31.1779 16.6046 31.1779C16.6259 31.1779 16.6419 31.1885 16.6526 31.2099C16.6739 31.2525 16.6899 31.3059 16.7006 31.3699C16.7219 31.4339 16.7433 31.4979 16.7646 31.5619C17.0206 32.3725 17.2873 33.1992 17.5646 34.0419C17.8419 34.8845 18.1086 35.7005 18.3646 36.4899C18.6313 37.2685 18.8713 37.9725 19.0846 38.6019C19.3086 39.2205 19.4846 39.7219 19.6126 40.1059C19.7619 40.5325 19.9219 40.8525 20.0926 41.0659C20.2633 41.2792 20.4393 41.4285 20.6206 41.5139C20.8126 41.5992 21.0153 41.6632 21.2286 41.7059C21.4099 41.7379 21.5433 41.7912 21.6286 41.8659C21.7139 41.9299 21.7566 41.9992 21.7566 42.0739C21.7566 42.1379 21.7139 42.1805 21.6286 42.2019C21.5433 42.2232 21.4313 42.2339 21.2926 42.2339C21.1433 42.2339 20.9406 42.2232 20.6846 42.2019C20.4286 42.1912 20.1566 42.1752 19.8686 42.1539C19.5806 42.1432 19.3139 42.1379 19.0686 42.1379C18.8659 42.1379 18.6579 42.1379 18.4446 42.1379C18.2313 42.1379 18.0339 42.1432 17.8526 42.1539C17.6713 42.1539 17.5166 42.1539 17.3886 42.1539C17.2499 42.1539 17.1379 42.1379 17.0526 42.1059C16.9673 42.0739 16.9246 42.0259 16.9246 41.9619C16.9246 41.8872 16.9779 41.8232 17.0846 41.7699C17.1913 41.7165 17.3139 41.6792 17.4526 41.6579C17.8046 41.6045 18.0553 41.5139 18.2046 41.3859C18.3539 41.2579 18.4286 41.1085 18.4286 40.9379C18.4286 40.7779 18.3913 40.5485 18.3166 40.2499C18.2526 39.9405 18.1726 39.6152 18.0766 39.2739C17.9806 38.9219 17.8899 38.6125 17.8046 38.3459C17.7833 38.2605 17.7406 38.2125 17.6766 38.2019C17.6233 38.1805 17.5219 38.1699 17.3726 38.1699H14.3486C14.3059 38.1699 14.2579 38.1912 14.2046 38.2339C14.1619 38.2659 14.1193 38.3405 14.0766 38.4579C14.0446 38.5645 13.9913 38.7352 13.9166 38.9699C13.8419 39.1939 13.7673 39.4339 13.6926 39.6899C13.6179 39.9459 13.5539 40.1752 13.5006 40.3779C13.4473 40.5805 13.4206 40.7085 13.4206 40.7619C13.4206 40.9965 13.5113 41.1939 13.6926 41.3539C13.8739 41.5032 14.0926 41.6099 14.3486 41.6739C14.7006 41.7699 14.8766 41.8765 14.8766 41.9939C14.8766 42.0579 14.8339 42.1059 14.7486 42.1379C14.6633 42.1592 14.5513 42.1699 14.4126 42.1699C14.2739 42.1699 14.0713 42.1645 13.8046 42.1539C13.5379 42.1432 13.2553 42.1379 12.9566 42.1379C12.6046 42.1379 12.2633 42.1539 11.9326 42.1859C11.6019 42.2179 11.3033 42.2339 11.0366 42.2339ZM14.7806 37.6419H17.2606C17.4099 37.6419 17.4846 37.6152 17.4846 37.5619C17.4846 37.5405 17.4793 37.5192 17.4686 37.4979C17.4686 37.4659 17.4633 37.4339 17.4526 37.4019L16.2046 33.4979C16.1406 33.3059 16.0926 33.2099 16.0606 33.2099C16.0393 33.2099 15.9966 33.3005 15.9326 33.4819L14.4766 37.4019C14.4553 37.4659 14.4446 37.5085 14.4446 37.5299C14.4446 37.5832 14.4713 37.6152 14.5246 37.6259C14.5886 37.6365 14.6739 37.6419 14.7806 37.6419ZM32.3707 42.4259C32.2747 42.4259 32.0827 42.3459 31.7947 42.1859C31.5174 42.0259 31.2507 41.7699 30.9947 41.4179C30.9521 41.3645 30.8187 41.2045 30.5947 40.9379C30.3814 40.6712 30.1041 40.3405 29.7627 39.9459C29.4321 39.5405 29.0694 39.1032 28.6747 38.6339C28.2801 38.1645 27.8854 37.6952 27.4907 37.2259C27.0961 36.7565 26.7281 36.3245 26.3867 35.9299C26.0454 35.5245 25.7574 35.1885 25.5227 34.9219C25.2987 34.6445 25.1601 34.4739 25.1067 34.4099C25.0321 34.3139 24.9681 34.2499 24.9147 34.2179C24.8614 34.1752 24.8134 34.1539 24.7707 34.1539C24.7174 34.1539 24.6801 34.1965 24.6587 34.2819C24.6374 34.3565 24.6267 34.4259 24.6267 34.4899C24.6161 35.0125 24.6054 35.6152 24.5947 36.2979C24.5841 36.9805 24.5734 37.6845 24.5627 38.4099C24.5521 39.1352 24.5467 39.8285 24.5467 40.4899C24.5467 40.7779 24.6161 41.0445 24.7547 41.2899C24.9041 41.5352 25.1761 41.6952 25.5707 41.7699C25.7521 41.8019 25.8854 41.8392 25.9707 41.8819C26.0561 41.9245 26.0987 41.9832 26.0987 42.0579C26.0987 42.1219 26.0561 42.1645 25.9707 42.1859C25.8854 42.2179 25.7734 42.2339 25.6347 42.2339C25.3467 42.2339 25.1281 42.2232 24.9787 42.2019C24.8401 42.1912 24.7121 42.1805 24.5947 42.1699C24.4881 42.1592 24.3334 42.1539 24.1307 42.1539C23.9387 42.1539 23.7894 42.1592 23.6827 42.1699C23.5761 42.1805 23.4534 42.1912 23.3147 42.2019C23.1761 42.2232 22.9627 42.2339 22.6747 42.2339C22.5361 42.2339 22.4241 42.2179 22.3387 42.1859C22.2534 42.1645 22.2107 42.1219 22.2107 42.0579C22.2107 41.9832 22.2534 41.9245 22.3387 41.8819C22.4241 41.8392 22.5574 41.7965 22.7387 41.7539C23.0481 41.6685 23.2721 41.5139 23.4107 41.2899C23.5494 41.0552 23.6347 40.7725 23.6667 40.4419C23.7094 40.0365 23.7521 39.5032 23.7947 38.8419C23.8374 38.1699 23.8747 37.4232 23.9067 36.6019C23.9387 35.7699 23.9547 34.9165 23.9547 34.0419C23.9547 33.4765 23.8054 33.0712 23.5067 32.8259C23.2187 32.5805 22.8401 32.3832 22.3707 32.2339C22.3281 32.2125 22.2321 32.1699 22.0827 32.1059C21.9441 32.0312 21.8747 31.9459 21.8747 31.8499C21.8747 31.7539 21.9227 31.6952 22.0187 31.6739C22.1147 31.6419 22.1894 31.6259 22.2427 31.6259C22.5521 31.6365 22.8027 31.6472 22.9947 31.6579C23.1867 31.6579 23.3574 31.6632 23.5067 31.6739C23.6561 31.6845 23.8214 31.6952 24.0027 31.7059C24.1841 31.7059 24.4187 31.7059 24.7067 31.7059C24.8027 31.7059 24.8774 31.7325 24.9307 31.7859C24.9841 31.8392 25.0374 31.9032 25.0907 31.9779C25.1334 32.0419 25.2721 32.2232 25.5067 32.5219C25.7521 32.8099 26.0507 33.1779 26.4027 33.6259C26.7654 34.0632 27.1601 34.5432 27.5867 35.0659C28.0134 35.5779 28.4401 36.0952 28.8667 36.6179C29.2934 37.1299 29.6881 37.6099 30.0507 38.0579C30.4134 38.4952 30.7121 38.8579 30.9467 39.1459C31.1921 39.4339 31.3361 39.6045 31.3787 39.6579C31.4214 39.7005 31.4801 39.7645 31.5547 39.8499C31.6401 39.9352 31.7147 39.9779 31.7787 39.9779C31.8747 39.9779 31.9281 39.8659 31.9387 39.6419C31.9387 39.4925 31.9387 39.2099 31.9387 38.7939C31.9494 38.3672 31.9547 37.8552 31.9547 37.2579C31.9654 36.6499 31.9707 35.9939 31.9707 35.2899C31.9707 34.5859 31.9707 33.8659 31.9707 33.1299C31.9601 32.9165 31.8481 32.7245 31.6347 32.5539C31.4214 32.3832 31.2241 32.2819 31.0427 32.2499C30.8614 32.2179 30.6961 32.1752 30.5467 32.1219C30.3974 32.0685 30.3227 32.0045 30.3227 31.9299C30.3227 31.8659 30.3974 31.8232 30.5467 31.8019C30.6961 31.7699 30.8401 31.7539 30.9787 31.7539C31.0854 31.7539 31.1867 31.7539 31.2827 31.7539C31.3894 31.7539 31.4907 31.7539 31.5867 31.7539C31.6934 31.7539 31.7947 31.7539 31.8907 31.7539C32.1467 31.7539 32.3494 31.7539 32.4987 31.7539C32.6481 31.7432 32.8081 31.7325 32.9787 31.7219C33.1601 31.7112 33.4107 31.7059 33.7307 31.7059C33.8694 31.7059 33.9814 31.7219 34.0667 31.7539C34.1521 31.7752 34.1947 31.8179 34.1947 31.8819C34.1947 32.0312 34.0187 32.1379 33.6667 32.2019C33.2721 32.2765 33.0107 32.3725 32.8827 32.4899C32.7547 32.6072 32.6801 32.7992 32.6587 33.0659C32.6587 33.1192 32.6534 33.3272 32.6427 33.6899C32.6427 34.0525 32.6427 34.5112 32.6427 35.0659C32.6427 35.6205 32.6374 36.2179 32.6267 36.8579C32.6267 37.4979 32.6267 38.1379 32.6267 38.7779C32.6267 39.4072 32.6267 39.9725 32.6267 40.4739C32.6267 40.7299 32.6321 40.9645 32.6427 41.1779C32.6641 41.3805 32.6801 41.5565 32.6907 41.7059C32.7014 41.8445 32.7067 41.9512 32.7067 42.0259C32.7067 42.1965 32.6694 42.3032 32.5947 42.3459C32.5307 42.3992 32.4561 42.4259 32.3707 42.4259ZM44.5466 42.4899C44.2479 42.4899 43.9653 42.4632 43.6986 42.4099C43.4319 42.3672 43.1866 42.2819 42.9626 42.1539C42.7386 42.0259 42.5306 41.8499 42.3386 41.6259C42.0826 41.3059 41.8373 41.0019 41.6026 40.7139C41.3679 40.4152 41.1173 40.0739 40.8506 39.6899C40.5946 39.3059 40.2799 38.8152 39.9066 38.2179C39.7466 37.9512 39.5173 37.7432 39.2186 37.5939C38.9839 37.4765 38.7493 37.3965 38.5146 37.3539C38.2906 37.3005 38.1039 37.2685 37.9546 37.2579C37.8693 37.2472 37.8053 37.2739 37.7626 37.3379C37.7306 37.4019 37.7146 37.4819 37.7146 37.5779V40.3939C37.7146 40.7352 37.7946 41.0339 37.9546 41.2899C38.1146 41.5352 38.3919 41.6952 38.7866 41.7699C38.9679 41.8019 39.1013 41.8392 39.1866 41.8819C39.2719 41.9245 39.3146 41.9832 39.3146 42.0579C39.3146 42.1219 39.2719 42.1645 39.1866 42.1859C39.1013 42.2179 38.9893 42.2339 38.8506 42.2339C38.5626 42.2339 38.3386 42.2232 38.1786 42.2019C38.0293 42.1805 37.8906 42.1645 37.7626 42.1539C37.6453 42.1325 37.4853 42.1219 37.2826 42.1219C37.0159 42.1219 36.7759 42.1325 36.5626 42.1539C36.3599 42.1645 36.1519 42.1805 35.9386 42.2019C35.7359 42.2232 35.4906 42.2339 35.2026 42.2339C35.0639 42.2339 34.9519 42.2179 34.8666 42.1859C34.7813 42.1645 34.7386 42.1219 34.7386 42.0579C34.7386 41.9299 34.9146 41.8339 35.2666 41.7699C35.6719 41.6952 35.9653 41.5725 36.1466 41.4019C36.3386 41.2312 36.4346 40.9485 36.4346 40.5539V33.7379C36.4346 33.3325 36.4133 33.0285 36.3706 32.8259C36.3386 32.6125 36.2533 32.4632 36.1146 32.3779C35.9866 32.2925 35.7679 32.2339 35.4586 32.2019C35.2773 32.1805 35.1439 32.1432 35.0586 32.0899C34.9733 32.0259 34.9306 31.9565 34.9306 31.8819C34.9306 31.8179 34.9733 31.7752 35.0586 31.7539C35.1439 31.7219 35.2559 31.7059 35.3946 31.7059C35.6826 31.7059 35.8959 31.7059 36.0346 31.7059C36.1839 31.7059 36.3226 31.7112 36.4506 31.7219C36.5786 31.7219 36.7493 31.7219 36.9626 31.7219C37.1653 31.7219 37.3466 31.7165 37.5066 31.7059C37.6666 31.6845 37.8426 31.6685 38.0346 31.6579C38.2373 31.6472 38.4933 31.6419 38.8026 31.6419C39.9759 31.6419 40.8666 31.8605 41.4746 32.2979C42.0933 32.7352 42.4026 33.3912 42.4026 34.2659C42.4026 34.7459 42.3066 35.1619 42.1146 35.5139C41.9226 35.8552 41.6826 36.1432 41.3946 36.3779C41.1066 36.6125 40.8133 36.8045 40.5146 36.9539C40.4719 36.9645 40.4506 36.9912 40.4506 37.0339C40.4613 37.0659 40.4826 37.1085 40.5146 37.1619C40.8453 37.6632 41.1599 38.1379 41.4586 38.5859C41.7679 39.0339 42.1039 39.4712 42.4666 39.8979C42.8293 40.3245 43.2613 40.7672 43.7626 41.2259C44.0399 41.4712 44.3226 41.6205 44.6106 41.6739C44.8986 41.7272 45.2293 41.7539 45.6026 41.7539C45.7626 41.7539 45.8426 41.8125 45.8426 41.9299C45.8426 42.0899 45.7626 42.2072 45.6026 42.2819C45.4426 42.3672 45.2613 42.4205 45.0586 42.4419C44.8559 42.4739 44.6853 42.4899 44.5466 42.4899ZM38.5626 36.8899C39.0533 36.8899 39.4746 36.7779 39.8266 36.5539C40.1893 36.3299 40.4666 36.0365 40.6586 35.6739C40.8613 35.3112 40.9626 34.9272 40.9626 34.5219C40.9626 34.0845 40.9039 33.6845 40.7866 33.3219C40.6799 32.9592 40.4559 32.6712 40.1146 32.4579C39.7839 32.2339 39.2826 32.1219 38.6106 32.1219C38.2693 32.1219 38.0453 32.2339 37.9386 32.4579C37.8319 32.6712 37.7679 33.0552 37.7466 33.6099C37.7359 33.8765 37.7253 34.2392 37.7146 34.6979C37.7146 35.1459 37.7146 35.6899 37.7146 36.3299C37.7146 36.5965 37.7893 36.7565 37.9386 36.8099C38.0879 36.8632 38.2959 36.8899 38.5626 36.8899ZM46.5289 42.2339C46.3902 42.2339 46.2782 42.2179 46.1929 42.1859C46.1075 42.1645 46.0649 42.1219 46.0649 42.0579C46.0649 41.9299 46.2409 41.8339 46.5929 41.7699C46.9982 41.6952 47.3075 41.5725 47.5209 41.4019C47.7342 41.2312 47.8409 40.9592 47.8409 40.5859V33.3539C47.8409 32.9805 47.7609 32.7139 47.6009 32.5539C47.4515 32.3939 47.1742 32.2765 46.7689 32.2019C46.4169 32.1379 46.2409 32.0312 46.2409 31.8819C46.2409 31.8179 46.2835 31.7752 46.3689 31.7539C46.4542 31.7219 46.5662 31.7059 46.7049 31.7059C46.9929 31.7059 47.2275 31.7112 47.4089 31.7219C47.6009 31.7325 47.7822 31.7432 47.9529 31.7539C48.1235 31.7539 48.3315 31.7539 48.5769 31.7539C48.8115 31.7539 49.0035 31.7539 49.1529 31.7539C49.3022 31.7432 49.4622 31.7325 49.6329 31.7219C49.8035 31.7112 50.0329 31.7059 50.3209 31.7059C50.4595 31.7059 50.5715 31.7219 50.6569 31.7539C50.7422 31.7752 50.7849 31.8179 50.7849 31.8819C50.7849 31.9565 50.7422 32.0205 50.6569 32.0739C50.5715 32.1272 50.4382 32.1699 50.2569 32.2019C49.8622 32.2765 49.5742 32.3939 49.3929 32.5539C49.2115 32.7139 49.1209 32.9805 49.1209 33.3539V40.5859C49.1209 40.9592 49.2329 41.2312 49.4569 41.4019C49.6809 41.5725 49.9902 41.6952 50.3849 41.7699C50.5662 41.8019 50.6995 41.8392 50.7849 41.8819C50.8702 41.9245 50.9129 41.9832 50.9129 42.0579C50.9129 42.1219 50.8702 42.1645 50.7849 42.1859C50.6995 42.2179 50.5875 42.2339 50.4489 42.2339C50.1609 42.2339 49.9209 42.2232 49.7289 42.2019C49.5475 42.1912 49.3715 42.1805 49.2009 42.1699C49.0302 42.1592 48.8222 42.1539 48.5769 42.1539C48.3102 42.1539 48.0755 42.1592 47.8729 42.1699C47.6809 42.1805 47.4782 42.1912 47.2649 42.2019C47.0622 42.2232 46.8169 42.2339 46.5289 42.2339ZM61.8864 42.4259C61.7904 42.4259 61.5984 42.3459 61.3104 42.1859C61.033 42.0259 60.7664 41.7699 60.5104 41.4179C60.4677 41.3645 60.3344 41.2045 60.1104 40.9379C59.897 40.6712 59.6197 40.3405 59.2784 39.9459C58.9477 39.5405 58.585 39.1032 58.1904 38.6339C57.7957 38.1645 57.401 37.6952 57.0064 37.2259C56.6117 36.7565 56.2437 36.3245 55.9024 35.9299C55.561 35.5245 55.273 35.1885 55.0384 34.9219C54.8144 34.6445 54.6757 34.4739 54.6224 34.4099C54.5477 34.3139 54.4837 34.2499 54.4304 34.2179C54.377 34.1752 54.329 34.1539 54.2864 34.1539C54.233 34.1539 54.1957 34.1965 54.1744 34.2819C54.153 34.3565 54.1424 34.4259 54.1424 34.4899C54.1317 35.0125 54.121 35.6152 54.1104 36.2979C54.0997 36.9805 54.089 37.6845 54.0784 38.4099C54.0677 39.1352 54.0624 39.8285 54.0624 40.4899C54.0624 40.7779 54.1317 41.0445 54.2704 41.2899C54.4197 41.5352 54.6917 41.6952 55.0864 41.7699C55.2677 41.8019 55.401 41.8392 55.4864 41.8819C55.5717 41.9245 55.6144 41.9832 55.6144 42.0579C55.6144 42.1219 55.5717 42.1645 55.4864 42.1859C55.401 42.2179 55.289 42.2339 55.1504 42.2339C54.8624 42.2339 54.6437 42.2232 54.4944 42.2019C54.3557 42.1912 54.2277 42.1805 54.1104 42.1699C54.0037 42.1592 53.849 42.1539 53.6464 42.1539C53.4544 42.1539 53.305 42.1592 53.1984 42.1699C53.0917 42.1805 52.969 42.1912 52.8304 42.2019C52.6917 42.2232 52.4784 42.2339 52.1904 42.2339C52.0517 42.2339 51.9397 42.2179 51.8544 42.1859C51.769 42.1645 51.7264 42.1219 51.7264 42.0579C51.7264 41.9832 51.769 41.9245 51.8544 41.8819C51.9397 41.8392 52.073 41.7965 52.2544 41.7539C52.5637 41.6685 52.7877 41.5139 52.9264 41.2899C53.065 41.0552 53.1504 40.7725 53.1824 40.4419C53.225 40.0365 53.2677 39.5032 53.3104 38.8419C53.353 38.1699 53.3904 37.4232 53.4224 36.6019C53.4544 35.7699 53.4704 34.9165 53.4704 34.0419C53.4704 33.4765 53.321 33.0712 53.0224 32.8259C52.7344 32.5805 52.3557 32.3832 51.8864 32.2339C51.8437 32.2125 51.7477 32.1699 51.5984 32.1059C51.4597 32.0312 51.3904 31.9459 51.3904 31.8499C51.3904 31.7539 51.4384 31.6952 51.5344 31.6739C51.6304 31.6419 51.705 31.6259 51.7584 31.6259C52.0677 31.6365 52.3184 31.6472 52.5104 31.6579C52.7024 31.6579 52.873 31.6632 53.0224 31.6739C53.1717 31.6845 53.337 31.6952 53.5184 31.7059C53.6997 31.7059 53.9344 31.7059 54.2224 31.7059C54.3184 31.7059 54.393 31.7325 54.4464 31.7859C54.4997 31.8392 54.553 31.9032 54.6064 31.9779C54.649 32.0419 54.7877 32.2232 55.0224 32.5219C55.2677 32.8099 55.5664 33.1779 55.9184 33.6259C56.281 34.0632 56.6757 34.5432 57.1024 35.0659C57.529 35.5779 57.9557 36.0952 58.3824 36.6179C58.809 37.1299 59.2037 37.6099 59.5664 38.0579C59.929 38.4952 60.2277 38.8579 60.4624 39.1459C60.7077 39.4339 60.8517 39.6045 60.8944 39.6579C60.937 39.7005 60.9957 39.7645 61.0704 39.8499C61.1557 39.9352 61.2304 39.9779 61.2944 39.9779C61.3904 39.9779 61.4437 39.8659 61.4544 39.6419C61.4544 39.4925 61.4544 39.2099 61.4544 38.7939C61.465 38.3672 61.4704 37.8552 61.4704 37.2579C61.481 36.6499 61.4864 35.9939 61.4864 35.2899C61.4864 34.5859 61.4864 33.8659 61.4864 33.1299C61.4757 32.9165 61.3637 32.7245 61.1504 32.5539C60.937 32.3832 60.7397 32.2819 60.5584 32.2499C60.377 32.2179 60.2117 32.1752 60.0624 32.1219C59.913 32.0685 59.8384 32.0045 59.8384 31.9299C59.8384 31.8659 59.913 31.8232 60.0624 31.8019C60.2117 31.7699 60.3557 31.7539 60.4944 31.7539C60.601 31.7539 60.7024 31.7539 60.7984 31.7539C60.905 31.7539 61.0064 31.7539 61.1024 31.7539C61.209 31.7539 61.3104 31.7539 61.4064 31.7539C61.6624 31.7539 61.865 31.7539 62.0144 31.7539C62.1637 31.7432 62.3237 31.7325 62.4944 31.7219C62.6757 31.7112 62.9264 31.7059 63.2464 31.7059C63.385 31.7059 63.497 31.7219 63.5824 31.7539C63.6677 31.7752 63.7104 31.8179 63.7104 31.8819C63.7104 32.0312 63.5344 32.1379 63.1824 32.2019C62.7877 32.2765 62.5264 32.3725 62.3984 32.4899C62.2704 32.6072 62.1957 32.7992 62.1744 33.0659C62.1744 33.1192 62.169 33.3272 62.1584 33.6899C62.1584 34.0525 62.1584 34.5112 62.1584 35.0659C62.1584 35.6205 62.153 36.2179 62.1424 36.8579C62.1424 37.4979 62.1424 38.1379 62.1424 38.7779C62.1424 39.4072 62.1424 39.9725 62.1424 40.4739C62.1424 40.7299 62.1477 40.9645 62.1584 41.1779C62.1797 41.3805 62.1957 41.5565 62.2064 41.7059C62.217 41.8445 62.2224 41.9512 62.2224 42.0259C62.2224 42.1965 62.185 42.3032 62.1104 42.3459C62.0464 42.3992 61.9717 42.4259 61.8864 42.4259ZM64.8302 42.2339C64.6916 42.2339 64.5796 42.2179 64.4942 42.1859C64.4089 42.1645 64.3662 42.1219 64.3662 42.0579C64.3662 41.9299 64.5422 41.8339 64.8942 41.7699C65.2996 41.6952 65.5769 41.5725 65.7262 41.4019C65.8862 41.2205 65.9662 40.9325 65.9662 40.5379V33.3379C65.9662 32.9645 65.8862 32.7032 65.7262 32.5539C65.5769 32.3939 65.2996 32.2765 64.8942 32.2019C64.5422 32.1379 64.3662 32.0312 64.3662 31.8819C64.3662 31.8179 64.4089 31.7752 64.4942 31.7539C64.5796 31.7219 64.6916 31.7059 64.8302 31.7059C65.1182 31.7059 65.3476 31.7112 65.5182 31.7219C65.6996 31.7219 65.8702 31.7272 66.0302 31.7379C66.1902 31.7379 66.3876 31.7379 66.6222 31.7379C66.8249 31.7379 66.9849 31.7379 67.1022 31.7379C67.2302 31.7272 67.3689 31.7219 67.5182 31.7219C67.6676 31.7112 67.8862 31.7059 68.1742 31.7059C68.3129 31.7059 68.4249 31.7219 68.5102 31.7539C68.5956 31.7752 68.6382 31.8179 68.6382 31.8819C68.6382 31.9565 68.5956 32.0205 68.5102 32.0739C68.4249 32.1272 68.2916 32.1699 68.1102 32.2019C67.7156 32.2765 67.4702 32.4099 67.3742 32.6019C67.2889 32.7832 67.2462 33.0285 67.2462 33.3379V36.3299C67.2462 36.3725 67.2462 36.4365 67.2462 36.5219C67.2569 36.5965 67.2836 36.6339 67.3262 36.6339C67.3796 36.6339 67.4489 36.6019 67.5342 36.5379C67.6302 36.4739 67.7049 36.4099 67.7582 36.3459L70.9582 33.0819C71.0436 32.9965 71.1022 32.9165 71.1342 32.8419C71.1769 32.7565 71.1982 32.6765 71.1982 32.6019C71.1982 32.4099 71.0969 32.2872 70.8942 32.2339C70.7129 32.1805 70.5849 32.1325 70.5102 32.0899C70.4356 32.0472 70.3982 31.9885 70.3982 31.9139C70.3982 31.8499 70.4409 31.8072 70.5262 31.7859C70.6116 31.7539 70.7236 31.7379 70.8622 31.7379H71.7262C72.0356 31.7379 72.3769 31.7325 72.7502 31.7219C73.1236 31.7112 73.4596 31.7005 73.7582 31.6899C74.0676 31.6792 74.2542 31.6739 74.3182 31.6739C74.4249 31.6739 74.5102 31.6899 74.5742 31.7219C74.6382 31.7539 74.6702 31.7965 74.6702 31.8499C74.6702 31.9245 74.6276 31.9885 74.5422 32.0419C74.4569 32.0952 74.3236 32.1379 74.1422 32.1699C73.7476 32.2445 73.3369 32.3619 72.9102 32.5219C72.4836 32.6819 72.0836 32.9165 71.7102 33.2259C71.3262 33.5459 70.9689 33.8605 70.6382 34.1699C70.3182 34.4685 69.9982 34.7832 69.6782 35.1139C69.3582 35.4339 69.0116 35.8019 68.6382 36.2179C68.5742 36.2819 68.6009 36.3779 68.7182 36.5059L72.5902 40.6339C72.8249 40.8899 73.0116 41.0872 73.1502 41.2259C73.2996 41.3645 73.4596 41.4765 73.6302 41.5619C73.8116 41.6365 74.0516 41.7059 74.3502 41.7699C74.5316 41.8125 74.6649 41.8552 74.7502 41.8979C74.8356 41.9299 74.8782 41.9832 74.8782 42.0579C74.8782 42.1219 74.8356 42.1645 74.7502 42.1859C74.6649 42.2179 74.5529 42.2339 74.4142 42.2339C74.1049 42.2339 73.8382 42.2232 73.6142 42.2019C73.3902 42.1912 73.1716 42.1805 72.9582 42.1699C72.7449 42.1592 72.4889 42.1539 72.1902 42.1539C71.9876 42.1539 71.8116 42.1539 71.6622 42.1539C71.5129 42.1645 71.2569 42.1699 70.8942 42.1699C70.7556 42.1699 70.6436 42.1592 70.5582 42.1379C70.4729 42.1059 70.4302 42.0579 70.4302 41.9939C70.4302 41.8765 70.5742 41.7859 70.8622 41.7219C71.1609 41.6472 71.3102 41.5405 71.3102 41.4019C71.3102 41.3379 71.2836 41.2739 71.2302 41.2099C71.1876 41.1459 71.1342 41.0765 71.0702 41.0019L67.6782 37.2579C67.6142 37.1939 67.5449 37.1352 67.4702 37.0819C67.4062 37.0179 67.3529 36.9859 67.3102 36.9859C67.2676 36.9859 67.2462 37.0285 67.2462 37.1139C67.2462 37.1992 67.2462 37.2685 67.2462 37.3219C67.2462 37.8232 67.2516 38.3032 67.2622 38.7619C67.2836 39.2099 67.3049 39.7539 67.3262 40.3939C67.3369 40.6179 67.3689 40.8259 67.4222 41.0179C67.4862 41.2099 67.5876 41.3699 67.7262 41.4979C67.8756 41.6259 68.0836 41.7165 68.3502 41.7699C68.5316 41.8019 68.6649 41.8392 68.7502 41.8819C68.8356 41.9245 68.8782 41.9832 68.8782 42.0579C68.8782 42.1219 68.8356 42.1645 68.7502 42.1859C68.6649 42.2179 68.5529 42.2339 68.4142 42.2339C68.1262 42.2339 67.9022 42.2232 67.7422 42.2019C67.5929 42.1805 67.4542 42.1645 67.3262 42.1539C67.2089 42.1325 67.0489 42.1219 66.8462 42.1219C66.5902 42.1219 66.3609 42.1325 66.1582 42.1539C65.9662 42.1645 65.7689 42.1805 65.5662 42.2019C65.3636 42.2232 65.1182 42.2339 64.8302 42.2339ZM77.6729 42.2339C77.5342 42.2339 77.4222 42.2179 77.3369 42.1859C77.2515 42.1645 77.2089 42.1219 77.2089 42.0579C77.2089 41.9832 77.2515 41.9245 77.3369 41.8819C77.4222 41.8392 77.5555 41.8019 77.7369 41.7699C78.1422 41.6952 78.4515 41.5512 78.6649 41.3379C78.8782 41.1139 78.9849 40.8099 78.9849 40.4259V38.0579C78.9849 37.8445 78.9262 37.6152 78.8089 37.3699C78.7022 37.1139 78.6275 36.9485 78.5849 36.8739L76.7129 33.8019C76.6382 33.6739 76.5209 33.4979 76.3609 33.2739C76.2009 33.0392 76.0249 32.8205 75.8329 32.6179C75.6515 32.4152 75.4702 32.2872 75.2889 32.2339C75.1182 32.1805 74.9849 32.1272 74.8889 32.0739C74.8035 32.0205 74.7609 31.9565 74.7609 31.8819C74.7609 31.8179 74.8035 31.7752 74.8889 31.7539C74.9742 31.7219 75.0862 31.7059 75.2249 31.7059C75.4702 31.7059 75.7529 31.7165 76.0729 31.7379C76.3929 31.7485 76.7342 31.7539 77.0969 31.7539C77.3422 31.7539 77.5715 31.7485 77.7849 31.7379C78.0089 31.7272 78.2062 31.7219 78.3769 31.7219C78.5155 31.7219 78.6275 31.7379 78.7129 31.7699C78.7982 31.7912 78.8409 31.8339 78.8409 31.8979C78.8409 31.9725 78.7982 32.0365 78.7129 32.0899C78.6275 32.1325 78.4942 32.1752 78.3129 32.2179C78.1635 32.2605 78.0409 32.3085 77.9449 32.3619C77.8489 32.4152 77.8009 32.5005 77.8009 32.6179C77.8009 32.7565 77.8702 32.9485 78.0089 33.1939L79.4809 35.9139C79.6942 36.3192 79.8435 36.5219 79.9289 36.5219C79.9929 36.5219 80.0622 36.4792 80.1369 36.3939C80.2115 36.2979 80.3182 36.1379 80.4569 35.9139C80.7022 35.5405 80.9209 35.1832 81.1129 34.8419C81.3049 34.5005 81.5342 34.0899 81.8009 33.6099C81.9075 33.4285 81.9822 33.2739 82.0249 33.1459C82.0675 33.0072 82.0889 32.8899 82.0889 32.7939C82.0889 32.5912 82.0142 32.4525 81.8649 32.3779C81.7262 32.3032 81.5822 32.2552 81.4329 32.2339C81.3262 32.2125 81.2089 32.1752 81.0809 32.1219C80.9635 32.0579 80.9049 31.9885 80.9049 31.9139C80.9049 31.8499 80.9475 31.8072 81.0329 31.7859C81.1182 31.7539 81.2302 31.7379 81.3689 31.7379C81.6142 31.7379 81.8169 31.7432 81.9769 31.7539C82.1369 31.7539 82.3342 31.7539 82.5689 31.7539C82.8995 31.7539 83.2142 31.7485 83.5129 31.7379C83.8115 31.7165 84.0515 31.7059 84.2329 31.7059C84.3715 31.7059 84.4835 31.7219 84.5689 31.7539C84.6542 31.7752 84.6969 31.8179 84.6969 31.8819C84.6969 31.9565 84.6115 32.0259 84.4409 32.0899C84.2702 32.1539 84.0729 32.2179 83.8489 32.2819C83.5715 32.3565 83.3369 32.5112 83.1449 32.7459C82.9635 32.9699 82.7289 33.3005 82.4409 33.7379C82.2275 34.0685 82.0462 34.3459 81.8969 34.5699C81.7582 34.7939 81.6249 35.0019 81.4969 35.1939C81.3795 35.3859 81.2569 35.5885 81.1289 35.8019C81.0009 36.0045 80.8462 36.2552 80.6649 36.5539C80.5262 36.7779 80.4302 36.9592 80.3769 37.0979C80.3235 37.2365 80.2915 37.3699 80.2809 37.4979C80.2702 37.6152 80.2649 37.7805 80.2649 37.9939V40.4259C80.2649 40.7885 80.3769 41.0872 80.6009 41.3219C80.8249 41.5459 81.1342 41.6952 81.5289 41.7699C81.7102 41.8019 81.8435 41.8392 81.9289 41.8819C82.0142 41.9245 82.0569 41.9832 82.0569 42.0579C82.0569 42.1219 82.0142 42.1645 81.9289 42.1859C81.8435 42.2179 81.7315 42.2339 81.5929 42.2339C81.3049 42.2339 81.0649 42.2232 80.8729 42.2019C80.6915 42.1912 80.5155 42.1805 80.3449 42.1699C80.1742 42.1592 79.9662 42.1539 79.7209 42.1539C79.4542 42.1539 79.2195 42.1592 79.0169 42.1699C78.8249 42.1805 78.6222 42.1912 78.4089 42.2019C78.2062 42.2232 77.9609 42.2339 77.6729 42.2339ZM89.7304 42.3779C89.0264 42.3779 88.3544 42.2552 87.7144 42.0099C87.0744 41.7539 86.509 41.3965 86.0184 40.9379C85.5277 40.4685 85.1384 39.9139 84.8504 39.2739C84.5624 38.6232 84.4184 37.9032 84.4184 37.1139C84.4184 36.3885 84.5357 35.6952 84.7704 35.0339C85.005 34.3619 85.3517 33.7645 85.8104 33.2419C86.269 32.7192 86.8397 32.3032 87.5224 31.9939C88.205 31.6845 88.989 31.5299 89.8744 31.5299C90.5784 31.5299 91.2504 31.6579 91.8904 31.9139C92.5304 32.1592 93.0957 32.5165 93.5864 32.9859C94.077 33.4445 94.4664 33.9992 94.7544 34.6499C95.0424 35.2899 95.1864 36.0045 95.1864 36.7939C95.1864 37.5085 95.069 38.2019 94.8344 38.8739C94.5997 39.5459 94.253 40.1432 93.7944 40.6659C93.3357 41.1885 92.765 41.6045 92.0824 41.9139C91.3997 42.2232 90.6157 42.3779 89.7304 42.3779ZM89.9704 41.7379C90.7917 41.7379 91.4744 41.5672 92.0184 41.2259C92.5624 40.8739 92.9677 40.3885 93.2344 39.7699C93.5117 39.1405 93.6504 38.4099 93.6504 37.5779C93.6504 36.8419 93.565 36.1485 93.3944 35.4979C93.2237 34.8472 92.9677 34.2765 92.6264 33.7859C92.2957 33.2845 91.8797 32.8952 91.3784 32.6179C90.877 32.3405 90.2904 32.2019 89.6184 32.2019C88.8184 32.2019 88.1464 32.3725 87.6024 32.7139C87.0584 33.0552 86.6477 33.5352 86.3704 34.1539C86.093 34.7619 85.9544 35.4819 85.9544 36.3139C85.9544 37.0605 86.0344 37.7592 86.1944 38.4099C86.365 39.0605 86.6157 39.6365 86.9464 40.1379C87.2877 40.6392 87.709 41.0339 88.2104 41.3219C88.7117 41.5992 89.2984 41.7379 89.9704 41.7379Z" fill="white"/>
</svg>
