<svg width="80" height="80" viewBox="0 0 80 80" fill="none" xmlns="http://www.w3.org/2000/svg">
<path d="M8.10609 42.2339C7.96743 42.2339 7.85543 42.2179 7.77009 42.1859C7.68476 42.1645 7.64209 42.1219 7.64209 42.0579C7.64209 41.9832 7.68476 41.9245 7.77009 41.8819C7.85543 41.8392 7.98876 41.8019 8.17009 41.7699C8.57543 41.6952 8.88476 41.5512 9.09809 41.3379C9.31143 41.1139 9.41809 40.8099 9.41809 40.4259V38.0579C9.41809 37.8445 9.35943 37.6152 9.24209 37.3699C9.13543 37.1139 9.06076 36.9485 9.01809 36.8739L7.14609 33.8019C7.07143 33.6739 6.95409 33.4979 6.79409 33.2739C6.63409 33.0392 6.45809 32.8205 6.26609 32.6179C6.08476 32.4152 5.90343 32.2872 5.72209 32.2339C5.55143 32.1805 5.41809 32.1272 5.32209 32.0739C5.23676 32.0205 5.19409 31.9565 5.19409 31.8819C5.19409 31.8179 5.23676 31.7752 5.32209 31.7539C5.40743 31.7219 5.51943 31.7059 5.65809 31.7059C5.90343 31.7059 6.18609 31.7165 6.50609 31.7379C6.82609 31.7485 7.16743 31.7539 7.53009 31.7539C7.77543 31.7539 8.00476 31.7485 8.21809 31.7379C8.44209 31.7272 8.63943 31.7219 8.81009 31.7219C8.94876 31.7219 9.06076 31.7379 9.14609 31.7699C9.23143 31.7912 9.27409 31.8339 9.27409 31.8979C9.27409 31.9725 9.23143 32.0365 9.14609 32.0899C9.06076 32.1325 8.92743 32.1752 8.74609 32.2179C8.59676 32.2605 8.47409 32.3085 8.37809 32.3619C8.28209 32.4152 8.23409 32.5005 8.23409 32.6179C8.23409 32.7565 8.30343 32.9485 8.44209 33.1939L9.91409 35.9139C10.1274 36.3192 10.2768 36.5219 10.3621 36.5219C10.4261 36.5219 10.4954 36.4792 10.5701 36.3939C10.6448 36.2979 10.7514 36.1379 10.8901 35.9139C11.1354 35.5405 11.3541 35.1832 11.5461 34.8419C11.7381 34.5005 11.9674 34.0899 12.2341 33.6099C12.3408 33.4285 12.4154 33.2739 12.4581 33.1459C12.5008 33.0072 12.5221 32.8899 12.5221 32.7939C12.5221 32.5912 12.4474 32.4525 12.2981 32.3779C12.1594 32.3032 12.0154 32.2552 11.8661 32.2339C11.7594 32.2125 11.6421 32.1752 11.5141 32.1219C11.3968 32.0579 11.3381 31.9885 11.3381 31.9139C11.3381 31.8499 11.3808 31.8072 11.4661 31.7859C11.5514 31.7539 11.6634 31.7379 11.8021 31.7379C12.0474 31.7379 12.2501 31.7432 12.4101 31.7539C12.5701 31.7539 12.7674 31.7539 13.0021 31.7539C13.3328 31.7539 13.6474 31.7485 13.9461 31.7379C14.2448 31.7165 14.4848 31.7059 14.6661 31.7059C14.8048 31.7059 14.9168 31.7219 15.0021 31.7539C15.0874 31.7752 15.1301 31.8179 15.1301 31.8819C15.1301 31.9565 15.0448 32.0259 14.8741 32.0899C14.7034 32.1539 14.5061 32.2179 14.2821 32.2819C14.0048 32.3565 13.7701 32.5112 13.5781 32.7459C13.3968 32.9699 13.1621 33.3005 12.8741 33.7379C12.6608 34.0685 12.4794 34.3459 12.3301 34.5699C12.1914 34.7939 12.0581 35.0019 11.9301 35.1939C11.8128 35.3859 11.6901 35.5885 11.5621 35.8019C11.4341 36.0045 11.2794 36.2552 11.0981 36.5539C10.9594 36.7779 10.8634 36.9592 10.8101 37.0979C10.7568 37.2365 10.7248 37.3699 10.7141 37.4979C10.7034 37.6152 10.6981 37.7805 10.6981 37.9939V40.4259C10.6981 40.7885 10.8101 41.0872 11.0341 41.3219C11.2581 41.5459 11.5674 41.6952 11.9621 41.7699C12.1434 41.8019 12.2768 41.8392 12.3621 41.8819C12.4474 41.9245 12.4901 41.9832 12.4901 42.0579C12.4901 42.1219 12.4474 42.1645 12.3621 42.1859C12.2768 42.2179 12.1648 42.2339 12.0261 42.2339C11.7381 42.2339 11.4981 42.2232 11.3061 42.2019C11.1248 42.1912 10.9488 42.1805 10.7781 42.1699C10.6074 42.1592 10.3994 42.1539 10.1541 42.1539C9.88743 42.1539 9.65276 42.1592 9.45009 42.1699C9.25809 42.1805 9.05543 42.1912 8.84209 42.2019C8.63943 42.2232 8.39409 42.2339 8.10609 42.2339ZM20.3961 42.3779C19.4468 42.3779 18.6521 42.2125 18.0121 41.8819C17.3721 41.5405 16.8921 41.0659 16.5721 40.4579C16.2521 39.8392 16.0921 39.1245 16.0921 38.3139V33.4019C16.0921 33.0179 16.0121 32.7405 15.8521 32.5699C15.7028 32.3885 15.5374 32.2765 15.3561 32.2339C15.0041 32.1379 14.8281 32.0205 14.8281 31.8819C14.8281 31.8179 14.8708 31.7752 14.9561 31.7539C15.0414 31.7219 15.1534 31.7059 15.2921 31.7059C15.5374 31.7059 15.7774 31.7165 16.0121 31.7379C16.2574 31.7485 16.5294 31.7539 16.8281 31.7539C17.0734 31.7539 17.3028 31.7485 17.5161 31.7379C17.7401 31.7272 17.9374 31.7219 18.1081 31.7219C18.2468 31.7219 18.3588 31.7379 18.4441 31.7699C18.5294 31.7912 18.5721 31.8339 18.5721 31.8979C18.5721 31.9725 18.5294 32.0312 18.4441 32.0739C18.3588 32.1165 18.2254 32.1645 18.0441 32.2179C17.9161 32.2605 17.7721 32.3832 17.6121 32.5859C17.4521 32.7885 17.3721 33.0499 17.3721 33.3699V37.8659C17.3721 38.7192 17.5161 39.4232 17.8041 39.9779C18.0921 40.5219 18.4868 40.9272 18.9881 41.1939C19.5001 41.4499 20.0814 41.5779 20.7321 41.5779C21.8308 41.5779 22.6361 41.1992 23.1481 40.4419C23.6601 39.6739 23.9161 38.6659 23.9161 37.4179C23.9161 37.1832 23.9108 36.8739 23.9001 36.4899C23.9001 36.1059 23.8948 35.6952 23.8841 35.2579C23.8734 34.8099 23.8628 34.3832 23.8521 33.9779C23.8521 33.7005 23.8254 33.4392 23.7721 33.1939C23.7294 32.9485 23.6601 32.7405 23.5641 32.5699C23.4681 32.3885 23.3454 32.2765 23.1961 32.2339C23.0894 32.2019 22.9721 32.1592 22.8441 32.1059C22.7268 32.0525 22.6681 31.9885 22.6681 31.9139C22.6681 31.8499 22.7108 31.8072 22.7961 31.7859C22.8814 31.7539 22.9934 31.7379 23.1321 31.7379C23.3774 31.7379 23.5801 31.7432 23.7401 31.7539C23.9001 31.7539 24.0974 31.7539 24.3321 31.7539C24.5028 31.7539 24.6628 31.7539 24.8121 31.7539C24.9614 31.7432 25.1054 31.7325 25.2441 31.7219C25.3828 31.7112 25.5108 31.7059 25.6281 31.7059C25.7668 31.7059 25.8788 31.7219 25.9641 31.7539C26.0494 31.7752 26.0921 31.8179 26.0921 31.8819C26.0921 32.0205 25.9161 32.1272 25.5641 32.2019C25.2868 32.2552 25.0894 32.3885 24.9721 32.6019C24.8548 32.8152 24.7854 33.0819 24.7641 33.4019C24.7108 34.3192 24.6734 35.1565 24.6521 35.9139C24.6414 36.6712 24.6254 37.4179 24.6041 38.1539C24.5828 38.9752 24.3854 39.7059 24.0121 40.3459C23.6388 40.9859 23.1374 41.4872 22.5081 41.8499C21.8894 42.2019 21.1854 42.3779 20.3961 42.3779ZM27.2166 42.2339C27.0779 42.2339 26.9659 42.2179 26.8806 42.1859C26.7953 42.1645 26.7526 42.1219 26.7526 42.0579C26.7526 41.9299 26.9286 41.8339 27.2806 41.7699C27.6859 41.6952 27.9633 41.5725 28.1126 41.4019C28.2726 41.2205 28.3526 40.9325 28.3526 40.5379V33.3379C28.3526 32.9645 28.2726 32.7032 28.1126 32.5539C27.9633 32.3939 27.6859 32.2765 27.2806 32.2019C26.9286 32.1379 26.7526 32.0312 26.7526 31.8819C26.7526 31.8179 26.7953 31.7752 26.8806 31.7539C26.9659 31.7219 27.0779 31.7059 27.2166 31.7059C27.5046 31.7059 27.7339 31.7112 27.9046 31.7219C28.0859 31.7219 28.2566 31.7272 28.4166 31.7379C28.5766 31.7379 28.7739 31.7379 29.0086 31.7379C29.2113 31.7379 29.3713 31.7379 29.4886 31.7379C29.6166 31.7272 29.7553 31.7219 29.9046 31.7219C30.0539 31.7112 30.2726 31.7059 30.5606 31.7059C30.6993 31.7059 30.8113 31.7219 30.8966 31.7539C30.9819 31.7752 31.0246 31.8179 31.0246 31.8819C31.0246 31.9565 30.9819 32.0205 30.8966 32.0739C30.8113 32.1272 30.6779 32.1699 30.4966 32.2019C30.1019 32.2765 29.8566 32.4099 29.7606 32.6019C29.6753 32.7832 29.6326 33.0285 29.6326 33.3379V36.3299C29.6326 36.3725 29.6326 36.4365 29.6326 36.5219C29.6433 36.5965 29.6699 36.6339 29.7126 36.6339C29.7659 36.6339 29.8353 36.6019 29.9206 36.5379C30.0166 36.4739 30.0913 36.4099 30.1446 36.3459L33.3446 33.0819C33.4299 32.9965 33.4886 32.9165 33.5206 32.8419C33.5633 32.7565 33.5846 32.6765 33.5846 32.6019C33.5846 32.4099 33.4833 32.2872 33.2806 32.2339C33.0993 32.1805 32.9713 32.1325 32.8966 32.0899C32.8219 32.0472 32.7846 31.9885 32.7846 31.9139C32.7846 31.8499 32.8273 31.8072 32.9126 31.7859C32.9979 31.7539 33.1099 31.7379 33.2486 31.7379H34.1126C34.4219 31.7379 34.7633 31.7325 35.1366 31.7219C35.5099 31.7112 35.8459 31.7005 36.1446 31.6899C36.4539 31.6792 36.6406 31.6739 36.7046 31.6739C36.8113 31.6739 36.8966 31.6899 36.9606 31.7219C37.0246 31.7539 37.0566 31.7965 37.0566 31.8499C37.0566 31.9245 37.0139 31.9885 36.9286 32.0419C36.8433 32.0952 36.7099 32.1379 36.5286 32.1699C36.1339 32.2445 35.7233 32.3619 35.2966 32.5219C34.8699 32.6819 34.4699 32.9165 34.0966 33.2259C33.7126 33.5459 33.3553 33.8605 33.0246 34.1699C32.7046 34.4685 32.3846 34.7832 32.0646 35.1139C31.7446 35.4339 31.3979 35.8019 31.0246 36.2179C30.9606 36.2819 30.9873 36.3779 31.1046 36.5059L34.9766 40.6339C35.2113 40.8899 35.3979 41.0872 35.5366 41.2259C35.6859 41.3645 35.8459 41.4765 36.0166 41.5619C36.1979 41.6365 36.4379 41.7059 36.7366 41.7699C36.9179 41.8125 37.0513 41.8552 37.1366 41.8979C37.2219 41.9299 37.2646 41.9832 37.2646 42.0579C37.2646 42.1219 37.2219 42.1645 37.1366 42.1859C37.0513 42.2179 36.9393 42.2339 36.8006 42.2339C36.4913 42.2339 36.2246 42.2232 36.0006 42.2019C35.7766 42.1912 35.5579 42.1805 35.3446 42.1699C35.1313 42.1592 34.8753 42.1539 34.5766 42.1539C34.3739 42.1539 34.1979 42.1539 34.0486 42.1539C33.8993 42.1645 33.6433 42.1699 33.2806 42.1699C33.1419 42.1699 33.0299 42.1592 32.9446 42.1379C32.8593 42.1059 32.8166 42.0579 32.8166 41.9939C32.8166 41.8765 32.9606 41.7859 33.2486 41.7219C33.5473 41.6472 33.6966 41.5405 33.6966 41.4019C33.6966 41.3379 33.6699 41.2739 33.6166 41.2099C33.5739 41.1459 33.5206 41.0765 33.4566 41.0019L30.0646 37.2579C30.0006 37.1939 29.9313 37.1352 29.8566 37.0819C29.7926 37.0179 29.7393 36.9859 29.6966 36.9859C29.6539 36.9859 29.6326 37.0285 29.6326 37.1139C29.6326 37.1992 29.6326 37.2685 29.6326 37.3219C29.6326 37.8232 29.6379 38.3032 29.6486 38.7619C29.6699 39.2099 29.6913 39.7539 29.7126 40.3939C29.7233 40.6179 29.7553 40.8259 29.8086 41.0179C29.8726 41.2099 29.9739 41.3699 30.1126 41.4979C30.2619 41.6259 30.4699 41.7165 30.7366 41.7699C30.9179 41.8019 31.0513 41.8392 31.1366 41.8819C31.2219 41.9245 31.2646 41.9832 31.2646 42.0579C31.2646 42.1219 31.2219 42.1645 31.1366 42.1859C31.0513 42.2179 30.9393 42.2339 30.8006 42.2339C30.5126 42.2339 30.2886 42.2232 30.1286 42.2019C29.9793 42.1805 29.8406 42.1645 29.7126 42.1539C29.5953 42.1325 29.4353 42.1219 29.2326 42.1219C28.9766 42.1219 28.7473 42.1325 28.5446 42.1539C28.3526 42.1645 28.1553 42.1805 27.9526 42.2019C27.7499 42.2232 27.5046 42.2339 27.2166 42.2339ZM43.1792 42.3779C42.4752 42.3779 41.8032 42.2552 41.1632 42.0099C40.5232 41.7539 39.9579 41.3965 39.4672 40.9379C38.9766 40.4685 38.5872 39.9139 38.2992 39.2739C38.0112 38.6232 37.8672 37.9032 37.8672 37.1139C37.8672 36.3885 37.9846 35.6952 38.2192 35.0339C38.4539 34.3619 38.8006 33.7645 39.2592 33.2419C39.7179 32.7192 40.2886 32.3032 40.9712 31.9939C41.6539 31.6845 42.4379 31.5299 43.3232 31.5299C44.0272 31.5299 44.6992 31.6579 45.3392 31.9139C45.9792 32.1592 46.5446 32.5165 47.0352 32.9859C47.5259 33.4445 47.9152 33.9992 48.2032 34.6499C48.4912 35.2899 48.6352 36.0045 48.6352 36.7939C48.6352 37.5085 48.5179 38.2019 48.2832 38.8739C48.0486 39.5459 47.7019 40.1432 47.2432 40.6659C46.7846 41.1885 46.2139 41.6045 45.5312 41.9139C44.8486 42.2232 44.0646 42.3779 43.1792 42.3779ZM43.4192 41.7379C44.2406 41.7379 44.9232 41.5672 45.4672 41.2259C46.0112 40.8739 46.4166 40.3885 46.6832 39.7699C46.9606 39.1405 47.0992 38.4099 47.0992 37.5779C47.0992 36.8419 47.0139 36.1485 46.8432 35.4979C46.6726 34.8472 46.4166 34.2765 46.0752 33.7859C45.7446 33.2845 45.3286 32.8952 44.8272 32.6179C44.3259 32.3405 43.7392 32.2019 43.0672 32.2019C42.2672 32.2019 41.5952 32.3725 41.0512 32.7139C40.5072 33.0552 40.0966 33.5352 39.8192 34.1539C39.5419 34.7619 39.4032 35.4819 39.4032 36.3139C39.4032 37.0605 39.4832 37.7592 39.6432 38.4099C39.8139 39.0605 40.0646 39.6365 40.3952 40.1379C40.7366 40.6392 41.1579 41.0339 41.6592 41.3219C42.1606 41.5992 42.7472 41.7379 43.4192 41.7379ZM59.5423 42.4899C59.2437 42.4899 58.961 42.4632 58.6943 42.4099C58.4277 42.3672 58.1823 42.2819 57.9583 42.1539C57.7343 42.0259 57.5263 41.8499 57.3343 41.6259C57.0783 41.3059 56.833 41.0019 56.5983 40.7139C56.3637 40.4152 56.113 40.0739 55.8463 39.6899C55.5903 39.3059 55.2757 38.8152 54.9023 38.2179C54.7423 37.9512 54.513 37.7432 54.2143 37.5939C53.9797 37.4765 53.745 37.3965 53.5103 37.3539C53.2863 37.3005 53.0997 37.2685 52.9503 37.2579C52.865 37.2472 52.801 37.2739 52.7583 37.3379C52.7263 37.4019 52.7103 37.4819 52.7103 37.5779V40.3939C52.7103 40.7352 52.7903 41.0339 52.9503 41.2899C53.1103 41.5352 53.3877 41.6952 53.7823 41.7699C53.9637 41.8019 54.097 41.8392 54.1823 41.8819C54.2677 41.9245 54.3103 41.9832 54.3103 42.0579C54.3103 42.1219 54.2677 42.1645 54.1823 42.1859C54.097 42.2179 53.985 42.2339 53.8463 42.2339C53.5583 42.2339 53.3343 42.2232 53.1743 42.2019C53.025 42.1805 52.8863 42.1645 52.7583 42.1539C52.641 42.1325 52.481 42.1219 52.2783 42.1219C52.0117 42.1219 51.7717 42.1325 51.5583 42.1539C51.3557 42.1645 51.1477 42.1805 50.9343 42.2019C50.7317 42.2232 50.4863 42.2339 50.1983 42.2339C50.0597 42.2339 49.9477 42.2179 49.8623 42.1859C49.777 42.1645 49.7343 42.1219 49.7343 42.0579C49.7343 41.9299 49.9103 41.8339 50.2623 41.7699C50.6677 41.6952 50.961 41.5725 51.1423 41.4019C51.3343 41.2312 51.4303 40.9485 51.4303 40.5539V33.7379C51.4303 33.3325 51.409 33.0285 51.3663 32.8259C51.3343 32.6125 51.249 32.4632 51.1103 32.3779C50.9823 32.2925 50.7637 32.2339 50.4543 32.2019C50.273 32.1805 50.1397 32.1432 50.0543 32.0899C49.969 32.0259 49.9263 31.9565 49.9263 31.8819C49.9263 31.8179 49.969 31.7752 50.0543 31.7539C50.1397 31.7219 50.2517 31.7059 50.3903 31.7059C50.6783 31.7059 50.8917 31.7059 51.0303 31.7059C51.1797 31.7059 51.3183 31.7112 51.4463 31.7219C51.5743 31.7219 51.745 31.7219 51.9583 31.7219C52.161 31.7219 52.3423 31.7165 52.5023 31.7059C52.6623 31.6845 52.8383 31.6685 53.0303 31.6579C53.233 31.6472 53.489 31.6419 53.7983 31.6419C54.9717 31.6419 55.8623 31.8605 56.4703 32.2979C57.089 32.7352 57.3983 33.3912 57.3983 34.2659C57.3983 34.7459 57.3023 35.1619 57.1103 35.5139C56.9183 35.8552 56.6783 36.1432 56.3903 36.3779C56.1023 36.6125 55.809 36.8045 55.5103 36.9539C55.4677 36.9645 55.4463 36.9912 55.4463 37.0339C55.457 37.0659 55.4783 37.1085 55.5103 37.1619C55.841 37.6632 56.1557 38.1379 56.4543 38.5859C56.7637 39.0339 57.0997 39.4712 57.4623 39.8979C57.825 40.3245 58.257 40.7672 58.7583 41.2259C59.0357 41.4712 59.3183 41.6205 59.6063 41.6739C59.8943 41.7272 60.225 41.7539 60.5983 41.7539C60.7583 41.7539 60.8383 41.8125 60.8383 41.9299C60.8383 42.0899 60.7583 42.2072 60.5983 42.2819C60.4383 42.3672 60.257 42.4205 60.0543 42.4419C59.8517 42.4739 59.681 42.4899 59.5423 42.4899ZM53.5583 36.8899C54.049 36.8899 54.4703 36.7779 54.8223 36.5539C55.185 36.3299 55.4623 36.0365 55.6543 35.6739C55.857 35.3112 55.9583 34.9272 55.9583 34.5219C55.9583 34.0845 55.8997 33.6845 55.7823 33.3219C55.6757 32.9592 55.4517 32.6712 55.1103 32.4579C54.7797 32.2339 54.2783 32.1219 53.6063 32.1219C53.265 32.1219 53.041 32.2339 52.9343 32.4579C52.8277 32.6712 52.7637 33.0552 52.7423 33.6099C52.7317 33.8765 52.721 34.2392 52.7103 34.6979C52.7103 35.1459 52.7103 35.6899 52.7103 36.3299C52.7103 36.5965 52.785 36.7565 52.9343 36.8099C53.0837 36.8632 53.2917 36.8899 53.5583 36.8899ZM66.7886 42.3779C66.0846 42.3779 65.4126 42.2552 64.7726 42.0099C64.1326 41.7539 63.5673 41.3965 63.0766 40.9379C62.5859 40.4685 62.1966 39.9139 61.9086 39.2739C61.6206 38.6232 61.4766 37.9032 61.4766 37.1139C61.4766 36.3885 61.5939 35.6952 61.8286 35.0339C62.0633 34.3619 62.4099 33.7645 62.8686 33.2419C63.3273 32.7192 63.8979 32.3032 64.5806 31.9939C65.2633 31.6845 66.0473 31.5299 66.9326 31.5299C67.6366 31.5299 68.3086 31.6579 68.9486 31.9139C69.5886 32.1592 70.1539 32.5165 70.6446 32.9859C71.1353 33.4445 71.5246 33.9992 71.8126 34.6499C72.1006 35.2899 72.2446 36.0045 72.2446 36.7939C72.2446 37.5085 72.1273 38.2019 71.8926 38.8739C71.6579 39.5459 71.3113 40.1432 70.8526 40.6659C70.3939 41.1885 69.8233 41.6045 69.1406 41.9139C68.4579 42.2232 67.6739 42.3779 66.7886 42.3779ZM67.0286 41.7379C67.8499 41.7379 68.5326 41.5672 69.0766 41.2259C69.6206 40.8739 70.0259 40.3885 70.2926 39.7699C70.5699 39.1405 70.7086 38.4099 70.7086 37.5779C70.7086 36.8419 70.6233 36.1485 70.4526 35.4979C70.2819 34.8472 70.0259 34.2765 69.6846 33.7859C69.3539 33.2845 68.9379 32.8952 68.4366 32.6179C67.9353 32.3405 67.3486 32.2019 66.6766 32.2019C65.8766 32.2019 65.2046 32.3725 64.6606 32.7139C64.1166 33.0552 63.7059 33.5352 63.4286 34.1539C63.1513 34.7619 63.0126 35.4819 63.0126 36.3139C63.0126 37.0605 63.0926 37.7592 63.2526 38.4099C63.4233 39.0605 63.6739 39.6365 64.0046 40.1379C64.3459 40.6392 64.7673 41.0339 65.2686 41.3219C65.7699 41.5992 66.3566 41.7379 67.0286 41.7379Z" fill="white"/>
</svg>
