<svg width="149" height="64" viewBox="0 0 149 64" fill="none" xmlns="http://www.w3.org/2000/svg">
<path d="M29.793 38.9871C29.6821 38.9871 29.5925 38.9743 29.5242 38.9487C29.4559 38.9316 29.4218 38.8975 29.4218 38.8463C29.4218 38.7439 29.5626 38.6671 29.8442 38.6159C30.1685 38.5562 30.3903 38.458 30.5098 38.3215C30.6378 38.1764 30.7018 37.946 30.7018 37.6303V31.8703C30.7018 31.5716 30.6378 31.3626 30.5098 31.2431C30.3903 31.1151 30.1685 31.0212 29.8442 30.9615C29.5626 30.9103 29.4218 30.825 29.4218 30.7055C29.4218 30.6543 29.4559 30.6202 29.5242 30.6031C29.5925 30.5775 29.6821 30.5647 29.793 30.5647C30.0234 30.5647 30.2069 30.569 30.3434 30.5775C30.4885 30.5775 30.625 30.5818 30.753 30.5903C30.881 30.5903 31.0389 30.5903 31.2266 30.5903C31.3887 30.5903 31.5167 30.5903 31.6106 30.5903C31.713 30.5818 31.8239 30.5775 31.9434 30.5775C32.0629 30.569 32.2378 30.5647 32.4682 30.5647C32.5791 30.5647 32.6687 30.5775 32.737 30.6031C32.8053 30.6202 32.8394 30.6543 32.8394 30.7055C32.8394 30.7652 32.8053 30.8164 32.737 30.8591C32.6687 30.9018 32.5621 30.9359 32.417 30.9615C32.1013 31.0212 31.905 31.1279 31.8282 31.2815C31.7599 31.4266 31.7258 31.6228 31.7258 31.8703V34.2639C31.7258 34.298 31.7258 34.3492 31.7258 34.4175C31.7343 34.4772 31.7557 34.5071 31.7898 34.5071C31.8325 34.5071 31.8879 34.4815 31.9562 34.4303C32.033 34.3791 32.0927 34.3279 32.1354 34.2767L34.6954 31.6655C34.7637 31.5972 34.8106 31.5332 34.8362 31.4735C34.8703 31.4052 34.8874 31.3412 34.8874 31.2815C34.8874 31.1279 34.8063 31.0298 34.6442 30.9871C34.4991 30.9444 34.3967 30.906 34.337 30.8719C34.2773 30.8378 34.2474 30.7908 34.2474 30.7311C34.2474 30.6799 34.2815 30.6458 34.3498 30.6287C34.4181 30.6031 34.5077 30.5903 34.6186 30.5903H35.3098C35.5573 30.5903 35.8303 30.586 36.129 30.5775C36.4277 30.569 36.6965 30.5604 36.9354 30.5519C37.1829 30.5434 37.3322 30.5391 37.3834 30.5391C37.4687 30.5391 37.537 30.5519 37.5882 30.5775C37.6394 30.6031 37.665 30.6372 37.665 30.6799C37.665 30.7396 37.6309 30.7908 37.5626 30.8335C37.4943 30.8762 37.3877 30.9103 37.2426 30.9359C36.9269 30.9956 36.5983 31.0895 36.257 31.2175C35.9157 31.3455 35.5957 31.5332 35.297 31.7807C34.9898 32.0367 34.7039 32.2884 34.4394 32.5359C34.1834 32.7748 33.9274 33.0266 33.6714 33.2911C33.4154 33.5471 33.1381 33.8415 32.8394 34.1743C32.7882 34.2255 32.8095 34.3023 32.9034 34.4047L36.001 37.7071C36.1887 37.9119 36.3381 38.0698 36.449 38.1807C36.5685 38.2916 36.6965 38.3812 36.833 38.4495C36.9781 38.5092 37.1701 38.5647 37.409 38.6159C37.5541 38.65 37.6607 38.6842 37.729 38.7183C37.7973 38.7439 37.8314 38.7866 37.8314 38.8463C37.8314 38.8975 37.7973 38.9316 37.729 38.9487C37.6607 38.9743 37.5711 38.9871 37.4602 38.9871C37.2127 38.9871 36.9994 38.9786 36.8202 38.9615C36.641 38.953 36.4661 38.9444 36.2954 38.9359C36.1247 38.9274 35.9199 38.9231 35.681 38.9231C35.5189 38.9231 35.3781 38.9231 35.2586 38.9231C35.1391 38.9316 34.9343 38.9359 34.6442 38.9359C34.5333 38.9359 34.4437 38.9274 34.3754 38.9103C34.3071 38.8847 34.273 38.8463 34.273 38.7951C34.273 38.7012 34.3882 38.6287 34.6186 38.5775C34.8575 38.5178 34.977 38.4324 34.977 38.3215C34.977 38.2703 34.9557 38.2191 34.913 38.1679C34.8789 38.1167 34.8362 38.0612 34.785 38.0015L32.0714 35.0063C32.0202 34.9551 31.9647 34.9082 31.905 34.8655C31.8538 34.8143 31.8111 34.7887 31.777 34.7887C31.7429 34.7887 31.7258 34.8228 31.7258 34.8911C31.7258 34.9594 31.7258 35.0148 31.7258 35.0575C31.7258 35.4586 31.7301 35.8426 31.7386 36.2095C31.7557 36.5679 31.7727 37.0031 31.7898 37.5151C31.7983 37.6943 31.8239 37.8607 31.8666 38.0143C31.9178 38.1679 31.9989 38.2959 32.1098 38.3983C32.2293 38.5007 32.3957 38.5732 32.609 38.6159C32.7541 38.6415 32.8607 38.6714 32.929 38.7055C32.9973 38.7396 33.0314 38.7866 33.0314 38.8463C33.0314 38.8975 32.9973 38.9316 32.929 38.9487C32.8607 38.9743 32.7711 38.9871 32.6602 38.9871C32.4298 38.9871 32.2506 38.9786 32.1226 38.9615C32.0031 38.9444 31.8922 38.9316 31.7898 38.9231C31.6959 38.906 31.5679 38.8975 31.4058 38.8975C31.201 38.8975 31.0175 38.906 30.8554 38.9231C30.7018 38.9316 30.5439 38.9444 30.3818 38.9615C30.2197 38.9786 30.0234 38.9871 29.793 38.9871ZM38.0831 38.9871C37.9722 38.9871 37.8826 38.97 37.8143 38.9359C37.746 38.9103 37.7119 38.8719 37.7119 38.8207C37.7119 38.761 37.746 38.7098 37.8143 38.6671C37.8911 38.6159 37.9978 38.569 38.1343 38.5263C38.3562 38.458 38.561 38.3556 38.7487 38.2191C38.9364 38.0826 39.0986 37.8564 39.2351 37.5407C39.474 36.9946 39.6916 36.4826 39.8879 36.0047C40.0927 35.5268 40.2847 35.0575 40.4639 34.5967C40.6431 34.1359 40.8266 33.658 41.0143 33.1631C41.2106 32.6596 41.4154 32.1135 41.6287 31.5247C41.6714 31.4052 41.7098 31.2858 41.7439 31.1663C41.778 31.0468 41.7994 30.9188 41.8079 30.7823C41.8847 30.7567 41.9615 30.7311 42.0383 30.7055C42.1151 30.6799 42.1919 30.6415 42.2687 30.5903C42.3455 30.5391 42.3967 30.4623 42.4223 30.3599C42.4564 30.2575 42.4863 30.1892 42.5119 30.1551C42.5204 30.1466 42.529 30.1423 42.5375 30.1423C42.5546 30.1423 42.5674 30.1508 42.5759 30.1679C42.593 30.202 42.6058 30.2447 42.6143 30.2959C42.6314 30.3471 42.6484 30.3983 42.6655 30.4495C42.8703 31.098 43.0836 31.7594 43.3055 32.4335C43.5274 33.1076 43.7407 33.7604 43.9455 34.3919C44.1588 35.0148 44.3508 35.578 44.5215 36.0815C44.7007 36.5764 44.8415 36.9775 44.9439 37.2847C45.0634 37.626 45.1914 37.882 45.3279 38.0527C45.4644 38.2234 45.6052 38.3428 45.7503 38.4111C45.9039 38.4794 46.066 38.5306 46.2367 38.5647C46.3818 38.5903 46.4884 38.633 46.5567 38.6927C46.625 38.7439 46.6591 38.7994 46.6591 38.8591C46.6591 38.9103 46.625 38.9444 46.5567 38.9615C46.4884 38.9786 46.3988 38.9871 46.2879 38.9871C46.1684 38.9871 46.0063 38.9786 45.8015 38.9615C45.5967 38.953 45.3791 38.9402 45.1487 38.9231C44.9183 38.9146 44.705 38.9103 44.5087 38.9103C44.3466 38.9103 44.1802 38.9103 44.0095 38.9103C43.8388 38.9103 43.681 38.9146 43.5359 38.9231C43.3908 38.9231 43.2671 38.9231 43.1647 38.9231C43.0538 38.9231 42.9642 38.9103 42.8959 38.8847C42.8276 38.8591 42.7935 38.8207 42.7935 38.7695C42.7935 38.7098 42.8362 38.6586 42.9215 38.6159C43.0068 38.5732 43.105 38.5434 43.2159 38.5263C43.4975 38.4836 43.698 38.4111 43.8175 38.3087C43.937 38.2063 43.9967 38.0868 43.9967 37.9503C43.9967 37.8223 43.9668 37.6388 43.9071 37.3999C43.8559 37.1524 43.7919 36.8922 43.7151 36.6191C43.6383 36.3375 43.5658 36.09 43.4975 35.8767C43.4804 35.8084 43.4463 35.77 43.3951 35.7615C43.3524 35.7444 43.2714 35.7359 43.1519 35.7359H40.7327C40.6986 35.7359 40.6602 35.753 40.6175 35.7871C40.5834 35.8127 40.5492 35.8724 40.5151 35.9663C40.4895 36.0516 40.4468 36.1882 40.3871 36.3759C40.3274 36.5551 40.2676 36.7471 40.2079 36.9519C40.1482 37.1567 40.097 37.3402 40.0543 37.5023C40.0116 37.6644 39.9903 37.7668 39.9903 37.8095C39.9903 37.9972 40.0628 38.1551 40.2079 38.2831C40.353 38.4026 40.5279 38.4879 40.7327 38.5391C41.0143 38.6159 41.1551 38.7012 41.1551 38.7951C41.1551 38.8463 41.121 38.8847 41.0527 38.9103C40.9844 38.9274 40.8948 38.9359 40.7839 38.9359C40.673 38.9359 40.5108 38.9316 40.2975 38.9231C40.0842 38.9146 39.858 38.9103 39.6191 38.9103C39.3375 38.9103 39.0644 38.9231 38.7999 38.9487C38.5354 38.9743 38.2964 38.9871 38.0831 38.9871ZM41.0783 35.3135H43.0623C43.1818 35.3135 43.2415 35.2922 43.2415 35.2495C43.2415 35.2324 43.2372 35.2154 43.2287 35.1983C43.2287 35.1727 43.2244 35.1471 43.2159 35.1215L42.2175 31.9983C42.1663 31.8447 42.1279 31.7679 42.1023 31.7679C42.0852 31.7679 42.0511 31.8404 41.9999 31.9855L40.8351 35.1215C40.818 35.1727 40.8095 35.2068 40.8095 35.2239C40.8095 35.2666 40.8308 35.2922 40.8735 35.3007C40.9247 35.3092 40.993 35.3135 41.0783 35.3135ZM55.1504 39.1407C55.0736 39.1407 54.92 39.0767 54.6896 38.9487C54.4677 38.8207 54.2544 38.6159 54.0496 38.3343C54.0155 38.2916 53.9088 38.1636 53.7296 37.9503C53.5589 37.737 53.3371 37.4724 53.064 37.1567C52.7995 36.8324 52.5093 36.4826 52.1936 36.1071C51.8779 35.7316 51.5621 35.3562 51.2464 34.9807C50.9307 34.6052 50.6363 34.2596 50.3632 33.9439C50.0901 33.6196 49.8597 33.3508 49.672 33.1375C49.4928 32.9156 49.3819 32.7791 49.3392 32.7279C49.2795 32.6511 49.2283 32.5999 49.1856 32.5743C49.1429 32.5402 49.1045 32.5231 49.0704 32.5231C49.0277 32.5231 48.9979 32.5572 48.9808 32.6255C48.9637 32.6852 48.9552 32.7407 48.9552 32.7919C48.9467 33.21 48.9381 33.6922 48.9296 34.2383C48.9211 34.7844 48.9125 35.3476 48.904 35.9279C48.8955 36.5082 48.8912 37.0628 48.8912 37.5919C48.8912 37.8223 48.9467 38.0356 49.0576 38.2319C49.1771 38.4282 49.3947 38.5562 49.7104 38.6159C49.8555 38.6415 49.9621 38.6714 50.0304 38.7055C50.0987 38.7396 50.1328 38.7866 50.1328 38.8463C50.1328 38.8975 50.0987 38.9316 50.0304 38.9487C49.9621 38.9743 49.8725 38.9871 49.7616 38.9871C49.5312 38.9871 49.3563 38.9786 49.2368 38.9615C49.1259 38.953 49.0235 38.9444 48.9296 38.9359C48.8443 38.9274 48.7205 38.9231 48.5584 38.9231C48.4048 38.9231 48.2853 38.9274 48.2 38.9359C48.1147 38.9444 48.0165 38.953 47.9056 38.9615C47.7947 38.9786 47.624 38.9871 47.3936 38.9871C47.2827 38.9871 47.1931 38.9743 47.1248 38.9487C47.0565 38.9316 47.0224 38.8975 47.0224 38.8463C47.0224 38.7866 47.0565 38.7396 47.1248 38.7055C47.1931 38.6714 47.2997 38.6372 47.4448 38.6031C47.6923 38.5348 47.8715 38.4111 47.9824 38.2319C48.0933 38.0442 48.1616 37.818 48.1872 37.5535C48.2213 37.2292 48.2555 36.8026 48.2896 36.2735C48.3237 35.7359 48.3536 35.1386 48.3792 34.4815C48.4048 33.8159 48.4176 33.1332 48.4176 32.4335C48.4176 31.9812 48.2981 31.657 48.0592 31.4607C47.8288 31.2644 47.5259 31.1066 47.1504 30.9871C47.1163 30.97 47.0395 30.9359 46.92 30.8847C46.8091 30.825 46.7536 30.7567 46.7536 30.6799C46.7536 30.6031 46.792 30.5562 46.8688 30.5391C46.9456 30.5135 47.0053 30.5007 47.048 30.5007C47.2955 30.5092 47.496 30.5178 47.6496 30.5263C47.8032 30.5263 47.9397 30.5306 48.0592 30.5391C48.1787 30.5476 48.3109 30.5562 48.456 30.5647C48.6011 30.5647 48.7888 30.5647 49.0192 30.5647C49.096 30.5647 49.1557 30.586 49.1984 30.6287C49.2411 30.6714 49.2837 30.7226 49.3264 30.7823C49.3605 30.8335 49.4715 30.9786 49.6592 31.2175C49.8555 31.4479 50.0944 31.7423 50.376 32.1007C50.6661 32.4506 50.9819 32.8346 51.3232 33.2527C51.6645 33.6623 52.0059 34.0762 52.3472 34.4943C52.6885 34.9039 53.0043 35.2879 53.2944 35.6463C53.5845 35.9962 53.8235 36.2863 54.0112 36.5167C54.2075 36.7471 54.3227 36.8836 54.3568 36.9263C54.3909 36.9604 54.4379 37.0116 54.4976 37.0799C54.5659 37.1482 54.6256 37.1823 54.6768 37.1823C54.7536 37.1823 54.7963 37.0927 54.8048 36.9135C54.8048 36.794 54.8048 36.5679 54.8048 36.2351C54.8133 35.8938 54.8176 35.4842 54.8176 35.0063C54.8261 34.5199 54.8304 33.9951 54.8304 33.4319C54.8304 32.8687 54.8304 32.2927 54.8304 31.7039C54.8219 31.5332 54.7323 31.3796 54.5616 31.2431C54.3909 31.1066 54.2331 31.0255 54.088 30.9999C53.9429 30.9743 53.8107 30.9402 53.6912 30.8975C53.5717 30.8548 53.512 30.8036 53.512 30.7439C53.512 30.6927 53.5717 30.6586 53.6912 30.6415C53.8107 30.6159 53.9259 30.6031 54.0368 30.6031C54.1221 30.6031 54.2032 30.6031 54.28 30.6031C54.3653 30.6031 54.4464 30.6031 54.5232 30.6031C54.6085 30.6031 54.6896 30.6031 54.7664 30.6031C54.9712 30.6031 55.1333 30.6031 55.2528 30.6031C55.3723 30.5946 55.5003 30.586 55.6368 30.5775C55.7819 30.569 55.9824 30.5647 56.2384 30.5647C56.3493 30.5647 56.4389 30.5775 56.5072 30.6031C56.5755 30.6202 56.6096 30.6543 56.6096 30.7055C56.6096 30.825 56.4688 30.9103 56.1872 30.9615C55.8715 31.0212 55.6624 31.098 55.56 31.1919C55.4576 31.2858 55.3979 31.4394 55.3808 31.6527C55.3808 31.6954 55.3765 31.8618 55.368 32.1519C55.368 32.442 55.368 32.809 55.368 33.2527C55.368 33.6964 55.3637 34.1743 55.3552 34.6863C55.3552 35.1983 55.3552 35.7103 55.3552 36.2223C55.3552 36.7258 55.3552 37.178 55.3552 37.5791C55.3552 37.7839 55.3595 37.9716 55.368 38.1423C55.3851 38.3044 55.3979 38.4452 55.4064 38.5647C55.4149 38.6756 55.4192 38.761 55.4192 38.8207C55.4192 38.9572 55.3893 39.0426 55.3296 39.0767C55.2784 39.1194 55.2187 39.1407 55.1504 39.1407ZM64.8911 39.1919C64.6522 39.1919 64.426 39.1706 64.2127 39.1279C63.9994 39.0938 63.8031 39.0255 63.6239 38.9231C63.4447 38.8207 63.2783 38.6799 63.1247 38.5007C62.9199 38.2447 62.7236 38.0015 62.5359 37.7711C62.3482 37.5322 62.1476 37.2591 61.9343 36.9519C61.7295 36.6447 61.4778 36.2522 61.1791 35.7743C61.0511 35.561 60.8676 35.3946 60.6287 35.2751C60.441 35.1812 60.2532 35.1172 60.0655 35.0831C59.8863 35.0404 59.737 35.0148 59.6175 35.0063C59.5492 34.9978 59.498 35.0191 59.4639 35.0703C59.4383 35.1215 59.4255 35.1855 59.4255 35.2623V37.5151C59.4255 37.7882 59.4895 38.0271 59.6175 38.2319C59.7455 38.4282 59.9674 38.5562 60.2831 38.6159C60.4282 38.6415 60.5348 38.6714 60.6031 38.7055C60.6714 38.7396 60.7055 38.7866 60.7055 38.8463C60.7055 38.8975 60.6714 38.9316 60.6031 38.9487C60.5348 38.9743 60.4452 38.9871 60.3343 38.9871C60.1039 38.9871 59.9247 38.9786 59.7967 38.9615C59.6772 38.9444 59.5663 38.9316 59.4639 38.9231C59.37 38.906 59.242 38.8975 59.0799 38.8975C58.8666 38.8975 58.6746 38.906 58.5039 38.9231C58.3418 38.9316 58.1754 38.9444 58.0047 38.9615C57.8426 38.9786 57.6463 38.9871 57.4159 38.9871C57.305 38.9871 57.2154 38.9743 57.1471 38.9487C57.0788 38.9316 57.0447 38.8975 57.0447 38.8463C57.0447 38.7439 57.1855 38.6671 57.4671 38.6159C57.7914 38.5562 58.026 38.458 58.1711 38.3215C58.3247 38.185 58.4015 37.9588 58.4015 37.6431V32.1903C58.4015 31.866 58.3844 31.6228 58.3503 31.4607C58.3247 31.29 58.2564 31.1706 58.1455 31.1023C58.0431 31.034 57.8682 30.9871 57.6207 30.9615C57.4756 30.9444 57.369 30.9146 57.3007 30.8719C57.2324 30.8207 57.1983 30.7652 57.1983 30.7055C57.1983 30.6543 57.2324 30.6202 57.3007 30.6031C57.369 30.5775 57.4586 30.5647 57.5695 30.5647C57.7999 30.5647 57.9706 30.5647 58.0815 30.5647C58.201 30.5647 58.3119 30.569 58.4143 30.5775C58.5167 30.5775 58.6532 30.5775 58.8239 30.5775C58.986 30.5775 59.1311 30.5732 59.2591 30.5647C59.3871 30.5476 59.5279 30.5348 59.6815 30.5263C59.8436 30.5178 60.0484 30.5135 60.2959 30.5135C61.2346 30.5135 61.9471 30.6884 62.4335 31.0383C62.9284 31.3882 63.1759 31.913 63.1759 32.6127C63.1759 32.9967 63.0991 33.3295 62.9455 33.6111C62.7919 33.8842 62.5999 34.1146 62.3695 34.3023C62.1391 34.49 61.9044 34.6436 61.6655 34.7631C61.6314 34.7716 61.6143 34.793 61.6143 34.8271C61.6228 34.8527 61.6399 34.8868 61.6655 34.9295C61.93 35.3306 62.1818 35.7103 62.4207 36.0687C62.6682 36.4271 62.937 36.777 63.2271 37.1183C63.5172 37.4596 63.8628 37.8138 64.2639 38.1807C64.4858 38.377 64.7119 38.4964 64.9423 38.5391C65.1727 38.5818 65.4372 38.6031 65.7359 38.6031C65.8639 38.6031 65.9279 38.65 65.9279 38.7439C65.9279 38.8719 65.8639 38.9658 65.7359 39.0255C65.6079 39.0938 65.4628 39.1364 65.3007 39.1535C65.1386 39.1791 65.002 39.1919 64.8911 39.1919ZM60.1039 34.7119C60.4964 34.7119 60.8335 34.6223 61.1151 34.4431C61.4052 34.2639 61.6271 34.0292 61.7807 33.7391C61.9428 33.449 62.0239 33.1418 62.0239 32.8175C62.0239 32.4676 61.977 32.1476 61.8831 31.8575C61.7978 31.5674 61.6186 31.337 61.3455 31.1663C61.081 30.9871 60.6799 30.8975 60.1423 30.8975C59.8692 30.8975 59.69 30.9871 59.6047 31.1663C59.5194 31.337 59.4682 31.6442 59.4511 32.0879C59.4426 32.3012 59.434 32.5914 59.4255 32.9583C59.4255 33.3167 59.4255 33.7519 59.4255 34.2639C59.4255 34.4772 59.4852 34.6052 59.6047 34.6479C59.7242 34.6906 59.8906 34.7119 60.1039 34.7119ZM66.4769 38.9871C66.366 38.9871 66.2764 38.9743 66.2081 38.9487C66.1398 38.9316 66.1057 38.8975 66.1057 38.8463C66.1057 38.7439 66.2465 38.6671 66.5281 38.6159C66.8524 38.5562 67.0998 38.458 67.2705 38.3215C67.4412 38.185 67.5265 37.9674 67.5265 37.6687V31.8831C67.5265 31.5844 67.4625 31.3711 67.3345 31.2431C67.215 31.1151 66.9932 31.0212 66.6689 30.9615C66.3873 30.9103 66.2465 30.825 66.2465 30.7055C66.2465 30.6543 66.2806 30.6202 66.3489 30.6031C66.4172 30.5775 66.5068 30.5647 66.6177 30.5647C66.8481 30.5647 67.0358 30.569 67.1809 30.5775C67.3345 30.586 67.4796 30.5946 67.6161 30.6031C67.7526 30.6031 67.919 30.6031 68.1153 30.6031C68.303 30.6031 68.4566 30.6031 68.5761 30.6031C68.6956 30.5946 68.8236 30.586 68.9601 30.5775C69.0966 30.569 69.2801 30.5647 69.5105 30.5647C69.6214 30.5647 69.711 30.5775 69.7793 30.6031C69.8476 30.6202 69.8817 30.6543 69.8817 30.7055C69.8817 30.7652 69.8476 30.8164 69.7793 30.8591C69.711 30.9018 69.6044 30.9359 69.4593 30.9615C69.1436 31.0212 68.9132 31.1151 68.7681 31.2431C68.623 31.3711 68.5505 31.5844 68.5505 31.8831V37.6687C68.5505 37.9674 68.6401 38.185 68.8193 38.3215C68.9985 38.458 69.246 38.5562 69.5617 38.6159C69.7068 38.6415 69.8134 38.6714 69.8817 38.7055C69.95 38.7396 69.9841 38.7866 69.9841 38.8463C69.9841 38.8975 69.95 38.9316 69.8817 38.9487C69.8134 38.9743 69.7238 38.9871 69.6129 38.9871C69.3825 38.9871 69.1905 38.9786 69.0369 38.9615C68.8918 38.953 68.751 38.9444 68.6145 38.9359C68.478 38.9274 68.3116 38.9231 68.1153 38.9231C67.902 38.9231 67.7142 38.9274 67.5521 38.9359C67.3985 38.9444 67.2364 38.953 67.0657 38.9615C66.9036 38.9786 66.7073 38.9871 66.4769 38.9871ZM78.7629 39.1407C78.6861 39.1407 78.5325 39.0767 78.3021 38.9487C78.0802 38.8207 77.8669 38.6159 77.6621 38.3343C77.628 38.2916 77.5213 38.1636 77.3421 37.9503C77.1714 37.737 76.9496 37.4724 76.6765 37.1567C76.412 36.8324 76.1218 36.4826 75.8061 36.1071C75.4904 35.7316 75.1746 35.3562 74.8589 34.9807C74.5432 34.6052 74.2488 34.2596 73.9757 33.9439C73.7026 33.6196 73.4722 33.3508 73.2845 33.1375C73.1053 32.9156 72.9944 32.7791 72.9517 32.7279C72.892 32.6511 72.8408 32.5999 72.7981 32.5743C72.7554 32.5402 72.717 32.5231 72.6829 32.5231C72.6402 32.5231 72.6104 32.5572 72.5933 32.6255C72.5762 32.6852 72.5677 32.7407 72.5677 32.7919C72.5592 33.21 72.5506 33.6922 72.5421 34.2383C72.5336 34.7844 72.525 35.3476 72.5165 35.9279C72.508 36.5082 72.5037 37.0628 72.5037 37.5919C72.5037 37.8223 72.5592 38.0356 72.6701 38.2319C72.7896 38.4282 73.0072 38.5562 73.3229 38.6159C73.468 38.6415 73.5746 38.6714 73.6429 38.7055C73.7112 38.7396 73.7453 38.7866 73.7453 38.8463C73.7453 38.8975 73.7112 38.9316 73.6429 38.9487C73.5746 38.9743 73.485 38.9871 73.3741 38.9871C73.1437 38.9871 72.9688 38.9786 72.8493 38.9615C72.7384 38.953 72.636 38.9444 72.5421 38.9359C72.4568 38.9274 72.333 38.9231 72.1709 38.9231C72.0173 38.9231 71.8978 38.9274 71.8125 38.9359C71.7272 38.9444 71.629 38.953 71.5181 38.9615C71.4072 38.9786 71.2365 38.9871 71.0061 38.9871C70.8952 38.9871 70.8056 38.9743 70.7373 38.9487C70.669 38.9316 70.6349 38.8975 70.6349 38.8463C70.6349 38.7866 70.669 38.7396 70.7373 38.7055C70.8056 38.6714 70.9122 38.6372 71.0573 38.6031C71.3048 38.5348 71.484 38.4111 71.5949 38.2319C71.7058 38.0442 71.7741 37.818 71.7997 37.5535C71.8338 37.2292 71.868 36.8026 71.9021 36.2735C71.9362 35.7359 71.9661 35.1386 71.9917 34.4815C72.0173 33.8159 72.0301 33.1332 72.0301 32.4335C72.0301 31.9812 71.9106 31.657 71.6717 31.4607C71.4413 31.2644 71.1384 31.1066 70.7629 30.9871C70.7288 30.97 70.652 30.9359 70.5325 30.8847C70.4216 30.825 70.3661 30.7567 70.3661 30.6799C70.3661 30.6031 70.4045 30.5562 70.4813 30.5391C70.5581 30.5135 70.6178 30.5007 70.6605 30.5007C70.908 30.5092 71.1085 30.5178 71.2621 30.5263C71.4157 30.5263 71.5522 30.5306 71.6717 30.5391C71.7912 30.5476 71.9234 30.5562 72.0685 30.5647C72.2136 30.5647 72.4013 30.5647 72.6317 30.5647C72.7085 30.5647 72.7682 30.586 72.8109 30.6287C72.8536 30.6714 72.8962 30.7226 72.9389 30.7823C72.973 30.8335 73.084 30.9786 73.2717 31.2175C73.468 31.4479 73.7069 31.7423 73.9885 32.1007C74.2786 32.4506 74.5944 32.8346 74.9357 33.2527C75.277 33.6623 75.6184 34.0762 75.9597 34.4943C76.301 34.9039 76.6168 35.2879 76.9069 35.6463C77.197 35.9962 77.436 36.2863 77.6237 36.5167C77.82 36.7471 77.9352 36.8836 77.9693 36.9263C78.0034 36.9604 78.0504 37.0116 78.1101 37.0799C78.1784 37.1482 78.2381 37.1823 78.2893 37.1823C78.3661 37.1823 78.4088 37.0927 78.4173 36.9135C78.4173 36.794 78.4173 36.5679 78.4173 36.2351C78.4258 35.8938 78.4301 35.4842 78.4301 35.0063C78.4386 34.5199 78.4429 33.9951 78.4429 33.4319C78.4429 32.8687 78.4429 32.2927 78.4429 31.7039C78.4344 31.5332 78.3448 31.3796 78.1741 31.2431C78.0034 31.1066 77.8456 31.0255 77.7005 30.9999C77.5554 30.9743 77.4232 30.9402 77.3037 30.8975C77.1842 30.8548 77.1245 30.8036 77.1245 30.7439C77.1245 30.6927 77.1842 30.6586 77.3037 30.6415C77.4232 30.6159 77.5384 30.6031 77.6493 30.6031C77.7346 30.6031 77.8157 30.6031 77.8925 30.6031C77.9778 30.6031 78.0589 30.6031 78.1357 30.6031C78.221 30.6031 78.3021 30.6031 78.3789 30.6031C78.5837 30.6031 78.7458 30.6031 78.8653 30.6031C78.9848 30.5946 79.1128 30.586 79.2493 30.5775C79.3944 30.569 79.5949 30.5647 79.8509 30.5647C79.9618 30.5647 80.0514 30.5775 80.1197 30.6031C80.188 30.6202 80.2221 30.6543 80.2221 30.7055C80.2221 30.825 80.0813 30.9103 79.7997 30.9615C79.484 31.0212 79.2749 31.098 79.1725 31.1919C79.0701 31.2858 79.0104 31.4394 78.9933 31.6527C78.9933 31.6954 78.989 31.8618 78.9805 32.1519C78.9805 32.442 78.9805 32.809 78.9805 33.2527C78.9805 33.6964 78.9762 34.1743 78.9677 34.6863C78.9677 35.1983 78.9677 35.7103 78.9677 36.2223C78.9677 36.7258 78.9677 37.178 78.9677 37.5791C78.9677 37.7839 78.972 37.9716 78.9805 38.1423C78.9976 38.3044 79.0104 38.4452 79.0189 38.5647C79.0274 38.6756 79.0317 38.761 79.0317 38.8207C79.0317 38.9572 79.0018 39.0426 78.9421 39.0767C78.8909 39.1194 78.8312 39.1407 78.7629 39.1407ZM81.118 38.9871C81.0071 38.9871 80.9175 38.9743 80.8492 38.9487C80.7809 38.9316 80.7468 38.8975 80.7468 38.8463C80.7468 38.7439 80.8876 38.6671 81.1692 38.6159C81.4935 38.5562 81.7153 38.458 81.8348 38.3215C81.9628 38.1764 82.0268 37.946 82.0268 37.6303V31.8703C82.0268 31.5716 81.9628 31.3626 81.8348 31.2431C81.7153 31.1151 81.4935 31.0212 81.1692 30.9615C80.8876 30.9103 80.7468 30.825 80.7468 30.7055C80.7468 30.6543 80.7809 30.6202 80.8492 30.6031C80.9175 30.5775 81.0071 30.5647 81.118 30.5647C81.3484 30.5647 81.5319 30.569 81.6684 30.5775C81.8135 30.5775 81.95 30.5818 82.078 30.5903C82.206 30.5903 82.3639 30.5903 82.5516 30.5903C82.7137 30.5903 82.8417 30.5903 82.9356 30.5903C83.038 30.5818 83.1489 30.5775 83.2684 30.5775C83.3879 30.569 83.5628 30.5647 83.7932 30.5647C83.9041 30.5647 83.9937 30.5775 84.062 30.6031C84.1303 30.6202 84.1644 30.6543 84.1644 30.7055C84.1644 30.7652 84.1303 30.8164 84.062 30.8591C83.9937 30.9018 83.8871 30.9359 83.742 30.9615C83.4263 31.0212 83.23 31.1279 83.1532 31.2815C83.0849 31.4266 83.0508 31.6228 83.0508 31.8703V34.2639C83.0508 34.298 83.0508 34.3492 83.0508 34.4175C83.0593 34.4772 83.0807 34.5071 83.1148 34.5071C83.1575 34.5071 83.2129 34.4815 83.2812 34.4303C83.358 34.3791 83.4177 34.3279 83.4604 34.2767L86.0204 31.6655C86.0887 31.5972 86.1356 31.5332 86.1612 31.4735C86.1953 31.4052 86.2124 31.3412 86.2124 31.2815C86.2124 31.1279 86.1313 31.0298 85.9692 30.9871C85.8241 30.9444 85.7217 30.906 85.662 30.8719C85.6023 30.8378 85.5724 30.7908 85.5724 30.7311C85.5724 30.6799 85.6065 30.6458 85.6748 30.6287C85.7431 30.6031 85.8327 30.5903 85.9436 30.5903H86.6348C86.8823 30.5903 87.1553 30.586 87.454 30.5775C87.7527 30.569 88.0215 30.5604 88.2604 30.5519C88.5079 30.5434 88.6572 30.5391 88.7084 30.5391C88.7937 30.5391 88.862 30.5519 88.9132 30.5775C88.9644 30.6031 88.99 30.6372 88.99 30.6799C88.99 30.7396 88.9559 30.7908 88.8876 30.8335C88.8193 30.8762 88.7127 30.9103 88.5676 30.9359C88.2519 30.9956 87.9233 31.0895 87.582 31.2175C87.2407 31.3455 86.9207 31.5332 86.622 31.7807C86.3148 32.0367 86.0289 32.2884 85.7644 32.5359C85.5084 32.7748 85.2524 33.0266 84.9964 33.2911C84.7404 33.5471 84.4631 33.8415 84.1644 34.1743C84.1132 34.2255 84.1345 34.3023 84.2284 34.4047L87.326 37.7071C87.5137 37.9119 87.6631 38.0698 87.774 38.1807C87.8935 38.2916 88.0215 38.3812 88.158 38.4495C88.3031 38.5092 88.4951 38.5647 88.734 38.6159C88.8791 38.65 88.9857 38.6842 89.054 38.7183C89.1223 38.7439 89.1564 38.7866 89.1564 38.8463C89.1564 38.8975 89.1223 38.9316 89.054 38.9487C88.9857 38.9743 88.8961 38.9871 88.7852 38.9871C88.5377 38.9871 88.3244 38.9786 88.1452 38.9615C87.966 38.953 87.7911 38.9444 87.6204 38.9359C87.4497 38.9274 87.2449 38.9231 87.006 38.9231C86.8439 38.9231 86.7031 38.9231 86.5836 38.9231C86.4641 38.9316 86.2593 38.9359 85.9692 38.9359C85.8583 38.9359 85.7687 38.9274 85.7004 38.9103C85.6321 38.8847 85.598 38.8463 85.598 38.7951C85.598 38.7012 85.7132 38.6287 85.9436 38.5775C86.1825 38.5178 86.302 38.4324 86.302 38.3215C86.302 38.2703 86.2807 38.2191 86.238 38.1679C86.2039 38.1167 86.1612 38.0612 86.11 38.0015L83.3964 35.0063C83.3452 34.9551 83.2897 34.9082 83.23 34.8655C83.1788 34.8143 83.1361 34.7887 83.102 34.7887C83.0679 34.7887 83.0508 34.8228 83.0508 34.8911C83.0508 34.9594 83.0508 35.0148 83.0508 35.0575C83.0508 35.4586 83.0551 35.8426 83.0636 36.2095C83.0807 36.5679 83.0977 37.0031 83.1148 37.5151C83.1233 37.6943 83.1489 37.8607 83.1916 38.0143C83.2428 38.1679 83.3239 38.2959 83.4348 38.3983C83.5543 38.5007 83.7207 38.5732 83.934 38.6159C84.0791 38.6415 84.1857 38.6714 84.254 38.7055C84.3223 38.7396 84.3564 38.7866 84.3564 38.8463C84.3564 38.8975 84.3223 38.9316 84.254 38.9487C84.1857 38.9743 84.0961 38.9871 83.9852 38.9871C83.7548 38.9871 83.5756 38.9786 83.4476 38.9615C83.3281 38.9444 83.2172 38.9316 83.1148 38.9231C83.0209 38.906 82.8929 38.8975 82.7308 38.8975C82.526 38.8975 82.3425 38.906 82.1804 38.9231C82.0268 38.9316 81.8689 38.9444 81.7068 38.9615C81.5447 38.9786 81.3484 38.9871 81.118 38.9871ZM91.3921 38.9871C91.2812 38.9871 91.1916 38.9743 91.1233 38.9487C91.055 38.9316 91.0209 38.8975 91.0209 38.8463C91.0209 38.7866 91.055 38.7396 91.1233 38.7055C91.1916 38.6714 91.2982 38.6415 91.4433 38.6159C91.7676 38.5562 92.015 38.441 92.1857 38.2703C92.3564 38.0911 92.4417 37.8479 92.4417 37.5407V35.6463C92.4417 35.4756 92.3948 35.2922 92.3009 35.0959C92.2156 34.8911 92.1558 34.7588 92.1217 34.6991L90.6241 32.2415C90.5644 32.1391 90.4705 31.9983 90.3425 31.8191C90.2145 31.6314 90.0737 31.4564 89.9201 31.2943C89.775 31.1322 89.63 31.0298 89.4849 30.9871C89.3484 30.9444 89.2417 30.9018 89.1649 30.8591C89.0966 30.8164 89.0625 30.7652 89.0625 30.7055C89.0625 30.6543 89.0966 30.6202 89.1649 30.6031C89.2332 30.5775 89.3228 30.5647 89.4337 30.5647C89.63 30.5647 89.8561 30.5732 90.1121 30.5903C90.3681 30.5988 90.6412 30.6031 90.9313 30.6031C91.1276 30.6031 91.311 30.5988 91.4817 30.5903C91.6609 30.5818 91.8188 30.5775 91.9553 30.5775C92.0662 30.5775 92.1558 30.5903 92.2241 30.6159C92.2924 30.633 92.3265 30.6671 92.3265 30.7183C92.3265 30.778 92.2924 30.8292 92.2241 30.8719C92.1558 30.906 92.0492 30.9402 91.9041 30.9743C91.7846 31.0084 91.6865 31.0468 91.6097 31.0895C91.5329 31.1322 91.4945 31.2004 91.4945 31.2943C91.4945 31.4052 91.55 31.5588 91.6609 31.7551L92.8385 33.9311C93.0092 34.2554 93.1286 34.4175 93.1969 34.4175C93.2481 34.4175 93.3036 34.3834 93.3633 34.3151C93.423 34.2383 93.5084 34.1103 93.6193 33.9311C93.8156 33.6324 93.9905 33.3466 94.1441 33.0735C94.2977 32.8004 94.4812 32.4719 94.6945 32.0879C94.7798 31.9428 94.8396 31.8191 94.8737 31.7167C94.9078 31.6058 94.9249 31.5119 94.9249 31.4351C94.9249 31.273 94.8652 31.162 94.7457 31.1023C94.6348 31.0426 94.5196 31.0042 94.4001 30.9871C94.3148 30.97 94.2209 30.9402 94.1185 30.8975C94.0246 30.8463 93.9777 30.7908 93.9777 30.7311C93.9777 30.6799 94.0118 30.6458 94.0801 30.6287C94.1484 30.6031 94.238 30.5903 94.3489 30.5903C94.5452 30.5903 94.7073 30.5946 94.8353 30.6031C94.9633 30.6031 95.1212 30.6031 95.3089 30.6031C95.5734 30.6031 95.8252 30.5988 96.0641 30.5903C96.303 30.5732 96.495 30.5647 96.6401 30.5647C96.751 30.5647 96.8406 30.5775 96.9089 30.6031C96.9772 30.6202 97.0113 30.6543 97.0113 30.7055C97.0113 30.7652 96.943 30.8207 96.8065 30.8719C96.67 30.9231 96.5121 30.9743 96.3329 31.0255C96.111 31.0852 95.9233 31.209 95.7697 31.3967C95.6246 31.5759 95.4369 31.8404 95.2065 32.1903C95.0358 32.4548 94.8908 32.6767 94.7713 32.8559C94.6604 33.0351 94.5537 33.2015 94.4513 33.3551C94.3574 33.5087 94.2593 33.6708 94.1569 33.8415C94.0545 34.0036 93.9308 34.2042 93.7857 34.4431C93.6748 34.6223 93.598 34.7674 93.5553 34.8783C93.5126 34.9892 93.487 35.0959 93.4785 35.1983C93.47 35.2922 93.4657 35.4244 93.4657 35.5951V37.5407C93.4657 37.8308 93.5553 38.0698 93.7345 38.2575C93.9137 38.4367 94.1612 38.5562 94.4769 38.6159C94.622 38.6415 94.7286 38.6714 94.7969 38.7055C94.8652 38.7396 94.8993 38.7866 94.8993 38.8463C94.8993 38.8975 94.8652 38.9316 94.7969 38.9487C94.7286 38.9743 94.639 38.9871 94.5281 38.9871C94.2977 38.9871 94.1057 38.9786 93.9521 38.9615C93.807 38.953 93.6662 38.9444 93.5297 38.9359C93.3932 38.9274 93.2268 38.9231 93.0305 38.9231C92.8172 38.9231 92.6294 38.9274 92.4673 38.9359C92.3137 38.9444 92.1516 38.953 91.9809 38.9615C91.8188 38.9786 91.6225 38.9871 91.3921 38.9871ZM101.038 39.1023C100.475 39.1023 99.9373 39.0042 99.4253 38.8079C98.9133 38.6031 98.461 38.3172 98.0685 37.9503C97.676 37.5748 97.3645 37.1311 97.1341 36.6191C96.9037 36.0986 96.7885 35.5226 96.7885 34.8911C96.7885 34.3108 96.8824 33.7562 97.0701 33.2271C97.2578 32.6895 97.5352 32.2116 97.9021 31.7935C98.269 31.3754 98.7256 31.0426 99.2717 30.7951C99.8178 30.5476 100.445 30.4239 101.153 30.4239C101.717 30.4239 102.254 30.5263 102.766 30.7311C103.278 30.9274 103.73 31.2132 104.123 31.5887C104.515 31.9556 104.827 32.3994 105.057 32.9199C105.288 33.4319 105.403 34.0036 105.403 34.6351C105.403 35.2068 105.309 35.7615 105.121 36.2991C104.934 36.8367 104.656 37.3146 104.289 37.7327C103.922 38.1508 103.466 38.4836 102.92 38.7311C102.374 38.9786 101.746 39.1023 101.038 39.1023ZM101.23 38.5903C101.887 38.5903 102.433 38.4538 102.869 38.1807C103.304 37.8991 103.628 37.5108 103.841 37.0159C104.063 36.5124 104.174 35.9279 104.174 35.2623C104.174 34.6735 104.106 34.1188 103.969 33.5983C103.833 33.0778 103.628 32.6212 103.355 32.2287C103.09 31.8276 102.758 31.5162 102.357 31.2943C101.955 31.0724 101.486 30.9615 100.949 30.9615C100.309 30.9615 99.7709 31.098 99.3357 31.3711C98.9005 31.6442 98.572 32.0282 98.3501 32.5231C98.1282 33.0095 98.0173 33.5855 98.0173 34.2511C98.0173 34.8484 98.0813 35.4074 98.2093 35.9279C98.3458 36.4484 98.5464 36.9092 98.8109 37.3103C99.084 37.7114 99.421 38.0271 99.8221 38.2575C100.223 38.4794 100.693 38.5903 101.23 38.5903Z" fill="white"/>
</svg>
