<svg width="149" height="64" viewBox="0 0 149 64" fill="none" xmlns="http://www.w3.org/2000/svg">
<path d="M49.6629 26.2176C49.5861 26.2176 49.4325 26.1536 49.2021 26.0256C48.9802 25.8976 48.7669 25.6928 48.5621 25.4112C48.528 25.3685 48.4213 25.2405 48.2421 25.0272C48.0714 24.8139 47.8496 24.5493 47.5765 24.2336C47.312 23.9093 47.0218 23.5595 46.7061 23.184C46.3904 22.8085 46.0746 22.4331 45.7589 22.0576C45.4432 21.6821 45.1488 21.3365 44.8757 21.0208C44.6026 20.6965 44.3722 20.4277 44.1845 20.2144C44.0053 19.9925 43.8944 19.856 43.8517 19.8048C43.792 19.728 43.7408 19.6768 43.6981 19.6512C43.6554 19.6171 43.617 19.6 43.5829 19.6C43.5402 19.6 43.5104 19.6341 43.4933 19.7024C43.4762 19.7621 43.4677 19.8176 43.4677 19.8688C43.4592 20.2869 43.4506 20.7691 43.4421 21.3152C43.4336 21.8613 43.425 22.4245 43.4165 23.0048C43.408 23.5851 43.4037 24.1397 43.4037 24.6688C43.4037 24.8992 43.4592 25.1125 43.5701 25.3088C43.6896 25.5051 43.9072 25.6331 44.2229 25.6928C44.368 25.7184 44.4746 25.7483 44.5429 25.7824C44.6112 25.8165 44.6453 25.8635 44.6453 25.9232C44.6453 25.9744 44.6112 26.0085 44.5429 26.0256C44.4746 26.0512 44.385 26.064 44.2741 26.064C44.0437 26.064 43.8688 26.0555 43.7493 26.0384C43.6384 26.0299 43.536 26.0213 43.4421 26.0128C43.3568 26.0043 43.233 26 43.0709 26C42.9173 26 42.7978 26.0043 42.7125 26.0128C42.6272 26.0213 42.529 26.0299 42.4181 26.0384C42.3072 26.0555 42.1365 26.064 41.9061 26.064C41.7952 26.064 41.7056 26.0512 41.6373 26.0256C41.569 26.0085 41.5349 25.9744 41.5349 25.9232C41.5349 25.8635 41.569 25.8165 41.6373 25.7824C41.7056 25.7483 41.8122 25.7141 41.9573 25.68C42.2048 25.6117 42.384 25.488 42.4949 25.3088C42.6058 25.1211 42.6741 24.8949 42.6997 24.6304C42.7338 24.3061 42.768 23.8795 42.8021 23.3504C42.8362 22.8128 42.8661 22.2155 42.8917 21.5584C42.9173 20.8928 42.9301 20.2101 42.9301 19.5104C42.9301 19.0581 42.8106 18.7339 42.5717 18.5376C42.3413 18.3413 42.0384 18.1835 41.6629 18.064C41.6288 18.0469 41.552 18.0128 41.4325 17.9616C41.3216 17.9019 41.2661 17.8336 41.2661 17.7568C41.2661 17.68 41.3045 17.6331 41.3813 17.616C41.4581 17.5904 41.5178 17.5776 41.5605 17.5776C41.808 17.5861 42.0085 17.5947 42.1621 17.6032C42.3157 17.6032 42.4522 17.6075 42.5717 17.616C42.6912 17.6245 42.8234 17.6331 42.9685 17.6416C43.1136 17.6416 43.3013 17.6416 43.5317 17.6416C43.6085 17.6416 43.6682 17.6629 43.7109 17.7056C43.7536 17.7483 43.7962 17.7995 43.8389 17.8592C43.873 17.9104 43.984 18.0555 44.1717 18.2944C44.368 18.5248 44.6069 18.8192 44.8885 19.1776C45.1786 19.5275 45.4944 19.9115 45.8357 20.3296C46.177 20.7392 46.5184 21.1531 46.8597 21.5712C47.201 21.9808 47.5168 22.3648 47.8069 22.7232C48.097 23.0731 48.336 23.3632 48.5237 23.5936C48.72 23.824 48.8352 23.9605 48.8693 24.0032C48.9034 24.0373 48.9504 24.0885 49.0101 24.1568C49.0784 24.2251 49.1381 24.2592 49.1893 24.2592C49.2661 24.2592 49.3088 24.1696 49.3173 23.9904C49.3173 23.8709 49.3173 23.6448 49.3173 23.312C49.3258 22.9707 49.3301 22.5611 49.3301 22.0832C49.3386 21.5968 49.3429 21.072 49.3429 20.5088C49.3429 19.9456 49.3429 19.3696 49.3429 18.7808C49.3344 18.6101 49.2448 18.4565 49.0741 18.32C48.9034 18.1835 48.7456 18.1024 48.6005 18.0768C48.4554 18.0512 48.3232 18.0171 48.2037 17.9744C48.0842 17.9317 48.0245 17.8805 48.0245 17.8208C48.0245 17.7696 48.0842 17.7355 48.2037 17.7184C48.3232 17.6928 48.4384 17.68 48.5493 17.68C48.6346 17.68 48.7157 17.68 48.7925 17.68C48.8778 17.68 48.9589 17.68 49.0357 17.68C49.121 17.68 49.2021 17.68 49.2789 17.68C49.4837 17.68 49.6458 17.68 49.7653 17.68C49.8848 17.6715 50.0128 17.6629 50.1493 17.6544C50.2944 17.6459 50.4949 17.6416 50.7509 17.6416C50.8618 17.6416 50.9514 17.6544 51.0197 17.68C51.088 17.6971 51.1221 17.7312 51.1221 17.7824C51.1221 17.9019 50.9813 17.9872 50.6997 18.0384C50.384 18.0981 50.1749 18.1749 50.0725 18.2688C49.9701 18.3627 49.9104 18.5163 49.8933 18.7296C49.8933 18.7723 49.889 18.9387 49.8805 19.2288C49.8805 19.5189 49.8805 19.8859 49.8805 20.3296C49.8805 20.7733 49.8762 21.2512 49.8677 21.7632C49.8677 22.2752 49.8677 22.7872 49.8677 23.2992C49.8677 23.8027 49.8677 24.2549 49.8677 24.656C49.8677 24.8608 49.872 25.0485 49.8805 25.2192C49.8976 25.3813 49.9104 25.5221 49.9189 25.6416C49.9274 25.7525 49.9317 25.8379 49.9317 25.8976C49.9317 26.0341 49.9018 26.1195 49.8421 26.1536C49.7909 26.1963 49.7312 26.2176 49.6629 26.2176ZM52.0948 26.064C51.9839 26.064 51.8943 26.0512 51.826 26.0256C51.7577 26.0085 51.7236 25.9744 51.7236 25.9232C51.7236 25.8208 51.8644 25.744 52.146 25.6928C52.4703 25.6331 52.7092 25.5349 52.8628 25.3984C53.0164 25.2619 53.0932 25.04 53.0932 24.7328V18.9728C53.0932 18.6656 53.0292 18.448 52.9012 18.32C52.7817 18.192 52.5599 18.0981 52.2356 18.0384C52.0905 18.0128 51.9839 17.9787 51.9156 17.936C51.8473 17.8933 51.8132 17.8421 51.8132 17.7824C51.8132 17.7312 51.8473 17.6971 51.9156 17.68C51.9839 17.6544 52.0735 17.6416 52.1844 17.6416C52.5087 17.6416 52.7817 17.6459 53.0036 17.6544C53.234 17.6629 53.4559 17.6715 53.6692 17.68C53.8911 17.68 54.1513 17.68 54.45 17.68C54.7316 17.68 55.026 17.68 55.3332 17.68C55.6489 17.6715 55.9391 17.6672 56.2036 17.6672C56.4937 17.6587 56.7369 17.6544 56.9332 17.6544C57.138 17.6459 57.2575 17.6416 57.2916 17.6416C57.3343 17.6416 57.3812 17.6501 57.4324 17.6672C57.4836 17.6843 57.5135 17.7141 57.522 17.7568C57.5647 17.9957 57.6073 18.2347 57.65 18.4736C57.6927 18.704 57.714 18.9045 57.714 19.0752C57.714 19.152 57.6927 19.2032 57.65 19.2288C57.6159 19.2544 57.5775 19.2672 57.5348 19.2672C57.4921 19.2672 57.4623 19.2587 57.4452 19.2416C57.4281 19.216 57.4111 19.1819 57.394 19.1392C57.3513 18.9941 57.3087 18.8576 57.266 18.7296C57.2233 18.5931 57.1721 18.4949 57.1124 18.4352C56.9929 18.2987 56.8607 18.2091 56.7156 18.1664C56.5705 18.1152 56.4169 18.0896 56.2548 18.0896H54.578C54.5097 18.0896 54.4159 18.128 54.2964 18.2048C54.1769 18.2816 54.1172 18.3797 54.1172 18.4992V21.2128C54.1172 21.2896 54.1385 21.3579 54.1812 21.4176C54.2324 21.4688 54.2879 21.4944 54.3476 21.4944H55.6148C55.8623 21.4944 56.0329 21.4517 56.1268 21.3664C56.2207 21.2725 56.2975 21.1061 56.3572 20.8672C56.4084 20.6795 56.4852 20.5856 56.5876 20.5856C56.6217 20.5856 56.6559 20.6027 56.69 20.6368C56.7327 20.6709 56.754 20.7221 56.754 20.7904C56.754 20.8245 56.7497 20.9013 56.7412 21.0208C56.7412 21.1403 56.7369 21.264 56.7284 21.392C56.7199 21.52 56.7156 21.6181 56.7156 21.6864C56.7156 21.7717 56.7156 21.8869 56.7156 22.032C56.7241 22.1685 56.7284 22.3008 56.7284 22.4288C56.7369 22.5568 56.7412 22.6379 56.7412 22.672C56.7412 22.7317 56.7327 22.7829 56.7156 22.8256C56.7071 22.8683 56.6772 22.8896 56.626 22.8896C56.498 22.8896 56.3999 22.7531 56.3316 22.48C56.2804 22.2837 56.2121 22.1387 56.1268 22.0448C56.0415 21.9509 55.9135 21.904 55.7428 21.904H54.5524C54.4073 21.904 54.2964 21.9253 54.2196 21.968C54.1513 22.0021 54.1172 22.0917 54.1172 22.2368V24.6944C54.1172 25.0187 54.1855 25.2448 54.322 25.3728C54.4585 25.4923 54.6719 25.552 54.962 25.552H55.9092C56.1823 25.552 56.4084 25.5392 56.5876 25.5136C56.7753 25.4795 56.9375 25.4197 57.074 25.3344C57.2105 25.2405 57.33 25.1168 57.4324 24.9632C57.5433 24.8096 57.6671 24.6048 57.8036 24.3488C57.8292 24.2976 57.8591 24.2549 57.8932 24.2208C57.9273 24.1867 57.9657 24.1739 58.0084 24.1824C58.0511 24.1909 58.0852 24.2123 58.1108 24.2464C58.1364 24.272 58.1492 24.3104 58.1492 24.3616C58.1492 24.4384 58.1279 24.5749 58.0852 24.7712C58.0425 24.9589 57.9871 25.1552 57.9188 25.36C57.8591 25.5648 57.8036 25.7269 57.7524 25.8464C57.7268 25.9061 57.7012 25.9573 57.6756 26C57.6585 26.0427 57.6244 26.064 57.5732 26.064C57.1636 26.064 56.7839 26.0597 56.434 26.0512C56.0841 26.0427 55.7513 26.0341 55.4356 26.0256C55.1199 26.0171 54.8084 26.0085 54.5012 26C54.2025 25.9915 53.8911 25.9872 53.5668 25.9872C53.3791 25.9872 53.2169 25.9915 53.0804 26C52.9439 26.0171 52.8031 26.0299 52.658 26.0384C52.5129 26.0555 52.3252 26.064 52.0948 26.064ZM62.763 26.2048C62.7459 26.2048 62.7203 26.1664 62.6862 26.0896C62.6521 26.0128 62.6179 25.9317 62.5838 25.8464L59.819 18.9088C59.7166 18.6869 59.5929 18.5077 59.4478 18.3712C59.3027 18.2261 59.1193 18.1237 58.8974 18.064C58.7609 18.0213 58.6542 17.9787 58.5774 17.936C58.5091 17.8933 58.475 17.8421 58.475 17.7824C58.475 17.7312 58.5091 17.6971 58.5774 17.68C58.6457 17.6544 58.7353 17.6416 58.8462 17.6416C59.0425 17.6416 59.2259 17.6501 59.3966 17.6672C59.5758 17.6757 59.7721 17.68 59.9854 17.68C60.2243 17.68 60.4505 17.6757 60.6638 17.6672C60.8771 17.6587 61.0478 17.6544 61.1758 17.6544C61.2867 17.6544 61.3763 17.6672 61.4446 17.6928C61.5129 17.7099 61.547 17.744 61.547 17.7952C61.547 17.8549 61.5129 17.9019 61.4446 17.936C61.3763 17.9701 61.2697 18.0085 61.1246 18.0512C61.0222 18.0768 60.9539 18.1323 60.9198 18.2176C60.8857 18.2944 60.8686 18.3797 60.8686 18.4736C60.8686 18.6101 60.8857 18.7381 60.9198 18.8576C60.9539 18.9685 60.971 19.024 60.971 19.024C61.1673 19.5189 61.3465 19.9712 61.5086 20.3808C61.6707 20.7904 61.8286 21.1872 61.9822 21.5712C62.1443 21.9467 62.3107 22.3349 62.4814 22.736C62.6606 23.1285 62.8569 23.568 63.0702 24.0544C63.1129 24.1483 63.147 24.1909 63.1726 24.1824C63.2067 24.1739 63.2366 24.1355 63.2622 24.0672L64.2606 21.5968C64.2862 21.5285 64.3033 21.4731 64.3118 21.4304C64.3289 21.3792 64.3374 21.3365 64.3374 21.3024C64.3374 21.2512 64.3289 21.2 64.3118 21.1488C64.2947 21.0891 64.2691 21.0165 64.235 20.9312L63.5054 19.1136C63.3945 18.8405 63.2195 18.6144 62.9806 18.4352C62.7417 18.2475 62.5113 18.1237 62.2894 18.064C62.1529 18.0213 62.0462 17.9787 61.9694 17.936C61.9011 17.8933 61.867 17.8421 61.867 17.7824C61.867 17.7312 61.9011 17.6971 61.9694 17.68C62.0377 17.6544 62.1273 17.6416 62.2382 17.6416C62.3747 17.6416 62.5027 17.6459 62.6222 17.6544C62.7502 17.6629 62.8782 17.6715 63.0062 17.68C63.1427 17.68 63.2878 17.68 63.4414 17.68C63.6377 17.68 63.8169 17.6757 63.979 17.6672C64.1497 17.6587 64.299 17.6544 64.427 17.6544C64.5379 17.6544 64.6275 17.6672 64.6958 17.6928C64.7641 17.7099 64.7982 17.744 64.7982 17.7952C64.7982 17.8635 64.7555 17.9189 64.6702 17.9616C64.5849 18.0043 64.4953 18.0512 64.4014 18.1024C64.3161 18.1536 64.2734 18.2304 64.2734 18.3328C64.2734 18.3499 64.2734 18.3669 64.2734 18.384C64.2819 18.4011 64.2905 18.4181 64.299 18.4352C64.3161 18.4693 64.3459 18.5547 64.3886 18.6912C64.4398 18.8192 64.4953 18.9643 64.555 19.1264C64.6233 19.2885 64.6873 19.4421 64.747 19.5872C64.8067 19.7237 64.8494 19.8219 64.875 19.8816C64.9177 19.984 64.9518 20.0395 64.9774 20.048C65.0115 20.048 65.0542 19.9925 65.1054 19.8816C65.1737 19.728 65.2419 19.5531 65.3102 19.3568C65.387 19.1605 65.451 18.9771 65.5022 18.8064C65.5619 18.6272 65.6003 18.5035 65.6174 18.4352C65.6259 18.4096 65.6302 18.3797 65.6302 18.3456C65.6302 18.2432 65.5918 18.1664 65.515 18.1152C65.4382 18.064 65.3571 18.0171 65.2718 17.9744C65.195 17.9232 65.1566 17.8635 65.1566 17.7952C65.1566 17.744 65.1907 17.7099 65.259 17.6928C65.3273 17.6672 65.4169 17.6544 65.5278 17.6544C65.7155 17.6544 65.8435 17.6587 65.9118 17.6672C65.9801 17.6757 66.0739 17.68 66.1934 17.68C66.3385 17.68 66.4622 17.6757 66.5646 17.6672C66.667 17.6501 66.795 17.6416 66.9486 17.6416C67.0595 17.6416 67.1491 17.6544 67.2174 17.68C67.2857 17.6971 67.3198 17.7312 67.3198 17.7824C67.3198 17.8421 67.2857 17.8933 67.2174 17.936C67.1491 17.9701 67.0425 18.0043 66.8974 18.0384C66.6243 18.0981 66.4366 18.1707 66.3342 18.256C66.2403 18.3413 66.1379 18.4736 66.027 18.6528C65.9843 18.7296 65.9203 18.8576 65.835 19.0368C65.7582 19.216 65.6729 19.4123 65.579 19.6256C65.4937 19.8389 65.4169 20.0395 65.3486 20.2272C65.323 20.2869 65.2974 20.3723 65.2718 20.4832C65.2547 20.5941 65.2547 20.6709 65.2718 20.7136L66.5902 24.1056C66.6073 24.1483 66.6286 24.1611 66.6542 24.144C66.6798 24.1269 66.7054 24.0885 66.731 24.0288C66.9443 23.4656 67.1833 22.7445 67.4478 21.8656C67.7209 20.9867 68.0025 20.0565 68.2926 19.0752C68.3182 18.9984 68.3353 18.9216 68.3438 18.8448C68.3609 18.7595 68.3694 18.6827 68.3694 18.6144C68.3694 18.4864 68.3395 18.3712 68.2798 18.2688C68.2286 18.1664 68.1305 18.0981 67.9854 18.064C67.9001 18.0384 67.8062 18.0043 67.7038 17.9616C67.6099 17.9189 67.563 17.8677 67.563 17.808C67.563 17.7568 67.5971 17.7227 67.6654 17.7056C67.7337 17.68 67.8233 17.6672 67.9342 17.6672C68.1049 17.6672 68.2585 17.6715 68.395 17.68C68.5401 17.68 68.6937 17.68 68.8558 17.68C69.0691 17.68 69.2739 17.6757 69.4702 17.6672C69.6665 17.6501 69.8457 17.6416 70.0078 17.6416C70.1187 17.6416 70.2083 17.6544 70.2766 17.68C70.3449 17.6971 70.379 17.7312 70.379 17.7824C70.379 17.8421 70.3449 17.8933 70.2766 17.936C70.2083 17.9701 70.1017 18.0043 69.9566 18.0384C69.7518 18.0811 69.5769 18.1707 69.4318 18.3072C69.2953 18.4352 69.1843 18.5803 69.099 18.7424C69.0222 18.896 68.9582 19.0368 68.907 19.1648L66.6414 25.8592C66.6329 25.8933 66.6073 25.9488 66.5646 26.0256C66.5219 26.1109 66.4793 26.1536 66.4366 26.1536C66.4025 26.1536 66.3641 26.128 66.3214 26.0768C66.2787 26.0256 66.2446 25.9701 66.219 25.9104C65.9971 25.3984 65.8051 24.9419 65.643 24.5408C65.4809 24.1312 65.323 23.7216 65.1694 23.312C65.0243 22.9024 64.8494 22.4501 64.6446 21.9552C64.619 21.8955 64.5977 21.8741 64.5806 21.8912C64.5635 21.8997 64.5379 21.9467 64.5038 22.032C64.299 22.5184 64.1198 22.9493 63.9662 23.3248C63.8211 23.7003 63.6761 24.0843 63.531 24.4768C63.3859 24.8608 63.2238 25.3045 63.0446 25.808C63.0105 25.8933 62.9678 25.9787 62.9166 26.064C62.8654 26.1579 62.8142 26.2048 62.763 26.2048ZM73.4665 26.064C73.3556 26.064 73.266 26.0469 73.1977 26.0128C73.138 25.9872 73.1081 25.9531 73.1081 25.9104C73.1081 25.8336 73.1465 25.7824 73.2233 25.7568C73.3086 25.7227 73.3641 25.7013 73.3897 25.6928C73.7225 25.6245 73.9785 25.5264 74.1577 25.3984C74.3369 25.2619 74.4265 25.0528 74.4265 24.7712V18.832C74.4265 18.6272 74.4052 18.4779 74.3625 18.384C74.3198 18.2816 74.243 18.2091 74.1321 18.1664C74.0212 18.1152 73.859 18.0725 73.6457 18.0384C73.3641 17.9872 73.2233 17.9019 73.2233 17.7824C73.2233 17.7312 73.2574 17.6971 73.3257 17.68C73.394 17.6544 73.4836 17.6416 73.5945 17.6416C73.8249 17.6416 74.0084 17.6459 74.1449 17.6544C74.29 17.6629 74.4265 17.6715 74.5545 17.68C74.6825 17.68 74.8404 17.68 75.0281 17.68C75.2414 17.68 75.4249 17.68 75.5785 17.68C75.7321 17.6715 75.89 17.6629 76.0521 17.6544C76.2142 17.6459 76.4105 17.6416 76.6409 17.6416C76.7518 17.6416 76.8414 17.6544 76.9097 17.68C76.978 17.6971 77.0121 17.7312 77.0121 17.7824C77.0121 17.8421 76.978 17.8933 76.9097 17.936C76.8414 17.9787 76.7348 18.0128 76.5897 18.0384C76.274 18.0981 76.0052 18.1707 75.7833 18.256C75.5614 18.3328 75.4505 18.4949 75.4505 18.7424V24.7712C75.4505 25.0357 75.5102 25.232 75.6297 25.36C75.7492 25.488 76.018 25.552 76.4361 25.552H78.0233C78.2537 25.552 78.4542 25.5179 78.6249 25.4496C78.8041 25.3728 78.9364 25.296 79.0217 25.2192C79.1924 25.0741 79.3161 24.9461 79.3929 24.8352C79.4782 24.7157 79.5764 24.5408 79.6873 24.3104C79.7044 24.2592 79.7385 24.1824 79.7897 24.08C79.8494 23.9776 79.9092 23.9264 79.9689 23.9264C80.0201 23.9264 80.0585 23.952 80.0841 24.0032C80.1097 24.0544 80.1225 24.1056 80.1225 24.1568C80.1225 24.1653 80.1182 24.1781 80.1097 24.1952C80.1097 24.2037 80.1097 24.2123 80.1097 24.2208C80.05 24.4427 79.9945 24.6432 79.9433 24.8224C79.9006 25.0016 79.8622 25.1723 79.8281 25.3344C79.8025 25.4965 79.7812 25.6672 79.7641 25.8464C79.7556 25.9061 79.7385 25.9573 79.7129 26C79.6958 26.0427 79.6532 26.064 79.5849 26.064C79.1582 26.064 78.7486 26.0597 78.3561 26.0512C77.9636 26.0427 77.5838 26.0341 77.2169 26.0256C76.8585 26.0256 76.5129 26.0213 76.1801 26.0128C75.8473 26.0043 75.5188 26 75.1945 26C74.9812 26 74.738 26.0043 74.4649 26.0128C74.2004 26.0213 73.9657 26.0299 73.7609 26.0384C73.5646 26.0555 73.4665 26.064 73.4665 26.064ZM80.5831 26.064C80.4722 26.064 80.3826 26.0469 80.3143 26.0128C80.246 25.9872 80.2119 25.9488 80.2119 25.8976C80.2119 25.8379 80.246 25.7867 80.3143 25.744C80.3911 25.6928 80.4978 25.6459 80.6343 25.6032C80.8562 25.5349 81.061 25.4325 81.2487 25.296C81.4364 25.1595 81.5986 24.9333 81.7351 24.6176C81.974 24.0715 82.1916 23.5595 82.3879 23.0816C82.5927 22.6037 82.7847 22.1344 82.9639 21.6736C83.1431 21.2128 83.3266 20.7349 83.5143 20.24C83.7106 19.7365 83.9154 19.1904 84.1287 18.6016C84.1714 18.4821 84.2098 18.3627 84.2439 18.2432C84.278 18.1237 84.2994 17.9957 84.3079 17.8592C84.3847 17.8336 84.4615 17.808 84.5383 17.7824C84.6151 17.7568 84.6919 17.7184 84.7687 17.6672C84.8455 17.616 84.8967 17.5392 84.9223 17.4368C84.9564 17.3344 84.9863 17.2661 85.0119 17.232C85.0204 17.2235 85.029 17.2192 85.0375 17.2192C85.0546 17.2192 85.0674 17.2277 85.0759 17.2448C85.093 17.2789 85.1058 17.3216 85.1143 17.3728C85.1314 17.424 85.1484 17.4752 85.1655 17.5264C85.3703 18.1749 85.5836 18.8363 85.8055 19.5104C86.0274 20.1845 86.2407 20.8373 86.4455 21.4688C86.6588 22.0917 86.8508 22.6549 87.0215 23.1584C87.2007 23.6533 87.3415 24.0544 87.4439 24.3616C87.5634 24.7029 87.6914 24.9589 87.8279 25.1296C87.9644 25.3003 88.1052 25.4197 88.2503 25.488C88.4039 25.5563 88.566 25.6075 88.7367 25.6416C88.8818 25.6672 88.9884 25.7099 89.0567 25.7696C89.125 25.8208 89.1591 25.8763 89.1591 25.936C89.1591 25.9872 89.125 26.0213 89.0567 26.0384C88.9884 26.0555 88.8988 26.064 88.7879 26.064C88.6684 26.064 88.5063 26.0555 88.3015 26.0384C88.0967 26.0299 87.8791 26.0171 87.6487 26C87.4183 25.9915 87.205 25.9872 87.0087 25.9872C86.8466 25.9872 86.6802 25.9872 86.5095 25.9872C86.3388 25.9872 86.181 25.9915 86.0359 26C85.8908 26 85.7671 26 85.6647 26C85.5538 26 85.4642 25.9872 85.3959 25.9616C85.3276 25.936 85.2935 25.8976 85.2935 25.8464C85.2935 25.7867 85.3362 25.7355 85.4215 25.6928C85.5068 25.6501 85.605 25.6203 85.7159 25.6032C85.9975 25.5605 86.198 25.488 86.3175 25.3856C86.437 25.2832 86.4967 25.1637 86.4967 25.0272C86.4967 24.8992 86.4668 24.7157 86.4071 24.4768C86.3559 24.2293 86.2919 23.9691 86.2151 23.696C86.1383 23.4144 86.0658 23.1669 85.9975 22.9536C85.9804 22.8853 85.9463 22.8469 85.8951 22.8384C85.8524 22.8213 85.7714 22.8128 85.6519 22.8128H83.2327C83.1986 22.8128 83.1602 22.8299 83.1175 22.864C83.0834 22.8896 83.0492 22.9493 83.0151 23.0432C82.9895 23.1285 82.9468 23.2651 82.8871 23.4528C82.8274 23.632 82.7676 23.824 82.7079 24.0288C82.6482 24.2336 82.597 24.4171 82.5543 24.5792C82.5116 24.7413 82.4903 24.8437 82.4903 24.8864C82.4903 25.0741 82.5628 25.232 82.7079 25.36C82.853 25.4795 83.0279 25.5648 83.2327 25.616C83.5143 25.6928 83.6551 25.7781 83.6551 25.872C83.6551 25.9232 83.621 25.9616 83.5527 25.9872C83.4844 26.0043 83.3948 26.0128 83.2839 26.0128C83.173 26.0128 83.0108 26.0085 82.7975 26C82.5842 25.9915 82.358 25.9872 82.1191 25.9872C81.8375 25.9872 81.5644 26 81.2999 26.0256C81.0354 26.0512 80.7964 26.064 80.5831 26.064ZM83.5783 22.3904H85.5623C85.6818 22.3904 85.7415 22.3691 85.7415 22.3264C85.7415 22.3093 85.7372 22.2923 85.7287 22.2752C85.7287 22.2496 85.7244 22.224 85.7159 22.1984L84.7175 19.0752C84.6663 18.9216 84.6279 18.8448 84.6023 18.8448C84.5852 18.8448 84.5511 18.9173 84.4999 19.0624L83.3351 22.1984C83.318 22.2496 83.3095 22.2837 83.3095 22.3008C83.3095 22.3435 83.3308 22.3691 83.3735 22.3776C83.4247 22.3861 83.493 22.3904 83.5783 22.3904ZM97.6504 26.2176C97.5736 26.2176 97.42 26.1536 97.1896 26.0256C96.9677 25.8976 96.7544 25.6928 96.5496 25.4112C96.5155 25.3685 96.4088 25.2405 96.2296 25.0272C96.0589 24.8139 95.8371 24.5493 95.564 24.2336C95.2995 23.9093 95.0093 23.5595 94.6936 23.184C94.3779 22.8085 94.0621 22.4331 93.7464 22.0576C93.4307 21.6821 93.1363 21.3365 92.8632 21.0208C92.5901 20.6965 92.3597 20.4277 92.172 20.2144C91.9928 19.9925 91.8819 19.856 91.8392 19.8048C91.7795 19.728 91.7283 19.6768 91.6856 19.6512C91.6429 19.6171 91.6045 19.6 91.5704 19.6C91.5277 19.6 91.4979 19.6341 91.4808 19.7024C91.4637 19.7621 91.4552 19.8176 91.4552 19.8688C91.4467 20.2869 91.4381 20.7691 91.4296 21.3152C91.4211 21.8613 91.4125 22.4245 91.404 23.0048C91.3955 23.5851 91.3912 24.1397 91.3912 24.6688C91.3912 24.8992 91.4467 25.1125 91.5576 25.3088C91.6771 25.5051 91.8947 25.6331 92.2104 25.6928C92.3555 25.7184 92.4621 25.7483 92.5304 25.7824C92.5987 25.8165 92.6328 25.8635 92.6328 25.9232C92.6328 25.9744 92.5987 26.0085 92.5304 26.0256C92.4621 26.0512 92.3725 26.064 92.2616 26.064C92.0312 26.064 91.8563 26.0555 91.7368 26.0384C91.6259 26.0299 91.5235 26.0213 91.4296 26.0128C91.3443 26.0043 91.2205 26 91.0584 26C90.9048 26 90.7853 26.0043 90.7 26.0128C90.6147 26.0213 90.5165 26.0299 90.4056 26.0384C90.2947 26.0555 90.124 26.064 89.8936 26.064C89.7827 26.064 89.6931 26.0512 89.6248 26.0256C89.5565 26.0085 89.5224 25.9744 89.5224 25.9232C89.5224 25.8635 89.5565 25.8165 89.6248 25.7824C89.6931 25.7483 89.7997 25.7141 89.9448 25.68C90.1923 25.6117 90.3715 25.488 90.4824 25.3088C90.5933 25.1211 90.6616 24.8949 90.6872 24.6304C90.7213 24.3061 90.7555 23.8795 90.7896 23.3504C90.8237 22.8128 90.8536 22.2155 90.8792 21.5584C90.9048 20.8928 90.9176 20.2101 90.9176 19.5104C90.9176 19.0581 90.7981 18.7339 90.5592 18.5376C90.3288 18.3413 90.0259 18.1835 89.6504 18.064C89.6163 18.0469 89.5395 18.0128 89.42 17.9616C89.3091 17.9019 89.2536 17.8336 89.2536 17.7568C89.2536 17.68 89.292 17.6331 89.3688 17.616C89.4456 17.5904 89.5053 17.5776 89.548 17.5776C89.7955 17.5861 89.996 17.5947 90.1496 17.6032C90.3032 17.6032 90.4397 17.6075 90.5592 17.616C90.6787 17.6245 90.8109 17.6331 90.956 17.6416C91.1011 17.6416 91.2888 17.6416 91.5192 17.6416C91.596 17.6416 91.6557 17.6629 91.6984 17.7056C91.7411 17.7483 91.7837 17.7995 91.8264 17.8592C91.8605 17.9104 91.9715 18.0555 92.1592 18.2944C92.3555 18.5248 92.5944 18.8192 92.876 19.1776C93.1661 19.5275 93.4819 19.9115 93.8232 20.3296C94.1645 20.7392 94.5059 21.1531 94.8472 21.5712C95.1885 21.9808 95.5043 22.3648 95.7944 22.7232C96.0845 23.0731 96.3235 23.3632 96.5112 23.5936C96.7075 23.824 96.8227 23.9605 96.8568 24.0032C96.8909 24.0373 96.9379 24.0885 96.9976 24.1568C97.0659 24.2251 97.1256 24.2592 97.1768 24.2592C97.2536 24.2592 97.2963 24.1696 97.3048 23.9904C97.3048 23.8709 97.3048 23.6448 97.3048 23.312C97.3133 22.9707 97.3176 22.5611 97.3176 22.0832C97.3261 21.5968 97.3304 21.072 97.3304 20.5088C97.3304 19.9456 97.3304 19.3696 97.3304 18.7808C97.3219 18.6101 97.2323 18.4565 97.0616 18.32C96.8909 18.1835 96.7331 18.1024 96.588 18.0768C96.4429 18.0512 96.3107 18.0171 96.1912 17.9744C96.0717 17.9317 96.012 17.8805 96.012 17.8208C96.012 17.7696 96.0717 17.7355 96.1912 17.7184C96.3107 17.6928 96.4259 17.68 96.5368 17.68C96.6221 17.68 96.7032 17.68 96.78 17.68C96.8653 17.68 96.9464 17.68 97.0232 17.68C97.1085 17.68 97.1896 17.68 97.2664 17.68C97.4712 17.68 97.6333 17.68 97.7528 17.68C97.8723 17.6715 98.0003 17.6629 98.1368 17.6544C98.2819 17.6459 98.4824 17.6416 98.7384 17.6416C98.8493 17.6416 98.9389 17.6544 99.0072 17.68C99.0755 17.6971 99.1096 17.7312 99.1096 17.7824C99.1096 17.9019 98.9688 17.9872 98.6872 18.0384C98.3715 18.0981 98.1624 18.1749 98.06 18.2688C97.9576 18.3627 97.8979 18.5163 97.8808 18.7296C97.8808 18.7723 97.8765 18.9387 97.868 19.2288C97.868 19.5189 97.868 19.8859 97.868 20.3296C97.868 20.7733 97.8637 21.2512 97.8552 21.7632C97.8552 22.2752 97.8552 22.7872 97.8552 23.2992C97.8552 23.8027 97.8552 24.2549 97.8552 24.656C97.8552 24.8608 97.8595 25.0485 97.868 25.2192C97.8851 25.3813 97.8979 25.5221 97.9064 25.6416C97.9149 25.7525 97.9192 25.8379 97.9192 25.8976C97.9192 26.0341 97.8893 26.1195 97.8296 26.1536C97.7784 26.1963 97.7187 26.2176 97.6504 26.2176ZM103.986 26.0896C103.901 26.0896 103.709 26.0811 103.41 26.064C103.12 26.0469 102.783 26.0299 102.399 26.0128C102.024 26.0043 101.665 26 101.324 26C101.153 26 101.008 26.0043 100.889 26.0128C100.778 26.0213 100.654 26.0299 100.518 26.0384C100.39 26.0555 100.21 26.064 99.9799 26.064C99.869 26.064 99.7794 26.0512 99.7111 26.0256C99.6428 26 99.6087 25.9573 99.6087 25.8976C99.6087 25.8293 99.6428 25.7867 99.7111 25.7696C99.7794 25.744 99.886 25.7184 100.031 25.6928C100.355 25.6331 100.577 25.5349 100.697 25.3984C100.825 25.2619 100.889 25.04 100.889 24.7328V18.9728C100.889 18.6656 100.825 18.448 100.697 18.32C100.577 18.192 100.355 18.0981 100.031 18.0384C99.886 18.0128 99.7794 17.9872 99.7111 17.9616C99.6428 17.9275 99.6087 17.8763 99.6087 17.808C99.6087 17.7483 99.6428 17.7056 99.7111 17.68C99.7794 17.6544 99.869 17.6416 99.9799 17.6416C100.202 17.6416 100.377 17.6459 100.505 17.6544C100.641 17.6544 100.774 17.6587 100.902 17.6672C101.03 17.6672 101.196 17.6672 101.401 17.6672C101.537 17.6672 101.708 17.6629 101.913 17.6544C102.126 17.6459 102.344 17.6331 102.566 17.616C102.796 17.5989 103.001 17.5861 103.18 17.5776C103.368 17.5691 103.504 17.5648 103.59 17.5648C104.46 17.5648 105.202 17.6715 105.817 17.8848C106.431 18.0896 106.93 18.3797 107.314 18.7552C107.698 19.1221 107.98 19.5531 108.159 20.048C108.347 20.5344 108.441 21.0592 108.441 21.6224C108.441 22.2368 108.326 22.8128 108.095 23.3504C107.865 23.888 107.545 24.3659 107.135 24.784C106.726 25.1936 106.252 25.5136 105.714 25.744C105.177 25.9744 104.601 26.0896 103.986 26.0896ZM103.833 25.6416C104.498 25.6416 105.087 25.4795 105.599 25.1552C106.111 24.8309 106.508 24.3829 106.79 23.8112C107.08 23.2395 107.225 22.5824 107.225 21.84C107.225 21.2256 107.122 20.6795 106.918 20.2016C106.713 19.7152 106.44 19.3099 106.098 18.9856C105.757 18.6528 105.373 18.4011 104.946 18.2304C104.52 18.0512 104.089 17.9616 103.654 17.9616C103.287 17.9616 102.971 17.9744 102.706 18C102.45 18.0171 102.254 18.0811 102.118 18.192C101.981 18.3029 101.913 18.4864 101.913 18.7424V24.4512C101.913 24.7925 102.007 25.0485 102.194 25.2192C102.382 25.3899 102.621 25.5051 102.911 25.5648C103.21 25.616 103.517 25.6416 103.833 25.6416Z" fill="white"/>
</svg>
