<svg width="82" height="26" fill="none" xmlns="http://www.w3.org/2000/svg"><g fill="#fff"><path fill-rule="evenodd" clip-rule="evenodd" d="M17.224 12.652v.738c.001.82.002 1.636-.045 2.457-.054 1.105-.304 2.083-1.113 2.893-.808.807-1.788 1.06-2.892 1.113-.835.047-1.665.046-2.5.045h-.696c-.833 0-1.663.002-2.499-.045-1.104-.054-2.083-.304-2.892-1.114-.808-.807-1.06-1.787-1.113-2.892-.047-.835-.046-1.665-.045-2.5v-.695c-.001-.833-.002-1.663.045-2.5.053-1.104.304-2.082 1.113-2.892.807-.807 1.788-1.06 2.892-1.113a43.494 43.494 0 0 1 2.499-.045h.696c.834 0 1.663-.002 2.5.045 1.104.054 2.082.304 2.892 1.113.807.808 1.06 1.788 1.113 2.893.047.834.046 1.664.045 2.498zM6.785 13a3.535 3.535 0 0 0 3.54 3.54A3.535 3.535 0 0 0 13.864 13a3.534 3.534 0 0 0-3.54-3.539 3.534 3.534 0 0 0-3.539 3.54zm7.224-2.858a.826.826 0 1 1 0-1.653.826.826 0 1 1 0 1.653zM8.024 13c0-1.266 1.034-2.3 2.3-2.3a2.306 2.306 0 0 1 2.301 2.3c0 1.267-1.034 2.3-2.3 2.3a2.305 2.305 0 0 1-2.3-2.3z"/><path d="M21.838 15.296a.529.529 0 0 1-.235-.045c-.06-.022-.09-.056-.09-.1 0-.053.03-.098.09-.135a1.08 1.08 0 0 1 .28-.123c.195-.06.374-.15.538-.27.165-.12.307-.317.426-.594.21-.478.4-.926.572-1.345.18-.418.347-.83.504-1.233.157-.403.318-.822.482-1.255.172-.441.351-.92.538-1.435.038-.105.071-.21.101-.314.03-.104.049-.216.056-.336l.202-.067a.848.848 0 0 0 .202-.101.326.326 0 0 0 .134-.202c.03-.09.056-.15.079-.18a.032.032 0 0 1 .022-.01c.015 0 .026.007.034.022.015.03.026.067.034.112l.044.135c.18.567.367 1.147.56 1.737.195.59.382 1.162.561 1.715l.505 1.48c.157.433.28.784.37 1.053.104.3.216.523.336.673.12.15.243.254.37.314.134.06.276.104.426.134.127.023.22.06.28.112.06.045.09.094.09.146 0 .045-.03.075-.09.09a1 1 0 0 1-.236.022 5.39 5.39 0 0 1-.425-.022 17.97 17.97 0 0 1-.572-.034 15.157 15.157 0 0 0-.56-.011h-.438c-.15 0-.287.004-.415.011h-.325a.684.684 0 0 1-.235-.034c-.06-.022-.09-.056-.09-.1 0-.053.038-.098.113-.135a.87.87 0 0 1 .257-.079c.247-.037.423-.1.527-.19a.403.403 0 0 0 .157-.314c0-.112-.026-.273-.078-.482a9.7 9.7 0 0 0-.169-.684 15.48 15.48 0 0 0-.19-.65c-.015-.06-.045-.093-.09-.1a.667.667 0 0 0-.213-.023H24.16c-.03 0-.064.015-.101.045-.03.022-.06.075-.09.157-.022.074-.06.194-.112.358a19.226 19.226 0 0 0-.292.986 1.51 1.51 0 0 0-.055.27c0 .164.063.302.19.415.127.104.28.179.46.224.246.067.37.142.37.224 0 .045-.03.078-.09.1a.944.944 0 0 1-.235.023c-.098 0-.24-.003-.426-.011a14.845 14.845 0 0 0-.595-.011c-.246 0-.485.011-.717.033a6.39 6.39 0 0 1-.628.034zm2.623-3.217H26.2c.104 0 .157-.019.157-.056a.1.1 0 0 0-.012-.045.21.21 0 0 0-.01-.067l-.875-2.735c-.045-.135-.078-.202-.1-.202-.016 0-.046.064-.09.19l-1.02 2.747a.364.364 0 0 0-.023.09c0 .037.019.06.056.067.045.007.105.011.18.011zM37.3 15.475a2.98 2.98 0 0 1-.594-.056 1.51 1.51 0 0 1-.515-.179 1.674 1.674 0 0 1-.438-.37 88.57 88.57 0 0 0-.515-.639c-.165-.21-.34-.448-.527-.717-.18-.27-.4-.613-.661-1.031a1.141 1.141 0 0 0-.482-.438 1.837 1.837 0 0 0-.494-.168 2.545 2.545 0 0 0-.392-.067c-.06-.008-.104.011-.134.056a.375.375 0 0 0-.034.168v1.973c0 .24.056.448.168.628.112.172.306.284.583.336.127.022.22.049.28.078.06.03.09.071.09.124 0 .045-.03.075-.09.09a.684.684 0 0 1-.235.033 3.76 3.76 0 0 1-.47-.022 5.087 5.087 0 0 0-.292-.034 1.969 1.969 0 0 0-.337-.022c-.187 0-.355.007-.504.022a9.405 9.405 0 0 0-.437.034 5.018 5.018 0 0 1-.516.022.683.683 0 0 1-.235-.034c-.06-.014-.09-.044-.09-.09 0-.089.123-.156.37-.201.284-.052.49-.138.617-.258.134-.12.201-.317.201-.594V9.344c0-.284-.015-.497-.045-.639-.022-.15-.082-.254-.179-.314-.09-.06-.243-.1-.46-.123a.702.702 0 0 1-.28-.079c-.06-.044-.09-.093-.09-.145 0-.045.03-.075.09-.09a.683.683 0 0 1 .236-.034h.448c.105 0 .202.004.292.012h.358c.142 0 .27-.004.381-.012a4.85 4.85 0 0 1 .37-.033c.142-.008.322-.011.538-.011.822 0 1.446.153 1.872.46.434.306.65.765.65 1.378a1.8 1.8 0 0 1-.201.874c-.135.24-.303.441-.505.606a3.353 3.353 0 0 1-.616.403c-.03.008-.045.026-.045.056a.486.486 0 0 0 .045.09l.66.997a10.448 10.448 0 0 0 1.614 1.85c.195.172.393.276.595.314.202.037.434.056.695.056.112 0 .168.04.168.123 0 .112-.056.194-.168.247-.112.06-.239.097-.381.112a2.368 2.368 0 0 1-.359.033zm-4.192-3.923a1.615 1.615 0 0 0 1.468-.852 1.63 1.63 0 0 0 .213-.807c0-.306-.04-.586-.123-.84a1.046 1.046 0 0 0-.47-.606c-.232-.157-.584-.235-1.054-.235-.24 0-.396.078-.471.235-.075.15-.12.419-.135.807a48.2 48.2 0 0 0-.022.763v1.143c0 .187.052.299.157.336.105.037.25.056.437.056zm10.467 3.856a4.334 4.334 0 0 1-2.813-1.031 3.775 3.775 0 0 1-.908-1.2 3.682 3.682 0 0 1-.325-1.558c0-.545.116-1.05.347-1.513a3.83 3.83 0 0 1 .953-1.21 4.436 4.436 0 0 1 1.379-.796 4.694 4.694 0 0 1 1.648-.292c.291 0 .538.012.74.034.201.022.395.056.582.1.195.038.419.09.673.158.112.03.19.074.235.134.053.06.082.142.09.247.015.172.034.359.056.56.022.195.037.437.045.729.007.052-.019.097-.079.134a.243.243 0 0 1-.179.023c-.06-.015-.1-.064-.123-.146a4.1 4.1 0 0 0-.258-.728 1.268 1.268 0 0 0-.437-.516 1.96 1.96 0 0 0-.684-.28 3.414 3.414 0 0 0-.852-.101c-.433 0-.837.09-1.21.269a2.89 2.89 0 0 0-.953.717 3.444 3.444 0 0 0-.617 1.02c-.15.381-.224.777-.224 1.188 0 .456.071.905.213 1.345.15.441.359.841.628 1.2.276.351.601.635.975.852a2.59 2.59 0 0 0 1.267.314c.538 0 .982-.124 1.333-.37.352-.247.65-.59.897-1.032.052-.097.127-.145.224-.145.105 0 .157.06.157.18 0 .059-.015.156-.045.29-.03.128-.07.266-.123.415-.045.142-.09.27-.134.381a.651.651 0 0 1-.135.202.634.634 0 0 1-.224.101 4.14 4.14 0 0 1-.998.247 8.24 8.24 0 0 1-1.12.078zm4.561-.112a.529.529 0 0 1-.235-.045c-.06-.022-.09-.056-.09-.1 0-.053.03-.098.09-.135a1.08 1.08 0 0 1 .28-.123c.194-.06.374-.15.538-.27.164-.12.306-.317.426-.594.21-.478.4-.926.572-1.345.179-.418.347-.83.504-1.233.157-.403.318-.822.482-1.255.172-.441.351-.92.538-1.435.038-.105.071-.21.101-.314.03-.104.049-.216.056-.336l.202-.067a.849.849 0 0 0 .202-.101.326.326 0 0 0 .134-.202c.03-.09.056-.15.079-.18a.03.03 0 0 1 .022-.01c.015 0 .026.007.034.022.015.03.026.067.033.112l.045.135c.18.567.366 1.147.56 1.737.195.59.382 1.162.561 1.715.187.546.355 1.039.504 1.48.157.433.28.784.37 1.053.105.3.217.523.337.673.12.15.242.254.37.314.134.06.276.104.425.134.128.023.22.06.28.112.06.045.09.094.09.146 0 .045-.03.075-.09.09a1 1 0 0 1-.235.022c-.104 0-.246-.007-.426-.022-.179-.008-.37-.02-.571-.034a15.157 15.157 0 0 0-.56-.011h-.438c-.15 0-.288.004-.415.011h-.325a.683.683 0 0 1-.235-.034c-.06-.022-.09-.056-.09-.1 0-.053.038-.098.112-.135a.869.869 0 0 1 .258-.079c.247-.037.422-.1.527-.19a.403.403 0 0 0 .157-.314c0-.112-.026-.273-.079-.482a9.152 9.152 0 0 0-.168-.684 15.68 15.68 0 0 0-.19-.65c-.015-.06-.045-.093-.09-.1a.667.667 0 0 0-.213-.023h-2.118c-.03 0-.064.015-.101.045-.03.022-.06.075-.09.157l-.112.358a19.226 19.226 0 0 0-.291.986 1.51 1.51 0 0 0-.057.27c0 .164.064.302.19.415.128.104.281.179.46.224.247.067.37.142.37.224 0 .045-.03.078-.09.1a.944.944 0 0 1-.235.023 10.4 10.4 0 0 1-.426-.011 14.848 14.848 0 0 0-.594-.011c-.246 0-.485.011-.717.033a6.405 6.405 0 0 1-.628.034zm2.623-3.217h1.738c.104 0 .157-.019.157-.056a.1.1 0 0 0-.012-.045.21.21 0 0 0-.01-.067l-.875-2.735c-.045-.135-.079-.202-.101-.202-.015 0-.045.064-.09.19l-1.02 2.747a.364.364 0 0 0-.022.09c0 .037.018.06.056.067.045.007.104.011.18.011zm9.856 3.24c-.074 0-.242-.008-.504-.023a62.71 62.71 0 0 0-.886-.045 41.353 41.353 0 0 0-.941-.011c-.15 0-.277.004-.381.011-.097.008-.206.015-.325.023a3.8 3.8 0 0 1-.471.022.684.684 0 0 1-.235-.034c-.06-.022-.09-.06-.09-.112 0-.06.03-.097.09-.112.06-.022.153-.045.28-.067.284-.052.478-.138.583-.258.112-.12.168-.314.168-.583V9.086c0-.269-.056-.46-.168-.572-.105-.112-.3-.194-.583-.246a1.717 1.717 0 0 1-.28-.067c-.06-.03-.09-.075-.09-.135 0-.052.03-.09.09-.112a.683.683 0 0 1 .235-.034c.194 0 .347.004.46.012.12 0 .235.003.347.01h.437a15.553 15.553 0 0 0 1.02-.045c.202-.014.381-.025.538-.033.165-.007.284-.01.359-.01.762 0 1.412.093 1.95.28.538.179.976.433 1.312.762.336.32.583.698.74 1.132.164.426.246.885.246 1.378a3.8 3.8 0 0 1-.302 1.514 4.07 4.07 0 0 1-.841 1.255 3.935 3.935 0 0 1-1.244.84 3.8 3.8 0 0 1-1.514.303zm-.134-.393c.583 0 1.098-.142 1.547-.426a2.85 2.85 0 0 0 1.042-1.177c.254-.5.381-1.076.381-1.726 0-.538-.09-1.016-.269-1.435a3.11 3.11 0 0 0-.717-1.065 3.066 3.066 0 0 0-1.009-.661 2.9 2.9 0 0 0-1.132-.235c-.321 0-.598.01-.83.033-.224.015-.396.071-.515.168-.12.098-.18.258-.18.482v5c0 .299.083.523.247.672.165.15.374.25.628.303.261.045.53.067.807.067zm5.827.37a.684.684 0 0 1-.236-.034c-.06-.014-.09-.044-.09-.09 0-.089.124-.156.37-.201.285-.052.501-.138.65-.258.15-.12.225-.31.225-.571V9.075c0-.262-.056-.448-.168-.56-.105-.113-.3-.195-.583-.247-.247-.045-.37-.12-.37-.224 0-.045.03-.075.09-.09a.684.684 0 0 1 .235-.034c.202 0 .366.004.493.012l.381.022h.841l.336-.022c.12-.008.28-.012.482-.012.098 0 .176.012.236.034.06.015.09.045.09.09 0 .052-.03.097-.09.134a.819.819 0 0 1-.28.09c-.277.052-.479.134-.606.246-.127.113-.19.3-.19.56v5.068c0 .261.078.452.235.571.157.12.374.206.65.258.127.022.22.049.28.078.06.03.09.071.09.124 0 .045-.03.075-.09.09a.683.683 0 0 1-.235.033c-.202 0-.37-.007-.504-.022l-.37-.023a9.485 9.485 0 0 0-.93 0 76.96 76.96 0 0 1-.427.023 5.016 5.016 0 0 1-.515.022zm4.436 0a.529.529 0 0 1-.235-.045c-.06-.022-.09-.056-.09-.1 0-.053.03-.098.09-.135a1.08 1.08 0 0 1 .28-.123c.194-.06.374-.15.538-.27.164-.12.306-.317.426-.594.21-.478.4-.926.572-1.345.179-.418.347-.83.504-1.233.157-.403.317-.822.482-1.255.172-.441.351-.92.538-1.435.037-.105.071-.21.1-.314.03-.104.05-.216.057-.336l.202-.067a.848.848 0 0 0 .201-.101.326.326 0 0 0 .135-.202c.03-.09.056-.15.078-.18.008-.007.015-.01.023-.01.015 0 .026.007.033.022a.38.38 0 0 1 .034.112l.045.135c.18.567.366 1.147.56 1.737.195.59.382 1.162.56 1.715.188.546.356 1.039.505 1.48.157.433.28.784.37 1.053.105.3.217.523.336.673.12.15.243.254.37.314.135.06.277.104.426.134.127.023.22.06.28.112.06.045.09.094.09.146 0 .045-.03.075-.09.09a1 1 0 0 1-.235.022 5.39 5.39 0 0 1-.426-.022c-.18-.008-.37-.02-.572-.034a15.157 15.157 0 0 0-.56-.011h-.437c-.15 0-.288.004-.415.011h-.325a.684.684 0 0 1-.235-.034c-.06-.022-.09-.056-.09-.1 0-.053.037-.098.112-.135a.87.87 0 0 1 .258-.079c.246-.037.422-.1.527-.19a.403.403 0 0 0 .157-.314c0-.112-.026-.273-.079-.482a15.824 15.824 0 0 0-.359-1.334c-.014-.06-.044-.093-.09-.1a.667.667 0 0 0-.212-.023h-2.119c-.03 0-.063.015-.1.045-.03.022-.06.075-.09.157l-.112.358a19.226 19.226 0 0 0-.291.986 1.51 1.51 0 0 0-.057.27c0 .164.064.302.19.415.128.104.281.179.46.224.247.067.37.142.37.224 0 .045-.03.078-.09.1a.944.944 0 0 1-.235.023 10.4 10.4 0 0 1-.426-.011 14.845 14.845 0 0 0-.594-.011c-.246 0-.486.011-.717.033a6.405 6.405 0 0 1-.628.034zm2.623-3.217h1.737c.105 0 .157-.019.157-.056a.1.1 0 0 0-.01-.045.21.21 0 0 0-.012-.067l-.874-2.735c-.045-.135-.079-.202-.101-.202-.015 0-.045.064-.09.19l-1.02 2.747a.369.369 0 0 0-.022.09c0 .037.018.06.056.067.044.007.104.011.179.011z"/></g></svg>