<svg width="45" height="26" fill="none" xmlns="http://www.w3.org/2000/svg"><path fill-rule="evenodd" clip-rule="evenodd" d="M18.401 6.505a359.226 359.226 0 0 0-.865 1.95c-.1.227-.202.454-.303.68v.001h-.001v.001c-.26.579-.52 1.157-.751 1.745-.167.423-.064.741.259.924.094.053.206.095.337.125.164.036.338.043.507.048.146.003.294.002.454.001h.262l-.09.227-.001.001a9.726 9.726 0 0 1-.118.291c-.112.265-.226.529-.34.793a46.915 46.915 0 0 0-.667 1.59c-.168.43 0 .776.408.936l.082.029c.16.05.333.067.502.067.24.003.479 0 .718-.001.415-.004.83-.008 1.242.014.37.019.56-.09.689-.442.124-.345.277-.678.437-1.025.07-.151.14-.305.21-.463h-1.14c-.138-.002-.235-.015-.295-.049-.103-.06-.092-.183.008-.41.17-.389.345-.777.519-1.166l.302-.675.475-1.068.367-.827h-.002V9.8l-.137-.008a3.053 3.053 0 0 0-.2-.009H19.79a.736.736 0 0 1-.246-.034c-.152-.058-.167-.194-.061-.433.08-.18.162-.36.244-.54.11-.24.22-.48.323-.722a118.915 118.915 0 0 0 .457-1.094l.188-.455h10.08l-.01.195v.001a5.077 5.077 0 0 0-.01.436c.01.225-.075.297-.3.29-.285-.012-.573-.01-.87-.007l-.387.002v.445c-.001.582-.002 1.143.01 1.702 0 .021.018.048.046.075.045.047.12.092.17.095.35.017.703.017 1.056.005.117-.004.194.02.239.078a.328.328 0 0 1 .043.193 80.449 80.449 0 0 0 0 1.538c.003.227-.103.287-.316.282-.33-.006-.66-.005-.99-.005-.263 0-.526.002-.79-.002-.188-.002-.277.046-.274.249.007.613.004 1.226 0 1.84 0 .1.022.165.074.201.04.032.102.045.186.044.245-.004.49-.003.735-.001.34.002.678.004 1.016-.009.128-.005.215.01.272.053.07.057.094.158.092.315-.01 1.24-.008 2.482-.006 3.723v.004l.001.527c0 .08.007.161.014.241.004.045.008.09.01.133h.007v.007h2.268v-4.692c-.002-.151-.003-.294.23-.294.398.002.797 0 1.195 0 .709-.002 1.416-.004 2.124.01.233.004.417.068.549.183.164.146.247.373.25.665a78.85 78.85 0 0 1 0 1.538c-.005.493-.147.63-.628.633h-1.724c.069.156.135.31.201.462v.002a69 69 0 0 0 .618 1.397.097.097 0 0 0 .026.032.381.381 0 0 0 .23.078c.511.01 1.026.012 1.538-.002 1.195-.037 2.03-.9 2.03-2.091v-2.897c0-.802-.286-1.43-.81-1.83-.316-.245-.72-.406-1.201-.47-.163-.022-.328-.038-.499-.055a39.942 39.942 0 0 1-.22-.021c0-.182 0-.361.002-.54.002-.39.005-.776-.005-1.162-.022-.817-.254-1.508-.812-1.997a2.584 2.584 0 0 0-.704-.435c-.49-.21-1.004-.264-1.533-.256-.455.006-.683.006-.79-.11-.099-.117-.086-.347-.06-.792h.007l-.007-.005v.005h-.008v-.008l6.821-.003h-6.82v.003l-3.853.002V6.5l-25.05.005H18.4zm5.443 10.076a992.358 992.358 0 0 1 0-6.547c0-.12-.019-.2-.073-.244-.045-.037-.114-.05-.216-.046-.273.012-.546.01-.826.007a39.886 39.886 0 0 0-.36-.002l-.002-.002h-.003V7.446h5.306V9.73h-1.422l-.01.143c-.005.067-.01.126-.01.185l.001 1.442c0 1.682.002 3.363-.008 5.045 0 .191.044.283.159.319a.615.615 0 0 0 .184.017 29.21 29.21 0 0 1 1.658.002.385.385 0 0 1 .218.112c.017.019.028.037.029.052.014.566.013 1.131.012 1.711v.392h-7.798l.001-.002h-.004l.078-.189c.048-.116.094-.228.144-.34a49.9 49.9 0 0 1 .219-.473v-.001c.147-.315.295-.63.428-.95.1-.237.227-.338.493-.326.295.014.591.011.887.009.208-.002.415-.004.622 0 .22.005.294-.072.294-.297zM8.306 19.173a26.829 26.829 0 0 0 1.115-.003 1.767 1.767 0 0 0 .666-.151c.449-.2.794-.59.932-1.095a3.58 3.58 0 0 0 .126-.92c.005-2.163.004-4.324.003-6.486l-.001-2.594V6.709H8.87v.001h-.004v.397c-.007 3.13-.014 6.261-.024 9.39 0 .102 0 .201-.005.302-.02.3-.131.428-.407.449a74.882 74.882 0 0 1-.754.003H7.25l.174.39v.002c.225.504.435.976.654 1.443.027.053.15.084.227.087zm5.592-1.939a8.359 8.359 0 0 1-.8-3.069c-.077-1.05-.158-2.1-.24-3.15l-.076-.995c-.003-.044-.002-.089-.001-.138l.001-.084h2.281l.06.744c.044.527.086 1.049.126 1.571l.095 1.292.096 1.292c.004.06.014.123.04.176.215.422.073.794-.118 1.185-.219.445-.418.898-.63 1.379-.096.219-.195.444-.3.676v-.002l-.001.002a11.756 11.756 0 0 0-.185-.291 5.574 5.574 0 0 1-.348-.588zm-6.767-6.46l.074-.971H4.913l-.083 1.095c-.058.768-.115 1.53-.182 2.29a35.97 35.97 0 0 1-.124 1.134c-.034.278-.067.556-.096.834-.017.166-.007.343.024.507.016.09.059.175.101.26.017.033.034.066.049.1l.838 1.854.087.19v.003l.002-.004-.002.003.003-.002.004-.007c.307-.385.528-.787.702-1.2a8.873 8.873 0 0 0 .372-1.095c.208-.774.265-1.57.322-2.365l.005-.062.019-.252.177-2.312zm9.572 6.036c.021-.051.135-.1.19-.085.663.17 1.334.155 2.004.14.322-.006.643-.013.964 0 .102.003.204.003.324.001h.223l-.027.058-.148.327a98.549 98.549 0 0 1-.809 1.758l-.022.047c-.03.062-.16.11-.244.11-.934.008-1.866.013-2.8-.002a1.868 1.868 0 0 1-.439-.077 5.134 5.134 0 0 0-.24-.058l.023-.05.039-.085v-.002c.308-.675.6-1.316.9-1.95l.062-.132zm3.704.056l.002-.003v.002h-.002zm17.885-7.157c.1.001.201.003.3-.002h.001c.679-.034 1.13-.526 1.11-1.205A1.12 1.12 0 0 0 38.6 7.413h-.063c-.645.017-1.099.464-1.127 1.125a9.62 9.62 0 0 0-.002.34v.112c0 .48.245.719.734.717.05 0 .1 0 .15.002zm-5.22.04v2.081H34.7v-.002c0-.16.001-.319.003-.476.003-.428.007-.846-.018-1.262-.007-.121-.195-.314-.313-.326-.307-.028-.617-.023-.931-.018-.122.001-.245.003-.368.003z" fill="#fff" /></svg>